<?xml version="1.0" encoding="UTF-8"?>
<svg width="180px" height="180px" viewBox="0 0 180 180" version="1.1" xmlns="http://www.w3.org/2000/svg" xmlns:xlink="http://www.w3.org/1999/xlink">
    <title>Logo</title>
    <g id="Page-1" stroke="none" stroke-width="1" fill="none" fill-rule="evenodd">
        <g id="Logo">
            <rect id="Background" fill="#6100FF" x="0" y="0" width="180" height="180"></rect>
            <path d="M17,78 L17,99.7498439 L27.6508989,99.7498439 C29.7415156,99.7498439 31.3210351,99.3284037 32.5289329,98.4495511 C33.9691974,97.3597277 34.8515434,95.5662898 34.8515434,93.0702578 C34.8515434,90.3866644 33.5743796,88.3591596 31.3792115,87.620827 L31.3792115,87.5395576 C33.0749822,86.7427097 33.8882939,85.4998835 33.8882939,83.5663189 C33.8882939,81.8554101 33.2380999,80.3676187 32.0302077,79.3715417 C30.950063,78.4926492 29.4278612,78 27.453394,78 L17,78 Z M36.2351794,78 L36.2351794,99.7498439 L41.7167555,99.7498439 L41.7167555,78 L36.2351794,78 Z M102.840556,78 L102.840556,99.7498439 L107.927122,99.7498439 L107.927122,97.1370149 L107.985604,97.1370149 C108.91476,98.9533836 110.610333,99.7498439 112.24795,99.7498439 C116.196879,99.7498439 118.601195,96.7621601 118.601195,92.1918897 C118.601195,88.2309856 116.393988,84.7497179 112.584478,84.7497179 C110.633213,84.7497179 109.275219,85.4649544 108.264758,86.8125963 L108.183109,86.8125963 L108.183109,78 L102.840556,78 Z M22.7618375,82.6523321 L26.4084953,82.6523321 C27.5351167,82.6523321 28.4056105,83.2388418 28.4056105,84.4224231 C28.4056105,85.6411843 27.558211,86.2504025 26.4316687,86.2504025 L22.7618375,86.2504025 L22.7618375,82.6523321 Z M51.0943604,84.7497179 C46.2859709,84.7497179 43.1842496,88.0316197 43.1842496,92.2620271 C43.1842496,96.5041763 46.2859709,99.7498439 51.0943604,99.7498439 C55.891135,99.7498439 58.9448882,96.5041763 58.9448882,92.2620271 C58.9448882,88.0316197 55.891135,84.7497179 51.0943604,84.7497179 L51.0943604,84.7497179 Z M67.872318,84.7497179 C63.0639228,84.7497179 59.9633087,88.0316197 59.9633087,92.2620271 C59.9633087,96.5041763 63.0639228,99.7498439 67.872318,99.7498439 C72.6690925,99.7498439 75.723953,96.5041763 75.723953,92.2620271 C75.723953,88.0316197 72.6690925,84.7497179 67.872318,84.7497179 Z M77.1925487,84.7497179 L77.1925487,99.7498439 L82.5351014,99.7498439 L82.5351014,91.992615 C82.5351014,90.4574858 83.2092597,89.2851618 84.5333182,89.2851561 C85.8921821,89.2851561 86.368231,90.2456086 86.368231,91.6987161 L86.368231,99.7498439 L91.7107837,99.7498439 L91.7107837,91.992615 C91.7107837,90.4574858 92.384394,89.2851618 93.7200336,89.2851561 C95.0673559,89.2851561 95.554952,90.2456086 95.554952,91.6987161 L95.554952,99.7498439 L100.886472,99.7498439 L100.886472,90.7969727 C100.886472,87.375155 99.3649138,84.7497179 95.8341061,84.7497179 C93.9641903,84.7497179 92.3609664,85.3824083 91.1182746,87.4683087 L91.0366197,87.4683087 C90.2933254,85.7222428 88.8539648,84.7497179 86.937578,84.7497179 C84.7656849,84.7497179 83.3828342,85.7229496 82.3607642,87.6330761 L82.279115,87.6330761 L82.279115,84.7497179 L77.1925487,84.7497179 Z M127.296913,84.7497179 C122.755667,84.7497179 119.619615,88.089947 119.619615,92.378921 C119.619615,96.5390199 122.778903,99.7498439 127.494418,99.7498439 C131.315526,99.7498439 133.998245,98.0501639 134.892562,94.5932006 L129.758547,94.5932006 C129.421776,95.6596202 128.597945,95.9413669 127.66875,95.9413669 C126.054374,95.9413669 125.124308,95.2152663 124.92686,93.7504626 L135.125375,93.7504626 C135.18345,90.6333225 134.393232,88.4527863 132.639466,86.7535965 C131.315351,85.4645497 129.561754,84.7497179 127.296913,84.7497179 Z M136.595078,84.7497179 L136.595078,99.7498439 L141.93763,99.7498439 L141.93763,93.5389446 C141.93763,90.1874011 143.772724,88.7109468 147.013164,89.2851561 L147.129019,89.2851561 L147.129019,84.7497179 C146.989668,84.808313 146.67607,84.7497179 146.223144,84.7497179 C144.306757,84.7497179 142.866668,85.559003 141.763293,87.8089697 L141.681644,87.8089697 L141.681644,84.7497179 L136.595078,84.7497179 Z M153.742663,84.7497179 C150.211855,84.7497179 147.866077,88.1717236 147.866077,92.2497837 C147.866077,96.7614362 150.723353,99.164269 153.998649,99.164269 C155.659502,99.164269 156.786428,98.4495967 157.634274,97.3362839 L157.75013,97.3362839 L157.75013,98.6132013 C157.75013,100.171712 157.157445,101.214898 155.438552,101.214898 C154.160925,101.214898 153.487727,100.640319 153.290279,100.019256 L148.145231,100.019256 C148.656266,103.382507 151.478353,105 155.520207,105 C157.668893,105 159.561812,104.519771 160.885927,103.324533 C162.1519,102.187822 163,100.276755 163,97.9096154 L163,84.7497179 L157.924461,84.7497179 L157.924461,87.011871 L157.831779,87.011871 C157.018733,85.5822073 155.775188,84.7497179 153.742663,84.7497179 L153.742663,84.7497179 Z M127.412769,88.4067937 C128.713614,88.4067937 129.758847,89.2033624 129.840196,90.7502163 L124.903687,90.7502163 C125.101135,89.2736708 125.949359,88.4067937 127.412769,88.4067937 Z M155.520207,88.4067937 C157.076548,88.4067937 157.981841,89.9183766 157.981841,91.793346 C157.981841,93.7737525 157.076548,95.2500301 155.520207,95.2500301 C154.02193,95.2500301 153.057466,93.7972361 153.057466,91.793346 C153.057466,89.742597 154.02193,88.4067937 155.520207,88.4067937 Z M51.035879,88.5114385 C52.6735749,88.5114385 53.5217879,89.96519 53.5217879,92.2620271 C53.5217879,94.5823194 52.6735749,96.0237477 51.035879,96.0237477 C49.3982508,96.0237477 48.6084515,94.5823194 48.6084515,92.2620271 C48.6084515,89.96519 49.3982508,88.5114385 51.035879,88.5114385 L51.035879,88.5114385 Z M67.8138365,88.5114385 C69.4515325,88.5114385 70.2997455,89.96519 70.2997455,92.2620271 C70.2997455,94.5823194 69.4515325,96.0237477 67.8138365,96.0237477 C66.1762084,96.0237477 65.386409,94.5823194 65.386409,92.2620271 C65.386409,89.96519 66.1762084,88.5114385 67.8138365,88.5114385 L67.8138365,88.5114385 Z M110.669018,88.7107131 C112.271835,88.7107131 113.176993,90.1522783 113.176993,92.402302 C113.176993,94.640544 112.306635,96.0816361 110.669018,96.0816361 C109.031356,96.0816361 107.985604,94.6170604 107.985604,92.402302 C107.985604,90.1522783 109.031356,88.7107131 110.669018,88.7107131 Z M22.7618375,90.0700114 L26.9425342,90.0700114 C28.1504263,90.0700114 29.1956301,90.890172 29.1956301,92.5659465 C29.1956301,94.1714241 28.2432724,95.0507554 26.9657019,95.0507554 L22.7618375,95.0507554 L22.7618375,90.0700114 Z" id="path4369" fill="#FFFFFF" fill-rule="nonzero"></path>
        </g>
    </g>
</svg>