<svg width="600" height="300" viewBox="0 0 600 300" fill="none" xmlns="http://www.w3.org/2000/svg">
<mask id="mask0_3127_43096" style="mask-type:alpha" maskUnits="userSpaceOnUse" x="70" y="46" width="460" height="248">
<rect x="70" y="46.8549" width="460" height="246.299" rx="123.15" fill="#365996"/>
</mask>
<g mask="url(#mask0_3127_43096)">
<rect x="70" y="46.8549" width="460" height="246.299" rx="123.15" fill="#F0EACF"/>
<path d="M468.653 216.235C468.653 193.464 450.193 175.005 427.422 175.005H161.124V257.466H427.422C450.193 257.466 468.653 239.006 468.653 216.235Z" fill="url(#paint0_linear_3127_43096)"/>
<circle cx="427.371" cy="216.235" r="28.549" fill="#F9F8F2"/>
<path fill-rule="evenodd" clip-rule="evenodd" d="M427.371 204.294C430.78 204.294 433.561 207.043 433.709 210.491L433.715 210.78L433.714 213.581H433.86C435.933 213.581 437.628 215.238 437.746 217.328L437.753 217.562V223.606C437.753 225.805 436.01 227.587 433.86 227.587H420.883C418.733 227.587 416.99 225.805 416.99 223.606V217.562C416.99 215.364 418.733 213.581 420.883 213.581H421.027L421.027 210.78C421.027 207.198 423.867 204.294 427.371 204.294ZM433.86 216.235H420.883C420.166 216.235 419.585 216.829 419.585 217.562V223.606C419.585 224.339 420.166 224.933 420.883 224.933H433.86C434.576 224.933 435.157 224.339 435.157 223.606V217.562C435.157 216.829 434.576 216.235 433.86 216.235ZM427.371 206.947C425.375 206.947 423.743 208.543 423.629 210.555L423.622 210.78L423.622 213.581H431.119L431.12 210.78C431.12 208.663 429.442 206.947 427.371 206.947Z" fill="#0F866C"/>
</g>
<mask id="mask1_3127_43096" style="mask-type:alpha" maskUnits="userSpaceOnUse" x="70" y="0" width="296" height="294">
<path fill-rule="evenodd" clip-rule="evenodd" d="M365.215 0H141.874V58.0045C99.4594 77.4544 70 120.289 70 170.005C70 238.018 125.136 293.154 193.15 293.154H361.146V71.8431H365.215V0Z" fill="#D9D9D9"/>
</mask>
<g mask="url(#mask1_3127_43096)">
<g filter="url(#filter0_d_3127_43096)">
<g clip-path="url(#clip0_3127_43096)">
<rect x="162.881" y="20.0045" width="187.173" height="405.293" rx="19.466" fill="#F9F8F2"/>
<path opacity="0.35" d="M330.838 29.9871C330.838 29.3898 331.323 28.9057 331.92 28.9057H340.239C340.836 28.9057 341.32 29.3898 341.32 29.9871V32.9819C341.32 33.5791 340.836 34.0633 340.239 34.0633H331.92C331.323 34.0633 330.838 33.5791 330.838 32.9819V29.9871Z" stroke="black" stroke-width="0.499129"/>
<path opacity="0.4" d="M342.069 30.4862V32.4828C342.471 32.3137 342.732 31.9203 342.732 31.4845C342.732 31.0487 342.471 30.6553 342.069 30.4862Z" fill="black"/>
<path d="M331.587 30.3199C331.587 29.9523 331.885 29.6544 332.252 29.6544H339.906C340.273 29.6544 340.571 29.9523 340.571 30.3199V32.6491C340.571 33.0167 340.273 33.3146 339.906 33.3146H332.252C331.885 33.3146 331.587 33.0167 331.587 32.6491V30.3199Z" fill="black"/>
<path fill-rule="evenodd" clip-rule="evenodd" d="M324.265 29.7914C325.371 29.7915 326.435 30.2165 327.236 30.9785C327.296 31.0374 327.393 31.0366 327.452 30.9769L328.029 30.3945C328.059 30.3642 328.076 30.3232 328.076 30.2805C328.076 30.2378 328.058 30.1969 328.028 30.1669C325.924 28.1507 322.605 28.1507 320.501 30.1669C320.471 30.1969 320.453 30.2377 320.453 30.2804C320.453 30.3232 320.47 30.3642 320.5 30.3945L321.077 30.9769C321.136 31.0367 321.233 31.0375 321.293 30.9785C322.095 30.2164 323.159 29.7914 324.265 29.7914ZM324.265 31.686C324.872 31.6859 325.458 31.9118 325.909 32.3197C325.97 32.3776 326.066 32.3763 326.125 32.3169L326.701 31.7346C326.732 31.704 326.749 31.6626 326.748 31.6195C326.748 31.5765 326.73 31.5354 326.699 31.5055C325.327 30.2295 323.203 30.2295 321.831 31.5055C321.8 31.5354 321.783 31.5765 321.782 31.6195C321.782 31.6626 321.799 31.7041 321.829 31.7346L322.405 32.3169C322.465 32.3763 322.561 32.3776 322.622 32.3197C323.072 31.9121 323.657 31.6862 324.265 31.686ZM325.419 32.9607C325.42 33.0038 325.403 33.0455 325.372 33.0757L324.375 34.0818C324.346 34.1114 324.306 34.128 324.265 34.128C324.223 34.128 324.183 34.1114 324.154 34.0818L323.157 33.0757C323.126 33.0454 323.109 33.0038 323.11 32.9606C323.111 32.9174 323.13 32.8766 323.162 32.8476C323.798 32.3091 324.731 32.3091 325.368 32.8476C325.4 32.8766 325.418 32.9175 325.419 32.9607Z" fill="black"/>
<path fill-rule="evenodd" clip-rule="evenodd" d="M317.445 28.8224H316.946C316.67 28.8224 316.447 29.0459 316.447 29.3216V33.6474C316.447 33.923 316.67 34.1465 316.946 34.1465H317.445C317.721 34.1465 317.944 33.923 317.944 33.6474V29.3216C317.944 29.0459 317.721 28.8224 317.445 28.8224ZM314.617 29.9871H315.116C315.392 29.9871 315.615 30.2106 315.615 30.4862V33.6474C315.615 33.923 315.392 34.1465 315.116 34.1465H314.617C314.341 34.1465 314.118 33.923 314.118 33.6474V30.4862C314.118 30.2106 314.341 29.9871 314.617 29.9871ZM312.786 31.1517H312.287C312.012 31.1517 311.788 31.3752 311.788 31.6508V33.6474C311.788 33.923 312.012 34.1465 312.287 34.1465H312.786C313.062 34.1465 313.286 33.923 313.286 33.6474V31.6508C313.286 31.3752 313.062 31.1517 312.786 31.1517ZM310.457 32.15H309.958C309.682 32.15 309.459 32.3734 309.459 32.6491V33.6474C309.459 33.923 309.682 34.1465 309.958 34.1465H310.457C310.733 34.1465 310.956 33.923 310.956 33.6474V32.6491C310.956 32.3734 310.733 32.15 310.457 32.15Z" fill="black"/>
<path d="M181.509 34.1081C182.851 34.1081 183.648 33.0589 183.648 31.2822C183.648 30.6132 183.52 30.0502 183.275 29.6152C182.92 28.9389 182.31 28.5733 181.539 28.5733C180.391 28.5733 179.579 29.3447 179.579 30.4268C179.579 31.4431 180.31 32.1815 181.316 32.1815C181.933 32.1815 182.434 31.8927 182.683 31.3919H182.694C182.694 31.3919 182.708 31.3919 182.712 31.3919C182.719 31.3919 182.745 31.3919 182.745 31.3919C182.745 32.5983 182.288 33.3184 181.517 33.3184C181.063 33.3184 180.712 33.0699 180.592 32.6714H179.652C179.809 33.5378 180.544 34.1081 181.509 34.1081ZM181.542 31.4321C180.935 31.4321 180.504 31.0007 180.504 30.3975C180.504 29.8089 180.957 29.3593 181.546 29.3593C182.134 29.3593 182.588 29.8163 182.588 30.4121C182.588 31.0007 182.145 31.4321 181.542 31.4321Z" fill="black"/>
<path d="M185.191 34.0569C185.538 34.0569 185.776 33.8083 185.776 33.4793C185.776 33.1466 185.538 32.9017 185.191 32.9017C184.847 32.9017 184.606 33.1466 184.606 33.4793C184.606 33.8083 184.847 34.0569 185.191 34.0569ZM185.191 31.3151C185.538 31.3151 185.776 31.0702 185.776 30.7412C185.776 30.4085 185.538 30.1635 185.191 30.1635C184.847 30.1635 184.606 30.4085 184.606 30.7412C184.606 31.0702 184.847 31.3151 185.191 31.3151Z" fill="black"/>
<path d="M189.198 33.9801H190.101V32.9967H190.813V32.1998H190.101V28.7049H188.77C187.838 30.1087 187.096 31.2822 186.62 32.1559V32.9967H189.198V33.9801ZM187.494 32.1669C188.108 31.0848 188.657 30.2184 189.161 29.4726H189.212V32.2217H187.494V32.1669Z" fill="black"/>
<path d="M192.824 33.9801H193.767V28.7049H192.828L191.45 29.67V30.5766L192.762 29.6554H192.824V33.9801Z" fill="black"/>
<mask id="path-15-inside-1_3127_43096" fill="white">
<path d="M163.045 46.9575C163.045 44.2009 165.28 41.9662 168.036 41.9662H345.227C347.984 41.9662 350.218 44.2009 350.218 46.9575V63.9279H163.045V46.9575Z"/>
</mask>
<path d="M163.045 46.9575C163.045 44.2009 165.28 41.9662 168.036 41.9662H345.227C347.984 41.9662 350.218 44.2009 350.218 46.9575V63.9279H163.045V46.9575Z" fill="#F9F8F2"/>
<path d="M325.552 55.447V49.4684H329.256V50.1396H326.298V52.0579H329.103V52.7208H326.298V54.7758H329.256V55.447H325.552ZM332.165 55.5257C331.034 55.5257 330.292 54.6101 330.292 53.218V53.2097C330.292 51.8093 331.03 50.902 332.165 50.902C332.778 50.902 333.313 51.2086 333.557 51.685H333.623V49.2074H334.344V55.447H333.623V54.7344H333.557C333.284 55.2316 332.786 55.5257 332.165 55.5257ZM332.331 54.8877C333.143 54.8877 333.64 54.2496 333.64 53.218V53.2097C333.64 52.1781 333.143 51.54 332.331 51.54C331.514 51.54 331.03 52.1698 331.03 53.2097V53.218C331.03 54.2579 331.514 54.8877 332.331 54.8877ZM336.109 50.1189C335.836 50.1189 335.612 49.8952 335.612 49.6217C335.612 49.3483 335.836 49.1246 336.109 49.1246C336.383 49.1246 336.606 49.3483 336.606 49.6217C336.606 49.8952 336.383 50.1189 336.109 50.1189ZM335.745 55.447V50.9807H336.466V55.447H335.745ZM339.411 55.4802C338.492 55.4802 338.106 55.1404 338.106 54.2869V51.5773H337.402V50.9807H338.106V49.8248H338.852V50.9807H339.83V51.5773H338.852V54.1046C338.852 54.6308 339.034 54.8421 339.498 54.8421C339.627 54.8421 339.697 54.838 339.83 54.8255V55.4387C339.689 55.4636 339.552 55.4802 339.411 55.4802Z" fill="#001D2F"/>
<path d="M163.045 41.9662H350.218H163.045ZM350.218 64.1774H163.045V63.6783H350.218V64.1774ZM163.045 63.9279V41.9662V63.9279ZM350.218 41.9662V63.9279V41.9662Z" fill="black" fill-opacity="0.4" mask="url(#path-15-inside-1_3127_43096)"/>
<path fill-rule="evenodd" clip-rule="evenodd" d="M175.189 49.5993C175.369 49.7792 175.382 50.0624 175.231 50.2582L175.189 50.3052L172.556 52.947L175.189 55.5889C175.369 55.7688 175.382 56.0519 175.231 56.2477L175.189 56.2947C175.01 56.4747 174.728 56.4885 174.533 56.3363L174.486 56.2947L171.501 53.3C171.321 53.12 171.308 52.8369 171.459 52.6411L171.501 52.5941L174.486 49.5993C174.68 49.4044 174.995 49.4044 175.189 49.5993Z" fill="#001D2F"/>
<rect x="162.881" y="63.9279" width="187.173" height="52.4085" fill="#D4E300"/>
<rect x="162.881" y="63.9279" width="23.522" height="52.4085" fill="url(#paint1_linear_3127_43096)"/>
<rect x="186.95" y="63.9279" width="12.0345" height="52.4085" fill="url(#paint2_linear_3127_43096)"/>
<rect x="198.438" y="63.9279" width="35.5565" height="52.4085" fill="url(#paint3_linear_3127_43096)"/>
<rect x="233.447" y="63.9279" width="61.8136" height="52.4085" fill="url(#paint4_linear_3127_43096)"/>
<rect x="294.714" y="63.9279" width="36.1035" height="52.4085" fill="url(#paint5_linear_3127_43096)"/>
<g filter="url(#filter1_d_3127_43096)">
<rect x="162.881" y="63.9279" width="187.173" height="2.18369" fill="black" fill-opacity="0.01"/>
</g>
<g filter="url(#filter2_d_3127_43096)">
<rect x="162.881" y="114.153" width="187.173" height="2.18369" fill="black" fill-opacity="0.01"/>
</g>
<g filter="url(#filter3_d_3127_43096)">
<rect x="172.864" y="78.9017" width="167.208" height="255.198" rx="4.99129" fill="white" shape-rendering="crispEdges"/>
<circle cx="198.819" cy="104.856" r="15.9721" fill="#DAE8E7"/>
<path d="M194.376 108.067C193.629 108.067 192.984 107.903 192.441 107.574C191.897 107.245 191.479 106.777 191.186 106.169C190.893 105.561 190.746 104.839 190.746 104.003V103.992C190.746 103.156 190.893 102.434 191.186 101.826C191.479 101.218 191.895 100.752 192.435 100.427C192.978 100.098 193.625 99.9333 194.376 99.9333C194.987 99.9333 195.536 100.053 196.022 100.292C196.512 100.532 196.907 100.863 197.207 101.284C197.507 101.706 197.683 102.189 197.733 102.732V102.802H196.162L196.156 102.764C196.103 102.475 195.994 102.221 195.829 102.003C195.665 101.781 195.457 101.61 195.207 101.488C194.961 101.367 194.684 101.306 194.376 101.306C193.972 101.306 193.622 101.415 193.325 101.633C193.029 101.847 192.8 102.157 192.639 102.561C192.482 102.961 192.403 103.438 192.403 103.992V104.003C192.403 104.553 192.482 105.03 192.639 105.434C192.8 105.838 193.029 106.149 193.325 106.367C193.622 106.585 193.974 106.694 194.381 106.694C194.692 106.694 194.969 106.639 195.213 106.528C195.459 106.414 195.663 106.255 195.824 106.051C195.988 105.844 196.097 105.602 196.151 105.327L196.162 105.279H197.738V105.343C197.681 105.883 197.504 106.357 197.207 106.764C196.91 107.172 196.521 107.492 196.038 107.724C195.556 107.953 195.002 108.067 194.376 108.067ZM202.337 108.067C201.676 108.067 201.102 107.947 200.616 107.708C200.134 107.468 199.758 107.134 199.49 106.705C199.226 106.276 199.093 105.774 199.093 105.198V100.132H200.713V105.054C200.713 105.386 200.775 105.676 200.9 105.922C201.029 106.165 201.213 106.355 201.453 106.491C201.696 106.626 201.99 106.694 202.337 106.694C202.684 106.694 202.977 106.626 203.217 106.491C203.46 106.355 203.644 106.165 203.769 105.922C203.894 105.676 203.956 105.386 203.956 105.054V100.132H205.576V105.198C205.576 105.77 205.443 106.273 205.179 106.705C204.918 107.134 204.544 107.468 204.058 107.708C203.576 107.947 203.002 108.067 202.337 108.067Z" fill="#0F866C"/>
<path d="M222.816 100.109V95.8884H223.328L225.618 99.1727H225.665V95.8884H226.185V100.109H225.673L223.383 96.836H223.337V100.109H222.816ZM228.063 100.164C227.463 100.164 227.01 99.8015 227.01 99.2283V99.2225C227.01 98.6609 227.425 98.3363 228.159 98.2924L229.063 98.2369V97.9503C229.063 97.5613 228.826 97.3507 228.355 97.3507C227.978 97.3507 227.729 97.4911 227.647 97.7368L227.644 97.7455H227.136L227.138 97.728C227.22 97.2337 227.7 96.9003 228.373 96.9003C229.142 96.9003 229.572 97.2952 229.572 97.9503V100.109H229.063V99.6436H229.016C228.817 99.9799 228.487 100.164 228.063 100.164ZM227.53 99.2166C227.53 99.5354 227.802 99.7226 228.168 99.7226C228.686 99.7226 229.063 99.3833 229.063 98.9329V98.6463L228.221 98.699C227.741 98.7282 227.53 98.8978 227.53 99.2108V99.2166ZM230.502 100.109V96.9559H231.011V97.4355H231.057C231.198 97.0963 231.496 96.9003 231.908 96.9003C232.335 96.9003 232.634 97.1255 232.78 97.4531H232.827C232.996 97.1197 233.356 96.9003 233.792 96.9003C234.435 96.9003 234.795 97.2688 234.795 97.9298V100.109H234.286V98.0468C234.286 97.5818 234.073 97.3507 233.628 97.3507C233.189 97.3507 232.9 97.6812 232.9 98.0819V100.109H232.391V97.9678C232.391 97.5935 232.134 97.3507 231.736 97.3507C231.324 97.3507 231.011 97.7105 231.011 98.155V100.109H230.502ZM237 100.164C236.099 100.164 235.555 99.5325 235.555 98.544V98.541C235.555 97.5671 236.111 96.9003 236.968 96.9003C237.825 96.9003 238.345 97.5379 238.345 98.4796V98.6785H236.076C236.091 99.3307 236.45 99.7109 237.012 99.7109C237.439 99.7109 237.702 99.5091 237.787 99.319L237.799 99.2927H238.307L238.302 99.316C238.193 99.743 237.743 100.164 237 100.164ZM236.965 97.3537C236.497 97.3537 236.14 97.6724 236.085 98.272H237.828C237.775 97.649 237.43 97.3537 236.965 97.3537Z" fill="#667782"/>
<path d="M225.447 113.745C223.823 113.745 222.808 112.544 222.808 110.621V110.613C222.808 108.686 223.819 107.485 225.443 107.485C226.703 107.485 227.685 108.276 227.863 109.424L227.859 109.432H227.109L227.105 109.424C226.906 108.657 226.268 108.173 225.443 108.173C224.296 108.173 223.575 109.117 223.575 110.613V110.621C223.575 112.117 224.296 113.057 225.447 113.057C226.28 113.057 226.914 112.631 227.1 111.943L227.109 111.935H227.863V111.943C227.664 113.037 226.719 113.745 225.447 113.745ZM230.304 113.683C229.289 113.683 228.767 113.086 228.767 112.03V109.138H229.488V111.856C229.488 112.66 229.778 113.045 230.49 113.045C231.278 113.045 231.696 112.564 231.696 111.781V109.138H232.417V113.604H231.696V112.937H231.63C231.41 113.414 230.959 113.683 230.304 113.683ZM235.082 113.683C234.087 113.683 233.404 113.202 233.321 112.465H234.058C234.179 112.838 234.535 113.082 235.107 113.082C235.707 113.082 236.134 112.796 236.134 112.39V112.382C236.134 112.08 235.906 111.868 235.355 111.736L234.663 111.57C233.826 111.371 233.449 111.006 233.449 110.364V110.36C233.449 109.619 234.162 109.059 235.111 109.059C236.047 109.059 236.698 109.527 236.797 110.257H236.089C235.993 109.904 235.645 109.66 235.107 109.66C234.576 109.66 234.187 109.933 234.187 110.327V110.335C234.187 110.638 234.411 110.828 234.937 110.957L235.625 111.122C236.466 111.326 236.872 111.69 236.872 112.328V112.336C236.872 113.132 236.097 113.683 235.082 113.683ZM239.321 113.637C238.401 113.637 238.016 113.298 238.016 112.444V109.735H237.312V109.138H238.016V107.982H238.762V109.138H239.74V109.735H238.762V112.262C238.762 112.788 238.944 112.999 239.408 112.999C239.537 112.999 239.607 112.995 239.74 112.983V113.596C239.599 113.621 239.462 113.637 239.321 113.637ZM242.371 113.683C241.099 113.683 240.312 112.805 240.312 111.375V111.367C240.312 109.933 241.099 109.059 242.371 109.059C243.643 109.059 244.43 109.933 244.43 111.367V111.375C244.43 112.805 243.643 113.683 242.371 113.683ZM242.371 113.045C243.216 113.045 243.693 112.428 243.693 111.375V111.367C243.693 110.31 243.216 109.697 242.371 109.697C241.526 109.697 241.05 110.31 241.05 111.367V111.375C241.05 112.428 241.526 113.045 242.371 113.045ZM245.334 113.604V109.138H246.055V109.817H246.122C246.321 109.337 246.743 109.059 247.327 109.059C247.932 109.059 248.355 109.378 248.562 109.842H248.628C248.869 109.37 249.378 109.059 249.996 109.059C250.907 109.059 251.417 109.581 251.417 110.518V113.604H250.696V110.683C250.696 110.025 250.393 109.697 249.764 109.697C249.142 109.697 248.732 110.165 248.732 110.733V113.604H248.011V110.571C248.011 110.041 247.646 109.697 247.083 109.697C246.499 109.697 246.055 110.207 246.055 110.837V113.604H245.334ZM254.766 113.604V107.626H255.512V112.933H258.395V113.604H254.766ZM260.911 113.683C259.639 113.683 258.852 112.805 258.852 111.375V111.367C258.852 109.933 259.639 109.059 260.911 109.059C262.183 109.059 262.97 109.933 262.97 111.367V111.375C262.97 112.805 262.183 113.683 260.911 113.683ZM260.911 113.045C261.756 113.045 262.233 112.428 262.233 111.375V111.367C262.233 110.31 261.756 109.697 260.911 109.697C260.066 109.697 259.589 110.31 259.589 111.367V111.375C259.589 112.428 260.066 113.045 260.911 113.045ZM265.714 115.179C264.637 115.179 263.949 114.694 263.837 113.961L263.845 113.956H264.591L264.595 113.961C264.674 114.3 265.072 114.541 265.714 114.541C266.513 114.541 266.99 114.164 266.99 113.505V112.602H266.924C266.642 113.095 266.136 113.372 265.523 113.372C264.367 113.372 263.651 112.477 263.651 111.226V111.218C263.651 109.967 264.371 109.059 265.54 109.059C266.17 109.059 266.658 109.37 266.932 109.875H266.982V109.138H267.703V113.542C267.703 114.541 266.932 115.179 265.714 115.179ZM265.681 112.734C266.509 112.734 267.006 112.113 267.006 111.226V111.218C267.006 110.331 266.505 109.697 265.681 109.697C264.852 109.697 264.388 110.331 264.388 111.218V111.226C264.388 112.113 264.852 112.734 265.681 112.734ZM269.211 108.276C268.938 108.276 268.714 108.052 268.714 107.779C268.714 107.506 268.938 107.282 269.211 107.282C269.485 107.282 269.709 107.506 269.709 107.779C269.709 108.052 269.485 108.276 269.211 108.276ZM268.847 113.604V109.138H269.568V113.604H268.847ZM270.712 113.604V109.138H271.433V109.809H271.499C271.723 109.337 272.141 109.059 272.8 109.059C273.803 109.059 274.362 109.652 274.362 110.712V113.604H273.641V110.886C273.641 110.083 273.31 109.697 272.597 109.697C271.885 109.697 271.433 110.178 271.433 110.961V113.604H270.712ZM279.083 113.604V108.454H279.017L277.496 109.556V108.769L279.087 107.626H279.829V113.604H279.083Z" fill="#001D2F"/>
<path d="M183.385 141.802V137.582H185.999V138.056H183.911V139.41H185.891V139.878H183.911V141.329H185.999V141.802H183.385ZM186.888 141.802V138.65H187.397V139.129H187.444C187.585 138.79 187.883 138.594 188.295 138.594C188.722 138.594 189.02 138.819 189.167 139.147H189.213C189.383 138.814 189.743 138.594 190.179 138.594C190.822 138.594 191.182 138.963 191.182 139.624V141.802H190.673V139.741C190.673 139.276 190.459 139.045 190.015 139.045C189.576 139.045 189.287 139.375 189.287 139.776V141.802H188.778V139.662C188.778 139.287 188.52 139.045 188.123 139.045C187.71 139.045 187.397 139.404 187.397 139.849V141.802H186.888ZM192.966 141.858C192.366 141.858 191.913 141.495 191.913 140.922V140.916C191.913 140.355 192.328 140.03 193.062 139.986L193.966 139.931V139.644C193.966 139.255 193.729 139.045 193.258 139.045C192.881 139.045 192.632 139.185 192.55 139.431L192.548 139.439H192.039L192.042 139.422C192.123 138.928 192.603 138.594 193.276 138.594C194.045 138.594 194.475 138.989 194.475 139.644V141.802H193.966V141.337H193.919C193.72 141.674 193.39 141.858 192.966 141.858ZM192.433 140.91C192.433 141.229 192.705 141.416 193.071 141.416C193.589 141.416 193.966 141.077 193.966 140.627V140.34L193.124 140.393C192.644 140.422 192.433 140.592 192.433 140.905V140.91ZM195.674 138.041C195.481 138.041 195.323 137.883 195.323 137.69C195.323 137.497 195.481 137.34 195.674 137.34C195.867 137.34 196.025 137.497 196.025 137.69C196.025 137.883 195.867 138.041 195.674 138.041ZM195.417 141.802V138.65H195.925V141.802H195.417ZM196.914 141.802V137.398H197.423V141.802H196.914ZM201.38 141.858C200.482 141.858 199.926 141.238 199.926 140.229V140.223C199.926 139.211 200.482 138.594 201.38 138.594C202.278 138.594 202.833 139.211 202.833 140.223V140.229C202.833 141.238 202.278 141.858 201.38 141.858ZM201.38 141.408C201.976 141.408 202.313 140.972 202.313 140.229V140.223C202.313 139.477 201.976 139.045 201.38 139.045C200.783 139.045 200.447 139.477 200.447 140.223V140.229C200.447 140.972 200.783 141.408 201.38 141.408ZM203.623 141.802V138.65H204.132V139.118H204.179C204.299 138.787 204.594 138.594 205.021 138.594C205.117 138.594 205.226 138.606 205.275 138.615V139.109C205.17 139.091 205.074 139.08 204.962 139.08C204.477 139.08 204.132 139.387 204.132 139.849V141.802H203.623ZM208.644 141.858C207.928 141.858 207.559 141.437 207.559 140.691V138.65H208.068V140.568C208.068 141.136 208.273 141.408 208.776 141.408C209.332 141.408 209.627 141.068 209.627 140.516V138.65H210.136V141.802H209.627V141.332H209.58C209.425 141.668 209.107 141.858 208.644 141.858ZM212.169 141.858C211.467 141.858 210.984 141.519 210.926 140.998H211.446C211.531 141.261 211.783 141.434 212.186 141.434C212.61 141.434 212.911 141.232 212.911 140.946V140.94C212.911 140.726 212.751 140.577 212.362 140.483L211.873 140.366C211.282 140.226 211.016 139.969 211.016 139.515V139.512C211.016 138.989 211.519 138.594 212.189 138.594C212.85 138.594 213.309 138.925 213.379 139.439H212.879C212.812 139.191 212.566 139.018 212.186 139.018C211.812 139.018 211.537 139.211 211.537 139.489V139.495C211.537 139.708 211.695 139.843 212.066 139.934L212.552 140.051C213.145 140.194 213.432 140.451 213.432 140.902V140.908C213.432 141.469 212.885 141.858 212.169 141.858ZM215.508 141.858C214.608 141.858 214.064 141.226 214.064 140.238V140.235C214.064 139.261 214.619 138.594 215.476 138.594C216.333 138.594 216.854 139.232 216.854 140.173V140.372H214.584C214.599 141.024 214.959 141.405 215.52 141.405C215.947 141.405 216.21 141.203 216.295 141.013L216.307 140.986H216.816L216.81 141.01C216.702 141.437 216.251 141.858 215.508 141.858ZM215.473 139.047C215.005 139.047 214.649 139.366 214.593 139.966H216.336C216.283 139.343 215.938 139.047 215.473 139.047ZM217.643 141.802V138.65H218.152V139.118H218.199C218.319 138.787 218.614 138.594 219.041 138.594C219.138 138.594 219.246 138.606 219.296 138.615V139.109C219.19 139.091 219.094 139.08 218.983 139.08C218.497 139.08 218.152 139.387 218.152 139.849V141.802H217.643ZM219.983 141.802V138.65H220.492V139.124H220.539C220.697 138.79 220.992 138.594 221.457 138.594C222.165 138.594 222.56 139.012 222.56 139.761V141.802H222.051V139.884C222.051 139.317 221.817 139.045 221.314 139.045C220.811 139.045 220.492 139.384 220.492 139.937V141.802H219.983ZM224.347 141.858C223.747 141.858 223.294 141.495 223.294 140.922V140.916C223.294 140.355 223.709 140.03 224.443 139.986L225.347 139.931V139.644C225.347 139.255 225.11 139.045 224.639 139.045C224.262 139.045 224.013 139.185 223.931 139.431L223.928 139.439H223.419L223.422 139.422C223.504 138.928 223.984 138.594 224.657 138.594C225.426 138.594 225.856 138.989 225.856 139.644V141.802H225.347V141.337H225.3C225.101 141.674 224.771 141.858 224.347 141.858ZM223.814 140.91C223.814 141.229 224.086 141.416 224.452 141.416C224.969 141.416 225.347 141.077 225.347 140.627V140.34L224.504 140.393C224.025 140.422 223.814 140.592 223.814 140.905V140.91ZM226.786 141.802V138.65H227.295V139.129H227.341C227.482 138.79 227.78 138.594 228.192 138.594C228.619 138.594 228.918 138.819 229.064 139.147H229.111C229.28 138.814 229.64 138.594 230.076 138.594C230.719 138.594 231.079 138.963 231.079 139.624V141.802H230.57V139.741C230.57 139.276 230.357 139.045 229.912 139.045C229.473 139.045 229.184 139.375 229.184 139.776V141.802H228.675V139.662C228.675 139.287 228.418 139.045 228.02 139.045C227.607 139.045 227.295 139.404 227.295 139.849V141.802H226.786ZM233.284 141.858C232.383 141.858 231.839 141.226 231.839 140.238V140.235C231.839 139.261 232.395 138.594 233.252 138.594C234.109 138.594 234.629 139.232 234.629 140.173V140.372H232.36C232.375 141.024 232.734 141.405 233.296 141.405C233.723 141.405 233.986 141.203 234.071 141.013L234.082 140.986H234.591L234.585 141.01C234.477 141.437 234.027 141.858 233.284 141.858ZM233.249 139.047C232.781 139.047 232.424 139.366 232.369 139.966H234.112C234.059 139.343 233.714 139.047 233.249 139.047Z" fill="#667782"/>
<path d="M183.518 155.298V150.832H184.239V151.503H184.305C184.529 151.031 184.947 150.753 185.606 150.753C186.609 150.753 187.168 151.346 187.168 152.406V155.298H186.447V152.58C186.447 151.776 186.116 151.391 185.403 151.391C184.69 151.391 184.239 151.872 184.239 152.655V155.298H183.518ZM189.485 155.377C188.635 155.377 187.993 154.863 187.993 154.051V154.043C187.993 153.247 188.582 152.787 189.622 152.725L190.902 152.646V152.24C190.902 151.689 190.566 151.391 189.899 151.391C189.365 151.391 189.013 151.59 188.897 151.938L188.892 151.95H188.171L188.176 151.926C188.292 151.225 188.971 150.753 189.924 150.753C191.014 150.753 191.623 151.312 191.623 152.24V155.298H190.902V154.639H190.836C190.554 155.116 190.086 155.377 189.485 155.377ZM188.731 154.034C188.731 154.486 189.116 154.751 189.634 154.751C190.367 154.751 190.902 154.271 190.902 153.633V153.227L189.709 153.301C189.029 153.343 188.731 153.583 188.731 154.026V154.034ZM192.726 155.298V150.832H193.447V151.511H193.513C193.712 151.031 194.134 150.753 194.718 150.753C195.323 150.753 195.746 151.072 195.953 151.536H196.019C196.26 151.064 196.769 150.753 197.387 150.753C198.298 150.753 198.808 151.275 198.808 152.211V155.298H198.087V152.377C198.087 151.718 197.784 151.391 197.155 151.391C196.533 151.391 196.123 151.859 196.123 152.427V155.298H195.402V152.265C195.402 151.735 195.037 151.391 194.474 151.391C193.89 151.391 193.447 151.901 193.447 152.53V155.298H192.726ZM201.717 155.377C200.441 155.377 199.67 154.482 199.67 153.081V153.077C199.67 151.698 200.458 150.753 201.672 150.753C202.885 150.753 203.623 151.656 203.623 152.99V153.272H200.408C200.429 154.196 200.938 154.735 201.734 154.735C202.339 154.735 202.711 154.449 202.832 154.179L202.848 154.142H203.569L203.561 154.175C203.407 154.78 202.769 155.377 201.717 155.377ZM201.667 151.395C201.004 151.395 200.499 151.847 200.42 152.696H202.89C202.815 151.814 202.326 151.395 201.667 151.395ZM207.941 156.268C205.803 156.268 204.448 154.925 204.448 152.812V152.804C204.448 150.757 205.84 149.353 207.871 149.353C209.83 149.353 211.193 150.604 211.193 152.398V152.406C211.193 153.753 210.588 154.61 209.635 154.61C209.159 154.61 208.794 154.341 208.728 153.939L208.724 153.914H208.658C208.48 154.337 208.107 154.573 207.622 154.573C206.76 154.573 206.18 153.865 206.18 152.816V152.808C206.18 151.805 206.773 151.101 207.622 151.101C208.057 151.101 208.43 151.325 208.591 151.685H208.658V151.18H209.283V153.612C209.283 153.902 209.453 154.072 209.751 154.072C210.274 154.072 210.609 153.413 210.609 152.398V152.39C210.609 150.898 209.474 149.875 207.817 149.875C206.197 149.875 205.032 151.109 205.032 152.829V152.837C205.032 154.602 206.176 155.741 207.949 155.741C208.517 155.741 209.076 155.663 209.337 155.543V156.065C208.964 156.193 208.463 156.268 207.941 156.268ZM207.717 153.989C208.285 153.989 208.649 153.537 208.649 152.833V152.825C208.649 152.12 208.289 151.673 207.725 151.673C207.17 151.673 206.843 152.104 206.843 152.825V152.833C206.843 153.55 207.174 153.989 207.717 153.989ZM213.924 155.377C212.648 155.377 211.878 154.482 211.878 153.081V153.077C211.878 151.698 212.665 150.753 213.879 150.753C215.093 150.753 215.83 151.656 215.83 152.99V153.272H212.615C212.636 154.196 213.146 154.735 213.941 154.735C214.546 154.735 214.919 154.449 215.039 154.179L215.056 154.142H215.776L215.768 154.175C215.615 154.78 214.977 155.377 213.924 155.377ZM213.875 151.395C213.212 151.395 212.706 151.847 212.628 152.696H215.097C215.022 151.814 214.534 151.395 213.875 151.395ZM216.734 155.298V150.832H217.455V151.511H217.522C217.72 151.031 218.143 150.753 218.727 150.753C219.332 150.753 219.755 151.072 219.962 151.536H220.028C220.268 151.064 220.778 150.753 221.395 150.753C222.307 150.753 222.817 151.275 222.817 152.211V155.298H222.096V152.377C222.096 151.718 221.793 151.391 221.163 151.391C220.542 151.391 220.132 151.859 220.132 152.427V155.298H219.411V152.265C219.411 151.735 219.046 151.391 218.483 151.391C217.899 151.391 217.455 151.901 217.455 152.53V155.298H216.734ZM225.129 155.377C224.28 155.377 223.638 154.863 223.638 154.051V154.043C223.638 153.247 224.226 152.787 225.266 152.725L226.546 152.646V152.24C226.546 151.689 226.211 151.391 225.544 151.391C225.009 151.391 224.657 151.59 224.541 151.938L224.537 151.95H223.816L223.82 151.926C223.936 151.225 224.615 150.753 225.568 150.753C226.658 150.753 227.267 151.312 227.267 152.24V155.298H226.546V154.639H226.48C226.198 155.116 225.73 155.377 225.129 155.377ZM224.375 154.034C224.375 154.486 224.76 154.751 225.278 154.751C226.012 154.751 226.546 154.271 226.546 153.633V153.227L225.353 153.301C224.673 153.343 224.375 153.583 224.375 154.026V154.034ZM228.751 149.97C228.478 149.97 228.254 149.746 228.254 149.473C228.254 149.199 228.478 148.976 228.751 148.976C229.025 148.976 229.248 149.199 229.248 149.473C229.248 149.746 229.025 149.97 228.751 149.97ZM228.387 155.298V150.832H229.107V155.298H228.387ZM230.293 155.298V149.058H231.014V155.298H230.293ZM232.772 155.34C232.477 155.34 232.233 155.095 232.233 154.801C232.233 154.503 232.477 154.262 232.772 154.262C233.07 154.262 233.31 154.503 233.31 154.801C233.31 155.095 233.07 155.34 232.772 155.34ZM236.149 155.377C234.898 155.377 234.098 154.469 234.098 153.052V153.044C234.098 151.656 234.894 150.753 236.145 150.753C237.231 150.753 237.881 151.379 238.014 152.174L238.018 152.199H237.301L237.297 152.187C237.185 151.747 236.787 151.391 236.145 151.391C235.341 151.391 234.836 152.037 234.836 153.044V153.052C234.836 154.08 235.35 154.739 236.145 154.739C236.746 154.739 237.127 154.474 237.293 153.976L237.301 153.952L238.014 153.947L238.005 153.993C237.823 154.801 237.222 155.377 236.149 155.377ZM240.691 155.377C239.419 155.377 238.632 154.498 238.632 153.069V153.061C238.632 151.627 239.419 150.753 240.691 150.753C241.963 150.753 242.75 151.627 242.75 153.061V153.069C242.75 154.498 241.963 155.377 240.691 155.377ZM240.691 154.739C241.536 154.739 242.013 154.121 242.013 153.069V153.061C242.013 152.004 241.536 151.391 240.691 151.391C239.846 151.391 239.369 152.004 239.369 153.061V153.069C239.369 154.121 239.846 154.739 240.691 154.739ZM243.654 155.298V150.832H244.375V151.511H244.441C244.64 151.031 245.063 150.753 245.647 150.753C246.252 150.753 246.674 151.072 246.882 151.536H246.948C247.188 151.064 247.698 150.753 248.315 150.753C249.227 150.753 249.736 151.275 249.736 152.211V155.298H249.015V152.377C249.015 151.718 248.713 151.391 248.083 151.391C247.462 151.391 247.051 151.859 247.051 152.427V155.298H246.331V152.265C246.331 151.735 245.966 151.391 245.402 151.391C244.818 151.391 244.375 151.901 244.375 152.53V155.298H243.654Z" fill="#001D2F"/>
<path fill-rule="evenodd" clip-rule="evenodd" d="M327.095 150.591C327.922 150.591 328.592 151.261 328.592 152.088V155.282C328.592 156.109 327.922 156.78 327.095 156.78H323.9C323.073 156.78 322.403 156.109 322.403 155.282V152.088C322.403 151.261 323.073 150.591 323.9 150.591H327.095ZM327.095 151.589H323.9C323.625 151.589 323.401 151.812 323.401 152.088V155.282C323.401 155.558 323.625 155.782 323.9 155.782H327.095C327.371 155.782 327.594 155.558 327.594 155.282V152.088C327.594 151.812 327.371 151.589 327.095 151.589ZM324.499 147.795C325.189 147.795 325.752 148.333 325.795 149.011L325.797 149.093V149.493C325.797 149.768 325.574 149.992 325.298 149.992C325.042 149.992 324.831 149.799 324.802 149.551L324.799 149.493V149.093C324.799 148.944 324.69 148.821 324.548 148.798L324.499 148.794H320.906C320.757 148.794 320.633 148.902 320.61 149.045L320.606 149.093V152.687C320.606 152.836 320.715 152.959 320.857 152.982L320.906 152.986H321.305C321.581 152.986 321.804 153.21 321.804 153.486C321.804 153.742 321.611 153.952 321.363 153.981L321.305 153.985H320.906C320.216 153.985 319.653 153.447 319.61 152.769L319.608 152.687V149.093C319.608 148.404 320.145 147.84 320.824 147.798L320.906 147.795H324.499Z" fill="#001D2F"/>
<path d="M183.384 179.251V175.031H184.975C185.768 175.031 186.329 175.578 186.329 176.379V176.385C186.329 177.186 185.768 177.745 184.975 177.745H183.911V179.251H183.384ZM184.841 175.499H183.911V177.277H184.841C185.443 177.277 185.791 176.946 185.791 176.391V176.385C185.791 175.829 185.443 175.499 184.841 175.499ZM187.876 179.307C187.277 179.307 186.824 178.944 186.824 178.371V178.365C186.824 177.803 187.239 177.479 187.973 177.435L188.877 177.379V177.093C188.877 176.704 188.64 176.493 188.169 176.493C187.792 176.493 187.543 176.634 187.461 176.879L187.458 176.888H186.949L186.952 176.87C187.034 176.376 187.514 176.043 188.186 176.043C188.956 176.043 189.386 176.438 189.386 177.093V179.251H188.877V178.786H188.83C188.631 179.122 188.301 179.307 187.876 179.307ZM187.344 178.359C187.344 178.678 187.616 178.865 187.982 178.865C188.499 178.865 188.877 178.526 188.877 178.075V177.789L188.034 177.841C187.555 177.871 187.344 178.04 187.344 178.353V178.359ZM191.398 179.307C190.696 179.307 190.213 178.967 190.155 178.447H190.675C190.76 178.71 191.012 178.883 191.415 178.883C191.839 178.883 192.141 178.681 192.141 178.394V178.388C192.141 178.175 191.98 178.026 191.591 177.932L191.102 177.815C190.512 177.675 190.245 177.417 190.245 176.964V176.961C190.245 176.438 190.748 176.043 191.418 176.043C192.079 176.043 192.538 176.373 192.608 176.888H192.108C192.041 176.639 191.795 176.467 191.415 176.467C191.041 176.467 190.766 176.66 190.766 176.938V176.944C190.766 177.157 190.924 177.292 191.295 177.382L191.781 177.499C192.374 177.643 192.661 177.9 192.661 178.35V178.356C192.661 178.918 192.114 179.307 191.398 179.307ZM194.474 179.307C193.772 179.307 193.29 178.967 193.231 178.447H193.752C193.837 178.71 194.088 178.883 194.492 178.883C194.916 178.883 195.217 178.681 195.217 178.394V178.388C195.217 178.175 195.056 178.026 194.667 177.932L194.179 177.815C193.588 177.675 193.322 177.417 193.322 176.964V176.961C193.322 176.438 193.825 176.043 194.495 176.043C195.156 176.043 195.615 176.373 195.685 176.888H195.185C195.118 176.639 194.872 176.467 194.492 176.467C194.118 176.467 193.843 176.66 193.843 176.938V176.944C193.843 177.157 194.001 177.292 194.372 177.382L194.857 177.499C195.451 177.643 195.738 177.9 195.738 178.35V178.356C195.738 178.918 195.191 179.307 194.474 179.307ZM197.048 179.251L196.165 176.098H196.674L197.294 178.619H197.34L198.045 176.098H198.528L199.233 178.619H199.279L199.899 176.098H200.405L199.522 179.251H199.01L198.306 176.812H198.259L197.557 179.251H197.048ZM202.257 179.307C201.359 179.307 200.803 178.687 200.803 177.678V177.672C200.803 176.66 201.359 176.043 202.257 176.043C203.155 176.043 203.71 176.66 203.71 177.672V177.678C203.71 178.687 203.155 179.307 202.257 179.307ZM202.257 178.856C202.853 178.856 203.19 178.42 203.19 177.678V177.672C203.19 176.926 202.853 176.493 202.257 176.493C201.66 176.493 201.324 176.926 201.324 177.672V177.678C201.324 178.42 201.66 178.856 202.257 178.856ZM204.5 179.251V176.098H205.009V176.566H205.055C205.175 176.236 205.471 176.043 205.898 176.043C205.994 176.043 206.102 176.054 206.152 176.063V176.557C206.047 176.54 205.95 176.528 205.839 176.528C205.354 176.528 205.009 176.835 205.009 177.297V179.251H204.5ZM207.857 179.307C207.059 179.307 206.535 178.66 206.535 177.678V177.672C206.535 176.683 207.056 176.043 207.857 176.043C208.29 176.043 208.667 176.259 208.84 176.596H208.887V174.847H209.396V179.251H208.887V178.748H208.84C208.647 179.099 208.296 179.307 207.857 179.307ZM207.974 178.856C208.547 178.856 208.898 178.406 208.898 177.678V177.672C208.898 176.944 208.547 176.493 207.974 176.493C207.398 176.493 207.056 176.938 207.056 177.672V177.678C207.056 178.412 207.398 178.856 207.974 178.856Z" fill="#667782"/>
<path d="M186.77 193.099C184.947 193.099 183.426 191.582 183.426 189.755C183.426 187.928 184.943 186.412 186.766 186.412C188.593 186.412 190.117 187.928 190.117 189.755C190.117 191.582 188.597 193.099 186.77 193.099ZM194.411 193.099C192.588 193.099 191.067 191.582 191.067 189.755C191.067 187.928 192.583 186.412 194.406 186.412C196.234 186.412 197.758 187.928 197.758 189.755C197.758 191.582 196.238 193.099 194.411 193.099ZM202.051 193.099C200.228 193.099 198.708 191.582 198.708 189.755C198.708 187.928 200.224 186.412 202.047 186.412C203.874 186.412 205.399 187.928 205.399 189.755C205.399 191.582 203.879 193.099 202.051 193.099ZM209.692 193.099C207.869 193.099 206.349 191.582 206.349 189.755C206.349 187.928 207.865 186.412 209.688 186.412C211.515 186.412 213.04 187.928 213.04 189.755C213.04 191.582 211.519 193.099 209.692 193.099ZM217.333 193.099C215.51 193.099 213.989 191.582 213.989 189.755C213.989 187.928 215.506 186.412 217.329 186.412C219.156 186.412 220.681 187.928 220.681 189.755C220.681 191.582 219.16 193.099 217.333 193.099ZM224.974 193.099C223.151 193.099 221.63 191.582 221.63 189.755C221.63 187.928 223.147 186.412 224.97 186.412C226.797 186.412 228.321 187.928 228.321 189.755C228.321 191.582 226.801 193.099 224.974 193.099ZM232.615 193.099C230.792 193.099 229.271 191.582 229.271 189.755C229.271 187.928 230.787 186.412 232.61 186.412C234.438 186.412 235.962 187.928 235.962 189.755C235.962 191.582 234.442 193.099 232.615 193.099ZM240.255 193.099C238.432 193.099 236.912 191.582 236.912 189.755C236.912 187.928 238.428 186.412 240.251 186.412C242.078 186.412 243.603 187.928 243.603 189.755C243.603 191.582 242.083 193.099 240.255 193.099ZM247.896 193.099C246.073 193.099 244.553 191.582 244.553 189.755C244.553 187.928 246.069 186.412 247.892 186.412C249.719 186.412 251.244 187.928 251.244 189.755C251.244 191.582 249.723 193.099 247.896 193.099ZM255.537 193.099C253.714 193.099 252.193 191.582 252.193 189.755C252.193 187.928 253.71 186.412 255.533 186.412C257.36 186.412 258.885 187.928 258.885 189.755C258.885 191.582 257.364 193.099 255.537 193.099ZM263.178 193.099C261.355 193.099 259.834 191.582 259.834 189.755C259.834 187.928 261.351 186.412 263.174 186.412C265.001 186.412 266.526 187.928 266.526 189.755C266.526 191.582 265.005 193.099 263.178 193.099Z" fill="#001D2F"/>
<path fill-rule="evenodd" clip-rule="evenodd" d="M303.442 185.349L303.489 185.39L311.475 193.376C311.67 193.571 311.67 193.887 311.475 194.082C311.295 194.262 311.012 194.276 310.816 194.124L310.769 194.082L309.224 192.538C308.596 192.918 307.875 193.127 307.129 193.139C305.859 193.139 304.753 192.529 303.816 191.53C303.496 191.189 303.219 190.825 302.984 190.461L302.885 190.304C302.795 190.157 302.73 190.039 302.69 189.959C302.617 189.814 302.62 189.643 302.697 189.5C303.092 188.763 303.612 188.102 304.233 187.546L302.783 186.096C302.588 185.901 302.588 185.585 302.783 185.39C302.963 185.21 303.246 185.197 303.442 185.349ZM303.78 189.62L303.709 189.738L303.773 189.841L303.822 189.919C304.027 190.236 304.268 190.553 304.544 190.847C305.309 191.663 306.176 192.141 307.121 192.141C307.6 192.133 308.068 192.017 308.491 191.804L307.851 191.164C307.506 191.348 307.1 191.402 306.709 191.302C306.147 191.158 305.707 190.719 305.563 190.156C305.464 189.766 305.517 189.359 305.702 189.015L304.94 188.253C304.489 188.65 304.098 189.11 303.78 189.62ZM307.129 186.333C308.399 186.333 309.506 186.944 310.443 187.943C310.763 188.284 311.04 188.648 311.275 189.012L311.374 189.168C311.464 189.315 311.529 189.433 311.569 189.513C311.641 189.658 311.639 189.829 311.563 189.972C311.326 190.414 311.044 190.831 310.72 191.216C310.543 191.427 310.228 191.454 310.017 191.276C309.806 191.099 309.779 190.784 309.956 190.573C310.142 190.352 310.312 190.119 310.465 189.875L310.55 189.735L310.486 189.631L310.437 189.553C310.232 189.237 309.99 188.92 309.715 188.626C308.95 187.81 308.083 187.331 307.128 187.331C306.91 187.331 306.693 187.356 306.481 187.405C306.212 187.468 305.944 187.302 305.881 187.033C305.818 186.765 305.985 186.496 306.253 186.433C306.541 186.366 306.835 186.332 307.129 186.333ZM306.531 189.909C306.584 190.118 306.747 190.282 306.956 190.335C306.983 190.342 307.009 190.347 307.036 190.35L306.516 189.83C306.519 189.856 306.524 189.883 306.531 189.909Z" fill="#001D2F"/>
<path fill-rule="evenodd" clip-rule="evenodd" d="M327.094 188.039C327.921 188.039 328.592 188.71 328.592 189.537V192.731C328.592 193.558 327.921 194.228 327.094 194.228H323.9C323.073 194.228 322.403 193.558 322.403 192.731V189.537C322.403 188.71 323.073 188.039 323.9 188.039H327.094ZM327.094 189.037H323.9C323.624 189.037 323.401 189.261 323.401 189.537V192.731C323.401 193.007 323.624 193.23 323.9 193.23H327.094C327.37 193.23 327.593 193.007 327.593 192.731V189.537C327.593 189.261 327.37 189.037 327.094 189.037ZM324.499 185.244C325.188 185.244 325.752 185.781 325.794 186.46L325.797 186.542V186.941C325.797 187.217 325.573 187.44 325.297 187.44C325.042 187.44 324.831 187.248 324.802 186.999L324.798 186.941V186.542C324.798 186.393 324.69 186.269 324.547 186.246L324.499 186.242H320.905C320.756 186.242 320.633 186.351 320.61 186.493L320.606 186.542V190.136C320.606 190.284 320.714 190.408 320.857 190.431L320.905 190.435H321.304C321.58 190.435 321.804 190.658 321.804 190.934C321.804 191.19 321.611 191.401 321.363 191.43L321.304 191.433H320.905C320.216 191.433 319.652 190.896 319.61 190.218L319.607 190.136V186.542C319.607 185.853 320.145 185.289 320.823 185.247L320.905 185.244H324.499Z" fill="#001D2F"/>
<path d="M184.463 206.717L183.057 202.497H184.048L184.981 205.734H185.034L185.964 202.497H186.958L185.551 206.717H184.463ZM188.66 206.784C188.335 206.784 188.054 206.717 187.818 206.583C187.584 206.446 187.404 206.253 187.277 206.003C187.15 205.754 187.087 205.457 187.087 205.111V205.109C187.087 204.767 187.149 204.471 187.274 204.219C187.401 203.968 187.579 203.773 187.809 203.635C188.041 203.496 188.313 203.427 188.625 203.427C188.939 203.427 189.21 203.494 189.438 203.629C189.666 203.763 189.842 203.951 189.965 204.193C190.087 204.435 190.149 204.719 190.149 205.044V205.31H187.514V204.775H189.739L189.339 205.281V204.939C189.339 204.746 189.309 204.585 189.248 204.456C189.19 204.328 189.108 204.231 189.002 204.167C188.899 204.101 188.778 204.067 188.64 204.067C188.503 204.067 188.381 204.102 188.274 204.17C188.169 204.236 188.085 204.335 188.023 204.465C187.962 204.594 187.932 204.752 187.932 204.939V205.284C187.932 205.465 187.962 205.62 188.023 205.749C188.083 205.878 188.169 205.976 188.28 206.044C188.391 206.113 188.524 206.147 188.678 206.147C188.803 206.147 188.909 206.128 188.997 206.091C189.084 206.054 189.155 206.011 189.207 205.963C189.262 205.912 189.299 205.866 189.318 205.825L189.327 205.808H190.123L190.117 205.837C190.091 205.938 190.046 206.044 189.979 206.156C189.913 206.265 189.821 206.367 189.704 206.463C189.589 206.558 189.445 206.636 189.272 206.697C189.1 206.755 188.896 206.784 188.66 206.784ZM190.848 206.717V203.497H191.702V203.997H191.754C191.807 203.822 191.904 203.686 192.044 203.591C192.184 203.493 192.359 203.444 192.568 203.444C192.626 203.444 192.683 203.448 192.737 203.456C192.794 203.464 192.843 203.474 192.886 203.485V204.231C192.822 204.216 192.757 204.204 192.69 204.196C192.626 204.186 192.561 204.181 192.494 204.181C192.333 204.181 192.192 204.212 192.073 204.272C191.954 204.331 191.863 204.414 191.798 204.524C191.734 204.633 191.702 204.763 191.702 204.916V206.717H190.848ZM193.898 207.852C193.849 207.852 193.799 207.851 193.746 207.849C193.693 207.847 193.642 207.845 193.591 207.843V207.2C193.62 207.204 193.654 207.205 193.693 207.205C193.734 207.207 193.774 207.208 193.813 207.208C193.965 207.208 194.086 207.178 194.176 207.118C194.266 207.057 194.325 206.965 194.354 206.84L194.384 206.717L193.252 203.497H194.191L194.96 206.275L194.764 205.936H195.018L194.831 206.275L195.6 203.497H196.501L195.404 206.714C195.309 206.997 195.195 207.221 195.062 207.387C194.93 207.554 194.769 207.673 194.58 207.744C194.39 207.816 194.163 207.852 193.898 207.852ZM199.92 206.784C199.627 206.784 199.378 206.744 199.171 206.664C198.966 206.583 198.806 206.47 198.689 206.328C198.574 206.186 198.506 206.023 198.487 205.84L198.484 205.828H199.323L199.329 205.84C199.364 205.939 199.431 206.021 199.528 206.085C199.627 206.15 199.761 206.182 199.929 206.182C200.038 206.182 200.133 206.167 200.215 206.138C200.297 206.107 200.362 206.065 200.408 206.012C200.455 205.96 200.479 205.898 200.479 205.828V205.822C200.479 205.736 200.443 205.665 200.373 205.609C200.303 205.552 200.186 205.505 200.022 205.468L199.484 205.354C199.279 205.311 199.109 205.249 198.972 205.167C198.836 205.083 198.734 204.981 198.665 204.86C198.599 204.739 198.566 204.599 198.566 204.439V204.436C198.566 204.233 198.621 204.057 198.733 203.907C198.846 203.754 199.003 203.637 199.203 203.553C199.406 203.469 199.641 203.427 199.908 203.427C200.189 203.427 200.428 203.47 200.625 203.556C200.822 203.639 200.973 203.753 201.078 203.895C201.185 204.035 201.245 204.192 201.256 204.366V204.377H200.464L200.461 204.363C200.438 204.275 200.379 204.198 200.285 204.132C200.192 204.064 200.065 204.029 199.905 204.029C199.808 204.029 199.721 204.044 199.645 204.073C199.569 204.103 199.509 204.143 199.464 204.196C199.421 204.249 199.399 204.311 199.399 204.383V204.386C199.399 204.443 199.414 204.492 199.443 204.535C199.472 204.578 199.52 204.615 199.587 204.646C199.653 204.678 199.742 204.706 199.853 204.731L200.388 204.845C200.71 204.916 200.947 205.021 201.101 205.161C201.255 205.302 201.332 205.491 201.332 205.729V205.732C201.332 205.944 201.272 206.129 201.151 206.287C201.03 206.445 200.864 206.568 200.651 206.656C200.439 206.741 200.195 206.784 199.92 206.784ZM203.447 206.784C203.121 206.784 202.841 206.717 202.605 206.583C202.371 206.446 202.19 206.253 202.064 206.003C201.937 205.754 201.874 205.457 201.874 205.111V205.109C201.874 204.767 201.936 204.471 202.061 204.219C202.187 203.968 202.366 203.773 202.596 203.635C202.828 203.496 203.1 203.427 203.412 203.427C203.726 203.427 203.997 203.494 204.225 203.629C204.453 203.763 204.628 203.951 204.751 204.193C204.874 204.435 204.936 204.719 204.936 205.044V205.31H202.301V204.775H204.526L204.125 205.281V204.939C204.125 204.746 204.095 204.585 204.035 204.456C203.976 204.328 203.894 204.231 203.789 204.167C203.686 204.101 203.565 204.067 203.426 204.067C203.29 204.067 203.168 204.102 203.061 204.17C202.956 204.236 202.872 204.335 202.809 204.465C202.749 204.594 202.719 204.752 202.719 204.939V205.284C202.719 205.465 202.749 205.62 202.809 205.749C202.87 205.878 202.956 205.976 203.067 206.044C203.178 206.113 203.31 206.147 203.465 206.147C203.589 206.147 203.696 206.128 203.783 206.091C203.871 206.054 203.941 206.011 203.994 205.963C204.048 205.912 204.085 205.866 204.105 205.825L204.114 205.808H204.909L204.903 205.837C204.878 205.938 204.832 206.044 204.766 206.156C204.7 206.265 204.608 206.367 204.491 206.463C204.376 206.558 204.232 206.636 204.058 206.697C203.887 206.755 203.683 206.784 203.447 206.784ZM207.053 206.784C206.718 206.784 206.432 206.719 206.196 206.588C205.962 206.456 205.784 206.265 205.661 206.015C205.538 205.764 205.477 205.46 205.477 205.103V205.097C205.477 204.742 205.538 204.441 205.661 204.193C205.784 203.946 205.962 203.756 206.196 203.626C206.432 203.493 206.718 203.427 207.053 203.427C207.338 203.427 207.582 203.476 207.787 203.573C207.992 203.671 208.154 203.808 208.273 203.986C208.391 204.163 208.464 204.372 208.489 204.611V204.62H207.696L207.693 204.614C207.664 204.458 207.596 204.334 207.489 204.24C207.383 204.144 207.239 204.097 207.056 204.097C206.904 204.097 206.774 204.136 206.667 204.214C206.562 204.29 206.482 204.402 206.427 204.55C206.373 204.698 206.345 204.88 206.345 205.097V205.103C206.345 205.319 206.373 205.503 206.427 205.655C206.484 205.806 206.565 205.92 206.67 205.998C206.775 206.076 206.904 206.115 207.056 206.115C207.231 206.115 207.372 206.074 207.477 205.992C207.582 205.91 207.653 205.787 207.691 205.623L207.696 205.615L208.486 205.612V205.632C208.455 205.864 208.38 206.067 208.261 206.24C208.142 206.414 207.981 206.548 207.778 206.644C207.575 206.738 207.334 206.784 207.053 206.784ZM210.22 206.784C209.98 206.784 209.779 206.738 209.615 206.644C209.453 206.55 209.331 206.414 209.249 206.235C209.167 206.053 209.127 205.835 209.127 205.579V203.497H209.98V205.383C209.98 205.612 210.025 205.784 210.115 205.901C210.207 206.018 210.354 206.077 210.557 206.077C210.662 206.077 210.755 206.06 210.834 206.027C210.916 205.992 210.985 205.943 211.039 205.881C211.094 205.818 211.135 205.743 211.162 205.655C211.191 205.566 211.206 205.466 211.206 205.357V203.497H212.06V206.717H211.206V206.22H211.153C211.104 206.337 211.036 206.438 210.949 206.524C210.861 206.608 210.755 206.672 210.633 206.717C210.51 206.762 210.372 206.784 210.22 206.784ZM212.917 206.717V203.497H213.771V203.997H213.823C213.876 203.822 213.973 203.686 214.113 203.591C214.253 203.493 214.428 203.444 214.636 203.444C214.695 203.444 214.751 203.448 214.806 203.456C214.863 203.464 214.912 203.474 214.955 203.485V204.231C214.891 204.216 214.826 204.204 214.759 204.196C214.695 204.186 214.63 204.181 214.563 204.181C214.401 204.181 214.261 204.212 214.142 204.272C214.023 204.331 213.932 204.414 213.867 204.524C213.803 204.633 213.771 204.763 213.771 204.916V206.717H212.917ZM216.871 206.784C216.545 206.784 216.264 206.717 216.029 206.583C215.795 206.446 215.614 206.253 215.487 206.003C215.361 205.754 215.297 205.457 215.297 205.111V205.109C215.297 204.767 215.36 204.471 215.485 204.219C215.611 203.968 215.79 203.773 216.02 203.635C216.252 203.496 216.524 203.427 216.836 203.427C217.15 203.427 217.421 203.494 217.649 203.629C217.877 203.763 218.052 203.951 218.175 204.193C218.298 204.435 218.359 204.719 218.359 205.044V205.31H215.724V204.775H217.95L217.549 205.281V204.939C217.549 204.746 217.519 204.585 217.459 204.456C217.4 204.328 217.318 204.231 217.213 204.167C217.11 204.101 216.989 204.067 216.85 204.067C216.714 204.067 216.592 204.102 216.485 204.17C216.379 204.236 216.296 204.335 216.233 204.465C216.173 204.594 216.143 204.752 216.143 204.939V205.284C216.143 205.465 216.173 205.62 216.233 205.749C216.294 205.878 216.379 205.976 216.491 206.044C216.602 206.113 216.734 206.147 216.888 206.147C217.013 206.147 217.119 206.128 217.207 206.091C217.295 206.054 217.365 206.011 217.418 205.963C217.472 205.912 217.509 205.866 217.529 205.825L217.538 205.808H218.333L218.327 205.837C218.302 205.938 218.256 206.044 218.19 206.156C218.123 206.265 218.032 206.367 217.915 206.463C217.8 206.558 217.656 206.636 217.482 206.697C217.31 206.755 217.107 206.784 216.871 206.784ZM219.307 205.325L219.231 202.494H220.167L220.088 205.325H219.307ZM219.699 206.802C219.535 206.802 219.405 206.758 219.31 206.67C219.214 206.583 219.167 206.464 219.167 206.313C219.167 206.159 219.214 206.04 219.31 205.954C219.405 205.866 219.535 205.822 219.699 205.822C219.865 205.822 219.994 205.866 220.088 205.954C220.183 206.04 220.231 206.159 220.231 206.313C220.231 206.464 220.183 206.583 220.088 206.67C219.994 206.758 219.865 206.802 219.699 206.802ZM224.688 206.817C223.542 206.817 222.825 205.968 222.825 204.611V204.606C222.825 203.246 223.539 202.397 224.685 202.397C225.574 202.397 226.267 202.956 226.393 203.766L226.39 203.772H225.861L225.858 203.766C225.718 203.225 225.267 202.883 224.685 202.883C223.875 202.883 223.366 203.55 223.366 204.606V204.611C223.366 205.667 223.875 206.331 224.688 206.331C225.276 206.331 225.724 206.03 225.855 205.544L225.861 205.538H226.393V205.544C226.253 206.316 225.586 206.817 224.688 206.817ZM228.508 206.773C227.61 206.773 227.054 206.153 227.054 205.144V205.138C227.054 204.126 227.61 203.509 228.508 203.509C229.406 203.509 229.961 204.126 229.961 205.138V205.144C229.961 206.153 229.406 206.773 228.508 206.773ZM228.508 206.322C229.104 206.322 229.441 205.887 229.441 205.144V205.138C229.441 204.392 229.104 203.959 228.508 203.959C227.911 203.959 227.575 204.392 227.575 205.138V205.144C227.575 205.887 227.911 206.322 228.508 206.322ZM231.807 206.773C231.09 206.773 230.722 206.352 230.722 205.606V203.564H231.231V205.483C231.231 206.05 231.435 206.322 231.938 206.322C232.494 206.322 232.789 205.983 232.789 205.43V203.564H233.298V206.717H232.789V206.246H232.743C232.588 206.583 232.269 206.773 231.807 206.773ZM234.278 206.717V202.313H234.787V206.717H234.278ZM236.928 206.773C236.129 206.773 235.606 206.126 235.606 205.144V205.138C235.606 204.149 236.126 203.509 236.928 203.509C237.36 203.509 237.738 203.725 237.91 204.062H237.957V202.313H238.466V206.717H237.957V206.214H237.91C237.717 206.565 237.366 206.773 236.928 206.773ZM237.045 206.322C237.618 206.322 237.969 205.872 237.969 205.144V205.138C237.969 204.41 237.618 203.959 237.045 203.959C236.468 203.959 236.126 204.404 236.126 205.138V205.144C236.126 205.878 236.468 206.322 237.045 206.322ZM242.247 206.74C241.598 206.74 241.326 206.501 241.326 205.898V203.986H240.829V203.564H241.326V202.748H241.853V203.564H242.543V203.986H241.853V205.77C241.853 206.141 241.981 206.29 242.309 206.29C242.399 206.29 242.449 206.287 242.543 206.278V206.711C242.443 206.729 242.347 206.74 242.247 206.74ZM244.169 206.773C243.569 206.773 243.116 206.41 243.116 205.837V205.831C243.116 205.269 243.531 204.945 244.265 204.901L245.169 204.845V204.559C245.169 204.17 244.932 203.959 244.461 203.959C244.084 203.959 243.835 204.1 243.754 204.345L243.751 204.354H243.242L243.245 204.336C243.327 203.842 243.806 203.509 244.479 203.509C245.248 203.509 245.678 203.904 245.678 204.559V206.717H245.169V206.252H245.122C244.923 206.588 244.593 206.773 244.169 206.773ZM243.637 205.825C243.637 206.144 243.909 206.331 244.274 206.331C244.792 206.331 245.169 205.992 245.169 205.541V205.255L244.327 205.307C243.847 205.337 243.637 205.506 243.637 205.819V205.825ZM246.637 206.717V202.313H247.146V204.942H247.193L248.556 203.564H249.173L247.798 204.889L249.263 206.717H248.623L247.441 205.234L247.146 205.521V206.717H246.637ZM251.001 206.773C250.1 206.773 249.556 206.141 249.556 205.152V205.15C249.556 204.176 250.112 203.509 250.969 203.509C251.825 203.509 252.346 204.146 252.346 205.088V205.287H250.077C250.091 205.939 250.451 206.319 251.012 206.319C251.439 206.319 251.703 206.118 251.787 205.927L251.799 205.901H252.308L252.302 205.925C252.194 206.352 251.744 206.773 251.001 206.773ZM250.966 203.962C250.498 203.962 250.141 204.281 250.085 204.88H251.828C251.776 204.258 251.431 203.962 250.966 203.962ZM256.11 206.773C255.227 206.773 254.662 206.132 254.662 205.132V205.126C254.662 204.146 255.224 203.509 256.107 203.509C256.873 203.509 257.332 203.95 257.426 204.512L257.429 204.529H256.923L256.92 204.521C256.841 204.211 256.56 203.959 256.107 203.959C255.54 203.959 255.183 204.415 255.183 205.126V205.132C255.183 205.857 255.545 206.322 256.107 206.322C256.531 206.322 256.8 206.135 256.917 205.784L256.923 205.767L257.426 205.764L257.42 205.796C257.291 206.366 256.867 206.773 256.11 206.773ZM259.459 206.773C258.558 206.773 258.014 206.141 258.014 205.152V205.15C258.014 204.176 258.57 203.509 259.426 203.509C260.283 203.509 260.804 204.146 260.804 205.088V205.287H258.534C258.549 205.939 258.909 206.319 259.47 206.319C259.897 206.319 260.16 206.118 260.245 205.927L260.257 205.901H260.766L260.76 205.925C260.652 206.352 260.201 206.773 259.459 206.773ZM259.423 203.962C258.956 203.962 258.599 204.281 258.543 204.88H260.286C260.234 204.258 259.889 203.962 259.423 203.962ZM261.594 206.717V203.564H262.102V204.038H262.149C262.307 203.705 262.603 203.509 263.068 203.509C263.775 203.509 264.17 203.927 264.17 204.676V206.717H263.661V204.799C263.661 204.231 263.427 203.959 262.924 203.959C262.421 203.959 262.102 204.298 262.102 204.851V206.717H261.594ZM266.211 206.74C265.562 206.74 265.29 206.501 265.29 205.898V203.986H264.793V203.564H265.29V202.748H265.817V203.564H266.507V203.986H265.817V205.77C265.817 206.141 265.945 206.29 266.273 206.29C266.364 206.29 266.413 206.287 266.507 206.278V206.711C266.407 206.729 266.311 206.74 266.211 206.74ZM268.323 206.773C267.606 206.773 267.238 206.352 267.238 205.606V203.564H267.747V205.483C267.747 206.05 267.952 206.322 268.455 206.322C269.01 206.322 269.306 205.983 269.306 205.43V203.564H269.815V206.717H269.306V206.246H269.259C269.104 206.583 268.785 206.773 268.323 206.773ZM270.765 206.717V203.564H271.274V204.032H271.321C271.441 203.702 271.736 203.509 272.163 203.509C272.259 203.509 272.368 203.521 272.417 203.529V204.024C272.312 204.006 272.216 203.994 272.104 203.994C271.619 203.994 271.274 204.301 271.274 204.763V206.717H270.765ZM273.315 202.956C273.122 202.956 272.964 202.798 272.964 202.605C272.964 202.412 273.122 202.254 273.315 202.254C273.508 202.254 273.666 202.412 273.666 202.605C273.666 202.798 273.508 202.956 273.315 202.956ZM273.058 206.717V203.564H273.567V206.717H273.058ZM275.813 206.773C274.912 206.773 274.368 206.141 274.368 205.152V205.15C274.368 204.176 274.924 203.509 275.781 203.509C276.638 203.509 277.158 204.146 277.158 205.088V205.287H274.889C274.903 205.939 275.263 206.319 275.825 206.319C276.252 206.319 276.515 206.118 276.6 205.927L276.611 205.901H277.12L277.114 205.925C277.006 206.352 276.556 206.773 275.813 206.773ZM275.778 203.962C275.31 203.962 274.953 204.281 274.897 204.88H276.641C276.588 204.258 276.243 203.962 275.778 203.962ZM279.03 206.773C278.328 206.773 277.845 206.433 277.787 205.913H278.308C278.392 206.176 278.644 206.349 279.047 206.349C279.472 206.349 279.773 206.147 279.773 205.86V205.854C279.773 205.641 279.612 205.492 279.223 205.398L278.735 205.281C278.144 205.141 277.878 204.883 277.878 204.43V204.427C277.878 203.904 278.381 203.509 279.05 203.509C279.711 203.509 280.17 203.839 280.241 204.354H279.741C279.673 204.105 279.428 203.933 279.047 203.933C278.673 203.933 278.398 204.126 278.398 204.404V204.41C278.398 204.623 278.556 204.758 278.928 204.848L279.413 204.965C280.007 205.109 280.293 205.366 280.293 205.816V205.822C280.293 206.384 279.746 206.773 279.03 206.773ZM283.888 206.74C283.238 206.74 282.966 206.501 282.966 205.898V203.986H282.469V203.564H282.966V202.748H283.493V203.564H284.183V203.986H283.493V205.77C283.493 206.141 283.622 206.29 283.949 206.29C284.04 206.29 284.089 206.287 284.183 206.278V206.711C284.084 206.729 283.987 206.74 283.888 206.74ZM286.192 206.773C285.294 206.773 284.739 206.153 284.739 205.144V205.138C284.739 204.126 285.294 203.509 286.192 203.509C287.09 203.509 287.646 204.126 287.646 205.138V205.144C287.646 206.153 287.09 206.773 286.192 206.773ZM286.192 206.322C286.789 206.322 287.125 205.887 287.125 205.144V205.138C287.125 204.392 286.789 203.959 286.192 203.959C285.596 203.959 285.259 204.392 285.259 205.138V205.144C285.259 205.887 285.596 206.322 286.192 206.322ZM291.41 206.773C290.526 206.773 289.962 206.132 289.962 205.132V205.126C289.962 204.146 290.524 203.509 291.407 203.509C292.173 203.509 292.632 203.95 292.726 204.512L292.729 204.529H292.223L292.22 204.521C292.141 204.211 291.86 203.959 291.407 203.959C290.839 203.959 290.483 204.415 290.483 205.126V205.132C290.483 205.857 290.845 206.322 291.407 206.322C291.831 206.322 292.1 206.135 292.217 205.784L292.223 205.767L292.726 205.764L292.72 205.796C292.591 206.366 292.167 206.773 291.41 206.773ZM293.472 206.717V203.564H293.98V204.032H294.027C294.147 203.702 294.442 203.509 294.869 203.509C294.966 203.509 295.074 203.521 295.124 203.529V204.024C295.019 204.006 294.922 203.994 294.811 203.994C294.325 203.994 293.98 204.301 293.98 204.763V206.717H293.472ZM296.618 206.773C296.019 206.773 295.566 206.41 295.566 205.837V205.831C295.566 205.269 295.981 204.945 296.715 204.901L297.619 204.845V204.559C297.619 204.17 297.382 203.959 296.911 203.959C296.534 203.959 296.285 204.1 296.203 204.345L296.2 204.354H295.691L295.694 204.336C295.776 203.842 296.256 203.509 296.928 203.509C297.698 203.509 298.127 203.904 298.127 204.559V206.717H297.619V206.252H297.572C297.373 206.588 297.042 206.773 296.618 206.773ZM296.086 205.825C296.086 206.144 296.358 206.331 296.724 206.331C297.241 206.331 297.619 205.992 297.619 205.541V205.255L296.776 205.307C296.297 205.337 296.086 205.506 296.086 205.819V205.825ZM300.347 206.773C299.464 206.773 298.9 206.132 298.9 205.132V205.126C298.9 204.146 299.461 203.509 300.344 203.509C301.111 203.509 301.57 203.95 301.663 204.512L301.666 204.529H301.16L301.157 204.521C301.078 204.211 300.798 203.959 300.344 203.959C299.777 203.959 299.42 204.415 299.42 205.126V205.132C299.42 205.857 299.783 206.322 300.344 206.322C300.768 206.322 301.037 206.135 301.154 205.784L301.16 205.767L301.663 205.764L301.657 205.796C301.529 206.366 301.105 206.773 300.347 206.773ZM302.438 206.717V202.313H302.947V204.942H302.994L304.357 203.564H304.974L303.599 204.889L305.065 206.717H304.424L303.243 205.234L302.947 205.521V206.717H302.438ZM306.076 206.746C305.869 206.746 305.696 206.574 305.696 206.366C305.696 206.156 305.869 205.986 306.076 205.986C306.287 205.986 306.457 206.156 306.457 206.366C306.457 206.574 306.287 206.746 306.076 206.746Z" fill="#001D2F"/>
<path d="M183.317 229.691V229.328L184.744 227.784C185.282 227.202 185.44 226.983 185.44 226.614V226.608C185.44 226.164 185.139 225.83 184.642 225.83C184.136 225.83 183.8 226.161 183.8 226.658L183.797 226.664L183.294 226.661L183.288 226.658C183.291 225.909 183.87 225.371 184.677 225.371C185.414 225.371 185.978 225.871 185.978 226.553V226.559C185.978 227.041 185.771 227.392 185.007 228.179L184.048 229.17V229.217H186.049V229.691H183.317ZM186.999 229.691V225.471H189.561V225.945H187.526V227.395H189.394V227.863H187.526V229.691H186.999ZM189.886 229.691L191.442 225.471H191.962L193.518 229.691H192.965L192.541 228.483H190.862L190.438 229.691H189.886ZM191.678 226.152L191.017 228.036H192.386L191.725 226.152H191.678ZM196.77 229.691L195.603 226.538H196.141L197.004 229.135H197.051L197.914 226.538H198.452L197.285 229.691H196.77ZM200.294 229.747C199.393 229.747 198.85 229.115 198.85 228.126V228.123C198.85 227.149 199.405 226.483 200.262 226.483C201.119 226.483 201.64 227.12 201.64 228.062V228.261H199.37C199.385 228.913 199.744 229.293 200.306 229.293C200.733 229.293 200.996 229.091 201.081 228.901L201.093 228.875H201.602L201.596 228.898C201.487 229.325 201.037 229.747 200.294 229.747ZM200.259 226.936C199.791 226.936 199.434 227.255 199.379 227.854H201.122C201.069 227.231 200.724 226.936 200.259 226.936ZM202.429 229.691V226.538H202.938V227.006H202.985C203.105 226.676 203.4 226.483 203.827 226.483C203.924 226.483 204.032 226.494 204.082 226.503V226.997C203.976 226.98 203.88 226.968 203.769 226.968C203.283 226.968 202.938 227.275 202.938 227.737V229.691H202.429ZM204.979 225.93C204.786 225.93 204.628 225.772 204.628 225.579C204.628 225.386 204.786 225.228 204.979 225.228C205.172 225.228 205.33 225.386 205.33 225.579C205.33 225.772 205.172 225.93 204.979 225.93ZM204.722 229.691V226.538H205.231V229.691H204.722ZM206.401 229.691V226.959H205.877V226.538H206.401V226.187C206.401 225.558 206.717 225.257 207.316 225.257C207.439 225.257 207.55 225.266 207.655 225.287V225.693C207.594 225.681 207.509 225.678 207.419 225.678C207.056 225.678 206.91 225.857 206.91 226.202V226.538H207.626V226.959H206.91V229.691H206.401ZM208.629 225.93C208.436 225.93 208.278 225.772 208.278 225.579C208.278 225.386 208.436 225.228 208.629 225.228C208.822 225.228 208.98 225.386 208.98 225.579C208.98 225.772 208.822 225.93 208.629 225.93ZM208.372 229.691V226.538H208.881V229.691H208.372ZM211.13 229.747C210.247 229.747 209.682 229.106 209.682 228.106V228.1C209.682 227.12 210.244 226.483 211.127 226.483C211.893 226.483 212.352 226.924 212.446 227.486L212.449 227.503H211.943L211.94 227.495C211.861 227.185 211.58 226.933 211.127 226.933C210.56 226.933 210.203 227.389 210.203 228.1V228.106C210.203 228.831 210.565 229.296 211.127 229.296C211.551 229.296 211.82 229.109 211.937 228.758L211.943 228.74L212.446 228.738L212.44 228.77C212.311 229.34 211.887 229.747 211.13 229.747ZM214.057 229.747C213.458 229.747 213.005 229.384 213.005 228.811V228.805C213.005 228.243 213.42 227.919 214.154 227.875L215.058 227.819V227.533C215.058 227.144 214.821 226.933 214.35 226.933C213.973 226.933 213.724 227.073 213.642 227.319L213.639 227.328H213.13L213.133 227.31C213.215 226.816 213.695 226.483 214.367 226.483C215.137 226.483 215.566 226.877 215.566 227.533V229.691H215.058V229.226H215.011C214.812 229.562 214.481 229.747 214.057 229.747ZM213.525 228.799C213.525 229.118 213.797 229.305 214.163 229.305C214.68 229.305 215.058 228.966 215.058 228.515V228.229L214.215 228.281C213.736 228.311 213.525 228.48 213.525 228.793V228.799ZM217.617 229.714C216.967 229.714 216.695 229.475 216.695 228.872V226.959H216.198V226.538H216.695V225.722H217.222V226.538H217.912V226.959H217.222V228.743C217.222 229.115 217.35 229.264 217.678 229.264C217.769 229.264 217.818 229.261 217.912 229.252V229.685C217.813 229.703 217.716 229.714 217.617 229.714ZM218.941 225.93C218.748 225.93 218.59 225.772 218.59 225.579C218.59 225.386 218.748 225.228 218.941 225.228C219.134 225.228 219.292 225.386 219.292 225.579C219.292 225.772 219.134 225.93 218.941 225.93ZM218.684 229.691V226.538H219.193V229.691H218.684ZM221.448 229.747C220.55 229.747 219.994 229.126 219.994 228.118V228.112C219.994 227.1 220.55 226.483 221.448 226.483C222.346 226.483 222.901 227.1 222.901 228.112V228.118C222.901 229.126 222.346 229.747 221.448 229.747ZM221.448 229.296C222.044 229.296 222.381 228.86 222.381 228.118V228.112C222.381 227.366 222.044 226.933 221.448 226.933C220.851 226.933 220.515 227.366 220.515 228.112V228.118C220.515 228.86 220.851 229.296 221.448 229.296ZM223.691 229.691V226.538H224.2V227.012H224.247C224.405 226.679 224.7 226.483 225.165 226.483C225.873 226.483 226.267 226.901 226.267 227.65V229.691H225.759V227.772C225.759 227.205 225.525 226.933 225.022 226.933C224.519 226.933 224.2 227.272 224.2 227.825V229.691H223.691ZM230.163 229.747C229.28 229.747 228.715 229.106 228.715 228.106V228.1C228.715 227.12 229.277 226.483 230.16 226.483C230.926 226.483 231.386 226.924 231.479 227.486L231.482 227.503H230.976L230.973 227.495C230.894 227.185 230.613 226.933 230.16 226.933C229.593 226.933 229.236 227.389 229.236 228.1V228.106C229.236 228.831 229.599 229.296 230.16 229.296C230.584 229.296 230.853 229.109 230.97 228.758L230.976 228.74L231.479 228.738L231.473 228.77C231.345 229.34 230.921 229.747 230.163 229.747ZM233.52 229.747C232.623 229.747 232.067 229.126 232.067 228.118V228.112C232.067 227.1 232.623 226.483 233.52 226.483C234.418 226.483 234.974 227.1 234.974 228.112V228.118C234.974 229.126 234.418 229.747 233.52 229.747ZM233.52 229.296C234.117 229.296 234.453 228.86 234.453 228.118V228.112C234.453 227.366 234.117 226.933 233.52 226.933C232.924 226.933 232.588 227.366 232.588 228.112V228.118C232.588 228.86 232.924 229.296 233.52 229.296ZM236.928 229.747C236.129 229.747 235.606 229.1 235.606 228.118V228.112C235.606 227.123 236.126 226.483 236.928 226.483C237.36 226.483 237.738 226.699 237.91 227.035H237.957V225.287H238.466V229.691H237.957V229.188H237.91C237.717 229.539 237.366 229.747 236.928 229.747ZM237.045 229.296C237.618 229.296 237.969 228.846 237.969 228.118V228.112C237.969 227.383 237.618 226.933 237.045 226.933C236.468 226.933 236.126 227.378 236.126 228.112V228.118C236.126 228.852 236.468 229.296 237.045 229.296ZM240.73 229.747C239.829 229.747 239.285 229.115 239.285 228.126V228.123C239.285 227.149 239.84 226.483 240.697 226.483C241.554 226.483 242.075 227.12 242.075 228.062V228.261H239.805C239.82 228.913 240.18 229.293 240.741 229.293C241.168 229.293 241.431 229.091 241.516 228.901L241.528 228.875H242.037L242.031 228.898C241.923 229.325 241.472 229.747 240.73 229.747ZM240.694 226.936C240.227 226.936 239.87 227.255 239.814 227.854H241.557C241.505 227.231 241.159 226.936 240.694 226.936Z" fill="#667782"/>
<path d="M186.083 240.691C185.932 240.87 185.751 241.015 185.541 241.124C185.333 241.233 185.104 241.288 184.854 241.288C184.527 241.288 184.241 241.207 183.997 241.046C183.755 240.885 183.568 240.658 183.435 240.367C183.302 240.074 183.236 239.75 183.236 239.396C183.236 239.017 183.308 238.675 183.451 238.371C183.596 238.067 183.802 237.834 184.067 237.673C184.332 237.512 184.641 237.431 184.995 237.431C185.556 237.431 185.998 237.642 186.321 238.063C186.646 238.481 186.808 239.053 186.808 239.778V239.989C186.808 241.094 186.59 241.901 186.153 242.411C185.716 242.918 185.057 243.177 184.176 243.19H184.036V242.582H184.188C184.783 242.572 185.24 242.417 185.56 242.118C185.88 241.817 186.054 241.341 186.083 240.691ZM184.971 240.691C185.213 240.691 185.435 240.617 185.638 240.469C185.844 240.32 185.993 240.137 186.087 239.919V239.63C186.087 239.157 185.984 238.772 185.779 238.476C185.573 238.18 185.313 238.032 184.999 238.032C184.682 238.032 184.427 238.154 184.234 238.398C184.042 238.64 183.946 238.96 183.946 239.357C183.946 239.745 184.038 240.064 184.223 240.317C184.41 240.566 184.659 240.691 184.971 240.691ZM190.607 240.691C190.456 240.87 190.276 241.015 190.065 241.124C189.857 241.233 189.628 241.288 189.379 241.288C189.051 241.288 188.765 241.207 188.521 241.046C188.279 240.885 188.092 240.658 187.959 240.367C187.827 240.074 187.76 239.75 187.76 239.396C187.76 239.017 187.832 238.675 187.975 238.371C188.12 238.067 188.326 237.834 188.591 237.673C188.856 237.512 189.166 237.431 189.519 237.431C190.081 237.431 190.523 237.642 190.845 238.063C191.17 238.481 191.332 239.053 191.332 239.778V239.989C191.332 241.094 191.114 241.901 190.677 242.411C190.24 242.918 189.581 243.177 188.7 243.19H188.56V242.582H188.712C189.307 242.572 189.765 242.417 190.084 242.118C190.404 241.817 190.578 241.341 190.607 240.691ZM189.496 240.691C189.737 240.691 189.96 240.617 190.162 240.469C190.368 240.32 190.517 240.137 190.611 239.919V239.63C190.611 239.157 190.508 238.772 190.303 238.476C190.097 238.18 189.838 238.032 189.523 238.032C189.206 238.032 188.951 238.154 188.759 238.398C188.566 238.64 188.47 238.96 188.47 239.357C188.47 239.745 188.562 240.064 188.747 240.317C188.934 240.566 189.184 240.691 189.496 240.691ZM194.737 243.187H194.012V238.379L192.558 238.913V238.258L194.624 237.482H194.737V243.187ZM198.466 241.069H196.563V240.48H198.466V241.069ZM202.581 238.991C202.581 239.274 202.506 239.526 202.355 239.747C202.207 239.968 202.005 240.141 201.751 240.266C202.047 240.393 202.281 240.579 202.452 240.824C202.627 241.068 202.714 241.345 202.714 241.654C202.714 242.145 202.547 242.537 202.215 242.828C201.884 243.119 201.449 243.265 200.908 243.265C200.362 243.265 199.924 243.119 199.594 242.828C199.267 242.534 199.103 242.143 199.103 241.654C199.103 241.347 199.186 241.07 199.352 240.824C199.521 240.577 199.754 240.389 200.05 240.262C199.798 240.137 199.599 239.964 199.454 239.743C199.308 239.522 199.235 239.272 199.235 238.991C199.235 238.512 199.389 238.133 199.696 237.852C200.002 237.571 200.407 237.431 200.908 237.431C201.407 237.431 201.81 237.571 202.117 237.852C202.426 238.133 202.581 238.512 202.581 238.991ZM201.992 241.639C201.992 241.321 201.891 241.063 201.688 240.863C201.488 240.662 201.225 240.562 200.9 240.562C200.576 240.562 200.314 240.661 200.117 240.859C199.922 241.056 199.824 241.316 199.824 241.639C199.824 241.961 199.919 242.214 200.109 242.399C200.301 242.583 200.568 242.676 200.908 242.676C201.246 242.676 201.511 242.583 201.704 242.399C201.896 242.212 201.992 241.958 201.992 241.639ZM200.908 238.024C200.625 238.024 200.395 238.112 200.218 238.289C200.044 238.463 199.957 238.701 199.957 239.002C199.957 239.291 200.043 239.525 200.214 239.704C200.388 239.881 200.62 239.97 200.908 239.97C201.197 239.97 201.427 239.881 201.598 239.704C201.773 239.525 201.86 239.291 201.86 239.002C201.86 238.714 201.77 238.479 201.591 238.297C201.411 238.115 201.184 238.024 200.908 238.024ZM204.711 239.997H205.253C205.594 239.992 205.861 239.902 206.056 239.728C206.251 239.554 206.349 239.318 206.349 239.022C206.349 238.356 206.017 238.024 205.355 238.024C205.043 238.024 204.793 238.113 204.606 238.293C204.421 238.47 204.329 238.705 204.329 238.999H203.608C203.608 238.549 203.771 238.176 204.099 237.879C204.429 237.58 204.848 237.431 205.355 237.431C205.89 237.431 206.31 237.573 206.614 237.856C206.918 238.139 207.07 238.533 207.07 239.038C207.07 239.285 206.99 239.524 206.829 239.755C206.67 239.986 206.453 240.159 206.177 240.274C206.489 240.372 206.73 240.536 206.899 240.765C207.07 240.994 207.156 241.273 207.156 241.603C207.156 242.113 206.99 242.517 206.657 242.816C206.324 243.115 205.891 243.265 205.358 243.265C204.826 243.265 204.391 243.12 204.056 242.832C203.723 242.543 203.557 242.162 203.557 241.689H204.282C204.282 241.988 204.38 242.227 204.575 242.407C204.77 242.586 205.031 242.676 205.358 242.676C205.707 242.676 205.973 242.585 206.158 242.403C206.342 242.221 206.435 241.96 206.435 241.619C206.435 241.289 206.333 241.035 206.131 240.859C205.928 240.682 205.635 240.591 205.253 240.586H204.711V239.997ZM211.232 241.28H212.02V241.869H211.232V243.187H210.507V241.869H207.921V241.444L210.464 237.509H211.232V241.28ZM208.74 241.28H210.507V238.496L210.421 238.652L208.74 241.28Z" fill="#001D2F"/>
<path fill-rule="evenodd" clip-rule="evenodd" d="M297.666 235.629C297.941 235.629 298.165 235.852 298.165 236.128C298.165 236.384 297.972 236.595 297.724 236.623L297.666 236.627H297.277L297.277 237.437C298.993 237.675 300.323 239.12 300.381 240.887L300.383 241.008C300.383 242.999 298.769 244.613 296.778 244.613C295.65 244.613 294.642 244.094 293.981 243.282L292.785 243.282C292.51 243.282 292.286 243.058 292.286 242.783C292.286 242.527 292.479 242.316 292.727 242.287L292.785 242.284L293.406 242.284C293.312 242.037 293.245 241.777 293.208 241.507L291.898 241.507C291.622 241.507 291.399 241.284 291.399 241.008C291.399 240.752 291.592 240.541 291.84 240.512L291.898 240.509L293.208 240.509C293.245 240.239 293.312 239.98 293.406 239.733L292.785 239.732C292.51 239.732 292.286 239.509 292.286 239.233C292.286 238.977 292.479 238.766 292.727 238.738L292.785 238.734L293.981 238.734C294.543 238.044 295.355 237.566 296.279 237.437L296.279 236.627H295.891C295.615 236.627 295.392 236.403 295.392 236.128C295.392 235.872 295.585 235.661 295.833 235.632L295.891 235.629H297.666ZM296.778 238.401C295.339 238.401 294.172 239.568 294.172 241.008L294.174 240.925C294.179 240.952 294.181 240.98 294.181 241.008C294.181 241.036 294.179 241.064 294.174 241.091C294.217 242.492 295.367 243.615 296.778 243.615C298.218 243.615 299.385 242.448 299.385 241.008C299.385 239.568 298.218 238.401 296.778 238.401ZM296.778 238.645C297.034 238.645 297.245 238.838 297.274 239.086L297.278 239.145L297.277 240.699L298.244 241.183C298.473 241.297 298.575 241.564 298.49 241.799L298.467 241.852C298.353 242.081 298.086 242.184 297.851 242.099L297.797 242.076L296.555 241.454C296.405 241.379 296.304 241.234 296.283 241.07L296.279 241.008V239.145C296.279 238.869 296.503 238.645 296.778 238.645Z" fill="#667782"/>
<path d="M307.149 242.762C306.173 242.762 305.536 242.226 305.476 241.469L305.473 241.431H306.151L306.154 241.463C306.199 241.878 306.582 242.169 307.149 242.169C307.707 242.169 308.084 241.856 308.084 241.406V241.399C308.084 240.883 307.71 240.595 307.101 240.595H306.544V240.043H307.079C307.602 240.043 307.957 239.736 307.957 239.311V239.305C307.957 238.862 307.659 238.602 307.143 238.602C306.636 238.602 306.281 238.871 306.237 239.302L306.233 239.334H305.568L305.571 239.299C305.641 238.529 306.249 238.019 307.143 238.019C308.052 238.019 308.648 238.507 308.648 239.213V239.22C308.648 239.787 308.242 240.167 307.684 240.284V240.3C308.356 240.36 308.806 240.766 308.806 241.406V241.412C308.806 242.198 308.119 242.762 307.149 242.762ZM311.269 242.787C310.214 242.787 309.58 241.865 309.58 240.392V240.385C309.58 238.912 310.214 237.993 311.269 237.993C312.321 237.993 312.958 238.912 312.958 240.385V240.392C312.958 241.865 312.321 242.787 311.269 242.787ZM311.269 242.198C311.881 242.198 312.242 241.51 312.242 240.392V240.385C312.242 239.267 311.881 238.586 311.269 238.586C310.654 238.586 310.296 239.267 310.296 240.385V240.392C310.296 241.51 310.654 242.198 311.269 242.198Z" fill="#667782"/>
<path fill-rule="evenodd" clip-rule="evenodd" d="M327.094 238.479C327.921 238.479 328.592 239.15 328.592 239.976V243.171C328.592 243.998 327.921 244.668 327.094 244.668H323.9C323.073 244.668 322.403 243.998 322.403 243.171V239.976C322.403 239.15 323.073 238.479 323.9 238.479H327.094ZM327.094 239.477H323.9C323.624 239.477 323.401 239.701 323.401 239.976V243.171C323.401 243.447 323.624 243.67 323.9 243.67H327.094C327.37 243.67 327.593 243.447 327.593 243.171V239.976C327.593 239.701 327.37 239.477 327.094 239.477ZM324.499 235.684C325.188 235.684 325.752 236.221 325.794 236.9L325.797 236.982V237.381C325.797 237.657 325.573 237.88 325.297 237.88C325.042 237.88 324.831 237.687 324.802 237.439L324.798 237.381V236.982C324.798 236.833 324.69 236.709 324.547 236.686L324.499 236.682H320.905C320.756 236.682 320.633 236.791 320.61 236.933L320.606 236.982V240.575C320.606 240.724 320.714 240.848 320.857 240.871L320.905 240.875H321.304C321.58 240.875 321.804 241.098 321.804 241.374C321.804 241.63 321.611 241.841 321.363 241.87L321.304 241.873H320.905C320.216 241.873 319.652 241.336 319.61 240.658L319.607 240.575V236.982C319.607 236.293 320.145 235.729 320.823 235.687L320.905 235.684H324.499Z" fill="#001D2F"/>
<path d="M184.259 267.16L183.109 262.94H183.659L184.499 266.371H184.534L185.478 262.94H186.011L186.955 266.371H186.99L187.83 262.94H188.38L187.23 267.16H186.733L185.762 263.829H185.727L184.756 267.16H184.259ZM190.111 267.216C189.21 267.216 188.666 266.584 188.666 265.596V265.593C188.666 264.619 189.222 263.952 190.079 263.952C190.936 263.952 191.456 264.59 191.456 265.531V265.73H189.187C189.201 266.383 189.561 266.763 190.123 266.763C190.55 266.763 190.813 266.561 190.898 266.371L190.909 266.344H191.418L191.412 266.368C191.304 266.795 190.854 267.216 190.111 267.216ZM190.076 264.405C189.608 264.405 189.251 264.724 189.195 265.324H190.939C190.886 264.701 190.541 264.405 190.076 264.405ZM193.813 267.216C193.375 267.216 193.024 267.008 192.831 266.657H192.784V267.16H192.275V262.756H192.784V264.505H192.831C193.003 264.169 193.381 263.952 193.813 263.952C194.615 263.952 195.135 264.593 195.135 265.581V265.587C195.135 266.57 194.612 267.216 193.813 267.216ZM193.696 266.766C194.273 266.766 194.615 266.321 194.615 265.587V265.581C194.615 264.847 194.273 264.403 193.696 264.403C193.123 264.403 192.772 264.853 192.772 265.581V265.587C192.772 266.315 193.123 266.766 193.696 266.766ZM197.007 267.216C196.305 267.216 195.823 266.877 195.764 266.356H196.285C196.369 266.619 196.621 266.792 197.025 266.792C197.449 266.792 197.75 266.59 197.75 266.304V266.298C197.75 266.084 197.589 265.935 197.2 265.841L196.712 265.724C196.121 265.584 195.855 265.327 195.855 264.873V264.87C195.855 264.347 196.358 263.952 197.027 263.952C197.688 263.952 198.148 264.283 198.218 264.797H197.718C197.65 264.549 197.405 264.376 197.025 264.376C196.65 264.376 196.375 264.569 196.375 264.847V264.853C196.375 265.066 196.533 265.201 196.905 265.292L197.39 265.409C197.984 265.552 198.27 265.809 198.27 266.26V266.266C198.27 266.827 197.724 267.216 197.007 267.216ZM199.329 263.399C199.136 263.399 198.978 263.242 198.978 263.048C198.978 262.855 199.136 262.698 199.329 262.698C199.522 262.698 199.68 262.855 199.68 263.048C199.68 263.242 199.522 263.399 199.329 263.399ZM199.072 267.16V264.008H199.581V267.16H199.072ZM201.66 267.184C201.011 267.184 200.739 266.944 200.739 266.342V264.429H200.242V264.008H200.739V263.192H201.265V264.008H201.955V264.429H201.265V266.213C201.265 266.584 201.394 266.733 201.721 266.733C201.812 266.733 201.862 266.731 201.955 266.722V267.155C201.856 267.172 201.759 267.184 201.66 267.184ZM203.956 267.216C203.055 267.216 202.511 266.584 202.511 265.596V265.593C202.511 264.619 203.067 263.952 203.924 263.952C204.781 263.952 205.301 264.59 205.301 265.531V265.73H203.032C203.046 266.383 203.406 266.763 203.968 266.763C204.395 266.763 204.658 266.561 204.743 266.371L204.754 266.344H205.263L205.257 266.368C205.149 266.795 204.699 267.216 203.956 267.216ZM203.921 264.405C203.453 264.405 203.096 264.724 203.04 265.324H204.783C204.731 264.701 204.386 264.405 203.921 264.405ZM209.513 267.26C208.466 267.26 207.834 266.628 207.834 265.71V262.94H208.36V265.675C208.36 266.324 208.781 266.774 209.513 266.774C210.244 266.774 210.659 266.324 210.659 265.675V262.94H211.185V265.71C211.185 266.628 210.56 267.26 209.513 267.26ZM212.256 267.16V262.94H213.867C214.68 262.94 215.213 263.437 215.213 264.195V264.201C215.213 264.786 214.894 265.242 214.364 265.409L215.341 267.16H214.724L213.82 265.491H212.782V267.16H212.256ZM212.782 265.023H213.82C214.362 265.023 214.669 264.733 214.669 264.218V264.212C214.669 263.709 214.341 263.408 213.797 263.408H212.782V265.023ZM216.169 267.16V262.94H216.695V266.687H218.731V267.16H216.169Z" fill="#667782"/>
<path d="M183.559 280.656V274.416H184.28V276.861H184.346C184.57 276.389 184.988 276.111 185.647 276.111C186.65 276.111 187.209 276.704 187.209 277.764V280.656H186.488V277.938C186.488 277.134 186.157 276.749 185.444 276.749C184.731 276.749 184.28 277.23 184.28 278.013V280.656H183.559ZM189.886 280.689C188.966 280.689 188.581 280.349 188.581 279.496V276.786H187.877V276.19H188.581V275.034H189.327V276.19H190.305V276.786H189.327V279.314C189.327 279.84 189.509 280.051 189.973 280.051C190.102 280.051 190.172 280.047 190.305 280.035V280.648C190.164 280.673 190.027 280.689 189.886 280.689ZM192.754 280.689C191.834 280.689 191.449 280.349 191.449 279.496V276.786H190.745V276.19H191.449V275.034H192.195V276.19H193.173V276.786H192.195V279.314C192.195 279.84 192.377 280.051 192.841 280.051C192.97 280.051 193.04 280.047 193.173 280.035V280.648C193.032 280.673 192.895 280.689 192.754 280.689ZM194.035 282.148V276.19H194.756V276.902H194.822C195.096 276.405 195.593 276.111 196.214 276.111C197.346 276.111 198.087 277.027 198.087 278.419V278.427C198.087 279.827 197.35 280.735 196.214 280.735C195.601 280.735 195.067 280.428 194.822 279.952H194.756V282.148H194.035ZM196.049 280.097C196.865 280.097 197.35 279.467 197.35 278.427V278.419C197.35 277.379 196.865 276.749 196.049 276.749C195.237 276.749 194.74 277.387 194.74 278.419V278.427C194.74 279.459 195.237 280.097 196.049 280.097ZM200.532 280.735C199.538 280.735 198.854 280.254 198.772 279.517H199.509C199.629 279.89 199.986 280.134 200.557 280.134C201.158 280.134 201.585 279.848 201.585 279.442V279.434C201.585 279.131 201.357 278.92 200.806 278.788L200.114 278.622C199.277 278.423 198.9 278.058 198.9 277.416V277.412C198.9 276.67 199.613 276.111 200.561 276.111C201.498 276.111 202.148 276.579 202.248 277.308H201.539C201.444 276.956 201.096 276.712 200.557 276.712C200.027 276.712 199.638 276.985 199.638 277.379V277.387C199.638 277.69 199.861 277.88 200.387 278.009L201.075 278.174C201.916 278.377 202.322 278.742 202.322 279.38V279.388C202.322 280.184 201.548 280.735 200.532 280.735ZM203.815 277.491C203.521 277.491 203.276 277.246 203.276 276.952C203.276 276.654 203.521 276.413 203.815 276.413C204.113 276.413 204.353 276.654 204.353 276.952C204.353 277.246 204.113 277.491 203.815 277.491ZM203.815 280.698C203.521 280.698 203.276 280.453 203.276 280.159C203.276 279.861 203.521 279.62 203.815 279.62C204.113 279.62 204.353 279.861 204.353 280.159C204.353 280.453 204.113 280.698 203.815 280.698ZM207.441 274.416L205.551 282.148H204.86L206.749 274.416H207.441ZM209.811 274.416L207.922 282.148H207.23L209.12 274.416H209.811ZM211.134 280.656L209.883 276.19H210.604L211.482 279.761H211.548L212.547 276.19H213.23L214.229 279.761H214.295L215.174 276.19H215.89L214.639 280.656H213.914L212.916 277.201H212.849L211.855 280.656H211.134ZM217.49 280.656L216.239 276.19H216.96L217.838 279.761H217.905L218.903 276.19H219.587L220.585 279.761H220.652L221.53 276.19H222.247L220.995 280.656H220.27L219.272 277.201H219.206L218.211 280.656H217.49ZM223.847 280.656L222.596 276.19H223.316L224.195 279.761H224.261L225.26 276.19H225.943L226.942 279.761H227.008L227.886 276.19H228.603L227.352 280.656H226.627L225.628 277.201H225.562L224.568 280.656H223.847ZM229.308 280.698C229.014 280.698 228.77 280.453 228.77 280.159C228.77 279.861 229.014 279.62 229.308 279.62C229.607 279.62 229.847 279.861 229.847 280.159C229.847 280.453 229.607 280.698 229.308 280.698ZM232.682 280.735C231.406 280.735 230.635 279.84 230.635 278.439V278.435C230.635 277.056 231.422 276.111 232.636 276.111C233.85 276.111 234.588 277.014 234.588 278.348V278.63H231.372C231.393 279.554 231.903 280.093 232.698 280.093C233.303 280.093 233.676 279.807 233.796 279.537L233.813 279.5H234.534L234.525 279.533C234.372 280.138 233.734 280.735 232.682 280.735ZM232.632 276.753C231.969 276.753 231.464 277.205 231.385 278.054H233.854C233.78 277.172 233.291 276.753 232.632 276.753ZM234.97 280.656L236.498 278.423L234.953 276.19H235.802L236.863 277.851H236.929L237.977 276.19H238.785L237.269 278.394L238.806 280.656H237.961L236.904 278.97H236.838L235.777 280.656H234.97ZM240.787 280.735C239.938 280.735 239.296 280.221 239.296 279.409V279.401C239.296 278.605 239.884 278.145 240.924 278.083L242.204 278.004V277.598C242.204 277.047 241.869 276.749 241.202 276.749C240.667 276.749 240.315 276.948 240.199 277.296L240.195 277.308H239.474L239.478 277.284C239.594 276.583 240.274 276.111 241.226 276.111C242.316 276.111 242.925 276.67 242.925 277.598V280.656H242.204V279.997H242.138C241.856 280.474 241.388 280.735 240.787 280.735ZM240.033 279.392C240.033 279.844 240.419 280.109 240.936 280.109C241.67 280.109 242.204 279.629 242.204 278.991V278.585L241.011 278.659C240.332 278.701 240.033 278.941 240.033 279.384V279.392ZM244.028 280.656V276.19H244.749V276.869H244.815C245.014 276.389 245.437 276.111 246.021 276.111C246.626 276.111 247.048 276.43 247.256 276.894H247.322C247.562 276.422 248.072 276.111 248.689 276.111C249.601 276.111 250.11 276.633 250.11 277.569V280.656H249.389V277.735C249.389 277.076 249.087 276.749 248.457 276.749C247.836 276.749 247.425 277.217 247.425 277.785V280.656H246.705V277.623C246.705 277.093 246.34 276.749 245.777 276.749C245.192 276.749 244.749 277.259 244.749 277.888V280.656H244.028ZM251.197 282.148V276.19H251.917V276.902H251.984C252.257 276.405 252.754 276.111 253.376 276.111C254.507 276.111 255.249 277.027 255.249 278.419V278.427C255.249 279.827 254.511 280.735 253.376 280.735C252.763 280.735 252.228 280.428 251.984 279.952H251.917V282.148H251.197ZM253.21 280.097C254.026 280.097 254.511 279.467 254.511 278.427V278.419C254.511 277.379 254.026 276.749 253.21 276.749C252.398 276.749 251.901 277.387 251.901 278.419V278.427C251.901 279.459 252.398 280.097 253.21 280.097ZM256.202 280.656V274.416H256.923V280.656H256.202ZM259.915 280.735C258.639 280.735 257.869 279.84 257.869 278.439V278.435C257.869 277.056 258.656 276.111 259.87 276.111C261.084 276.111 261.821 277.014 261.821 278.348V278.63H258.606C258.627 279.554 259.137 280.093 259.932 280.093C260.537 280.093 260.91 279.807 261.03 279.537L261.047 279.5H261.767L261.759 279.533C261.606 280.138 260.968 280.735 259.915 280.735ZM259.866 276.753C259.203 276.753 258.697 277.205 258.619 278.054H261.088C261.013 277.172 260.524 276.753 259.866 276.753ZM263.314 280.698C263.019 280.698 262.775 280.453 262.775 280.159C262.775 279.861 263.019 279.62 263.314 279.62C263.612 279.62 263.852 279.861 263.852 280.159C263.852 280.453 263.612 280.698 263.314 280.698ZM266.691 280.735C265.44 280.735 264.64 279.827 264.64 278.41V278.402C264.64 277.014 265.436 276.111 266.687 276.111C267.772 276.111 268.423 276.737 268.556 277.532L268.56 277.557H267.843L267.839 277.545C267.727 277.105 267.329 276.749 266.687 276.749C265.883 276.749 265.378 277.395 265.378 278.402V278.41C265.378 279.438 265.891 280.097 266.687 280.097C267.288 280.097 267.669 279.832 267.835 279.334L267.843 279.31L268.556 279.305L268.547 279.351C268.365 280.159 267.764 280.735 266.691 280.735ZM271.233 280.735C269.961 280.735 269.174 279.856 269.174 278.427V278.419C269.174 276.985 269.961 276.111 271.233 276.111C272.505 276.111 273.292 276.985 273.292 278.419V278.427C273.292 279.856 272.505 280.735 271.233 280.735ZM271.233 280.097C272.078 280.097 272.555 279.479 272.555 278.427V278.419C272.555 277.362 272.078 276.749 271.233 276.749C270.388 276.749 269.911 277.362 269.911 278.419V278.427C269.911 279.479 270.388 280.097 271.233 280.097ZM274.196 280.656V276.19H274.917V276.869H274.983C275.182 276.389 275.605 276.111 276.189 276.111C276.794 276.111 277.216 276.43 277.424 276.894H277.49C277.73 276.422 278.24 276.111 278.857 276.111C279.769 276.111 280.278 276.633 280.278 277.569V280.656H279.557V277.735C279.557 277.076 279.255 276.749 278.625 276.749C278.004 276.749 277.593 277.217 277.593 277.785V280.656H276.873V277.623C276.873 277.093 276.508 276.749 275.944 276.749C275.36 276.749 274.917 277.259 274.917 277.888V280.656H274.196Z" fill="#0F866C"/>
</g>
</g>
</g>
</g>
<g clip-path="url(#clip1_3127_43096)">
<path d="M431.417 156.579C423.655 156.579 409.198 145.405 388.393 127.371C383.517 123.145 380.525 117.029 380.185 110.593L377.012 50.9462C376.819 47.342 378.939 43.9981 382.284 42.6329L414.323 29.5307C425.346 25.0232 437.489 25.0232 448.512 29.5307L480.551 42.6329C483.896 44.0023 486.016 47.342 485.827 50.9504L482.659 110.597C482.318 117.037 479.322 123.153 474.45 127.375C453.645 145.405 439.188 156.583 431.426 156.583L431.417 156.579Z" fill="url(#paint6_linear_3127_43096)"/>
<path d="M431.418 152.168C423.853 152.168 402.299 133.584 391.289 124.04C387.292 120.574 384.877 115.639 384.595 110.358L381.422 50.7113C381.33 48.9764 382.348 47.3717 383.959 46.7121L415.998 33.6099C425.881 29.5688 436.955 29.5688 446.838 33.6099L478.873 46.7121C480.484 47.3717 481.502 48.9764 481.41 50.7113L478.242 110.358C477.96 115.639 475.545 120.574 471.548 124.04C460.537 133.584 438.983 152.168 431.418 152.168Z" fill="url(#paint7_linear_3127_43096)"/>
<path d="M471.548 124.04C475.545 120.574 477.96 115.639 478.242 110.358L481.41 50.7113C481.502 48.9764 480.484 47.3717 478.873 46.7121L446.838 33.6099C441.898 31.5893 436.656 30.5811 431.418 30.5811V152.168C438.983 152.168 460.537 133.584 471.548 124.04Z" fill="url(#paint8_linear_3127_43096)"/>
<path d="M408.096 100.108C400.414 100.108 394.183 93.8869 394.183 86.2163C394.183 78.5456 400.414 72.3243 408.096 72.3243H454.739C462.422 72.3243 468.653 78.5456 468.653 86.2163C468.653 93.8869 462.422 100.108 454.739 100.108H408.096Z" fill="#001D2F"/>
<path d="M435.57 78.1494L435.758 78.1858L435.972 78.237C437.609 78.669 438.887 79.9396 439.322 81.5665C439.756 83.1933 439.281 84.9268 438.068 86.1159C436.737 87.3935 434.842 87.7397 433.206 87.1615L433.195 87.1753L430.053 90.3076C430.05 90.3136 430.046 90.3195 430.042 90.3253L429.957 90.4275L428.205 92.173L428.175 92.2096L426.6 93.7926C426.19 94.2048 425.256 94.465 424.443 93.6482C423.631 92.8315 423.92 92.0223 424.215 91.583L424.299 91.4804L424.826 90.9503L424.878 90.8888L425.072 90.6945L423.663 89.2789C423.279 88.8925 423.255 88.2811 423.591 87.8666L423.663 87.7864L426.077 85.3605C426.462 84.9741 427.07 84.95 427.483 85.288L427.562 85.3605L428.975 86.78L430.692 85.0699C429.704 83.3538 429.893 81.1472 431.271 79.6169L431.395 79.4837L431.568 79.3168C432.649 78.3288 434.13 77.8999 435.57 78.1494ZM426.559 87.6004L425.767 88.3965C425.632 88.5317 425.632 88.751 425.767 88.8863L426.325 89.4465L427.536 88.2386L427.548 88.2201L427.6 88.1569L427.046 87.6004C426.912 87.4651 426.693 87.4651 426.559 87.6004ZM433.613 81.3822L433.547 81.4459C432.865 82.1482 432.875 83.2645 433.569 83.9548C434.264 84.6452 435.387 84.6549 436.094 83.9766C436.556 83.5229 436.738 82.8614 436.572 82.2407C436.406 81.6199 435.918 81.1351 435.294 80.9702L435.212 80.9507C434.64 80.8277 434.044 80.9889 433.613 81.3822Z" fill="white"/>
</g>
<defs>
<filter id="filter0_d_3127_43096" x="141.281" y="-1.59548" width="230.373" height="448.493" filterUnits="userSpaceOnUse" color-interpolation-filters="sRGB">
<feFlood flood-opacity="0" result="BackgroundImageFix"/>
<feColorMatrix in="SourceAlpha" type="matrix" values="0 0 0 0 0 0 0 0 0 0 0 0 0 0 0 0 0 0 127 0" result="hardAlpha"/>
<feOffset/>
<feGaussianBlur stdDeviation="10.8"/>
<feColorMatrix type="matrix" values="0 0 0 0 0 0 0 0 0 0 0 0 0 0 0 0 0 0 0.1 0"/>
<feBlend mode="normal" in2="BackgroundImageFix" result="effect1_dropShadow_3127_43096"/>
<feBlend mode="normal" in="SourceGraphic" in2="effect1_dropShadow_3127_43096" result="shape"/>
</filter>
<filter id="filter1_d_3127_43096" x="158.888" y="59.9348" width="195.159" height="10.1697" filterUnits="userSpaceOnUse" color-interpolation-filters="sRGB">
<feFlood flood-opacity="0" result="BackgroundImageFix"/>
<feColorMatrix in="SourceAlpha" type="matrix" values="0 0 0 0 0 0 0 0 0 0 0 0 0 0 0 0 0 0 127 0" result="hardAlpha"/>
<feOffset/>
<feGaussianBlur stdDeviation="1.99652"/>
<feColorMatrix type="matrix" values="0 0 0 0 0 0 0 0 0 0 0 0 0 0 0 0 0 0 0.1 0"/>
<feBlend mode="normal" in2="BackgroundImageFix" result="effect1_dropShadow_3127_43096"/>
<feBlend mode="normal" in="SourceGraphic" in2="effect1_dropShadow_3127_43096" result="shape"/>
</filter>
<filter id="filter2_d_3127_43096" x="158.888" y="110.16" width="195.159" height="10.1697" filterUnits="userSpaceOnUse" color-interpolation-filters="sRGB">
<feFlood flood-opacity="0" result="BackgroundImageFix"/>
<feColorMatrix in="SourceAlpha" type="matrix" values="0 0 0 0 0 0 0 0 0 0 0 0 0 0 0 0 0 0 127 0" result="hardAlpha"/>
<feOffset/>
<feGaussianBlur stdDeviation="1.99652"/>
<feColorMatrix type="matrix" values="0 0 0 0 0 0 0 0 0 0 0 0 0 0 0 0 0 0 0.1 0"/>
<feBlend mode="normal" in2="BackgroundImageFix" result="effect1_dropShadow_3127_43096"/>
<feBlend mode="normal" in="SourceGraphic" in2="effect1_dropShadow_3127_43096" result="shape"/>
</filter>
<filter id="filter3_d_3127_43096" x="165.377" y="71.4148" width="182.182" height="270.172" filterUnits="userSpaceOnUse" color-interpolation-filters="sRGB">
<feFlood flood-opacity="0" result="BackgroundImageFix"/>
<feColorMatrix in="SourceAlpha" type="matrix" values="0 0 0 0 0 0 0 0 0 0 0 0 0 0 0 0 0 0 127 0" result="hardAlpha"/>
<feOffset/>
<feGaussianBlur stdDeviation="3.74347"/>
<feComposite in2="hardAlpha" operator="out"/>
<feColorMatrix type="matrix" values="0 0 0 0 0 0 0 0 0 0 0 0 0 0 0 0 0 0 0.1 0"/>
<feBlend mode="normal" in2="BackgroundImageFix" result="effect1_dropShadow_3127_43096"/>
<feBlend mode="normal" in="SourceGraphic" in2="effect1_dropShadow_3127_43096" result="shape"/>
</filter>
<linearGradient id="paint0_linear_3127_43096" x1="468.653" y1="216.235" x2="161.124" y2="216.235" gradientUnits="userSpaceOnUse">
<stop stop-color="#B6D1D0"/>
<stop offset="1" stop-color="#B6D1D0" stop-opacity="0"/>
</linearGradient>
<linearGradient id="paint1_linear_3127_43096" x1="186.403" y1="105.596" x2="176.762" y2="105.596" gradientUnits="userSpaceOnUse">
<stop stop-color="#FDEDCB"/>
<stop offset="1" stop-color="#EFF5F5" stop-opacity="0.01"/>
</linearGradient>
<linearGradient id="paint2_linear_3127_43096" x1="198.985" y1="105.596" x2="194.052" y2="105.596" gradientUnits="userSpaceOnUse">
<stop stop-color="#FDEDCB"/>
<stop offset="1" stop-color="#EFF5F5" stop-opacity="0.01"/>
</linearGradient>
<linearGradient id="paint3_linear_3127_43096" x1="233.994" y1="105.596" x2="219.42" y2="105.596" gradientUnits="userSpaceOnUse">
<stop stop-color="#FDEDCB"/>
<stop offset="1" stop-color="#EFF5F5" stop-opacity="0.01"/>
</linearGradient>
<linearGradient id="paint4_linear_3127_43096" x1="295.261" y1="105.596" x2="269.924" y2="105.596" gradientUnits="userSpaceOnUse">
<stop stop-color="#FDEDCB"/>
<stop offset="1" stop-color="#EFF5F5" stop-opacity="0.01"/>
</linearGradient>
<linearGradient id="paint5_linear_3127_43096" x1="330.817" y1="105.596" x2="316.019" y2="105.596" gradientUnits="userSpaceOnUse">
<stop stop-color="#FDEDCB"/>
<stop offset="1" stop-color="#EFF5F5" stop-opacity="0.01"/>
</linearGradient>
<linearGradient id="paint6_linear_3127_43096" x1="380.344" y1="30.9673" x2="480.849" y2="130.838" gradientUnits="userSpaceOnUse">
<stop offset="0.15" stop-color="#F0EACF"/>
<stop offset="1" stop-color="#001D2F"/>
</linearGradient>
<linearGradient id="paint7_linear_3127_43096" x1="431.418" y1="28.1405" x2="431.418" y2="146.119" gradientUnits="userSpaceOnUse">
<stop offset="0.25" stop-color="#B5D0CF"/>
<stop offset="0.74" stop-color="#F0EACF"/>
</linearGradient>
<linearGradient id="paint8_linear_3127_43096" x1="456.418" y1="152.168" x2="456.418" y2="38.0291" gradientUnits="userSpaceOnUse">
<stop offset="0.25" stop-color="#B5D0CF"/>
<stop offset="0.74" stop-color="#F0EACF"/>
</linearGradient>
<clipPath id="clip0_3127_43096">
<rect x="162.881" y="20.0045" width="187.173" height="405.293" rx="19.466" fill="white"/>
</clipPath>
<clipPath id="clip1_3127_43096">
<rect width="108.836" height="130.43" fill="white" transform="translate(377 26.1493)"/>
</clipPath>
</defs>
</svg>
