<svg width="64" height="64" viewBox="0 0 64 64" fill="none" xmlns="http://www.w3.org/2000/svg">
<circle cx="32" cy="32" r="32" fill="#F7F8F9"/>
<path fill-rule="evenodd" clip-rule="evenodd" d="M52.1766 43.7353H52.2361C52.3006 43.7353 52.3308 43.6868 52.3308 43.6081C52.3308 43.5281 52.2827 43.5006 52.2319 43.5006H52.177V43.7353H52.1766ZM52.0069 43.9993V43.9746C52.0677 43.9659 52.0801 43.9686 52.0801 43.9293V43.5601C52.0796 43.5075 52.0737 43.4896 52.0078 43.4924V43.4668H52.2663C52.3532 43.4668 52.4355 43.5093 52.4355 43.5994C52.4355 43.6749 52.3861 43.7285 52.3166 43.7504L52.3985 43.8657C52.4378 43.916 52.4813 43.9663 52.5101 43.9833V43.9993H52.4131C52.366 43.9993 52.3253 43.9005 52.2324 43.7692H52.1775V43.9348C52.1775 43.9686 52.1889 43.9659 52.2498 43.9746V43.9993H52.0073H52.0069ZM52.2566 44.1411C52.4817 44.1411 52.6547 43.9508 52.6547 43.7353C52.6547 43.5203 52.4854 43.3272 52.2566 43.3272C52.0297 43.3272 51.8577 43.5198 51.8577 43.7353C51.8577 43.9508 52.0297 44.1406 52.2566 44.1406V44.1411ZM52.2566 43.2344C52.5444 43.2344 52.7599 43.4549 52.7599 43.7353C52.7599 44.0162 52.5444 44.234 52.2566 44.234C51.9694 44.234 51.7534 44.0162 51.7534 43.7353C51.7534 43.4549 51.9694 43.2344 52.2566 43.2344Z" fill="#231F20"/>
<path fill-rule="evenodd" clip-rule="evenodd" d="M11.2598 46.5399H11.327C11.4981 46.5399 11.6806 46.517 11.6806 46.27V43.7827C11.6806 43.5347 11.4981 43.5128 11.327 43.5128H11.2602V43.3677C11.4469 43.3677 11.7328 43.3874 11.9675 43.3874C12.2063 43.3874 12.4927 43.3677 12.7168 43.3677V43.5123H12.65C12.4785 43.5123 12.2964 43.5352 12.2964 43.7822V46.2695C12.2964 46.5175 12.4785 46.5399 12.65 46.5399H12.7168V46.6831C12.4881 46.6831 12.2008 46.6648 11.962 46.6648C11.7278 46.6648 11.4469 46.6831 11.2602 46.6831L11.2598 46.5399ZM15.9993 45.7476L16.0084 45.7384V43.9579C16.0084 43.5686 15.7362 43.5123 15.5921 43.5123H15.4878V43.3682C15.712 43.3682 15.9325 43.3874 16.1566 43.3874C16.352 43.3874 16.5487 43.3682 16.7436 43.3682V43.5123H16.6731C16.4718 43.5123 16.2468 43.5489 16.2468 44.1143V46.275C16.2468 46.4411 16.2522 46.6067 16.276 46.754H16.0944L13.6341 44.0293V45.9845C13.6341 46.399 13.7146 46.5399 14.0824 46.5399H14.1639V46.6831C13.9589 46.6831 13.753 46.6648 13.5472 46.6648C13.3335 46.6648 13.113 46.6831 12.8985 46.6831V46.5399H12.9653C13.2946 46.5399 13.3953 46.318 13.3953 45.9374V43.9382C13.3953 43.6724 13.1748 43.5123 12.9607 43.5123H12.8985V43.3682C13.0792 43.3682 13.2658 43.3874 13.447 43.3874C13.5911 43.3874 13.7302 43.3682 13.8724 43.3682L15.9993 45.7476ZM17.4591 43.6061C17.1004 43.6061 17.0876 43.6916 17.0153 44.0379H16.8721C16.8918 43.9053 16.9147 43.7726 16.9298 43.634C16.9481 43.5013 16.9586 43.3682 16.9586 43.2314H17.073C17.1119 43.3737 17.2308 43.3682 17.3598 43.3682H19.8252C19.9533 43.3682 20.0736 43.3636 20.0832 43.2218L20.1966 43.241C20.1793 43.3682 20.16 43.4972 20.1449 43.6253C20.1353 43.7534 20.1353 43.8815 20.1353 44.0096L19.9926 44.0631C19.983 43.8865 19.9583 43.6056 19.6385 43.6056H18.8553V46.1323C18.8553 46.4987 19.0227 46.5399 19.2519 46.5399H19.3421V46.6831C19.1563 46.6831 18.8215 46.6643 18.5634 46.6643C18.2775 46.6643 17.9422 46.6831 17.756 46.6831V46.5399H17.8466C18.1101 46.5399 18.2427 46.517 18.2427 46.1424V43.6061H17.4591ZM20.3499 46.5399H20.4167C20.5882 46.5399 20.7699 46.517 20.7699 46.27V43.7827C20.7699 43.5347 20.5882 43.5128 20.4167 43.5128H20.3499V43.3677C20.6404 43.3677 21.1391 43.3874 21.5393 43.3874C21.941 43.3874 22.4374 43.3677 22.7608 43.3677C22.753 43.5727 22.7581 43.887 22.7723 44.0956L22.6277 44.1336C22.6048 43.8252 22.5476 43.5786 22.0458 43.5786H21.3833V44.8212H21.9502C22.2375 44.8212 22.2997 44.661 22.3276 44.4048H22.4703C22.4612 44.5897 22.4566 44.7745 22.4566 44.9598C22.4566 45.1405 22.4612 45.3207 22.4703 45.5005L22.3276 45.5293C22.2997 45.2443 22.285 45.059 21.9547 45.059H21.3829V46.1652C21.3829 46.474 21.6592 46.474 21.9639 46.474C22.5385 46.474 22.791 46.4361 22.9342 45.8949L23.0678 45.9287C23.0056 46.1808 22.9488 46.4306 22.9054 46.6836C22.6002 46.6836 22.0499 46.6643 21.6203 46.6643C21.1903 46.6643 20.6221 46.6831 20.3499 46.6831V46.5399ZM24.3245 44.9735H24.5578C25.0359 44.9735 25.2934 44.7937 25.2934 44.2328C25.2934 43.8115 25.0212 43.5398 24.5962 43.5398C24.4517 43.5398 24.3908 43.5548 24.3245 43.559V44.9735ZM23.7133 43.8719C23.7133 43.5251 23.5221 43.5118 23.3738 43.5118H23.2869V43.3682C23.4397 43.3682 23.7362 43.3874 24.028 43.3874C24.314 43.3874 24.5436 43.3682 24.7975 43.3682C25.3982 43.3682 25.933 43.5297 25.933 44.2049C25.933 44.6318 25.6475 44.8925 25.2696 45.0412L26.0876 46.2554C26.2207 46.4566 26.3154 46.5125 26.5497 46.5399V46.6831C26.3923 46.6831 26.2395 46.6643 26.0821 46.6643C25.933 46.6643 25.7806 46.6831 25.6329 46.6831C25.2651 46.2041 24.9494 45.6904 24.6392 45.1441H24.3245V46.1602C24.3245 46.5271 24.496 46.5399 24.7152 46.5399H24.8021V46.6831C24.529 46.6831 24.2522 46.6643 23.98 46.6643C23.7513 46.6643 23.5262 46.6831 23.2869 46.6831V46.5399H23.3738C23.5495 46.5399 23.7133 46.4603 23.7133 46.2837V43.8719ZM29.7932 45.7476L29.8024 45.7384V43.9579C29.8024 43.5686 29.5302 43.5123 29.3874 43.5123H29.2822V43.3682C29.5068 43.3682 29.7255 43.3874 29.951 43.3874C30.1478 43.3874 30.3426 43.3682 30.5389 43.3682V43.5123H30.468C30.2667 43.5123 30.0421 43.5489 30.0421 44.1143V46.275C30.0421 46.4411 30.0462 46.6067 30.0695 46.754H29.8893L27.4289 44.0293V45.9845C27.4289 46.399 27.5104 46.5399 27.8782 46.5399H27.9601V46.6831C27.7542 46.6831 27.5479 46.6648 27.3425 46.6648C27.1275 46.6648 26.9079 46.6831 26.6933 46.6831V46.5399H26.7592C27.09 46.5399 27.1892 46.318 27.1892 45.9374V43.9382C27.1892 43.6724 26.9696 43.5123 26.7555 43.5123H26.6933V43.3682C26.874 43.3682 27.0621 43.3874 27.2423 43.3874C27.385 43.3874 27.5236 43.3682 27.6673 43.3682L29.7932 45.7476ZM32.0051 43.9007H31.996L31.5513 45.2443H32.4438L32.0051 43.9007ZM31.3084 46.0042C31.2599 46.1652 31.2013 46.2901 31.2013 46.3738C31.2013 46.517 31.4035 46.5399 31.5605 46.5399H31.6135V46.6826C31.4214 46.6735 31.226 46.6643 31.0343 46.6643C30.8623 46.6643 30.6912 46.6735 30.5197 46.6826V46.5399H30.5471C30.7338 46.5399 30.8925 46.4306 30.9621 46.2316L31.7274 44.0535C31.7892 43.8769 31.8766 43.6404 31.9045 43.4634C32.0573 43.4117 32.2485 43.317 32.3391 43.2598C32.3542 43.2547 32.362 43.2511 32.3775 43.2511C32.3912 43.2511 32.4004 43.2511 32.4109 43.2648C32.4251 43.3028 32.4393 43.3453 32.4544 43.3837L33.3327 45.867C33.3899 46.033 33.4476 46.2091 33.5089 46.3519C33.567 46.4841 33.6676 46.5399 33.825 46.5399H33.8529V46.6826C33.6388 46.6735 33.4233 46.6643 33.1946 46.6643C32.9613 46.6643 32.7215 46.6735 32.4786 46.6826V46.5399H32.5312C32.6401 46.5399 32.8268 46.5221 32.8268 46.4031C32.8268 46.3409 32.7842 46.2128 32.7302 46.0609L32.544 45.5101H31.4598L31.3088 46.0042H31.3084ZM34.0642 43.6061C33.7051 43.6061 33.6914 43.6916 33.6196 44.0379H33.4755C33.4951 43.9053 33.5194 43.7726 33.5336 43.634C33.5528 43.5013 33.5624 43.3682 33.5624 43.2314H33.6768C33.7147 43.3737 33.8346 43.3682 33.9631 43.3682H36.4285C36.5571 43.3682 36.6755 43.3636 36.6856 43.2218L36.8004 43.241C36.7821 43.3682 36.7638 43.4972 36.7483 43.6253C36.7364 43.7534 36.7364 43.8815 36.7364 44.0096L36.5946 44.0631C36.5868 43.8865 36.5616 43.6056 36.2423 43.6056H35.4582V46.1323C35.4582 46.4987 35.6256 46.5399 35.8553 46.5399H35.9454V46.6831C35.7597 46.6831 35.4252 46.6643 35.1668 46.6643C34.8808 46.6643 34.5455 46.6831 34.3584 46.6831V46.5399H34.4499C34.7139 46.5399 34.8479 46.517 34.8479 46.1424V43.6061H34.0642ZM36.9766 46.5399H37.0434C37.2163 46.5399 37.397 46.517 37.397 46.27V43.7827C37.397 43.5347 37.2163 43.5128 37.0434 43.5128H36.9766V43.3677C37.1628 43.3677 37.4491 43.3874 37.6829 43.3874C37.9222 43.3874 38.2086 43.3677 38.4346 43.3677V43.5123H38.3678C38.1944 43.5123 38.0123 43.5352 38.0123 43.7822V46.2695C38.0123 46.5175 38.1944 46.5399 38.3678 46.5399H38.4346V46.6831C38.2044 46.6831 37.9176 46.6648 37.6788 46.6648C37.4441 46.6648 37.1628 46.6831 36.9766 46.6831V46.5399ZM40.4109 46.5454C41.3391 46.5454 41.4992 45.7334 41.4992 45.0412C41.4992 44.3472 41.1236 43.5068 40.3299 43.5068C39.4945 43.5068 39.2457 44.2475 39.2457 44.8829C39.2457 45.7334 39.6377 46.5454 40.4109 46.5454ZM40.3395 43.2977C41.3574 43.2977 42.1694 43.9245 42.1694 44.9364C42.1694 46.0284 41.3816 46.754 40.3637 46.754C39.3495 46.754 38.5777 46.0714 38.5777 45.049C38.5777 44.0631 39.3468 43.2977 40.3395 43.2977ZM45.3892 45.7476L45.3988 45.7384V43.9579C45.3988 43.5686 45.1261 43.5123 44.9815 43.5123H44.8786V43.3682C45.1019 43.3682 45.3224 43.3874 45.5465 43.3874C45.7437 43.3874 45.9391 43.3682 46.1344 43.3682V43.5123H46.063C45.8613 43.5123 45.6367 43.5489 45.6367 44.1143V46.275C45.6367 46.4411 45.6422 46.6067 45.6659 46.754H45.4839L43.024 44.0293V45.9845C43.024 46.399 43.105 46.5399 43.4732 46.5399H43.5542V46.6831C43.3488 46.6831 43.1439 46.6648 42.938 46.6648C42.723 46.6648 42.5029 46.6831 42.2874 46.6831V46.5399H42.3552C42.6859 46.5399 42.7838 46.318 42.7838 45.9374V43.9382C42.7838 43.6724 42.5656 43.5123 42.3492 43.5123H42.2874V43.3682C42.4695 43.3682 42.6553 43.3874 42.8378 43.3874C42.9805 43.3874 43.1191 43.3682 43.2623 43.3682L45.3892 45.7476ZM47.5997 43.9007H47.5906L47.1454 45.2443H48.0407L47.5997 43.9007ZM46.9021 46.0042C46.8554 46.1652 46.7973 46.2901 46.7973 46.3738C46.7973 46.517 46.9995 46.5399 47.155 46.5399H47.2086V46.6826C47.0169 46.6735 46.8215 46.6643 46.6303 46.6643C46.4565 46.6643 46.2858 46.6735 46.1152 46.6826V46.5399H46.1413C46.3288 46.5399 46.4876 46.4306 46.558 46.2316L47.3234 44.0535C47.3856 43.8769 47.4707 43.6404 47.4995 43.4634C47.6523 43.4117 47.8431 43.317 47.9341 43.2598C47.9488 43.2547 47.9584 43.2511 47.973 43.2511C47.9867 43.2511 47.9954 43.2511 48.006 43.2648C48.0206 43.3028 48.0343 43.3453 48.0503 43.3837L48.9287 45.867C48.9845 46.033 49.0431 46.2091 49.1053 46.3519C49.1615 46.4841 49.2631 46.5399 49.4205 46.5399H49.4488V46.6826C49.2343 46.6735 49.0188 46.6643 48.7901 46.6643C48.5554 46.6643 48.3161 46.6735 48.0723 46.6826V46.5399H48.1258C48.2347 46.5399 48.4223 46.5221 48.4223 46.4031C48.4223 46.3409 48.3783 46.2128 48.3257 46.0609L48.1405 45.5101H47.0567L46.9021 46.0042ZM50.6534 46.2178C50.6534 46.4077 50.7861 46.4649 50.9393 46.4841C51.1347 46.4983 51.3497 46.4983 51.5706 46.4749C51.7701 46.4516 51.943 46.3368 52.0281 46.2178C52.1045 46.1126 52.1466 45.9809 52.1768 45.8756H52.3154C52.2619 46.1465 52.1951 46.4132 52.137 46.6831C51.7175 46.6831 51.2966 46.6643 50.8776 46.6643C50.4567 46.6643 50.0358 46.6831 49.6158 46.6831V46.5399H49.6812C49.8551 46.5399 50.0408 46.517 50.0408 46.222V43.7822C50.0408 43.5347 49.8551 43.5123 49.6812 43.5123H49.6158V43.3682C49.8688 43.3682 50.1177 43.3874 50.3698 43.3874C50.614 43.3874 50.8529 43.3682 51.0971 43.3682V43.5123H50.9768C50.7957 43.5123 50.6534 43.5169 50.6534 43.7685V46.2178Z" fill="#231F20"/>
<path fill-rule="evenodd" clip-rule="evenodd" d="M42.9743 34.8C42.9486 34.8 42.8773 34.8439 42.7812 34.8965C42.5964 35.0018 42.2274 35.1579 41.877 35.2718V35.4112C42.211 35.5073 42.3425 35.5248 42.3425 36.093V40.9501C42.3425 41.2392 42.1669 41.2396 41.9208 41.2396H41.7528V41.4666C42.079 41.4588 42.3955 41.4496 42.7107 41.4496C43.0277 41.4496 43.3354 41.4666 43.6328 41.4666V41.2387H43.4835C43.2379 41.2387 43.0448 41.2392 43.0448 40.9501V34.9234C43.0448 34.8524 43.0278 34.8 42.9743 34.8ZM49.068 34.8C49.041 34.8 48.9711 34.8444 48.875 34.8965C48.6902 35.0027 48.3222 35.1579 47.9699 35.2709V35.4112C48.3034 35.5068 48.4345 35.5248 48.4345 36.093V39.8439C48.4345 40.3755 48.3903 40.8831 48.313 41.3978L48.4971 41.4934L48.7607 41.2932C48.9894 41.3888 49.3307 41.5979 49.9803 41.5979C51.237 41.5979 52.0792 40.4537 52.0792 39.3114C52.0792 38.3612 51.4642 37.4797 50.4458 37.4797C49.9636 37.4797 49.4891 37.8114 49.1377 38.1069V34.9234C49.1377 34.8524 49.1207 34.8 49.068 34.8ZM39.2778 35.245C37.5563 35.245 35.9512 36.5282 35.9512 38.3169C35.9512 40.28 37.2487 41.597 39.3028 41.597C39.8824 41.597 40.8757 41.3629 41.2444 41.1351L41.4463 39.8609L41.2444 39.8091C41.0687 40.7259 40.3489 41.3191 39.4797 41.3191C38.1292 41.3191 36.8617 40.0533 36.8617 38.2892C36.8617 36.1963 38.3284 35.5247 39.3394 35.5247C40.3216 35.5247 41.0515 35.935 41.2176 36.9552H41.4365L41.3498 35.707C40.6737 35.4718 39.9892 35.245 39.2778 35.245ZM18.5839 35.2799C18.3634 35.2799 18.1533 35.4811 18.1533 35.6998C18.1533 35.9263 18.3543 36.1359 18.5839 36.1359C18.8205 36.1359 19.0146 35.935 19.0146 35.6998C19.0146 35.4633 18.8108 35.2799 18.5839 35.2799ZM11.2705 35.3773V35.6024C11.6649 35.6116 12.0774 35.5595 12.0774 36.3441V40.5766C12.0513 41.17 11.7962 41.1875 11.2705 41.2396V41.4666C11.6649 41.4588 12.0511 41.4496 12.4464 41.4496C12.8586 41.4496 13.2731 41.4666 13.7196 41.4666C16.8278 41.4666 17.3366 39.2941 17.3366 38.4304C17.3366 36.885 16.0987 35.3773 13.8251 35.3773C13.1755 35.3773 12.6748 35.3925 12.3061 35.3925C11.9634 35.3925 11.6122 35.3928 11.2705 35.3773ZM13.6222 35.656C15.3168 35.656 16.3698 36.8343 16.3698 38.4653C16.3698 39.7659 15.7482 41.1878 13.851 41.1878C13.421 41.1878 12.9378 41.1097 12.9378 40.4372V35.69C13.0966 35.6808 13.2622 35.656 13.6222 35.656ZM18.8734 37.4797C18.8291 37.4797 18.7766 37.4888 18.7153 37.5226C18.6796 37.55 18.1884 37.714 17.7753 37.8371V37.9774C18.1015 38.1508 18.2319 38.2029 18.2319 38.5868V40.9501C18.2319 41.2392 18.0567 41.2396 17.811 41.2396H17.644V41.4666C17.9688 41.4588 18.2848 41.4496 18.6009 41.4496C18.9166 41.4496 19.2243 41.4666 19.523 41.4666V41.2396H19.3738C19.1286 41.2396 18.9342 41.2392 18.9342 40.9501V37.6012C18.9342 37.5312 18.9169 37.4797 18.8734 37.4797ZM21.0072 37.4797C20.5854 37.6618 20.2252 37.7757 19.8483 37.8979V38.065C20.2605 38.2301 20.3567 38.3174 20.3567 38.6395V40.951C20.3567 41.2401 20.1815 41.2396 19.9358 41.2396H19.7777V41.4666C20.0933 41.4588 20.4101 41.4496 20.7248 41.4496C21.0414 41.4496 21.3502 41.4666 21.6576 41.4666V41.2396H21.4995C21.2538 41.2396 21.059 41.2401 21.059 40.951V38.3697C21.3499 38.1771 21.7967 37.9506 22.0776 37.9506C22.5785 37.9506 22.8853 38.194 22.8853 38.6922V40.951C22.8853 41.2401 22.7106 41.2396 22.4645 41.2396H22.3063V41.4666C22.6224 41.4588 22.9387 41.4496 23.2552 41.4496C23.57 41.4496 23.877 41.4666 24.1854 41.4666V41.2396H24.0272C23.782 41.2396 23.5885 41.2401 23.5885 40.951V38.7011C23.5885 38.0195 23.3245 37.4797 22.5788 37.4797C21.9905 37.4797 21.5599 37.776 21.059 38.1347V37.5655C21.059 37.4964 21.0337 37.4797 21.0072 37.4797ZM25.9224 37.4797C25.3089 37.4797 24.1505 37.9851 24.1505 39.6956C24.1505 40.2533 24.4305 41.597 25.8277 41.597C26.5473 41.597 27.0477 41.1444 27.4521 40.6124L27.3288 40.49C27.0049 40.8125 26.6262 41.0743 26.1431 41.0743C25.4413 41.0743 24.9041 40.3946 24.8528 39.5652C24.8345 39.2683 24.8345 39.1377 24.8528 39.0594H27.3198L27.3994 39.0067C27.4076 38.9537 27.4074 38.9026 27.4074 38.8486C27.3992 37.924 26.6342 37.4797 25.9224 37.4797ZM28.8835 37.4797C28.8043 37.4797 28.4517 37.7061 27.8113 37.9774V38.107C27.943 38.1774 28.267 38.2302 28.267 38.5001V40.9501C28.267 41.2393 28.0927 41.2396 27.847 41.2396H27.6093V41.4666C27.9259 41.4588 28.2938 41.4496 28.6548 41.4496C29.0322 41.4496 29.4002 41.4583 29.8833 41.4666V41.2396H29.391C29.1453 41.2396 28.9702 41.2393 28.9702 40.9501V38.9022C28.9702 38.3775 29.4626 38.1775 29.6117 38.1775C29.9182 38.1775 29.9176 38.3875 30.1907 38.3875C30.4373 38.3875 30.6026 38.1773 30.6026 37.9417C30.6026 37.6269 30.3227 37.4797 30.1031 37.4797C29.5674 37.4797 29.1987 38.0382 28.98 38.3777H28.9612V37.5932C28.9612 37.5049 28.9357 37.4797 28.8835 37.4797ZM32.2547 37.4797C31.289 37.4797 30.8939 38.1071 30.8939 38.5966C30.8939 40.0006 32.806 39.6697 32.806 40.6991C32.806 41.0042 32.6136 41.3192 32.0957 41.3192C31.4548 41.3192 31.1039 40.8296 30.9886 40.2541L30.8314 40.2979L30.9279 41.3022C31.2348 41.4765 31.6478 41.5979 32.0001 41.5979C33.044 41.5979 33.5092 40.9868 33.5092 40.4113C33.5092 39.0416 31.4729 39.3555 31.4729 38.3339C31.4729 37.9588 31.806 37.7576 32.1573 37.7576C32.7191 37.7576 33.0274 38.0731 33.1152 38.6225H33.3162L33.2546 37.7317C32.9124 37.5574 32.5352 37.4797 32.2547 37.4797ZM44.7657 37.6111C44.6509 37.6111 43.9502 37.6622 43.6337 37.6718V37.8371C44.1236 37.8801 44.1599 38.0989 44.1599 38.3268V40.5606C44.1599 41.293 44.6506 41.5979 45.124 41.5979C45.748 41.5979 46.1536 41.2934 46.6797 40.8661V41.572L46.7226 41.5979C46.8905 41.5453 47.6099 41.3624 47.9887 41.3281V41.144C47.8743 41.144 47.7418 41.1521 47.6375 41.1521C47.4875 41.1521 47.3909 41.1446 47.3909 40.9868V37.7674C47.3909 37.6713 47.3912 37.611 47.3212 37.611C47.2338 37.611 46.7415 37.6791 45.9515 37.7317V37.8889C46.2671 37.9772 46.6877 38.0725 46.6877 38.2463V40.5954C46.3194 40.8987 45.9236 41.1261 45.6262 41.1261C44.8627 41.1261 44.8632 40.375 44.8632 40.1138V37.863C44.8632 37.6713 44.8632 37.6111 44.7657 37.6111ZM25.8884 37.7585C26.3798 37.7585 26.6515 38.1157 26.6515 38.5618C26.6515 38.6661 26.6262 38.7789 26.4076 38.7789H24.8788C24.9844 38.1498 25.3532 37.7585 25.8884 37.7585ZM49.9732 37.9506C50.6575 37.9506 51.3778 38.7354 51.3778 39.6769C51.3778 40.4537 50.983 41.371 50.0429 41.371C49.4536 41.371 49.1377 40.8132 49.1377 40.481V38.3616C49.3751 38.1603 49.6461 37.9506 49.9732 37.9506Z" fill="#231F20"/>
<path fill-rule="evenodd" clip-rule="evenodd" d="M30.2233 33.5999C25.6028 33.621 21.7998 29.9012 21.7998 25.3723C21.7998 20.4227 25.6028 16.9991 30.2233 17H34.3633C38.9289 16.9991 42.8 20.4209 42.8 25.3723C42.8 29.8989 38.9289 33.5999 34.3633 33.5999H30.2233Z" fill="#0079BE"/>
<path fill-rule="evenodd" clip-rule="evenodd" d="M30.2233 33.5999C25.6028 33.621 21.7998 29.9012 21.7998 25.3723C21.7998 20.4227 25.6028 16.9991 30.2233 17H30.3446C34.9097 16.9991 38.9068 20.4209 38.9068 25.3723C38.9068 29.8989 34.9097 33.5999 30.3446 33.5999H30.2233Z" fill="#0079BE"/>
<path fill-rule="evenodd" clip-rule="evenodd" d="M30.2422 17.6868C26.0199 17.6881 22.5986 21.0889 22.5986 25.2855C22.5986 29.4813 26.0199 32.8815 30.2422 32.882C34.465 32.882 37.8868 29.4813 37.8881 25.2855C37.8868 21.0884 34.4645 17.6877 30.2422 17.6868Z" fill="#FEFEFE"/>
<path fill-rule="evenodd" clip-rule="evenodd" d="M28.5061 29.7784V20.791C26.689 21.4867 25.4006 23.2342 25.396 25.2856C25.4006 27.3361 26.6895 29.0845 28.5061 29.7784ZM35.0883 25.2856C35.0846 23.2332 33.7944 21.4835 31.9755 20.79V29.7807C33.7944 29.0863 35.0851 27.3384 35.0883 25.2856Z" fill="#0079BE"/>
</svg>
