<?xml version="1.0" encoding="UTF-8"?>
<svg width="180px" height="180px" viewBox="0 0 180 180" version="1.1" xmlns="http://www.w3.org/2000/svg" xmlns:xlink="http://www.w3.org/1999/xlink">
    <title>Logo</title>
    <defs>
        <linearGradient x1="50%" y1="0%" x2="50%" y2="100%" id="linearGradient-1">
            <stop stop-color="#090C35" offset="0%"></stop>
            <stop stop-color="#133B8E" offset="100%"></stop>
        </linearGradient>
        <linearGradient x1="101.635803%" y1="51.9401893%" x2="2.09935655%" y2="47.1418243%" id="linearGradient-2">
            <stop stop-color="#B1FFFF" offset="0%"></stop>
            <stop stop-color="#058BBF" offset="34.51%"></stop>
            <stop stop-color="#085AA4" offset="50.27%"></stop>
            <stop stop-color="#0D267A" offset="76.4%"></stop>
            <stop stop-color="#101C50" offset="100%"></stop>
        </linearGradient>
    </defs>
    <g id="Page-1" stroke="none" stroke-width="1" fill="none" fill-rule="evenodd">
        <g id="Logo">
            <rect id="Background" fill="url(#linearGradient-1)" x="0" y="0" width="180" height="180"></rect>
            <path d="M84.0123503,98.5060171 C84.0903231,98.5166477 84.107243,98.5197249 84.1832419,98.5295163 C85.4530848,98.7007246 86.7009319,98.9277435 87.6560636,99.3512884 C88.5412595,99.7390249 89.0601382,100.22971 89.5338971,101.104356 C90.2542644,102.430661 90.3012173,104.288775 89.6502218,105.695089 C89.163914,106.741502 88.0964055,107.618945 87.1218159,108.084033 C86.1097203,108.570802 85.1125706,108.802577 83.9689224,108.932102 C81.9687011,109.150588 79.8084453,108.739492 78.0085846,107.875897 C76.9437551,107.360034 75.6434562,106.471681 74.9875257,105.327215 C74.5051659,104.488798 74.5205349,103.397904 75.1073755,102.60103 C76.0427672,101.330955 78.0462315,101.051342 79.5552099,101.104356 C80.7056261,101.148556 82.7770522,101.501324 83.8693766,101.886822 C84.1721029,101.995366 85.2886792,102.426884 85.4835408,102.624809 C85.6207334,102.762447 85.7097042,102.96247 85.6480874,103.147386 C85.398518,103.904675 83.5435264,104.303881 83.0078687,104.38403 C81.5739021,104.601957 80.8298468,104.063574 79.1996087,103.42504 C78.7949397,103.267819 78.255616,103.093394 77.8436149,103.055627 C77.1035077,102.985689 76.2095698,103.191307 76.0682882,103.992797 C75.9980703,104.405851 76.4863522,104.792189 76.8587323,104.954585 C77.7332122,105.327215 78.4441325,105.461216 79.3047945,105.472686 C81.8473004,105.514229 84.7046586,105.098937 86.7842627,103.637232 C87.068941,103.43567 87.3485433,103.140672 87.3515043,102.768741 C87.3605283,102.017746 86.0332985,101.558533 86.0332985,101.558533 C84.6324668,100.979166 82.044136,100.697176 80.7107021,100.588213 C79.3114215,100.468059 77.1097117,100.288318 76.581104,100.211107 C76.0368453,100.134035 75.4456337,100.025072 74.9742718,99.8155371 C74.5007949,99.6033451 74.037611,99.1284657 73.9001363,98.6030911 C73.6563479,97.65599 73.9673932,96.4938994 74.4975519,95.7373095 C75.8871036,93.7555449 79.1420809,93.0028716 81.5737611,92.7039564 C83.9273275,92.4134338 87.7322034,92.4163712 90.0438929,93.6349717 C90.4007631,93.8247836 90.5830756,94.0013073 90.5084868,94.379812 C90.3578992,95.0903826 89.8195624,95.5483369 89.167016,95.7490591 C88.4824626,95.9651677 87.066403,96.0493731 86.4444535,96.0882587 C83.6574541,96.2432414 80.2895361,96.1619734 77.6349354,96.8800973 C77.4269609,96.9389851 77.0676938,97.03508 76.9509461,97.1644654 C76.5354201,97.611929 77.7222142,97.7397758 77.9764366,97.7909704 C78.0520125,97.8088746 78.0666764,97.8113924 78.1454952,97.8199248 L84.0123503,98.5060171 M67.4323407,86.1777572 C67.4323407,86.1777572 67.8856547,85.5032746 68.2655077,84.9916079 C68.9571111,84.0597533 70.2087651,82.767438 71.1513479,81.9673467 C71.4396922,81.7229831 71.7796424,81.4461683 71.7796424,81.4461683 C71.7796424,81.4461683 71.2479327,81.50072 70.9466164,81.5618459 C70.2314661,81.6999036 69.1828516,82.3913111 68.6588968,82.8380754 C67.7942869,83.5722851 66.8435261,84.7658478 67.2737161,85.8263884 C67.336179,85.9761957 67.4323407,86.1777572 67.4323407,86.1777572 M72.2387373,87.453707 C73.604601,87.3602697 74.884032,86.9701553 76.0751972,86.3146959 C77.2433794,85.6662303 78.9616013,84.4017503 78.7833777,82.915287 C78.7292338,82.4341132 78.4117026,82.070855 78.0108406,81.9013252 C77.4898468,81.6773835 77.2181404,81.7134716 76.552622,81.9097177 C76.0691342,82.0500135 75.8512897,82.135198 75.3947328,82.3943884 C74.054813,83.1666444 72.1549835,84.8194204 71.1235709,86.138452 C70.8855635,86.4495364 70.6444541,86.7974083 70.4557965,87.0358971 C70.3367928,87.1829068 70.244297,87.3178873 70.255859,87.3538354 C70.2970309,87.503363 71.7053356,87.4896551 72.2387373,87.453707 M68.7611216,89.9877024 C68.6202629,90.1355515 68.4712263,90.4919558 68.3166906,90.7500272 C68.2340648,90.8880849 68.0810802,91.0658674 67.9798424,91.1372042 C67.6243823,91.3965345 67.323207,91.4085638 66.9800138,91.1089492 C66.498782,90.6866633 66.2204486,90.0335818 66.2007087,89.3982645 C66.1904157,89.1210301 66.2383556,88.8142818 66.1854807,88.5805488 C66.0979199,88.1859584 65.6998779,87.7794784 65.4852764,87.4022326 C65.23331,86.9578462 65.0294245,86.1829326 65.0040445,85.6825958 C64.9176117,84.1225576 65.7465487,82.6854706 66.8233632,81.5520545 C67.9077916,80.4059098 69.3265302,79.4533535 70.8694896,78.8048879 C72.3279901,78.1954477 74.465263,77.7800157 76.0668782,78.3302883 C76.5882949,78.5075113 77.3147252,78.9477014 77.6797733,79.4088729 C77.7573232,79.5045482 77.820491,79.6080565 77.9000148,79.6586916 C77.9712196,79.7037317 78.1574802,79.721496 78.3056708,79.7484921 C78.8165126,79.8363343 79.5519669,80.2200144 79.8524372,80.4755681 C80.4560567,80.9921305 80.7867009,81.4858931 80.9396856,82.2024784 C81.2465008,83.6443212 80.4095268,85.2261801 79.4562281,86.1889473 C77.823875,87.8459196 76.2118258,89.0109476 74.1236208,89.8219492 C73.206418,90.1773744 71.7779504,90.5094403 70.7373729,90.4165625 C70.4142016,90.3899861 70.0822884,90.3055009 69.7675772,90.2847993 C69.6069786,90.2710914 69.019856,90.1208645 68.9571111,90.078482 C68.8792793,90.0191745 68.7787465,89.9675603 68.7611216,89.9877024 M70.6261241,93.1844308 C70.689715,93.1950614 70.7877097,93.2233164 70.8720275,93.2554879 C71.6040978,93.5317432 71.9052731,94.2038478 72.0856117,94.9421139 C72.5035347,96.6564354 72.6818992,100.449036 72.7514121,101.933541 C72.8024539,103.047794 72.8305129,104.144003 72.8776068,105.245387 C72.9175097,106.178081 72.9925215,107.418083 72.796532,108.291889 C72.7253271,108.606191 72.5134046,108.971687 72.2099734,109.158841 C71.8624092,109.379566 71.0712601,109.396351 70.6364171,109.307389 C69.5645377,109.087504 69.2162685,108.40379 69.0632839,107.352201 C68.6996457,104.842964 68.8747673,99.9183461 69.0893688,97.8403467 C69.1607146,97.1539747 69.421282,94.9548426 69.7825231,94.0327794 C69.9058978,93.7218348 70.1685802,93.0956095 70.6261241,93.1844308 M38.0179778,97.3593128 C38.0179778,97.3593128 36.4227076,97.4713536 35.3247432,97.5922065 C33.9278595,97.7414543 31.3031507,98.1910161 29.7881093,98.7277207 C29.3336674,98.8891377 28.4105426,99.2723982 28.3303138,99.7359476 C28.245996,100.216422 28.5466073,100.592129 28.8809175,100.980845 C29.074228,101.206605 30.1683854,102.25078 30.4752007,102.504515 C31.7612586,103.569672 34.3690474,105.212377 36.2897449,106.01009 C36.9496233,106.28089 38.0412427,106.668627 38.0412427,106.668627 C38.0412427,106.668627 37.9601679,103.585198 37.9746909,100.547928 C37.9831508,98.9456477 38.0179778,97.3593128 38.0179778,97.3593128 M67.2689221,98.5864458 C67.3602899,99.4147921 67.1456884,100.980985 67.1084645,101.187582 C67.0405027,101.66372 66.6785565,102.762027 66.6184907,102.896028 C66.3263394,103.563517 66.0382771,104.110433 65.7330128,104.65595 C65.209904,105.589902 63.966005,107.070491 63.2275897,107.70413 C60.4816213,110.058664 56.2307634,111.399237 52.5839481,111.840825 C50.109404,112.137363 47.2660047,112.093861 44.643975,111.612548 C43.7415771,111.449732 42.3986963,111.142704 42.3986963,111.142704 C42.3986963,111.142704 42.4030673,111.675352 42.3600624,112.04994 C42.3391945,112.220869 42.2094748,112.67071 42.1367189,112.816461 C41.9460874,113.207135 41.6330681,113.408697 41.1779212,113.49542 C40.6285865,113.59655 40.0459759,113.63026 39.5383771,113.414991 C38.7049281,113.067119 38.4057268,112.293604 38.2604972,111.401475 C38.1430445,110.687967 38.0200927,109.447685 38.0200927,109.447685 C38.0200927,109.447685 37.3965922,109.154785 36.8767265,108.897413 C35.2799053,108.116904 33.7633129,107.171202 32.436506,106.198643 C32.0689199,105.926444 30.4897237,104.614406 30.1411725,104.288635 C29.1637628,103.36811 28.2844889,102.452342 27.6155865,101.277242 C27.0955798,100.359236 26.9458381,99.5444572 27.3413422,98.5717588 C27.8867289,97.2159398 29.8462012,96.195124 31.187249,95.6133793 C32.1715677,95.1822812 35.2322474,94.1908394 36.5036414,94.0070422 C37.1041589,93.9218576 38.0356027,93.7563842 38.0928486,93.7194569 C38.1162545,93.7016926 38.1324695,93.686586 38.1493894,93.667423 C38.1787174,93.6264393 38.2282083,92.2843281 38.2186203,91.793363 C38.2062123,91.3106506 38.5787334,88.1402189 38.6984421,87.4697927 C38.760905,87.1072339 39.0376873,85.7115501 39.3202507,85.3452146 C39.5051012,85.0976339 39.8319384,85.1176362 40.0984278,85.2801722 C41.5566463,86.1797155 41.9996673,89.2993721 42.108096,90.8866861 C42.1729559,91.8537895 42.2052448,93.3085009 42.2052448,93.3085009 C42.2052448,93.3085009 43.8780648,93.2594044 44.9070804,93.2883588 C45.90705,93.3114383 47.0092443,93.4679597 48.0471429,93.6320343 C49.3759237,93.8433871 51.9659466,94.4038707 53.451378,95.1509489 C54.6745501,95.766124 55.8194674,96.8026059 56.1904375,97.8995143 C56.5350407,98.9050836 56.4834348,99.6009672 55.958493,100.508483 C55.3682685,101.533216 54.2518331,102.294841 53.1198878,102.358485 C52.7830396,102.377788 51.5151706,102.210636 51.1250246,101.911021 C50.9720399,101.791567 50.9799359,101.576018 51.0903386,101.429847 C51.1322155,101.378513 51.7248371,101.06589 52.0746573,100.883491 C52.2500609,100.788935 52.3951495,100.686965 52.5320602,100.563175 C52.8226605,100.3093 53.0842149,100.029827 53.055028,99.7022375 C53.0148431,99.2770141 52.5612471,99.0147465 52.1289422,98.8460559 C50.100521,98.046664 46.0505876,97.3830917 44.0935123,97.2682535 C43.3274611,97.223633 42.2378157,97.1854468 42.2378157,97.1854468 L42.4682092,107.90639 C42.4682092,107.90639 43.369056,108.07662 44.0789893,108.190759 C44.4863374,108.252024 46.2123142,108.406168 46.6709862,108.417358 C50.1632658,108.508837 54.0610606,108.198592 57.2659829,106.698281 C58.6730186,106.041422 59.9638705,105.223567 60.9411392,104.116447 C62.2291711,102.651525 62.9037135,100.646681 62.7252079,98.5525958 C62.5295004,96.2656216 60.9070173,93.5507663 59.6113714,91.8977106 C56.1880405,87.5303591 50.3200575,83.9377813 45.1574958,81.831527 C39.8869283,79.6826104 34.6778367,78.4463855 29.084239,78.2393688 C27.6422355,78.1863558 24.4980839,78.2585319 22.9087357,78.6946655 C22.6817263,78.7581693 22.4528838,78.8339821 22.2420893,78.8809805 C22.0755687,78.9214047 21.8131683,79.0307878 21.7411175,79.0885566 C21.7012146,79.1205883 21.6617347,79.164929 21.6617347,79.164929 C21.6617347,79.164929 21.7597295,79.2186414 21.8533532,79.2579466 C22.0217068,79.3308221 22.7303711,79.3744634 23.0971113,79.4410444 C23.4252175,79.5023102 23.7668597,79.6732387 23.9020784,79.9117275 C24.030529,80.1384667 24.046603,80.3172283 23.8930544,80.5063408 C23.5329412,80.940796 22.1775115,80.8675009 21.5806599,80.7737839 C20.9604024,80.6757308 20.1881472,80.4874575 20.0463015,79.9517321 C19.8817549,79.320751 20.1839172,78.7022189 20.5103314,78.1304054 C21.1661209,76.9863587 22.1054606,76.3913258 23.4810534,76.0186959 C25.4348857,75.4853483 27.9019568,75.1124386 29.7469374,75.0425006 C33.9227835,74.8859792 37.8750041,75.6103975 41.9209895,76.8289981 C44.2366269,77.5236228 47.2682607,78.6892104 49.4877364,79.7493313 C51.0803277,80.5110966 53.5895577,81.9119557 54.9991313,82.8274448 C55.4437033,83.118527 58.0452881,85.0148273 58.4493931,85.348152 C59.2924301,86.0318664 60.3950475,87.0146359 61.1935286,87.8005997 C62.7383209,89.3192345 64.6597233,91.6470526 65.5931411,93.494676 C65.8177536,93.9371041 65.9917472,94.3723985 66.2815015,94.8851843 C66.3811882,95.0608687 66.8075712,96.111618 66.8784941,96.4151491 C66.9487119,96.7154631 67.0516416,97.1569121 67.0661646,97.1743966 C67.0867506,97.3356737 67.2844321,98.2384341 67.2689221,98.5864458 M119.76634,96.2159656 C117.810816,96.6632893 112.668417,96.9117093 112.668417,96.9117093 L112.01996,98.9267644 C112.01996,98.9267644 114.589819,98.7091172 116.459334,98.9028456 C116.459334,98.9028456 117.065069,98.8330474 117.136273,99.5850213 C117.160384,100.28636 117.076208,101.038894 117.076208,101.038894 C117.076208,101.038894 117.037433,101.49419 116.387001,101.610008 C115.682144,101.726524 110.84797,101.912 110.84797,101.912 L110.06514,104.538594 C110.06514,104.538594 109.774258,105.145796 110.42624,104.972489 C111.031975,104.811632 116.097247,103.868727 116.756984,104.004407 C117.463957,104.178552 118.246364,105.113624 118.0202,105.965749 C117.750609,107.021954 112.695066,110.220501 109.616338,109.997258 C109.616338,109.997258 107.998508,110.100767 106.631093,107.934785 C105.357584,105.870774 107.113735,101.962635 107.113735,101.962635 C107.113735,101.962635 106.308768,100.138231 106.892084,99.5198391 C106.892084,99.5198391 107.239225,99.2073558 108.25118,99.1367184 L109.490285,96.593631 C109.490285,96.593631 108.078878,96.6900057 107.239225,95.6599581 C106.4571,94.6827836 106.391535,94.2336415 106.991207,93.9638205 C107.632473,93.6496587 113.510185,92.5854814 117.55476,92.7204618 C117.55476,92.7204618 118.960386,92.5835231 120.179469,95.0022606 C120.179751,95.0024005 120.770258,95.9805541 119.76634,96.2159656 M104.553745,105.994144 C104.035431,107.203653 102.666183,108.49443 100.965163,107.6921 C99.2859979,106.888092 96.6113753,101.457543 96.6113753,101.457543 C96.6113753,101.457543 95.5960367,99.4325564 95.4007522,99.4847302 C95.4007522,99.4847302 95.1813567,99.0893004 95.046843,101.30214 C94.9069713,103.505609 95.0737739,107.802183 94.187732,108.478484 C93.348361,109.156603 92.3320355,108.886642 91.8049787,108.094384 C91.3258619,107.313875 91.1264883,105.459258 91.3879017,102.201963 C91.69514,98.9383741 92.4593582,95.4660898 93.4357808,94.3848475 C94.4107935,93.3108788 95.1936236,94.0905482 95.4987469,94.3733777 C95.4987469,94.3733777 96.8029938,95.5460989 98.9538027,98.9897086 L99.3333738,99.6267044 C99.3333738,99.6267044 101.287911,102.880083 101.492079,102.872529 C101.492079,102.872529 101.651831,103.022057 101.794241,102.914632 C101.999395,102.856444 101.916629,101.813248 101.916629,101.813248 C101.916629,101.813248 101.511114,98.2676682 99.7280319,92.266424 C99.7280319,92.266424 99.4584405,91.5180868 99.6407531,90.8168879 C99.8217966,90.1082756 100.537793,90.440901 100.537793,90.440901 C100.537793,90.440901 103.301386,91.81938 104.642857,96.2829662 C105.975445,100.747951 105.079956,104.775544 104.553745,105.994144 M134.29692,103.320832 C133.038921,105.498283 129.487421,110.057685 124.767598,108.981198 C123.208988,112.730717 121.899665,116.523737 121.150957,122.19935 C121.150957,122.19935 120.98641,123.302273 120.062439,122.919152 C119.146788,122.601214 117.638514,121.090972 117.333391,119.001642 C117.005144,116.257134 118.236776,111.617583 120.754043,106.297675 C120.019858,105.113624 119.519309,103.421963 119.947807,101.013156 C119.947807,101.013156 120.580049,96.5400585 125.108535,92.5084096 C125.108535,92.5084096 125.651384,92.0433216 125.966095,92.1865547 C126.312814,92.330767 126.152215,93.7863177 125.877125,94.4940908 C125.591318,95.1978074 123.575305,98.6601605 123.575305,98.6601605 C123.575305,98.6601605 122.317729,100.999309 122.671638,102.844274 C125.046637,99.221903 130.445514,91.9172932 133.791859,94.2207729 C134.915908,95.0186261 135.434083,96.7540689 135.434083,98.6240725 C135.434787,100.266638 135.035476,102.012431 134.29692,103.320832 M133.320356,97.5839538 C133.320356,97.5839538 133.134095,96.1437895 131.714793,97.7304041 C130.494018,99.0692981 128.292167,101.577836 126.51966,104.985078 C128.379446,104.777922 130.173243,103.776968 130.715669,103.26712 C131.597481,102.490947 133.651705,100.385113 133.320356,97.5839538 M160.297399,97.2560842 L151.647351,97.2560842 C151.474909,94.3395277 151.120013,91.4985042 150.562077,88.5725759 C150.504831,88.2697441 150.239188,88.0501387 149.929975,88.0501387 L147.935817,88.0501387 C147.762247,88.0501387 147.597982,88.1274902 147.485464,88.2624706 C147.372664,88.399689 147.328532,88.5742544 147.361666,88.745183 C147.928344,91.576555 148.287188,94.3633066 148.464284,97.2588818 L140.142343,97.2588818 C139.754594,97.2588818 139.4396,97.5703858 139.4396,97.9535065 L139.4396,99.737766 C139.4396,100.121726 139.754594,100.435468 140.142343,100.435468 L148.583429,100.435468 C148.588787,100.875798 148.593158,101.270109 148.593158,101.640081 C148.593158,104.211563 148.481345,106.329847 148.220072,108.720329 C148.199486,108.905106 148.260398,109.089043 148.386593,109.224583 C148.508981,109.361242 148.685371,109.439153 148.868389,109.439153 L150.717881,109.439153 C151.078982,109.439153 151.377901,109.169751 151.414138,108.813207 C151.666809,106.406499 151.775097,104.261919 151.775097,101.639941 C151.775097,101.271368 151.771149,100.875658 151.76565,100.435328 L160.29754,100.435328 C160.684302,100.435328 161,100.121586 161,99.7376261 L161,97.9533666 C161,97.5685674 160.684161,97.2560842 160.297399,97.2560842" id="Shape" fill="#FFFFFF" fill-rule="nonzero"></path>
            <path d="M44.634669,73.3466427 C44.5121403,73.5273626 44.4825304,73.7490663 44.5528892,73.9573418 C44.62635,74.1651977 44.7861026,74.3232576 44.9925262,74.3950141 L46.5430995,74.9126955 C46.6368642,74.9417898 46.730065,74.9570363 46.8214328,74.9570363 C47.1087901,74.9570363 47.3785225,74.8159013 47.5382751,74.5789512 C52.617365,67.1768478 59.4913806,61.0137669 67.4183818,56.7559384 C75.6020023,52.3596326 84.8739992,50.0341924 94.2348259,50.0341924 C105.541307,50.0341924 116.450451,53.3428217 125.783642,59.6017177 C134.890387,65.70675 141.96293,74.2243652 146.236912,84.2340389 C146.364517,84.5336535 146.659488,84.7268224 146.986325,84.7268224 L148.838215,84.7268224 C149.051406,84.7268224 149.25219,84.6202368 149.372886,84.4432935 C149.494145,84.2667699 149.516846,84.0425485 149.436336,83.8440643 C145.02925,73.0815775 137.576854,63.9069642 127.881858,57.3155827 C117.957173,50.5675399 106.322163,47 94.2348259,47 C74.2522125,47 55.7094876,56.8495155 44.634669,73.3466427" id="Path" fill="url(#linearGradient-2)" fill-rule="nonzero"></path>
        </g>
    </g>
</svg>