<?xml version="1.0" encoding="UTF-8"?>
<svg width="180px" height="180px" viewBox="0 0 180 180" version="1.1" xmlns="http://www.w3.org/2000/svg" xmlns:xlink="http://www.w3.org/1999/xlink">
    <title>Logo/Edge@1x</title>
    <defs>
        <linearGradient x1="0%" y1="50.0324886%" x2="100.069867%" y2="50.0324886%" id="linearGradient-1">
            <stop stop-color="#0C59A4" offset="0%"></stop>
            <stop stop-color="#114A8B" offset="100%"></stop>
        </linearGradient>
        <radialGradient cx="66.9569896%" cy="50%" fx="66.9569896%" fy="50%" r="67.9037454%" gradientTransform="translate(0.669570,0.500000),scale(0.863596,1.000000),rotate(-0.348917),translate(-0.669570,-0.500000)" id="radialGradient-2">
            <stop stop-color="#000000" stop-opacity="0" offset="0%"></stop>
            <stop stop-color="#000000" stop-opacity="0.5" offset="90%"></stop>
            <stop stop-color="#000000" offset="100%"></stop>
        </radialGradient>
        <linearGradient x1="76.6503343%" y1="24.78208%" x2="33.2550603%" y2="83.1522995%" id="linearGradient-3">
            <stop stop-color="#1B9DE2" offset="0%"></stop>
            <stop stop-color="#1595DF" offset="20%"></stop>
            <stop stop-color="#0680D7" offset="70%"></stop>
            <stop stop-color="#0078D4" offset="100%"></stop>
        </linearGradient>
        <radialGradient cx="50%" cy="58.9030406%" fx="50%" fy="58.9030406%" r="63.8389859%" gradientTransform="translate(0.500000,0.589030),scale(1.000000,0.810551),rotate(-65.957339),translate(-0.500000,-0.589030)" id="radialGradient-4">
            <stop stop-color="#000000" stop-opacity="0" offset="0%"></stop>
            <stop stop-color="#000000" stop-opacity="0.5" offset="79.9067241%"></stop>
            <stop stop-color="#000000" offset="100%"></stop>
        </radialGradient>
        <radialGradient cx="32.8686787%" cy="28.173609%" fx="32.8686787%" fy="28.173609%" r="116.942782%" gradientTransform="translate(0.328687,0.281736),scale(0.665726,1.000000),rotate(88.156151),translate(-0.328687,-0.281736)" id="radialGradient-5">
            <stop stop-color="#35C1F1" offset="0%"></stop>
            <stop stop-color="#34C1ED" offset="10%"></stop>
            <stop stop-color="#2FC2DF" offset="20%"></stop>
            <stop stop-color="#2BC3D2" offset="30%"></stop>
            <stop stop-color="#36C752" offset="100%"></stop>
        </radialGradient>
        <radialGradient cx="93.7705355%" cy="45.3726388%" fx="93.7705355%" fy="45.3726388%" r="57.110315%" gradientTransform="translate(0.937705,0.453726),scale(0.665726,1.000000),rotate(73.745599),translate(-0.937705,-0.453726)" id="radialGradient-6">
            <stop stop-color="#66EB6E" offset="0%"></stop>
            <stop stop-color="#66EB6E" stop-opacity="0" offset="100%"></stop>
        </radialGradient>
    </defs>
    <g id="Logo/Edge" stroke="none" stroke-width="1" fill="none" fill-rule="evenodd">
        <g id="Logo" fill-rule="nonzero">
            <g id="Microsoft_Edge_logo_(2019)">
                <path d="M162.487159,133.99166 C160.073465,135.246466 157.584402,136.350523 155.034265,137.297491 C146.959477,140.304107 138.408787,141.829039 129.792858,141.799048 C96.536075,141.799048 67.5682214,118.939578 67.5682214,89.5387836 C67.656226,81.5226097 72.0659584,74.1792513 79.0991146,70.3368292 C49.0062959,71.6028921 41.2721602,102.973118 41.2721602,121.33103 C41.2721602,173.380284 89.1534909,178.585209 99.4891086,178.585209 C105.043624,178.585209 113.410553,176.967462 118.472896,175.349715 L119.38693,175.068368 C138.760235,168.370715 155.275772,155.272381 166.213606,137.930522 C166.866973,136.847548 166.717548,135.461515 165.848383,134.542806 C164.979218,133.624097 163.604024,133.398604 162.487159,133.99166 L162.487159,133.99166 Z" id="Path" fill="url(#linearGradient-1)"></path>
                <path d="M162.487159,133.99166 C160.073465,135.246466 157.584402,136.350523 155.034265,137.297491 C146.959477,140.304107 138.408787,141.829039 129.792858,141.799048 C96.536075,141.799048 67.5682214,118.939578 67.5682214,89.5387836 C67.656226,81.5226097 72.0659584,74.1792513 79.0991146,70.3368292 C49.0062959,71.6028921 41.2721602,102.973118 41.2721602,121.33103 C41.2721602,173.380284 89.1534909,178.585209 99.4891086,178.585209 C105.043624,178.585209 113.410553,176.967462 118.472896,175.349715 L119.38693,175.068368 C138.760235,168.370715 155.275772,155.272381 166.213606,137.930522 C166.866973,136.847548 166.717548,135.461515 165.848383,134.542806 C164.979218,133.624097 163.604024,133.398604 162.487159,133.99166 L162.487159,133.99166 Z" id="Path" fill="url(#radialGradient-2)" opacity="0.35"></path>
                <path d="M74.3180126,169.722769 C68.0595631,165.83422 62.6346521,160.741966 58.357569,154.741024 C48.4707976,141.203507 45.072226,123.986078 49.0731023,107.705192 C53.0739786,91.424306 64.0649762,77.7456468 79.0991146,70.3368292 C81.349045,69.2817768 85.0754921,67.4530192 90.0675251,67.523356 C97.1883114,67.5784715 103.873683,70.9614519 108.137278,76.6671438 C110.966273,80.4729587 112.517007,85.0776642 112.566829,89.8201309 C112.566829,89.6794572 129.792858,33.8320148 56.3185696,33.8320148 C25.4523373,33.8320148 0.0703103241,63.0921358 0.0703103241,88.8354153 C-0.0524618364,102.43401 2.85373913,115.889267 8.57785954,128.22404 C27.9817887,169.557717 75.2456428,189.812653 118.543206,175.349715 C103.711624,180.035785 87.5718283,177.978985 74.3883229,169.722769 L74.3180126,169.722769 Z" id="Path" fill="url(#linearGradient-3)"></path>
                <path d="M74.3180126,169.722769 C68.0595631,165.83422 62.6346521,160.741966 58.357569,154.741024 C48.4707976,141.203507 45.072226,123.986078 49.0731023,107.705192 C53.0739786,91.424306 64.0649762,77.7456468 79.0991146,70.3368292 C81.349045,69.2817768 85.0754921,67.4530192 90.0675251,67.523356 C97.1883114,67.5784715 103.873683,70.9614519 108.137278,76.6671438 C110.966273,80.4729587 112.517007,85.0776642 112.566829,89.8201309 C112.566829,89.6794572 129.792858,33.8320148 56.3185696,33.8320148 C25.4523373,33.8320148 0.0703103241,63.0921358 0.0703103241,88.8354153 C-0.0524618364,102.43401 2.85373913,115.889267 8.57785954,128.22404 C27.9817887,169.557717 75.2456428,189.812653 118.543206,175.349715 C103.711624,180.035785 87.5718283,177.978985 74.3883229,169.722769 L74.3180126,169.722769 Z" id="Path" fill="url(#radialGradient-4)" opacity="0.41"></path>
                <path d="M107.152934,104.661202 C106.520141,105.36457 104.762383,106.419623 104.762383,108.600064 C104.762383,110.428822 105.957658,112.257579 108.137278,113.734653 C118.191655,120.768336 137.245753,119.78362 137.316063,119.78362 C144.811522,119.77868 152.168463,117.762652 158.620091,113.945663 C171.836543,106.212343 179.969575,92.0544629 179.99443,76.7374806 C180.205361,60.9820309 174.369604,50.5018434 172.049363,45.8596126 C157.073264,16.7401653 124.941446,0 89.9972148,0 C40.7832019,-0.00486820337 0.692071819,39.5373812 0,88.7650784 C0.35155162,63.0921358 25.8741993,42.3427712 56.2482593,42.3427712 C58.7091206,42.3427712 72.7711854,42.5537817 85.7785954,49.3764541 C94.9169148,53.9191787 102.484469,61.0975903 107.504486,69.985145 C111.793415,77.4408489 112.566829,86.9363209 112.566829,90.7345097 C112.566829,94.5326984 110.66845,100.089308 107.082624,104.731539 L107.152934,104.661202 Z" id="Path" fill="url(#radialGradient-5)"></path>
                <path d="M107.152934,104.661202 C106.520141,105.36457 104.762383,106.419623 104.762383,108.600064 C104.762383,110.428822 105.957658,112.257579 108.137278,113.734653 C118.191655,120.768336 137.245753,119.78362 137.316063,119.78362 C144.811522,119.77868 152.168463,117.762652 158.620091,113.945663 C171.836543,106.212343 179.969575,92.0544629 179.99443,76.7374806 C180.205361,60.9820309 174.369604,50.5018434 172.049363,45.8596126 C157.073264,16.7401653 124.941446,0 89.9972148,0 C40.7832019,-0.00486820337 0.692071819,39.5373812 0,88.7650784 C0.35155162,63.0921358 25.8741993,42.3427712 56.2482593,42.3427712 C58.7091206,42.3427712 72.7711854,42.5537817 85.7785954,49.3764541 C94.9169148,53.9191787 102.484469,61.0975903 107.504486,69.985145 C111.793415,77.4408489 112.566829,86.9363209 112.566829,90.7345097 C112.566829,94.5326984 110.66845,100.089308 107.082624,104.731539 L107.152934,104.661202 Z" id="Path" fill="url(#radialGradient-6)"></path>
            </g>
        </g>
    </g>
</svg>