<?xml version="1.0" encoding="UTF-8"?>
<svg width="180px" height="180px" viewBox="0 0 180 180" version="1.1" xmlns="http://www.w3.org/2000/svg" xmlns:xlink="http://www.w3.org/1999/xlink">
    <title>Logo</title>
    <g id="Page-1" stroke="none" stroke-width="1" fill="none" fill-rule="evenodd">
        <g id="Logo">
            <rect id="Background" fill="#FFFFFF" x="0" y="0" width="180" height="180"></rect>
            <path d="M67.3347792,58.843141 C67.450352,60.444914 66.9816402,62.0344547 66.0145841,63.3203142 C64.7143919,64.5241764 62.6840918,64.6236691 61.5139188,64.6236691 L48.7120267,64.6236691 C46.2431942,64.5542659 43.7723926,64.6206957 41.3109328,64.8226546 C40.519856,64.9663392 39.7480081,65.2000233 39.0105928,65.5191037 C38.8605706,65.5787994 38.8105632,65.5191037 38.910578,65.419611 L68.1348974,35.8702675 C68.2349122,35.7707748 68.2949211,35.8105719 68.2349122,35.9697603 C67.9141575,36.7033266 67.6792473,37.4711456 67.5348087,38.2580933 C67.3317902,40.7067051 67.2650118,43.16461 67.3347792,45.620556 L67.3347792,58.843141 Z M94.4887926,148.19757 C91.8701512,146.557176 89.8154695,144.162728 88.5979219,141.332571 C86.7516561,136.692952 87.3449554,131.44383 90.180844,127.327917 C93.0167326,123.212004 97.7240686,120.767963 102.740012,120.807219 C103.935338,120.809799 105.080076,121.287395 105.919648,122.133795 C106.759219,122.980195 107.224017,124.125224 107.210673,125.31424 C107.193604,126.938626 106.304784,128.429968 104.880329,129.224304 C104.348344,129.506093 103.774263,129.700934 103.180077,129.801362 C102.012103,129.889888 100.883073,130.258578 99.8895909,130.875884 C98.7828528,131.701468 98.1249369,132.992047 98.1093278,134.368079 C98.1057298,135.821145 98.6811496,137.21641 99.7095643,138.248296 C101.509964,140.045595 103.959985,141.049162 106.510569,141.034093 C109.774028,141.036735 112.904587,139.748268 115.212202,137.452699 C117.519817,135.157129 118.815044,132.04291 118.812388,128.796486 C118.812388,122.727429 114.711782,117.354821 109.310983,114.966995 C108.244067,114.534674 107.139183,114.201608 106.010496,113.972068 C104.510274,113.673589 103.110067,113.474604 103.010052,113.474604 C98.8094312,112.97714 88.3078791,109.69388 87.6077756,100.441055 C87.6077756,100.441055 84.5073173,114.370039 78.3064008,118.150763 C77.5742493,118.506328 76.8019886,118.773539 76.0060608,118.946705 C75.2821501,119.106398 74.5461976,119.206231 73.8057356,119.245183 C63.7042426,119.842139 53.0026608,116.658372 45.6015669,109.096923 C45.6015669,109.096923 40.6008278,105.017721 38.0004435,93.5760561 C37.4003548,90.7902594 36.2001774,85.8156225 35.5000739,81.1394637 C35.2000296,79.4480872 35.1000148,78.1546816 35,76.9607687 C35,72.1353709 38.0004435,68.8023641 41.7509978,68.3347483 L42.341085,68.3347483 L62.1340105,68.3347483 C65.6345279,68.3347483 67.6348235,67.4393136 68.9350157,66.2454007 C70.635267,64.6535169 71.0353261,62.3651839 71.0353261,59.67888 L71.0353261,39.302767 C71.0353261,39.1634772 71.0353261,38.8351512 71.0353261,38.7157599 C71.5053956,34.9947314 74.8558908,32 79.7066078,32 L82.1069626,32 C83.2149294,32.0062616 84.3211088,32.0893738 85.4174519,32.2487318 C86.3242368,32.3786394 87.2225794,32.5613566 88.1078495,32.7959419 C94.2087512,34.3082315 95.5089434,40.4568828 95.5089434,40.4568828 L112.811501,43.441665 C118.312314,44.4365924 131.914324,45.332027 134.514709,58.9625322 C140.61561,91.3971651 136.915063,122.836871 136.615019,122.836871 C132.314383,153.480634 106.710599,151.988243 106.710599,151.988243 C102.351082,151.944612 98.1007578,150.626346 94.4887926,148.19757 Z M117.5422,82.9610204 C114.231711,82.61727 111.421295,83.9720511 110.391143,86.5198482 C110.168966,86.9560027 110.071961,87.4463044 110.111102,87.9352911 C110.197063,88.1707036 110.385048,88.3532818 110.621177,88.4306961 C112.594717,89.1295639 114.654682,89.5480813 116.742082,89.6742637 C119.632509,90.0281244 121.662809,90.2202203 122.973003,89.9371317 C123.220845,89.9168836 123.445762,89.7827018 123.583093,89.5731607 C123.742051,89.1074466 123.762909,88.6049247 123.643102,88.1273869 C123.213038,85.4178248 120.832686,83.4564254 117.5422,83.0014617 L117.5422,82.9610204 Z" id="Shape" fill="#00A82D" fill-rule="nonzero"></path>
        </g>
    </g>
</svg>