<?xml version="1.0" encoding="UTF-8"?>
<svg width="238px" height="35px" viewBox="0 0 238 35" version="1.1" xmlns="http://www.w3.org/2000/svg" xmlns:xlink="http://www.w3.org/1999/xlink">
    <title>ExpressVPN Keys Logo</title>
    <g id="Password-Manager" stroke="none" stroke-width="1" fill="none" fill-rule="evenodd">
        <g id="Welcome" transform="translate(-135.000000, -130.000000)">
            <g id="Keys/Horizontal/Color" transform="translate(135.000000, 130.000000)">
                <g id="Keys" transform="translate(189.270038, 10.063051)" fill="#001D2F" fill-rule="nonzero">
                    <path d="M4.44439552,1.51043215 L5.88646003,0.519211051 L5.88646003,0 L0,0 L0,0.519211051 L1.4420645,1.51043215 L1.4420645,13.3578843 L0,14.3491054 L0,14.8683164 L5.88646003,14.8683164 L5.88646003,14.3491054 L4.44439552,13.3578843 L4.44439552,1.51043215 Z M12.3639301,12.3194622 L7.70677096,6.1125301 L13.0967825,1.48683164 L14.8225319,0.519211051 L14.8225319,0 L9.6216435,0 L9.6216435,0.519211051 L11.063708,1.43963064 L5.15360757,6.93854768 L5.15360757,7.41055772 L9.00699305,12.9094748 C9.99988992,14.3491054 11.1346292,14.8683164 12.8603785,14.8683164 L14.9170935,14.8683164 L14.9170935,14.3491054 C14.0896794,14.0422989 13.2149846,13.4522863 12.3639301,12.3194622 Z" id="Shape"></path>
                    <path d="M25.5058768,8.82658786 L25.8604829,8.47258033 C25.8841233,5.42811553 24.2292951,3.0680653 20.8487177,3.0680653 C17.279017,3.0680653 15.0095385,5.78212306 15.0095385,9.13339439 C15.0095385,12.7442712 17.3499382,15.0571205 20.8250773,15.0571205 C23.0709155,15.0571205 24.8203052,14.0422989 25.6240788,12.1778592 L25.1276304,11.8238517 C24.4184184,12.4374647 23.5437235,12.7914722 22.1252994,12.8150727 C19.7139784,12.8858743 18.2009927,11.3754421 17.9409483,8.73218585 C20.4941117,8.85018836 23.2363983,8.87378886 25.5058768,8.82658786 Z M20.3286289,4.36609293 C21.5342893,4.36609293 22.5981074,5.19211051 22.8581518,7.31615571 L17.8936675,7.62296224 C17.9409483,5.71132156 18.9102048,4.36609293 20.3286289,4.36609293 Z" id="Shape"></path>
                    <path d="M39.0733508,3.28046982 L34.5816745,3.28046982 L34.5816745,3.79968087 L35.787335,4.76730146 L33.612418,13.0982788 L33.4232948,13.0982788 L29.8063133,4.72010046 L31.0356142,3.79968087 L31.0356142,3.28046982 L25.7165238,3.28046982 L25.7165238,3.79968087 L26.9694651,4.76730146 L31.0592546,14.5379094 L31.4611414,14.7503139 L33.2341716,14.3727059 L33.0923292,14.7739144 C32.3594767,16.8271581 31.2720182,17.4407712 29.9717961,17.4407712 C29.1916629,17.4407712 28.553372,17.3227687 27.8914408,17.0159622 L27.3949924,17.0159622 L26.5439379,19.3524119 C27.2058691,19.6828189 28.2224064,19.8952234 29.1680225,19.8952234 C31.8157475,19.8952234 33.4232948,18.4319923 34.7707977,14.0894999 L37.6549267,4.79090197 L39.0733508,3.79968087 L39.0733508,3.28046982 Z" id="Path"></path>
                    <path d="M43.2792257,15.0571205 C46.0215123,15.0571205 47.8654636,13.6646908 47.8654636,11.3754421 C47.8654636,9.93581147 47.06169,8.89738937 45.2177386,8.14217329 L44.0120781,7.67016325 C42.1681268,6.93854768 41.5771168,6.39573612 41.5771168,5.54611804 C41.5771168,4.76730146 42.239048,4.20088941 43.2555853,4.20088941 C44.3666842,4.20088941 45.3359406,4.79090197 46.1397143,6.01812809 L46.6125223,6.01812809 L47.7472616,4.1064874 C46.6598031,3.46927384 45.123177,3.0680653 43.5392701,3.0680653 C40.8679047,3.0680653 38.9530322,4.55489694 38.9530322,6.67894215 C38.9530322,8.1893743 40.2296139,9.29859791 42.1681268,10.053814 L43.2319449,10.4550225 C44.6030882,10.9978341 45.2177386,11.5406456 45.2177386,12.5318667 C45.2177386,13.3814848 44.5794478,13.9242964 43.5392701,13.9242964 C42.4281712,13.9242964 41.0570279,13.1218793 40.1114119,11.5406456 L39.6149634,11.5406456 L38.5984261,13.8298943 C39.8513674,14.6087109 41.6007572,15.0571205 43.2792257,15.0571205 Z" id="Path"></path>
                </g>
                <g id="ExpressVPN/Horizontal/Brand" fill="#DA3940">
                    <path d="M67.9945988,21.2513 L66.9072793,24.9361 L55.7748653,24.9361 L55.7748653,24.4167 L57.215984,23.4241 L57.215984,11.5689 L55.7748653,10.5763 L55.7748653,10.0569 L67.4271189,10.0569 L67.6870387,10.3166 L66.9549196,13.6472 L66.43508,13.6472 C65.9621801,11.592 65.2763001,11.3092 61.872822,11.3092 L60.2418428,11.3092 L60.2418428,16.7643 L65.6069797,16.4339 L65.7253798,16.5277 L65.2286598,18.2756 L65.0871401,18.3232 L60.2418428,17.8514 L60.2418428,23.6838 L61.778242,23.6838 C64.5434804,23.6838 65.9860002,23.2596 67.4747592,21.063 L67.9945988,21.2513 Z M182.65496,10.5763 L181.213141,11.5689 L181.213141,24.7464 L181.024681,24.9361 L178.731642,24.9361 L170.269186,13.2461 L170.269186,23.4241 L171.971626,24.4167 L171.971626,24.9361 L167.290968,24.9361 L167.290968,24.4167 L168.733487,23.4241 L168.733487,11.522 L167.078688,10.5763 L167.078688,10.0569 L171.545665,10.0569 L179.676741,21.3458 L179.676741,11.5689 L177.975002,10.5763 L177.975002,10.0569 L182.65496,10.0569 L182.65496,10.5763 Z M158.309372,23.4241 L160.011111,24.4167 L160.011111,24.9361 L153.866215,24.9361 L153.866215,24.4167 L155.308034,23.4241 L155.308034,11.5689 L153.866215,10.5763 L153.866215,10.0569 L160.106392,10.0569 C164.454969,10.0569 166.700368,11.5451 166.700368,14.4025 C166.700368,17.6617 163.53369,19.8821 158.829913,19.8821 C158.616932,19.8821 158.427772,19.8821 158.309372,19.8576 L158.309372,23.4241 Z M152.684316,10.5763 L151.218676,11.5451 L146.349559,24.9361 L143.53668,24.9361 L138.360002,11.6158 L136.848124,10.5763 L136.848124,10.0569 L142.946081,10.0569 L142.946081,10.5763 L141.457322,11.592 L145.664379,22.3846 L145.829719,22.3846 L149.375417,11.5689 L147.862138,10.5763 L147.862138,10.0569 L152.684316,10.0569 L152.684316,10.5763 Z M158.309372,18.6305 C161.61827,18.725 163.62757,17.1423 163.62757,14.4746 C163.62757,12.2773 162.494011,11.1678 160.224091,11.1678 C159.585852,11.1678 158.853733,11.3323 158.309372,11.592 L158.309372,18.6305 Z M95.5313849,18.7719 C95.5313849,22.4798 93.0491859,25.1251 89.5742473,25.1251 C88.5583883,25.1251 87.7071685,24.8647 86.8804694,24.5112 L86.8804694,28.1477 L88.5822084,29.1396 L88.5822084,29.659 L82.554311,29.659 L82.554311,29.1396 L84.020651,28.1477 L84.020651,15.2061 L82.554311,14.3318 L82.554311,13.8117 L86.4545092,13.0326 L86.8804694,13.3168 L86.8804694,14.9695 C87.802449,13.7886 89.2673878,13.0571 90.7806675,13.0571 C93.5928456,13.0571 95.5313849,15.5127 95.5313849,18.7719 L95.5313849,18.7719 Z M105.05664,15.6548 L104.5368,15.6548 C104.15848,15.4182 103.75634,15.2999 103.3542,15.2999 C102.480561,15.2999 101.653162,15.631 100.920342,16.268 L100.920342,23.4241 L102.669721,24.4167 L102.669721,24.9361 L96.5710641,24.9361 L96.5710641,24.4167 L98.0367035,23.4241 L98.0367035,15.2061 L96.5710641,14.3318 L96.5710641,13.8117 L100.494382,13.0326 L100.920342,13.3168 L100.920342,15.1816 C101.676281,13.9538 103.000401,13.0802 104.32382,13.0802 C104.93894,13.0802 105.45878,13.2461 105.88404,13.552 L105.05664,15.6548 Z M113.943655,18.9133 C112.360316,18.9133 110.587817,18.8664 108.649978,18.7957 C108.909898,21.441 110.351017,22.9754 112.714816,22.9754 C114.132815,22.9754 115.054795,22.6212 115.834554,21.9604 L116.331274,22.3384 C115.551515,24.2032 113.802135,25.2189 111.532916,25.2189 C108.058678,25.2189 105.7187,22.834 105.7187,19.1968 C105.7187,15.7255 108.034858,13.0326 111.556737,13.0326 C113.187716,13.0326 114.416555,13.552 115.291595,14.5684 C116.165934,15.5841 116.591194,16.9057 116.568074,18.5353 L116.212874,18.8902 C115.740675,18.9133 114.984035,18.9133 113.943655,18.9133 L113.943655,18.9133 Z M118.623613,21.5824 L119.120333,21.5824 C120.042312,23.0937 121.389552,23.9673 122.547631,23.9673 C123.588011,23.9673 124.22625,23.4241 124.22625,22.5743 C124.22625,21.6055 123.65877,21.0861 122.240071,20.5436 L121.176571,20.1418 C119.167973,19.3858 117.962253,18.1818 117.962253,16.5991 C117.962253,14.6391 119.806213,13.1278 122.547631,13.1278 C124.13097,13.1278 125.643549,13.5058 126.755389,14.1666 L125.620429,16.1035 L125.147529,16.1035 C124.36777,14.8988 123.398851,14.2849 122.263891,14.2849 C121.248032,14.2849 120.585972,14.8512 120.585972,15.631 C120.585972,16.4808 121.200392,17.0002 123.020531,17.7093 L124.22625,18.1818 C126.069509,18.8902 126.873089,20.0004 126.873089,21.441 C126.873089,23.7076 125.052949,25.1251 122.287711,25.1251 C120.585972,25.1251 118.860413,24.6764 117.607754,23.8973 L118.623613,21.5824 Z M129.000087,21.5824 L129.496807,21.5824 C130.418787,23.0937 131.766026,23.9673 132.923405,23.9673 C133.963785,23.9673 134.602025,23.4241 134.602025,22.5743 C134.602025,21.6055 134.035245,21.0861 132.616546,20.5436 L131.553046,20.1418 C129.543747,19.3858 128.338728,18.1818 128.338728,16.5991 C128.338728,14.6391 130.181987,13.1278 132.923405,13.1278 C134.508145,13.1278 136.020024,13.5058 137.131163,14.1666 L135.996904,16.1035 L135.523304,16.1035 C134.743544,14.8988 133.775325,14.2849 132.640366,14.2849 C131.623806,14.2849 130.961746,14.8512 130.961746,15.631 C130.961746,16.4808 131.576866,17.0002 133.397006,17.7093 L134.602025,18.1818 C136.445984,18.8902 137.249563,20.0004 137.249563,21.441 C137.249563,23.7076 135.429424,25.1251 132.663485,25.1251 C130.961746,25.1251 129.236888,24.6764 127.983528,23.8973 L129.000087,21.5824 Z M76.6223948,18.9609 L80.0966327,23.4241 L81.3962317,24.4167 L81.3962317,24.9361 L75.5112551,24.9361 L75.5112551,24.4167 L76.7407949,23.4948 L74.3762954,20.2839 L72.1070764,23.4948 L73.4781359,24.4167 L73.4781359,24.9361 L68.7981783,24.9361 L68.7981783,24.4167 L70.2406982,23.4479 L73.6203561,19.292 L70.1692377,14.8988 L68.8458186,13.86 L68.8458186,13.3406 L74.706975,13.3406 L74.706975,13.86 L73.501956,14.7805 L75.8419348,17.969 L78.1111537,14.7805 L76.7407949,13.86 L76.7407949,13.3406 L81.4200518,13.3406 L81.4200518,13.86 L79.9782326,14.8281 L76.6223948,18.9609 Z M113.565335,17.3782 C113.305415,15.2999 112.337197,14.308 111.036897,14.308 C109.618898,14.308 108.673098,15.7017 108.602338,17.6862 L113.565335,17.3782 Z M92.6946861,19.9759 C92.6946861,17.3551 91.4189072,15.1816 89.3619678,15.1816 C88.5114486,15.1816 87.6840489,15.4658 86.8804694,16.0559 L86.8804694,22.267 C87.5425292,23.2827 88.5583883,23.779 89.7634073,23.779 C91.5604269,23.779 92.6946861,22.3615 92.6946861,19.9759 L92.6946861,19.9759 Z M11.3201728,35 C6.4279357,35 3.30749694,32.2539 3.30749694,28.4375 C3.30749694,27.1803 3.68021213,25.6452 5.12413316,22.5267 L0,22.5267 L4.70447828,12.4726 L37.452271,12.4726 C38.1977014,12.4726 38.7098345,11.9147 38.7098345,11.2637 C38.7098345,10.6113 38.1977014,10.0527 37.452271,10.0527 L10.946757,10.0527 L13.2762269,5.0729 C14.7201479,2.0013 17.8412873,0 21.2412624,0 L32.3750776,0 C38.8030133,0 43.5544313,4.4212 43.5544313,10.192 C43.5544313,17.0345 37.2659135,22.5267 29.9993686,22.5267 L8.4785698,22.5267 C7.82561764,23.8763 8.571048,24.9473 10.1550875,24.9473 L27.2971835,24.9473 C30.1387865,24.9473 32.3281379,26.9479 32.3281379,29.5078 C32.3281379,32.4401 29.4872355,35 26.2722168,35 L11.3201728,35 L11.3201728,35 Z" id="Fill-1"></path>
                </g>
            </g>
        </g>
    </g>
</svg>