<?xml version="1.0" encoding="UTF-8"?>
<svg width="180px" height="180px" viewBox="0 0 180 180" version="1.1" xmlns="http://www.w3.org/2000/svg" xmlns:xlink="http://www.w3.org/1999/xlink">
    <title>Logo</title>
    <defs>
        <linearGradient x1="0%" y1="0%" x2="100%" y2="100%" id="linearGradient-1">
            <stop stop-color="#B731FB" offset="0%"></stop>
            <stop stop-color="#5100C6" offset="52.8649817%"></stop>
            <stop stop-color="#316FEC" offset="100%"></stop>
        </linearGradient>
    </defs>
    <g id="Page-1" stroke="none" stroke-width="1" fill="none" fill-rule="evenodd">
        <g id="Logo">
            <rect id="Background" fill="url(#linearGradient-1)" x="0" y="0" width="180" height="180"></rect>
            <path d="M71.9026417,88.8372637 L60.7139854,88.8372637 L60.7139854,72.8971061 L53.4755505,72.8971061 L53.4755505,88.8372637 L42,88.8372637 L42,47.7191533 L53.4534835,47.7191533 L53.4534835,63.0640347 L60.6919185,63.0640347 L60.6919185,47.7191533 L71.8805747,47.7191533 L71.8805747,88.8372637 L71.9026417,88.8372637 Z M123.189536,89.0136417 C134.643019,89.0136417 144,79.4892321 144,67.892382 C144,56.1191526 134.643019,47.0136417 123.189536,47.0136417 C111.58156,47.0136417 105.711371,55.4356892 104.298991,58.8750591 C104.298991,53.7821453 99.2012169,47.6971051 93.2868942,47.6971051 L74.17568,47.6971051 L74.17568,88.8372637 L91.962782,88.8372637 C99.2012169,88.8372637 104.298991,82.6640355 104.298991,77.2404133 C105.909997,80.5915945 111.603627,89.0136417 123.189536,89.0136417 Z M90.5504021,72.3018305 C92.2055424,72.3018305 93.5296303,73.9112792 93.5296303,75.7412007 C93.5296303,77.6593109 92.2055424,79.2687598 90.5504021,79.2687598 L84.8567728,79.2687598 L84.8567728,72.3018305 L90.5504021,72.3018305 Z M90.5504021,56.8687582 C92.2055424,56.8687582 93.5296303,58.4782081 93.5296303,60.3081281 C93.5296303,62.1380506 92.2055424,63.7475005 90.5504021,63.7475005 L84.8567728,63.7475005 L84.8567728,56.8687582 L90.5504021,56.8687582 Z M98.0757312,67.892382 C99.3998192,67.8041915 101.562523,66.2829321 102.379047,65.3789962 C102.070086,66.4813588 102.070086,69.9648227 102.379047,71.0671853 C101.474255,69.722302 99.3998192,68.1349003 98.0757312,67.892382 Z M112.751179,67.892382 C112.751179,62.0939565 117.473815,57.4199395 123.277804,57.4419101 C129.103859,57.4860818 133.738203,62.2262386 133.672002,68.0467123 C133.583734,73.7789959 128.949366,78.38687 123.211603,78.38687 C117.429682,78.38687 112.751179,73.7128542 112.751179,67.892382 Z M123.189536,76.138051 C127.647345,76.138051 131.398964,72.4782085 131.398964,67.892382 C131.398964,63.3065554 127.647345,59.690807 123.189536,59.690807 C118.599301,59.690807 114.93595,63.3065554 114.93595,67.892382 C114.93595,72.4782085 118.599301,76.138051 123.189536,76.138051 L123.189536,76.138051 Z" id="path3441" fill="#FFFFFF" fill-rule="nonzero"></path>
            <path d="M78.1970089,106.543547 C77.9903699,97.0577125 71.3779222,92.0419727 63.2776738,92.0419727 C58.8349355,92.0419727 54.8261391,93.5529906 52.0985044,96.4910808 C49.3708698,93.5529906 45.3620734,92.0419727 40.9193351,92.0419727 C32.8190867,92.0419727 26.206639,97.0786988 26,106.564533 C26,106.585519 26,106.606506 26,106.627492 L26,128.264428 C26,130.258132 27.5911202,131.853095 29.5335267,131.853095 L32.8810784,131.853095 C33.2117007,131.853095 33.4803314,131.580273 33.4803314,131.244491 L33.4803314,106.606506 L33.4803314,106.606506 C33.6249787,101.926548 36.8898748,99.4501574 40.9193351,99.4501574 C44.9487954,99.4501574 48.2136914,101.926548 48.3583387,106.606506 L48.3583387,106.606506 L48.3583387,128.243442 C48.3583387,130.237146 49.9494589,131.832109 51.8918654,131.832109 L55.2394171,131.832109 C55.5700395,131.832109 55.8386702,131.559286 55.8386702,131.223505 L55.8386702,106.585519 L55.8386702,106.585519 C55.9833174,101.905561 59.2482135,99.429171 63.2776738,99.429171 C67.3071341,99.429171 70.5720301,101.905561 70.7166774,106.585519 L70.7166774,106.585519 L70.7166774,128.222455 C70.7166774,130.216159 72.3077976,131.811123 74.2502042,131.811123 L77.5977558,131.811123 C77.9283782,131.811123 78.1970089,131.5383 78.1970089,131.202518 L78.1970089,106.564533 C78.2176728,106.585519 78.1970089,106.564533 78.1970089,106.543547 Z M153.558249,92.6505771 L147.875676,92.6505771 C146.30522,92.6505771 144.838083,93.4480588 143.949535,94.7701994 L137.66771,104.214061 C136.841154,105.452256 135.064059,105.452256 134.237503,104.214061 L127.955678,94.7701994 C127.087794,93.4480588 125.599993,92.6505771 124.029537,92.6505771 L118.346965,92.6505771 C117.995678,92.6505771 117.789039,93.0493179 117.975014,93.343127 L129.174848,110.216159 C129.98074,111.433368 129.98074,113.028332 129.174848,114.24554 L117.975014,131.118573 C117.768375,131.412382 117.995678,131.811123 118.346965,131.811123 L124.029537,131.811123 C125.599993,131.811123 127.06713,131.013641 127.955678,129.691501 L134.237503,120.247639 C135.064059,119.009444 136.841154,119.009444 137.66771,120.247639 L143.949535,129.691501 C144.817419,131.013641 146.30522,131.811123 147.875676,131.811123 L153.558249,131.811123 C153.909535,131.811123 154.116174,131.412382 153.930199,131.118573 L142.709702,114.266527 C141.903809,113.049318 141.903809,111.454355 142.709702,110.237146 L153.909535,93.3641133 C154.116174,93.0703043 153.909535,92.6505771 153.558249,92.6505771 Z M115.412691,92.6505771 L112.065139,92.6505771 C110.3707,92.6505771 108.944891,93.8677859 108.593604,95.4837356 C105.618003,93.1752361 101.877837,92 97.8483768,92 C88.0536887,92 80.0980876,98.9254984 80.0980876,112 C80.0980876,125.074502 88.0330248,132 97.8483768,132 C101.857173,132 105.556011,130.84575 108.531613,128.579224 C108.696924,130.405037 110.205388,131.853095 112.065139,131.853095 L115.412691,131.853095 C115.743313,131.853095 116.011944,131.580273 116.011944,131.244491 L116.011944,93.2591815 C115.99128,92.9233998 115.743313,92.6505771 115.412691,92.6505771 L115.412691,92.6505771 Z M97.8483768,124.570829 C92.0004934,124.570829 87.2477966,120.226653 87.2477966,112.020986 C87.2477966,103.81532 92.0004934,99.4711438 97.8483768,99.4711438 C103.69626,99.4711438 108.448957,103.81532 108.448957,112.020986 C108.448957,120.226653 103.69626,124.570829 97.8483768,124.570829 Z" id="XMLID_1_" fill="#FFFFFF" fill-rule="nonzero"></path>
        </g>
    </g>
</svg>