<?xml version="1.0" encoding="UTF-8"?>
<svg width="465px" height="210px" viewBox="0 0 465 210" version="1.1" xmlns="http://www.w3.org/2000/svg" xmlns:xlink="http://www.w3.org/1999/xlink">
    <title>AD28445F-2651-4F57-BF66-B892D665974A@0.5x</title>
    <defs>
        <linearGradient x1="-49.6134302%" y1="50%" x2="73.6334998%" y2="50%" id="linearGradient-1">
            <stop stop-color="#D4E300" offset="0%"></stop>
            <stop stop-color="#F0EACF" offset="100%"></stop>
        </linearGradient>
    </defs>
    <g id="Password-Manager" stroke="none" stroke-width="1" fill="none" fill-rule="evenodd">
        <g id="Help-ExpressVPN" transform="translate(-762.000000, -295.000000)">
            <g id="Group" transform="translate(762.000000, 295.000000)">
                <rect id="Rectangle" x="0" y="0" width="465" height="210"></rect>
                <g transform="translate(23.000000, 0.000000)" id="Data-1">
                    <circle id="Oval" fill="#D4E300" cx="210" cy="105" r="105"></circle>
                    <g id="expressvpn-disconnected-router-cursor" transform="translate(102.575806, 31.500000)">
                        <rect id="Rectangle" fill="url(#linearGradient-1)" x="0" y="28.4516129" width="214.2" height="118.548387" rx="4.74193548"></rect>
                        <rect id="Rectangle" fill="#FFFFFF" x="11.55" y="42.6774194" width="81.9" height="14.2258065" rx="2.84516129"></rect>
                        <rect id="Rectangle-Copy-21" fill="#FFFFFF" x="11.55" y="118.548387" width="81.9" height="14.2258065" rx="2.84516129"></rect>
                        <rect id="Rectangle-Copy-16" fill="#FFFFFF" x="11.55" y="71.1290323" width="81.9" height="4.74193548" rx="2.37096774"></rect>
                        <rect id="Rectangle-Copy-17" fill="#FFFFFF" x="11.55" y="85.3548387" width="81.9" height="4.74193548" rx="2.37096774"></rect>
                        <rect id="Rectangle-Copy-20" fill="#FFFFFF" x="11.55" y="99.5806452" width="54.6" height="4.74193548" rx="2.37096774"></rect>
                        <rect id="Rectangle" fill="#001D2F" x="121.224194" y="0" width="66.3870968" height="126" rx="4.74193548"></rect>
                        <circle id="Oval" fill="#D4E300" cx="141.614516" cy="101.477419" r="2.84516129"></circle>
                        <circle id="Oval-Copy-33" fill="#D4E300" cx="154.417742" cy="101.477419" r="2.84516129"></circle>
                        <circle id="Oval-Copy-34" fill="#D4E300" cx="167.220968" cy="101.477419" r="2.84516129"></circle>
                        <g id="Wi-Fi-icon" transform="translate(129.924194, 36.000000)" fill="#FFFFFF">
                            <path d="M9.76308991,8 C10.7887616,8 11.6341042,8.77208038 11.7496344,9.76675775 L11.7630899,10 L11.7630899,25.315 L17.5718472,18.9188076 L17.7454529,18.7491783 L17.8413291,18.6712414 L18.0112036,18.5550841 C18.134466,18.4799165 18.2640557,18.4192345 18.3976509,18.3730647 L18.6337735,18.3073581 L18.6665875,18.3006433 C18.7981167,18.2748848 18.931824,18.2623594 19.0655957,18.2631784 L19.2806586,18.276162 L19.5716679,18.3312465 L19.7734192,18.3969783 C19.9702555,18.4729358 20.1580515,18.5814991 20.3285874,18.7229998 L26.778,24.524 L36.4948466,13.4198329 C37.2222107,12.5885596 38.485736,12.5043246 39.3170092,13.2316887 C40.0843384,13.9031017 40.2151379,15.0313621 39.6586289,15.8547867 L39.5051534,16.0538513 L28.4339567,28.7063505 C28.344057,28.8062391 28.2463763,28.8949601 28.1426601,28.9724215 L27.984242,29.0792701 L27.7596825,29.1965715 L27.535816,29.2802115 L27.3553691,29.3264999 L27.1463065,29.3585161 L26.9623746,29.3683863 L26.6523033,29.3467555 C26.5145291,29.3263369 26.3786844,29.2915714 26.2467461,29.2422658 L26.0823824,29.1722622 L25.9329475,29.0925205 L25.8063378,29.0112537 L25.609439,28.8550093 L19.194,23.08 L11.7630899,31.267 L11.7630899,36.234 L38,36.2344738 C39.1045695,36.2344738 40,37.1299043 40,38.2344738 C40,39.2601455 39.2279196,40.1054882 38.2332423,40.2210184 L38,40.2344738 L9.76308991,40.2344738 L9.76308991,40.2344738 C8.73741823,40.2344738 7.89207559,39.4623935 7.77654537,38.4677161 L7.76308991,38.2344738 L7.76308991,10 C7.76308991,8.8954305 8.65852041,8 9.76308991,8 Z" id="Combined-Shape"></path>
                        </g>
                    </g>
                </g>
            </g>
        </g>
    </g>
</svg>