<svg width="32" height="32" viewBox="0 0 32 32" fill="none" xmlns="http://www.w3.org/2000/svg">
<path d="M32 15.9241C32 20.1474 30.3143 24.1978 27.3137 27.1841C24.3131 30.1705 20.2435 31.8482 16 31.8482C7.16344 31.8482 0 24.7187 0 15.9241C0 7.12946 7.16344 0 16 0C20.2435 0 24.3131 1.67771 27.3137 4.66406C30.3143 7.6504 32 11.7008 32 15.9241Z" fill="url(#paint0_linear_847_4457)"/>
<path d="M30.7462 15.9241C30.7462 24.0296 24.144 30.6004 15.9999 30.6004C7.85578 30.6004 1.25366 24.0296 1.25366 15.9241C1.25366 7.8186 7.85578 1.2478 15.9999 1.2478C24.144 1.2478 30.7462 7.8186 30.7462 15.9241Z" fill="url(#paint1_radial_847_4457)"/>
<path d="M16.0001 2.01315C15.881 2.01315 15.7851 2.10858 15.7851 2.22713V4.69524C15.7851 4.81379 15.881 4.90921 16.0001 4.90921C16.1192 4.90921 16.2151 4.81379 16.2151 4.69524V2.22713C16.2151 2.10858 16.1192 2.01315 16.0001 2.01315ZM14.5936 2.10163C14.5794 2.1001 14.5647 2.1001 14.5499 2.1018C14.4314 2.11411 14.346 2.21893 14.3584 2.33683L14.4668 3.36938C14.4791 3.48729 14.5844 3.57231 14.7029 3.55999C14.8214 3.54769 14.9068 3.44287 14.8944 3.32496L14.7861 2.29242C14.7753 2.18925 14.6933 2.11126 14.5936 2.10163ZM17.4164 2.10264C17.3167 2.1122 17.2347 2.19019 17.2238 2.29334L17.1147 3.3258C17.1022 3.4437 17.1877 3.54862 17.3061 3.56102C17.4246 3.57342 17.5299 3.48848 17.5424 3.37059L17.6515 2.33804C17.6639 2.22014 17.5785 2.11531 17.4601 2.10292C17.4452 2.10139 17.4307 2.10138 17.4164 2.10264ZM13.1488 2.31015C13.1345 2.31026 13.1199 2.31168 13.1054 2.31473C12.9889 2.33928 12.9149 2.45243 12.9396 2.56841L13.4532 4.98296C13.4778 5.09894 13.5915 5.17254 13.708 5.14799C13.8246 5.12344 13.8985 5.01037 13.8739 4.8944L13.3603 2.47976C13.3387 2.37827 13.249 2.30938 13.1488 2.31015ZM18.8612 2.31217C18.761 2.31117 18.6713 2.38027 18.6496 2.48173L18.1343 4.896C18.1095 5.01196 18.1834 5.12515 18.2999 5.14978C18.4164 5.17443 18.5301 5.10088 18.5549 4.98493L19.0702 2.57066C19.095 2.4547 19.0211 2.34152 18.9046 2.31689C18.89 2.31384 18.8755 2.31217 18.8612 2.31217ZM11.7699 2.69709C11.7421 2.69455 11.7134 2.6976 11.685 2.70695C11.5718 2.7436 11.5102 2.86378 11.547 2.97652L11.8693 3.96391C11.9062 4.07666 12.027 4.13796 12.1403 4.10133C12.2536 4.06468 12.3151 3.94441 12.2782 3.83167L11.9559 2.84428C11.9283 2.75972 11.8534 2.70416 11.7699 2.69709ZM20.2322 2.6976C20.1487 2.70466 20.0739 2.76025 20.0463 2.8448L19.7237 3.8321C19.6869 3.94484 19.7485 4.06511 19.8617 4.10176C19.975 4.13841 20.0958 4.07716 20.1327 3.96444L20.4552 2.97705C20.492 2.8643 20.4305 2.74404 20.3172 2.70739C20.2889 2.69824 20.2601 2.69526 20.2322 2.6976ZM10.4064 3.19369C10.3785 3.1942 10.3502 3.2003 10.323 3.21235C10.2142 3.26049 10.1655 3.38643 10.2139 3.49475L11.2211 5.7501C11.2695 5.85842 11.396 5.90685 11.5049 5.8587C11.6136 5.81056 11.6624 5.68462 11.6141 5.5763L10.6067 3.32095C10.5705 3.2397 10.4902 3.19208 10.4064 3.19369ZM21.6112 3.20127C21.5274 3.19974 21.447 3.24707 21.4107 3.32825L20.4004 5.58221C20.3518 5.69047 20.4003 5.8165 20.5091 5.8648C20.6179 5.91309 20.7445 5.86482 20.793 5.75656L21.8033 3.50261C21.8519 3.39434 21.8034 3.26831 21.6946 3.22002C21.6674 3.20797 21.6391 3.2019 21.6112 3.20127ZM9.14077 3.86018C9.0995 3.85713 9.05697 3.86628 9.01829 3.88854C8.91514 3.94782 8.88005 4.07817 8.9396 4.18083L9.46118 5.07994C9.52073 5.1826 9.65169 5.21752 9.75485 5.15825C9.858 5.09898 9.89309 4.96863 9.83354 4.86596L9.31196 3.96686C9.27473 3.90269 9.20957 3.86497 9.14077 3.86018ZM22.8595 3.86018C22.7907 3.86475 22.7256 3.90268 22.6884 3.96684L22.1667 4.86595C22.1071 4.96862 22.1423 5.09896 22.2455 5.15823C22.3486 5.21751 22.4796 5.18258 22.5391 5.07992L23.0607 4.18081C23.1203 4.07815 23.0852 3.9478 22.982 3.88853C22.9434 3.86631 22.9007 3.85733 22.8595 3.86018ZM7.91178 4.62307C7.87041 4.6246 7.82898 4.63781 7.79282 4.66389C7.69642 4.7335 7.6751 4.86678 7.74507 4.96273L9.2012 6.96051C9.27114 7.05647 9.40515 7.07768 9.50156 7.0081C9.59798 6.93849 9.61929 6.80521 9.54932 6.70925L8.09309 4.71147C8.04937 4.6515 7.9807 4.62073 7.91178 4.62307ZM24.1038 4.63395C24.0349 4.63141 23.9662 4.66216 23.9224 4.72205L22.4635 6.7179C22.3935 6.81375 22.4146 6.94709 22.5109 7.01683C22.6072 7.08656 22.7412 7.06558 22.8113 6.96976L24.2701 4.97391C24.3402 4.87805 24.319 4.74472 24.2227 4.67498C24.1866 4.64885 24.1452 4.63542 24.1038 4.63395ZM6.81325 5.53998C6.75837 5.53693 6.70237 5.55518 6.6581 5.59484C6.56958 5.67415 6.56246 5.8089 6.64217 5.89701L7.34013 6.66867C7.41981 6.75678 7.55521 6.76387 7.64373 6.68453C7.73226 6.60522 7.73938 6.47038 7.65967 6.38227L6.9618 5.6107C6.92196 5.56663 6.86813 5.54285 6.81325 5.53998ZM25.1886 5.54151C25.1337 5.54456 25.0799 5.5682 25.04 5.61224L24.342 6.38373C24.2623 6.47182 24.2694 6.60666 24.3579 6.68599C24.4464 6.76531 24.5818 6.7582 24.6615 6.67013L25.3596 5.89865C25.4393 5.81055 25.4321 5.67571 25.3436 5.59639C25.2994 5.55674 25.2434 5.53865 25.1886 5.54151ZM5.76037 6.54654C5.70549 6.54959 5.65175 6.57322 5.61191 6.61728C5.53222 6.70539 5.53934 6.84013 5.62784 6.91945L7.47091 8.57073C7.55944 8.65005 7.69483 8.64295 7.77452 8.55487C7.85421 8.46677 7.84718 8.33202 7.75863 8.2527L5.91547 6.60142C5.87119 6.56177 5.81526 6.54366 5.76037 6.54654ZM26.2465 6.55376C26.1917 6.55071 26.1356 6.5689 26.0913 6.60852L24.2471 8.25852C24.1585 8.33777 24.1513 8.47252 24.2309 8.56068C24.3105 8.64884 24.446 8.656 24.5346 8.57675L26.3788 6.92675C26.4674 6.8475 26.4746 6.71275 26.395 6.62458C26.3551 6.58051 26.3014 6.55666 26.2465 6.55376ZM4.88481 7.66703C4.81589 7.66448 4.74717 7.69539 4.70341 7.75531C4.6334 7.85122 4.65464 7.98447 4.75102 8.05415L5.59493 8.66439C5.6913 8.73408 5.82519 8.71304 5.8952 8.61712C5.96521 8.52121 5.94403 8.38786 5.84769 8.31818L5.00378 7.70794C4.96767 7.68181 4.92617 7.6685 4.88481 7.66703ZM27.1213 7.6748C27.0799 7.67633 27.0385 7.6895 27.0023 7.71562L26.158 8.32532C26.0616 8.39493 26.0403 8.52829 26.1102 8.62425C26.1802 8.7202 26.3141 8.74133 26.4105 8.67173L27.2549 8.06204C27.3513 7.99243 27.3725 7.85915 27.3026 7.7632C27.2588 7.70323 27.1902 7.67246 27.1213 7.6748ZM4.0666 8.86223C3.9978 8.8668 3.93272 8.90473 3.8955 8.96889C3.83594 9.07155 3.87103 9.2019 3.97418 9.26117L6.12178 10.4952C6.22494 10.5545 6.35591 10.5196 6.41546 10.4169C6.47502 10.3143 6.43993 10.1839 6.33678 10.1246L4.18917 8.89057C4.15051 8.86836 4.10788 8.85938 4.0666 8.86223ZM27.9336 8.86223C27.8924 8.85918 27.8497 8.86833 27.8111 8.89059L25.6634 10.1247C25.5603 10.1839 25.5252 10.3143 25.5848 10.4169C25.6443 10.5196 25.7753 10.5545 25.8784 10.4952L28.0261 9.26119C28.1293 9.20192 28.1644 9.07157 28.1048 8.96891C28.0676 8.90475 28.0024 8.86701 27.9336 8.86223ZM3.44797 10.1362C3.36419 10.1341 3.28385 10.1819 3.24746 10.2631C3.19893 10.3713 3.24743 10.4974 3.35621 10.5457L4.30896 10.9686C4.41774 11.0169 4.54438 10.9686 4.5929 10.8604C4.64142 10.7521 4.59284 10.6261 4.48406 10.5778L3.53139 10.1548C3.50422 10.1427 3.4759 10.1367 3.44797 10.1362ZM28.5564 10.145C28.5285 10.1455 28.5001 10.1516 28.4729 10.1636L27.52 10.5858C27.4112 10.6341 27.3625 10.76 27.4109 10.8683C27.4594 10.9766 27.5861 11.0251 27.6949 10.9769L28.6478 10.5545C28.7566 10.5063 28.8052 10.3803 28.7568 10.272C28.7204 10.1908 28.6402 10.1433 28.5564 10.145ZM2.89662 11.4677C2.81312 11.4747 2.73825 11.5302 2.71058 11.6147C2.6737 11.7274 2.7351 11.8477 2.84837 11.8845L5.20624 12.6491C5.31948 12.6858 5.44037 12.6247 5.47727 12.512C5.51415 12.3993 5.45276 12.2789 5.33948 12.2422L2.98162 11.4776C2.95332 11.4684 2.92445 11.4653 2.89662 11.4677ZM29.1068 11.4768C29.0789 11.4743 29.0502 11.4773 29.0219 11.4867L26.6634 12.2497C26.5502 12.2863 26.4886 12.4066 26.5255 12.5193C26.5623 12.6321 26.6831 12.6933 26.7964 12.6567L29.1547 11.8937C29.268 11.857 29.3296 11.7368 29.2928 11.624C29.2652 11.5395 29.1903 11.4839 29.1068 11.4768ZM2.55312 12.8654C2.45296 12.8644 2.36313 12.9336 2.34147 13.035C2.31669 13.151 2.3906 13.2642 2.50709 13.2888L3.5275 13.5046C3.644 13.5293 3.75771 13.4557 3.78248 13.3398C3.80725 13.2238 3.73334 13.1107 3.61685 13.086L2.59654 12.8702C2.58198 12.8671 2.56743 12.8656 2.55312 12.8656L2.55312 12.8654ZM29.4476 12.8674C29.4333 12.8676 29.4188 12.8695 29.4043 12.872L28.3839 13.0877C28.2673 13.1124 28.1935 13.2255 28.2182 13.3414C28.243 13.4574 28.3567 13.531 28.4732 13.5064L29.4935 13.2906C29.61 13.266 29.684 13.1528 29.6592 13.0368C29.6376 12.9354 29.5477 12.8664 29.4476 12.8672L29.4476 12.8674ZM2.29312 14.2713C2.19342 14.2808 2.11135 14.3587 2.1004 14.4618C2.08789 14.5797 2.1731 14.6847 2.29154 14.6971L4.75769 14.9566C4.87614 14.9691 4.98161 14.8842 4.99412 14.7663C5.00663 14.6484 4.92133 14.5435 4.80288 14.531L2.33674 14.2715C2.32192 14.27 2.30737 14.27 2.29312 14.2713ZM29.7094 14.2898C29.6952 14.2882 29.6805 14.2882 29.6657 14.29L27.1993 14.5461C27.0808 14.5584 26.9954 14.6633 27.0078 14.7812C27.0201 14.8991 27.1254 14.9841 27.2439 14.9718L29.7103 14.7156C29.8288 14.7033 29.9142 14.5985 29.9019 14.4806C29.891 14.3774 29.8091 14.2994 29.7094 14.2898ZM2.25137 15.7105C2.13225 15.7105 2.03638 15.8059 2.03638 15.9244C2.03638 16.043 2.13225 16.1384 2.25137 16.1384H3.2945C3.41361 16.1384 3.50959 16.043 3.50959 15.9244C3.50959 15.8059 3.41361 15.7105 3.2945 15.7105H2.25137ZM28.7057 15.7105C28.5866 15.7105 28.4907 15.8059 28.4907 15.9244C28.4907 16.043 28.5866 16.1384 28.7057 16.1384H29.7489C29.868 16.1384 29.9639 16.043 29.9639 15.9244C29.9639 15.8059 29.868 15.7105 29.7489 15.7105H28.7057ZM4.80001 16.8769C4.78576 16.8754 4.7712 16.8754 4.75639 16.8771L2.28986 17.1333C2.17139 17.1456 2.086 17.2504 2.09835 17.3683C2.11071 17.4862 2.21603 17.5712 2.33449 17.5589L4.80102 17.3027C4.91949 17.2904 5.00488 17.1856 4.99253 17.0677C4.9817 16.9645 4.8997 16.8866 4.80001 16.8769ZM27.1989 16.8921C27.0992 16.9016 27.0172 16.9794 27.0062 17.0826C26.9937 17.2005 27.0789 17.3054 27.1973 17.3179L29.6635 17.5774C29.7819 17.5899 29.8874 17.505 29.8999 17.3871C29.9124 17.2692 29.8271 17.1642 29.7087 17.1518L27.2426 16.8923C27.2278 16.8907 27.2132 16.8907 27.1989 16.8921ZM3.57055 18.3376C3.55625 18.3377 3.54169 18.3391 3.52713 18.3422L2.50673 18.5579C2.39022 18.5826 2.31636 18.6957 2.3411 18.8117C2.36588 18.9276 2.47958 19.0012 2.59609 18.9765L3.61649 18.7609C3.733 18.7362 3.80686 18.6231 3.78212 18.5071C3.76046 18.4057 3.67071 18.3368 3.57055 18.3376ZM28.4294 18.3396C28.3292 18.3386 28.2395 18.4077 28.2178 18.5092C28.1931 18.6252 28.2669 18.7383 28.3834 18.763L29.4038 18.9788C29.5203 19.0034 29.634 18.93 29.6588 18.814C29.6835 18.6981 29.6096 18.5848 29.4931 18.5602L28.4728 18.3444C28.4583 18.3413 28.4437 18.3396 28.4294 18.3396ZM5.28881 19.1824C5.26098 19.1799 5.23224 19.1829 5.20391 19.1923L2.8455 19.9553C2.73222 19.9919 2.6707 20.1122 2.70752 20.2249C2.74435 20.3377 2.86518 20.3989 2.97846 20.3623L5.33679 19.5993C5.45007 19.5626 5.51168 19.4423 5.47486 19.3296C5.44723 19.2451 5.37231 19.1895 5.28881 19.1824ZM26.7091 19.19C26.6256 19.197 26.5507 19.2525 26.5231 19.337C26.4862 19.4497 26.5476 19.57 26.6608 19.6068L29.0187 20.3714C29.132 20.4081 29.2528 20.347 29.2897 20.2343C29.3267 20.1216 29.2652 20.0013 29.1519 19.9645L26.7941 19.1999C26.7658 19.1907 26.7369 19.1877 26.7091 19.19ZM4.38886 20.8536C4.36092 20.8541 4.33264 20.8601 4.30544 20.8721L3.3524 21.2944C3.24359 21.3426 3.19503 21.4686 3.24347 21.5769C3.29194 21.6852 3.4185 21.7336 3.52731 21.6853L4.48035 21.2631C4.58916 21.2149 4.63772 21.0889 4.58928 20.9806C4.55297 20.8994 4.47264 20.8519 4.38886 20.8536ZM27.6079 20.8617C27.5242 20.8597 27.4438 20.9074 27.4074 20.9886C27.3589 21.0969 27.4074 21.2229 27.5162 21.2712L28.4688 21.6941C28.5776 21.7424 28.7043 21.6942 28.7528 21.5859C28.8013 21.4776 28.7528 21.3516 28.644 21.3033L27.6914 20.8804C27.6642 20.8683 27.6359 20.8623 27.6079 20.8617ZM6.24436 21.3254C6.20309 21.3223 6.16047 21.3315 6.12178 21.3538L3.97418 22.5878C3.87103 22.6471 3.83594 22.7774 3.8955 22.8801C3.95505 22.9828 4.08602 23.0177 4.18917 22.9584L6.33678 21.7244C6.43993 21.6652 6.47501 21.5347 6.41546 21.4321C6.37823 21.3679 6.31316 21.3302 6.24436 21.3254ZM25.756 21.3254C25.6872 21.33 25.622 21.3679 25.5848 21.432C25.5252 21.5347 25.5603 21.6652 25.6634 21.7244L27.8111 22.9584C27.9142 23.0177 28.0453 22.9827 28.1048 22.8801C28.1644 22.7774 28.1293 22.6471 28.0261 22.5878L25.8784 21.3537C25.8398 21.3315 25.7972 21.3225 25.756 21.3254ZM5.70869 23.1363C5.66732 23.1379 5.62589 23.1511 5.58973 23.1773L4.74545 23.787C4.64904 23.8566 4.62771 23.9898 4.69764 24.0858C4.76759 24.1817 4.9015 24.203 4.9979 24.1333L5.84228 23.5236C5.9387 23.454 5.96002 23.3208 5.89009 23.2248C5.84637 23.1648 5.77761 23.134 5.70869 23.1363ZM26.2864 23.1436C26.2175 23.141 26.1488 23.1719 26.105 23.2318C26.035 23.3277 26.0563 23.4611 26.1526 23.5308L26.9966 24.141C27.0929 24.2107 27.2268 24.1896 27.2968 24.0936C27.3668 23.9977 27.3457 23.8645 27.2493 23.7948L26.4054 23.1846C26.3693 23.1584 26.3278 23.145 26.2864 23.1436ZM7.62088 23.2174C7.56601 23.2144 7.51004 23.2326 7.46574 23.2722L5.62147 24.9222C5.53289 25.0014 5.52569 25.1362 5.60533 25.2244C5.68495 25.3125 5.82035 25.3197 5.90893 25.2404L7.75321 23.5904C7.84179 23.5112 7.84898 23.3764 7.76935 23.2883C7.72956 23.2442 7.67576 23.2203 7.62088 23.2174ZM24.3742 23.2233C24.3194 23.2264 24.2655 23.25 24.2257 23.2941C24.146 23.3822 24.1531 23.5169 24.2416 23.5962L26.0847 25.2475C26.1732 25.3269 26.3087 25.3198 26.3884 25.2317C26.4681 25.1436 26.461 25.0088 26.3725 24.9295L24.5293 23.2782C24.485 23.2386 24.4291 23.2205 24.3742 23.2233ZM9.37052 24.7909C9.3016 24.7883 9.23281 24.819 9.18902 24.879L7.73019 26.8748C7.66012 26.9707 7.68121 27.104 7.77749 27.1737C7.87381 27.2435 8.00778 27.2225 8.07785 27.1266L9.53668 25.1308C9.60675 25.0349 9.58566 24.9016 9.48938 24.8318C9.45327 24.8057 9.41187 24.7923 9.37052 24.7909ZM22.6177 24.7998C22.5764 24.8013 22.5349 24.8145 22.4988 24.8406C22.4024 24.9102 22.3811 25.0435 22.451 25.1395L23.9071 27.1373C23.9771 27.2332 24.111 27.2544 24.2074 27.1848C24.3038 27.1152 24.3251 26.982 24.2552 26.886L22.799 24.8882C22.7553 24.8282 22.6867 24.7975 22.6177 24.7998ZM7.48727 25.1081C7.43239 25.1111 7.37857 25.1348 7.33872 25.1788L6.64075 25.9503C6.56105 26.0384 6.56811 26.1732 6.65664 26.2526C6.74516 26.3319 6.88055 26.3248 6.96024 26.2366L7.65829 25.4652C7.738 25.3771 7.73085 25.2422 7.64236 25.1629C7.59807 25.1233 7.54216 25.1052 7.48727 25.1081ZM24.5117 25.1091C24.4568 25.106 24.4009 25.1243 24.3566 25.1639C24.2681 25.2433 24.261 25.378 24.3406 25.4661L25.0385 26.2378C25.1182 26.3259 25.2536 26.333 25.3421 26.2536C25.4306 26.1743 25.4377 26.0395 25.358 25.9514L24.6602 25.1798C24.6203 25.1357 24.5665 25.112 24.5117 25.1091ZM11.4077 25.965C11.3239 25.9629 11.2437 26.0107 11.2073 26.0919L10.1969 28.3458C10.1484 28.4541 10.1969 28.5801 10.3056 28.6284C10.4144 28.6767 10.5411 28.6284 10.5896 28.5202L11.6 26.2662C11.6485 26.158 11.6 26.0319 11.4912 25.9836C11.464 25.9715 11.4356 25.9655 11.4077 25.965ZM20.5789 25.9712C20.5509 25.9717 20.5226 25.9777 20.4954 25.9897C20.3866 26.0379 20.3379 26.1638 20.3863 26.2721L21.3935 28.5275C21.4418 28.6357 21.5685 28.6842 21.6773 28.6361C21.7861 28.5879 21.8348 28.462 21.7864 28.3537L20.7792 26.0983C20.7429 26.0171 20.6627 25.9696 20.5789 25.9712ZM9.63227 26.6619C9.56348 26.6664 9.49839 26.7044 9.46118 26.7685L8.9396 27.6676C8.88005 27.7703 8.91514 27.9006 9.01829 27.9599C9.12144 28.0192 9.25241 27.9843 9.31196 27.8816L9.83354 26.9825C9.89309 26.8798 9.858 26.7495 9.75485 26.6902C9.71618 26.668 9.67355 26.659 9.63227 26.6619ZM22.3679 26.6619C22.3267 26.6588 22.2842 26.668 22.2455 26.6902C22.1423 26.7495 22.1072 26.8798 22.1668 26.9825L22.6884 27.8816C22.7479 27.9843 22.8789 28.0192 22.982 27.9599C23.0852 27.9007 23.1203 27.7703 23.0607 27.6676L22.5391 26.7685C22.5019 26.7044 22.4367 26.6666 22.3679 26.6619ZM13.657 26.6941C13.5568 26.6931 13.4671 26.7622 13.4454 26.8636L12.9301 29.2779C12.9053 29.3939 12.9792 29.5071 13.0957 29.5317C13.2122 29.5563 13.326 29.4828 13.3507 29.3668L13.8661 26.9526C13.8908 26.8366 13.8169 26.7234 13.7004 26.6988C13.6859 26.6957 13.6713 26.6941 13.657 26.6941ZM18.3356 26.6956C18.3213 26.6957 18.3069 26.6971 18.2923 26.7002C18.1758 26.7247 18.1018 26.8378 18.1265 26.9538L18.6401 29.3684C18.6647 29.4844 18.7784 29.558 18.895 29.5335C19.0115 29.5089 19.0854 29.3957 19.0608 29.2798L18.5471 26.8653C18.5255 26.7638 18.4358 26.6948 18.3356 26.6956ZM16.0001 26.9391C15.881 26.9391 15.7851 27.0346 15.7851 27.1531V29.6212C15.7851 29.7398 15.881 29.8352 16.0001 29.8352C16.1192 29.8352 16.2151 29.7398 16.2151 29.6212V27.1531C16.2151 27.0346 16.1192 26.9391 16.0001 26.9391ZM12.0536 27.7367C11.9701 27.7437 11.8952 27.7993 11.8676 27.8839L11.5451 28.8713C11.5083 28.984 11.5698 29.1043 11.6831 29.1409C11.7964 29.1776 11.9172 29.1162 11.954 29.0035L12.2765 28.0162C12.3133 27.9035 12.2518 27.7832 12.1385 27.7465C12.1102 27.7374 12.0814 27.7343 12.0536 27.7367ZM19.945 27.7372C19.9171 27.7346 19.8884 27.7377 19.8601 27.747C19.7468 27.7836 19.6852 27.9039 19.722 28.0166L20.0443 29.004C20.0812 29.1168 20.202 29.178 20.3153 29.1414C20.4286 29.1047 20.4901 28.9845 20.4533 28.8718L20.1309 27.8844C20.1033 27.7998 20.0285 27.7442 19.945 27.7372ZM14.6506 28.2871C14.5509 28.2967 14.4688 28.3746 14.4579 28.4777L14.3488 29.5103C14.3364 29.6282 14.4217 29.733 14.5402 29.7454C14.6586 29.7578 14.764 29.6729 14.7765 29.555L14.8855 28.5225C14.898 28.4046 14.8127 28.2997 14.6942 28.2873C14.6794 28.2858 14.6648 28.2858 14.6506 28.2871ZM17.341 28.2881C17.3268 28.2866 17.3121 28.2866 17.2973 28.2883C17.1788 28.3006 17.0934 28.4054 17.1058 28.5233L17.2141 29.556C17.2265 29.6739 17.3318 29.7588 17.4503 29.7465C17.5688 29.7342 17.6542 29.6294 17.6418 29.5115L17.5335 28.4789C17.5227 28.3757 17.4407 28.2978 17.341 28.2881Z" fill="#F4F2F3"/>
<path opacity="0.409" d="M26.0763 7.36514L14.3137 14.1669L6.87646 25.8196L17.7565 17.7991L26.0763 7.36514Z" fill="black"/>
<path d="M17.6855 17.6811L14.314 14.1671L26.2742 6.15958L17.6855 17.6811Z" fill="#FF5150"/>
<path d="M17.6858 17.6811L14.3143 14.167L5.72559 25.6886L17.6858 17.6811Z" fill="#F1F1F1"/>
<path opacity="0.243" d="M5.72559 25.6886L17.6858 17.6811L26.2745 6.15958L5.72559 25.6886Z" fill="black"/>
<defs>
<linearGradient id="paint0_linear_847_4457" x1="1599.94" y1="3184.78" x2="1599.94" y2="-0.00835245" gradientUnits="userSpaceOnUse">
<stop stop-color="#BDBDBD"/>
<stop offset="1" stop-color="white"/>
</linearGradient>
<radialGradient id="paint1_radial_847_4457" cx="0" cy="0" r="1" gradientUnits="userSpaceOnUse" gradientTransform="translate(1482.53 1253.89) scale(1599.99 1591.15)">
<stop stop-color="#06C2E7"/>
<stop offset="0.25" stop-color="#0DB8EC"/>
<stop offset="0.5" stop-color="#12AEF1"/>
<stop offset="0.75" stop-color="#1F86F9"/>
<stop offset="1" stop-color="#107DDD"/>
</radialGradient>
</defs>
</svg>
