<?xml version="1.0" encoding="UTF-8"?>
<svg width="180px" height="180px" viewBox="0 0 180 180" version="1.1" xmlns="http://www.w3.org/2000/svg" xmlns:xlink="http://www.w3.org/1999/xlink">
    <title>Logo</title>
    <defs>
        <radialGradient cx="26.5626266%" cy="107.702106%" fx="26.5626266%" fy="107.702106%" r="99.107386%" id="radialGradient-1">
            <stop stop-color="#FFDD55" offset="0%"></stop>
            <stop stop-color="#FFDD55" offset="10%"></stop>
            <stop stop-color="#FF543E" offset="50%"></stop>
            <stop stop-color="#C837AB" offset="100%"></stop>
        </radialGradient>
        <radialGradient cx="-16.7505274%" cy="7.20383154%" fx="-16.7505274%" fy="7.20383154%" r="44.3014085%" id="radialGradient-2">
            <stop stop-color="#3771C8" offset="0%"></stop>
            <stop stop-color="#3771C8" offset="12.8%"></stop>
            <stop stop-color="#6600FF" stop-opacity="0" offset="100%"></stop>
        </radialGradient>
    </defs>
    <g id="Page-1" stroke="none" stroke-width="1" fill="none" fill-rule="evenodd">
        <g id="Logo">
            <rect id="Background" fill="#FFFFFF" x="0" y="0" width="180" height="180"></rect>
            <path d="M90.0293791,0 C52.4552135,0 41.4662029,0.0387725115 39.3301431,0.216018278 C31.6192853,0.857149451 26.8211106,2.0715599 21.5937858,4.6748571 C17.5653125,6.67579564 14.3882176,8.99522267 11.2526533,12.2465747 C5.54218865,18.1759995 2.08130095,25.4707706 0.828459606,34.1419659 C0.219343371,38.3515528 0.0421459213,39.210087 0.00615268924,60.7122141 C-0.00769086155,67.8795898 0.00615268924,77.312388 0.00615268924,89.9646893 C0.00615268924,127.518636 0.0476833416,138.499565 0.227649502,140.632053 C0.850609287,148.137304 2.0273111,152.859242 4.51915025,158.024294 C9.28133172,167.911285 18.3765446,175.333451 29.0914529,178.102916 C32.8015245,179.058382 36.8992155,179.58458 42.1597648,179.833832 C44.3885765,179.930763 67.1058433,180 89.8369537,180 C112.568064,180 135.299175,179.972305 137.472612,179.861527 C143.563774,179.574887 147.100802,179.099924 151.011605,178.089069 C161.795731,175.305757 170.724821,167.994369 175.583907,157.968905 C178.027294,152.928479 179.266292,148.026525 179.826956,140.913154 C179.948779,139.362254 180,114.635085 180,89.9411489 C180,65.243059 179.944626,40.561586 179.822803,39.0106855 C179.255217,31.7823816 178.016219,26.9219703 175.493924,21.7846125 C173.424313,17.5791798 171.126284,14.4386063 167.789988,11.2274116 C161.835877,5.53893022 154.554169,2.07709883 145.877032,0.825300602 C141.672745,0.217403011 140.83521,0.037387779 119.322333,0 L90.0293791,0 Z" id="Path" fill="url(#radialGradient-1)" fill-rule="nonzero"></path>
            <path d="M90.0293791,0 C52.4552135,0 41.4662029,0.0387725115 39.3301431,0.216018278 C31.6192853,0.857149451 26.8211106,2.0715599 21.5937858,4.6748571 C17.5653125,6.67579564 14.3882176,8.99522267 11.2526533,12.2465747 C5.54218865,18.1759995 2.08130095,25.4707706 0.828459606,34.1419659 C0.219343371,38.3515528 0.0421459213,39.210087 0.00615268924,60.7122141 C-0.00769086155,67.8795898 0.00615268924,77.312388 0.00615268924,89.9646893 C0.00615268924,127.518636 0.0476833416,138.499565 0.227649502,140.632053 C0.850609287,148.137304 2.0273111,152.859242 4.51915025,158.024294 C9.28133172,167.911285 18.3765446,175.333451 29.0914529,178.102916 C32.8015245,179.058382 36.8992155,179.58458 42.1597648,179.833832 C44.3885765,179.930763 67.1058433,180 89.8369537,180 C112.568064,180 135.299175,179.972305 137.472612,179.861527 C143.563774,179.574887 147.100802,179.099924 151.011605,178.089069 C161.795731,175.305757 170.724821,167.994369 175.583907,157.968905 C178.027294,152.928479 179.266292,148.026525 179.826956,140.913154 C179.948779,139.362254 180,114.635085 180,89.9411489 C180,65.243059 179.944626,40.561586 179.822803,39.0106855 C179.255217,31.7823816 178.016219,26.9219703 175.493924,21.7846125 C173.424313,17.5791798 171.126284,14.4386063 167.789988,11.2274116 C161.835877,5.53893022 154.554169,2.07709883 145.877032,0.825300602 C141.672745,0.217403011 140.83521,0.037387779 119.322333,0 L90.0293791,0 Z" id="Path" fill="url(#radialGradient-2)" fill-rule="nonzero"></path>
            <path d="M90.0049688,37 C75.6109022,37 73.8044667,37.0629375 68.1510745,37.3202083 C62.508724,37.5785833 58.6573506,38.4718542 55.2873988,39.7825 C51.8015083,41.1362083 48.8445192,42.9470417 45.8985719,45.8940625 C42.9504162,48.8399792 41.139564,51.7969375 39.7814248,55.2816875 C38.4674528,58.6527083 37.5730685,62.5051458 37.3191075,68.1452292 C37.0662507,73.7985625 37,75.6060833 37,90 C37,104.393917 37.0640423,106.194812 37.3202117,111.848146 C37.5796935,117.490437 38.4729737,121.341771 39.782529,124.711687 C41.1373556,128.197542 42.9482078,131.1545 45.8952593,134.100417 C48.8401025,137.048542 51.7970916,138.863792 55.2807738,140.2175 C58.6529339,141.528146 62.5054115,142.421417 68.1466578,142.679792 C73.80005,142.937062 75.6053813,143 89.9983437,143 C104.393515,143 106.194429,142.937062 111.847821,142.679792 C117.490172,142.421417 121.345962,141.528146 124.718122,140.2175 C128.202908,138.863792 131.155481,137.048542 134.100324,134.100417 C137.04848,131.1545 138.859332,128.197542 140.217471,124.712792 C141.520401,121.341771 142.414786,117.489333 142.679788,111.84925 C142.933749,106.195917 143,104.393917 143,90 C143,75.6060833 142.933749,73.7996667 142.679788,68.1463333 C142.414786,62.5040417 141.520401,58.6527083 140.217471,55.2827917 C138.859332,51.7969375 137.04848,48.8399792 134.100324,45.8940625 C131.152168,42.9459375 128.204013,41.1351042 124.71481,39.7825 C121.336024,38.4718542 117.482443,37.5785833 111.840092,37.3202083 C106.1867,37.0629375 104.386889,37 89.9884061,37 L90.0049688,37 Z M85.2503776,46.5510417 C86.6615173,46.5488333 88.2360754,46.5510417 90.0049688,46.5510417 C104.156116,46.5510417 105.833363,46.6018333 111.421609,46.8557917 C116.589162,47.0920833 119.393775,47.9555417 121.262044,48.6809792 C123.735403,49.6416042 125.498776,50.7899375 127.352691,52.6449375 C129.20771,54.4999375 130.356056,56.2666042 131.318899,58.7399375 C132.044344,60.6059792 132.908916,63.4105625 133.144106,68.5780625 C133.398067,74.1651458 133.453276,75.8434792 133.453276,89.9878542 C133.453276,104.132229 133.398067,105.810563 133.144106,111.397646 C132.907812,116.565146 132.044344,119.369729 131.318899,121.235771 C130.358264,123.709104 129.20771,125.47025 127.352691,127.324146 C125.497672,129.179146 123.736508,130.327479 121.262044,131.288104 C119.395983,132.016854 116.589162,132.878104 111.421609,133.114396 C105.834467,133.368354 104.156116,133.423563 90.0049688,133.423563 C75.8527172,133.423563 74.1754706,133.368354 68.588329,133.114396 C63.4207752,132.875896 60.6161627,132.012438 58.746789,131.287 C56.2734299,130.326375 54.5067449,129.178042 52.6517255,127.323042 C50.7967062,125.468042 49.6483609,123.705792 48.6855176,121.231354 C47.9600725,119.365313 47.095501,116.560729 46.860311,111.393229 C46.6063501,105.806146 46.5555579,104.127813 46.5555579,89.9746042 C46.5555579,75.8213958 46.6063501,74.1518958 46.860311,68.5648125 C47.0966052,63.3973125 47.9600725,60.5927292 48.6855176,58.7244792 C49.6461526,56.2511458 50.7967062,54.4844792 52.6517255,52.6294792 C54.5067449,50.7744792 56.2734299,49.6261458 58.746789,48.6633125 C60.6150585,47.9345625 63.4207752,47.0733125 68.588329,46.8359167 C73.47763,46.6150833 75.3723997,46.5488333 85.2503776,46.5377917 L85.2503776,46.5510417 Z M118.296222,55.35125 C114.784935,55.35125 111.936156,58.1966875 111.936156,61.7090417 C111.936156,65.2202917 114.784935,68.0690417 118.296222,68.0690417 C121.807508,68.0690417 124.656288,65.2202917 124.656288,61.7090417 C124.656288,58.1977917 121.807508,55.3490417 118.296222,55.3490417 L118.296222,55.35125 Z M90.0049688,62.7822917 C74.9737914,62.7822917 62.7869769,74.9689792 62.7869769,90 C62.7869769,105.031021 74.9737914,117.212188 90.0049688,117.212188 C105.036146,117.212188 117.218544,105.031021 117.218544,90 C117.218544,74.9689792 105.035042,62.7822917 90.0038646,62.7822917 L90.0049688,62.7822917 Z M90.0049688,72.3333333 C99.7614871,72.3333333 107.671819,80.2424792 107.671819,90 C107.671819,99.7564167 99.7614871,107.666667 90.0049688,107.666667 C80.2473463,107.666667 72.3381181,99.7564167 72.3381181,90 C72.3381181,80.2424792 80.2473463,72.3333333 90.0049688,72.3333333 Z" id="Shape" fill="#FFFFFF" fill-rule="nonzero"></path>
        </g>
    </g>
</svg>