<svg width="180" height="180" viewBox="0 0 180 180" fill="none" xmlns="http://www.w3.org/2000/svg">
<path d="M88.6214 158.424C128.076 158.424 160.061 126.44 160.061 86.985C160.061 47.53 128.076 15.5454 88.6214 15.5454C49.1665 15.5454 17.1819 47.53 17.1819 86.985C17.1819 126.44 49.1665 158.424 88.6214 158.424Z" fill="#365996"/>
<mask id="mask0_961_8044" style="mask-type:alpha" maskUnits="userSpaceOnUse" x="16" y="35" width="74" height="117">
<path d="M84.1398 35.1377H20.8966C18.2098 35.1377 16.0317 37.3158 16.0317 40.0026V147.03C16.0317 149.716 18.2098 151.894 20.8966 151.894H84.1398C86.8266 151.894 89.0047 149.716 89.0047 147.03V40.0026C89.0047 37.3158 86.8266 35.1377 84.1398 35.1377Z" fill="white"/>
</mask>
<g mask="url(#mask0_961_8044)">
<path d="M84.1398 35.1377H20.8966C18.2098 35.1377 16.0317 37.3158 16.0317 40.0026V147.03C16.0317 149.716 18.2098 151.894 20.8966 151.894H84.1398C86.8266 151.894 89.0047 149.716 89.0047 147.03V40.0026C89.0047 37.3158 86.8266 35.1377 84.1398 35.1377Z" fill="#F0EACF"/>
<mask id="mask1_961_8044" style="mask-type:alpha" maskUnits="userSpaceOnUse" x="16" y="35" width="74" height="44">
<path d="M89.0047 35.1377H16.0317V78.9215H89.0047V35.1377Z" fill="white"/>
</mask>
<g mask="url(#mask1_961_8044)">
<path d="M89.0047 35.1377H16.0317V78.9215H89.0047V35.1377Z" fill="#D4E300"/>
<path d="M52.5182 137.786C85.0284 137.786 111.383 111.432 111.383 78.9215C111.383 46.4113 85.0284 20.0566 52.5182 20.0566C20.008 20.0566 -6.34668 46.4113 -6.34668 78.9215C-6.34668 111.432 20.008 137.786 52.5182 137.786Z" fill="url(#paint0_radial_961_8044)"/>
<path d="M52.5185 111.03C70.2513 111.03 84.6266 96.6544 84.6266 78.9216C84.6266 61.1888 70.2513 46.8135 52.5185 46.8135C34.7857 46.8135 20.4104 61.1888 20.4104 78.9216C20.4104 96.6544 34.7857 111.03 52.5185 111.03Z" fill="url(#paint1_radial_961_8044)"/>
</g>
<path d="M52.5183 93.0302C60.31 93.0302 66.6264 86.7138 66.6264 78.9221C66.6264 71.1304 60.31 64.814 52.5183 64.814C44.7266 64.814 38.4102 71.1304 38.4102 78.9221C38.4102 86.7138 44.7266 93.0302 52.5183 93.0302Z" fill="white"/>
<path fill-rule="evenodd" clip-rule="evenodd" d="M57.7545 75.8593C59.6388 78.4335 59.3819 82.0299 57.1093 84.3113C54.5753 86.8551 50.4659 86.8551 47.932 84.3113C45.6614 82.0319 45.4028 78.4395 47.2823 75.8654C47.5464 75.5038 48.0536 75.4247 48.4153 75.6887C48.7769 75.9528 48.856 76.46 48.5919 76.8217C47.1812 78.7538 47.3756 81.455 49.0808 83.1668C50.981 85.0744 54.0603 85.0744 55.9604 83.1668C57.6672 81.4535 57.8603 78.7493 56.446 76.8171C56.1815 76.4558 56.26 75.9484 56.6213 75.6839C56.9827 75.4194 57.49 75.4979 57.7545 75.8593ZM52.5182 71.6245C52.9341 71.6244 53.2769 71.9373 53.3238 72.3405L53.3293 72.4351L53.3314 78.9215C53.3316 79.3693 52.9687 79.7325 52.5209 79.7326C52.1051 79.7328 51.7623 79.4199 51.7153 79.0166L51.7098 78.9221L51.7077 72.4356C51.7076 71.9878 52.0704 71.6247 52.5182 71.6245Z" fill="#0F866C"/>
</g>
<g filter="url(#filter0_d_961_8044)">
<mask id="mask2_961_8044" style="mask-type:alpha" maskUnits="userSpaceOnUse" x="88" y="22" width="74" height="118">
<path d="M156.649 22.3784H93.4054C90.7186 22.3784 88.5405 24.5565 88.5405 27.2433V134.27C88.5405 136.957 90.7186 139.135 93.4054 139.135H156.649C159.335 139.135 161.513 136.957 161.513 134.27V27.2433C161.513 24.5565 159.335 22.3784 156.649 22.3784Z" fill="white"/>
</mask>
<g mask="url(#mask2_961_8044)">
<path d="M156.649 22.3784H93.4054C90.7186 22.3784 88.5405 24.5565 88.5405 27.2433V134.27C88.5405 136.957 90.7186 139.135 93.4054 139.135H156.649C159.335 139.135 161.513 136.957 161.513 134.27V27.2433C161.513 24.5565 159.335 22.3784 156.649 22.3784Z" fill="#F0EACF"/>
<path d="M149.838 36.9731H123.568C122.762 36.9731 122.108 37.6266 122.108 38.4326C122.108 39.2386 122.762 39.8921 123.568 39.8921H149.838C150.644 39.8921 151.297 39.2386 151.297 38.4326C151.297 37.6266 150.644 36.9731 149.838 36.9731Z" fill="#001D2F"/>
<path d="M144.973 42.8105H123.568C122.762 42.8105 122.108 43.464 122.108 44.27C122.108 45.076 122.762 45.7295 123.568 45.7295H144.973C145.779 45.7295 146.432 45.076 146.432 44.27C146.432 43.464 145.779 42.8105 144.973 42.8105Z" fill="#001D2F"/>
<path d="M107.514 50.1082C112.35 50.1082 116.271 46.1877 116.271 41.3515C116.271 36.5153 112.35 32.5947 107.514 32.5947C102.678 32.5947 98.7571 36.5153 98.7571 41.3515C98.7571 46.1877 102.678 50.1082 107.514 50.1082Z" fill="#001D2F"/>
<path fill-rule="evenodd" clip-rule="evenodd" d="M104.271 45.397C104.071 45.5967 103.748 45.5967 103.548 45.397C103.364 45.2127 103.349 44.9226 103.505 44.722L103.548 44.6739L103.953 44.2684L103.164 43.4794C102.98 43.2951 102.966 43.005 103.122 42.8044L103.164 42.7562L104.507 41.4139C104.691 41.2296 104.981 41.2154 105.182 41.3714L105.23 41.4139L106.019 42.203L106.906 41.3161C106.533 40.7651 106.382 40.0888 106.49 39.4262L106.515 39.2945L106.544 39.1756C106.785 38.2667 107.495 37.5567 108.404 37.3153C109.313 37.0739 110.282 37.3381 110.946 38.0115C111.939 39.0398 111.925 40.6744 110.914 41.6853C110.025 42.5745 108.653 42.6925 107.636 42.0322L104.271 45.397ZM107.951 40.9816C108.578 41.5872 109.575 41.5785 110.191 40.9621C110.807 40.3457 110.816 39.349 110.214 38.7259C109.811 38.3177 109.221 38.1566 108.667 38.3038C108.112 38.451 107.679 38.8839 107.532 39.4381C107.385 39.9924 107.546 40.583 107.954 40.9858L107.951 40.9816ZM104.677 43.5448L105.296 42.9261L104.868 42.4991L104.25 43.1178L104.677 43.5448Z" fill="white"/>
<path d="M149.838 63.2437H123.568C122.762 63.2437 122.108 63.8971 122.108 64.7031C122.108 65.5091 122.762 66.1626 123.568 66.1626H149.838C150.644 66.1626 151.297 65.5091 151.297 64.7031C151.297 63.8971 150.644 63.2437 149.838 63.2437Z" fill="#001D2F"/>
<path d="M144.973 69.0811H123.568C122.762 69.0811 122.108 69.7345 122.108 70.5405C122.108 71.3466 122.762 72 123.568 72H144.973C145.779 72 146.432 71.3466 146.432 70.5405C146.432 69.7345 145.779 69.0811 144.973 69.0811Z" fill="#001D2F"/>
<path d="M107.514 76.3787C112.35 76.3787 116.271 72.4582 116.271 67.622C116.271 62.7858 112.35 58.8652 107.514 58.8652C102.678 58.8652 98.7571 62.7858 98.7571 67.622C98.7571 72.4582 102.678 76.3787 107.514 76.3787Z" fill="#D4E300"/>
<path fill-rule="evenodd" clip-rule="evenodd" d="M104.271 71.5787C104.071 71.7784 103.748 71.7784 103.548 71.5787C103.364 71.3943 103.349 71.1043 103.505 70.9037L103.548 70.8555L103.953 70.45L103.164 69.6611C102.98 69.4767 102.966 69.1867 103.122 68.9861L103.164 68.9379L104.507 67.5956C104.691 67.4112 104.981 67.397 105.182 67.553L105.23 67.5956L106.019 68.3846L106.906 67.4978C106.533 66.9468 106.382 66.2705 106.49 65.6078L106.515 65.4762L106.544 65.3573C106.785 64.4483 107.495 63.7384 108.404 63.497C109.313 63.2556 110.282 63.5198 110.946 64.1931C111.939 65.2215 111.925 66.856 110.914 67.8669C110.025 68.7561 108.653 68.8742 107.636 68.2138L104.271 71.5787ZM107.951 67.1632C108.578 67.7688 109.575 67.7602 110.191 67.1438C110.807 66.5274 110.816 65.5307 110.214 64.9076C109.811 64.4993 109.221 64.3383 108.667 64.4854C108.112 64.6326 107.679 65.0655 107.532 65.6198C107.385 66.174 107.546 66.7647 107.954 67.1674L107.951 67.1632ZM104.677 69.7265L105.296 69.1077L104.868 68.6807L104.25 69.2995L104.677 69.7265Z" fill="#001D2F"/>
<path d="M149.838 89.5146H123.568C122.762 89.5146 122.108 90.1681 122.108 90.9741C122.108 91.7801 122.762 92.4336 123.568 92.4336H149.838C150.644 92.4336 151.297 91.7801 151.297 90.9741C151.297 90.1681 150.644 89.5146 149.838 89.5146Z" fill="#001D2F"/>
<path d="M144.973 95.3516H123.568C122.762 95.3516 122.108 96.005 122.108 96.811C122.108 97.6171 122.762 98.2705 123.568 98.2705H144.973C145.779 98.2705 146.432 97.6171 146.432 96.811C146.432 96.005 145.779 95.3516 144.973 95.3516Z" fill="#001D2F"/>
<path d="M107.514 102.649C112.35 102.649 116.271 98.7282 116.271 93.892C116.271 89.0558 112.35 85.1353 107.514 85.1353C102.678 85.1353 98.7571 89.0558 98.7571 93.892C98.7571 98.7282 102.678 102.649 107.514 102.649Z" fill="white"/>
<path fill-rule="evenodd" clip-rule="evenodd" d="M104.271 97.7603C104.071 97.96 103.748 97.96 103.548 97.7603C103.364 97.576 103.349 97.2859 103.505 97.0853L103.548 97.0371L103.953 96.6317L103.164 95.8427C102.98 95.6584 102.966 95.3683 103.122 95.1677L103.164 95.1195L104.507 93.7772C104.691 93.5929 104.981 93.5787 105.182 93.7347L105.23 93.7772L106.019 94.5663L106.906 93.6794C106.533 93.1284 106.382 92.4521 106.49 91.7894L106.515 91.6578L106.544 91.5389C106.785 90.6299 107.495 89.92 108.404 89.6786C109.313 89.4372 110.282 89.7014 110.946 90.3748C111.939 91.4031 111.925 93.0377 110.914 94.0486C110.025 94.9378 108.653 95.0558 107.636 94.3955L104.271 97.7603ZM107.951 93.3449C108.578 93.9505 109.575 93.9418 110.191 93.3254C110.807 92.709 110.816 91.7123 110.214 91.0892C109.811 90.681 109.221 90.5199 108.667 90.6671C108.112 90.8143 107.679 91.2472 107.532 91.8014C107.385 92.3557 107.546 92.9463 107.954 93.3491L107.951 93.3449ZM104.677 95.9081L105.296 95.2894L104.868 94.8624L104.25 95.4811L104.677 95.9081Z" fill="#001D2F"/>
<path d="M149.838 115.784H123.568C122.762 115.784 122.108 116.438 122.108 117.244C122.108 118.05 122.762 118.703 123.568 118.703H149.838C150.644 118.703 151.297 118.05 151.297 117.244C151.297 116.438 150.644 115.784 149.838 115.784Z" fill="#001D2F"/>
<path d="M144.973 121.622H123.568C122.762 121.622 122.108 122.275 122.108 123.081C122.108 123.887 122.762 124.541 123.568 124.541H144.973C145.779 124.541 146.432 123.887 146.432 123.081C146.432 122.275 145.779 121.622 144.973 121.622Z" fill="#001D2F"/>
<path d="M107.514 128.919C112.35 128.919 116.271 124.998 116.271 120.162C116.271 115.326 112.35 111.405 107.514 111.405C102.678 111.405 98.7571 115.326 98.7571 120.162C98.7571 124.998 102.678 128.919 107.514 128.919Z" fill="#0F866C"/>
<path fill-rule="evenodd" clip-rule="evenodd" d="M104.271 123.942C104.071 124.142 103.748 124.142 103.548 123.942C103.364 123.758 103.349 123.468 103.505 123.267L103.548 123.219L103.953 122.813L103.164 122.024C102.98 121.84 102.966 121.55 103.122 121.349L103.164 121.301L104.507 119.959C104.691 119.775 104.981 119.76 105.182 119.916L105.23 119.959L106.019 120.748L106.906 119.861C106.533 119.31 106.382 118.634 106.49 117.971L106.515 117.839L106.544 117.721C106.785 116.812 107.495 116.102 108.404 115.86C109.313 115.619 110.282 115.883 110.946 116.556C111.939 117.585 111.925 119.219 110.914 120.23C110.025 121.119 108.653 121.237 107.636 120.577L104.271 123.942ZM107.951 119.527C108.578 120.132 109.575 120.123 110.191 119.507C110.807 118.891 110.816 117.894 110.214 117.271C109.811 116.863 109.221 116.702 108.667 116.849C108.112 116.996 107.679 117.429 107.532 117.983C107.385 118.537 107.546 119.128 107.954 119.531L107.951 119.527ZM104.677 122.09L105.296 121.471L104.868 121.044L104.25 121.663L104.677 122.09Z" fill="white"/>
</g>
</g>
<g filter="url(#filter1_d_961_8044)">
<path d="M94.6052 75.2729H82.8078C79.5501 75.2729 76.9092 77.9139 76.9092 81.1716V92.9689C76.9092 96.2267 79.5501 98.8676 82.8078 98.8676H94.6052C97.8629 98.8676 100.504 96.2267 100.504 92.9689V81.1716C100.504 77.9139 97.8629 75.2729 94.6052 75.2729Z" fill="#001D2F"/>
<path d="M88.7062 96.1146C93.7014 96.1146 97.7508 92.0652 97.7508 87.07C97.7508 82.0748 93.7014 78.0254 88.7062 78.0254C83.711 78.0254 79.6616 82.0748 79.6616 87.07C79.6616 92.0652 83.711 96.1146 88.7062 96.1146Z" fill="white"/>
<path fill-rule="evenodd" clip-rule="evenodd" d="M88.7065 75.2729C95.222 75.2729 100.504 80.5548 100.504 87.0703C100.504 93.5857 95.222 98.8676 88.7065 98.8676C82.191 98.8676 76.9092 93.5857 76.9092 87.0703C76.9092 80.5548 82.191 75.2729 88.7065 75.2729ZM88.7065 81.5649C87.9826 81.5649 87.3957 82.1517 87.3957 82.8757L87.3954 85.7592L84.5119 85.7595L84.359 85.7683C83.7071 85.844 83.2011 86.398 83.2011 87.0703C83.2011 87.7942 83.788 88.3811 84.5119 88.3811L87.3954 88.381L87.3957 91.2649L87.4045 91.4177C87.4802 92.0697 88.0343 92.5757 88.7065 92.5757C89.4304 92.5757 90.0173 91.9888 90.0173 91.2649L90.0172 88.381L92.9011 88.3811L93.054 88.3723C93.7059 88.2965 94.2119 87.7425 94.2119 87.0703C94.2119 86.3463 93.625 85.7595 92.9011 85.7595L90.0172 85.7592L90.0173 82.8757L90.0085 82.7228C89.9328 82.0709 89.3787 81.5649 88.7065 81.5649Z" fill="#001D2F"/>
</g>
<defs>
<filter id="filter0_d_961_8044" x="59.9042" y="-6.25794" width="130.246" height="174.03" filterUnits="userSpaceOnUse" color-interpolation-filters="sRGB">
<feFlood flood-opacity="0" result="BackgroundImageFix"/>
<feColorMatrix in="SourceAlpha" type="matrix" values="0 0 0 0 0 0 0 0 0 0 0 0 0 0 0 0 0 0 127 0" result="hardAlpha"/>
<feOffset/>
<feGaussianBlur stdDeviation="14.3182"/>
<feColorMatrix type="matrix" values="0 0 0 0 0 0 0 0 0 0 0 0 0 0 0 0 0 0 0.1 0"/>
<feBlend mode="normal" in2="BackgroundImageFix" result="effect1_dropShadow_961_8044"/>
<feBlend mode="normal" in="SourceGraphic" in2="effect1_dropShadow_961_8044" result="shape"/>
</filter>
<filter id="filter1_d_961_8044" x="48.2728" y="46.6366" width="80.8675" height="80.8675" filterUnits="userSpaceOnUse" color-interpolation-filters="sRGB">
<feFlood flood-opacity="0" result="BackgroundImageFix"/>
<feColorMatrix in="SourceAlpha" type="matrix" values="0 0 0 0 0 0 0 0 0 0 0 0 0 0 0 0 0 0 127 0" result="hardAlpha"/>
<feOffset/>
<feGaussianBlur stdDeviation="14.3182"/>
<feColorMatrix type="matrix" values="0 0 0 0 0 0 0 0 0 0 0 0 0 0 0 0 0 0 0.1 0"/>
<feBlend mode="normal" in2="BackgroundImageFix" result="effect1_dropShadow_961_8044"/>
<feBlend mode="normal" in="SourceGraphic" in2="effect1_dropShadow_961_8044" result="shape"/>
</filter>
<radialGradient id="paint0_radial_961_8044" cx="0" cy="0" r="1" gradientUnits="userSpaceOnUse" gradientTransform="translate(52.5182 78.9215) scale(58.8649)">
<stop stop-color="#0F866C"/>
<stop offset="1" stop-color="#D4E300"/>
</radialGradient>
<radialGradient id="paint1_radial_961_8044" cx="0" cy="0" r="1" gradientUnits="userSpaceOnUse" gradientTransform="translate(52.5185 78.9216) scale(32.1081)">
<stop stop-color="#0F866C"/>
<stop offset="1" stop-color="#D4E300"/>
</radialGradient>
</defs>
</svg>
