<svg width="64" height="64" viewBox="0 0 64 64" fill="none" xmlns="http://www.w3.org/2000/svg">
<circle cx="32" cy="32" r="32" fill="#F7F8F9"/>
<g clip-path="url(#clip0_7311_100915)">
<path d="M54.8467 42.5008C54.8467 46.411 51.6626 49.595 47.7525 49.595H9.15332V21.4975C9.15332 17.5873 12.3373 14.4033 16.2475 14.4033H54.8467V42.5008Z" fill="white"/>
<path d="M42.2783 35.2949H45.211C45.2948 35.2949 45.4903 35.267 45.5741 35.267C46.1326 35.1553 46.6075 34.6525 46.6075 33.9543C46.6075 33.284 46.1326 32.7812 45.5741 32.6416C45.4903 32.6136 45.3227 32.6136 45.211 32.6136H42.2783V35.2949Z" fill="url(#paint0_linear_7311_100915)"/>
<path d="M44.8758 16.7773C42.0828 16.7773 39.7926 19.0397 39.7926 21.8606V27.1393H46.9706C47.1381 27.1393 47.3337 27.1393 47.4733 27.1673C49.0932 27.2511 50.2942 28.089 50.2942 29.5413C50.2942 30.6864 49.4843 31.664 47.976 31.8595V31.9154C49.6239 32.0271 50.8808 32.9488 50.8808 34.3732C50.8808 35.9093 49.4843 36.9148 47.6409 36.9148H39.7646V47.2489H47.2219C50.0149 47.2489 52.3052 44.9865 52.3052 42.1656V16.7773H44.8758Z" fill="url(#paint1_linear_7311_100915)"/>
<path d="M46.2444 29.8765C46.2444 29.2062 45.7696 28.7593 45.211 28.6755C45.1551 28.6755 45.0155 28.6476 44.9317 28.6476H42.2783V31.1054H44.9317C45.0155 31.1054 45.183 31.1054 45.211 31.0775C45.7696 30.9937 46.2444 30.5468 46.2444 29.8765Z" fill="url(#paint2_linear_7311_100915)"/>
<path d="M16.7782 16.7773C13.9852 16.7773 11.6949 19.0397 11.6949 21.8606V34.4011C13.1193 35.0994 14.5996 35.5462 16.0799 35.5462C17.8395 35.5462 18.7891 34.4849 18.7891 33.0326V27.1114H23.1462V33.0046C23.1462 35.2949 21.7218 37.1662 16.8899 37.1662C13.9572 37.1662 11.667 36.5238 11.667 36.5238V47.2209H19.1243C21.9173 47.2209 24.2075 44.9586 24.2075 42.1377V16.7773H16.7782Z" fill="url(#paint3_linear_7311_100915)"/>
<path d="M30.8269 16.7773C28.0339 16.7773 25.7437 19.0397 25.7437 21.8606V28.5079C27.0284 27.4186 29.2628 26.7204 32.8658 26.888C34.7929 26.9718 36.8598 27.5024 36.8598 27.5024V29.653C35.8263 29.1224 34.5974 28.6476 33.0054 28.5358C30.2683 28.3403 28.6204 29.681 28.6204 32.0271C28.6204 34.4011 30.2683 35.7418 33.0054 35.5183C34.5974 35.4066 35.8263 34.9039 36.8598 34.4011V36.5517C36.8598 36.5517 34.8209 37.0824 32.8658 37.1662C29.2628 37.3338 27.0284 36.6355 25.7437 35.5462V47.2768H33.2009C35.9939 47.2768 38.2842 45.0145 38.2842 42.1936V16.7773H30.8269Z" fill="url(#paint4_linear_7311_100915)"/>
</g>
<defs>
<linearGradient id="paint0_linear_7311_100915" x1="39.7879" y1="33.9576" x2="52.3389" y2="33.9576" gradientUnits="userSpaceOnUse">
<stop stop-color="#007940"/>
<stop offset="0.2285" stop-color="#00873F"/>
<stop offset="0.7433" stop-color="#40A737"/>
<stop offset="1" stop-color="#5CB531"/>
</linearGradient>
<linearGradient id="paint1_linear_7311_100915" x1="39.7875" y1="32.0009" x2="52.3395" y2="32.0009" gradientUnits="userSpaceOnUse">
<stop stop-color="#007940"/>
<stop offset="0.2285" stop-color="#00873F"/>
<stop offset="0.7433" stop-color="#40A737"/>
<stop offset="1" stop-color="#5CB531"/>
</linearGradient>
<linearGradient id="paint2_linear_7311_100915" x1="39.7876" y1="29.873" x2="52.339" y2="29.873" gradientUnits="userSpaceOnUse">
<stop stop-color="#007940"/>
<stop offset="0.2285" stop-color="#00873F"/>
<stop offset="0.7433" stop-color="#40A737"/>
<stop offset="1" stop-color="#5CB531"/>
</linearGradient>
<linearGradient id="paint3_linear_7311_100915" x1="11.689" y1="32.0009" x2="24.4343" y2="32.0009" gradientUnits="userSpaceOnUse">
<stop stop-color="#1F286F"/>
<stop offset="0.4751" stop-color="#004E94"/>
<stop offset="0.8261" stop-color="#0066B1"/>
<stop offset="1" stop-color="#006FBC"/>
</linearGradient>
<linearGradient id="paint4_linear_7311_100915" x1="25.6714" y1="32.0009" x2="38.05" y2="32.0009" gradientUnits="userSpaceOnUse">
<stop stop-color="#6C2C2F"/>
<stop offset="0.1735" stop-color="#882730"/>
<stop offset="0.5731" stop-color="#BE1833"/>
<stop offset="0.8585" stop-color="#DC0436"/>
<stop offset="1" stop-color="#E60039"/>
</linearGradient>
<clipPath id="clip0_7311_100915">
<rect width="46" height="35.4984" fill="white" transform="translate(9 14.25)"/>
</clipPath>
</defs>
</svg>
