<svg width="64" height="64" viewBox="0 0 64 64" fill="none" xmlns="http://www.w3.org/2000/svg">
<circle cx="32" cy="32" r="32" fill="black"/>
<path d="M24.4691 46.4827V44.5196C24.4806 44.3545 24.4569 44.1888 24.3994 44.0336C24.3419 43.8784 24.2521 43.7373 24.1359 43.6197C24.0197 43.502 23.8798 43.4105 23.7256 43.3513C23.5713 43.2921 23.4062 43.2665 23.2413 43.2763C23.0255 43.2622 22.8099 43.3064 22.6169 43.4042C22.4239 43.5021 22.2606 43.65 22.1441 43.8325C22.0379 43.6554 21.886 43.5102 21.7044 43.4123C21.5228 43.3145 21.3182 43.2675 21.1122 43.2763C20.9326 43.2672 20.7537 43.3054 20.5934 43.3869C20.433 43.4683 20.2966 43.5904 20.1978 43.7409V43.3548H19.5186V46.4827H20.2043V44.7487C20.1895 44.6417 20.1985 44.5327 20.2307 44.4296C20.2629 44.3265 20.3175 44.2318 20.3905 44.1524C20.4636 44.0729 20.5533 44.0107 20.6532 43.9701C20.7532 43.9295 20.8608 43.9116 20.9685 43.9176C21.4191 43.9176 21.6477 44.2121 21.6477 44.7421V46.4827H22.3335V44.7487C22.3198 44.6418 22.3296 44.5333 22.3622 44.4307C22.3948 44.3281 22.4494 44.2339 22.5223 44.1547C22.5951 44.0755 22.6843 44.0132 22.7837 43.9723C22.8831 43.9313 22.9903 43.9127 23.0977 43.9176C23.5613 43.9176 23.7834 44.2121 23.7834 44.7421V46.4827H24.4691ZM28.2964 44.9187V43.3548H27.6172V43.7344C27.5012 43.5847 27.3512 43.4649 27.1796 43.3853C27.008 43.3056 26.8199 43.2682 26.6309 43.2763C26.2101 43.297 25.8133 43.479 25.5227 43.7848C25.2321 44.0906 25.0701 44.4966 25.0701 44.9188C25.0701 45.341 25.2321 45.747 25.5227 46.0528C25.8133 46.3585 26.2101 46.5406 26.6309 46.5613C26.8199 46.5694 27.008 46.532 27.1796 46.4523C27.3512 46.3726 27.5012 46.2529 27.6172 46.1032V46.4827H28.2964V44.9187ZM25.7689 44.9187C25.7794 44.7342 25.8437 44.5567 25.9537 44.4083C26.0636 44.2599 26.2146 44.1469 26.3879 44.0834C26.5612 44.0199 26.7492 44.0086 26.9288 44.0509C27.1085 44.0932 27.2718 44.1872 27.3987 44.3214C27.5256 44.4556 27.6106 44.6241 27.6431 44.806C27.6756 44.988 27.6542 45.1756 27.5816 45.3455C27.509 45.5155 27.3884 45.6604 27.2345 45.7625C27.0807 45.8646 26.9004 45.9193 26.7159 45.9199C26.5865 45.9217 26.4583 45.8966 26.3391 45.8462C26.2199 45.7958 26.1125 45.7212 26.0235 45.6272C25.9345 45.5331 25.866 45.4216 25.8222 45.2997C25.7783 45.1777 25.7602 45.048 25.7689 44.9187ZM42.8305 43.2726C43.0598 43.2704 43.2874 43.3131 43.5004 43.3984C43.699 43.4778 43.88 43.5954 44.0334 43.7446C44.1843 43.8929 44.304 44.0701 44.3854 44.2656C44.5551 44.6844 44.5551 45.1531 44.3854 45.572C44.304 45.7675 44.1843 45.9447 44.0334 46.093C43.88 46.2422 43.699 46.3598 43.5004 46.4392C43.0695 46.6069 42.5915 46.6069 42.1606 46.4392C41.9624 46.3601 41.7818 46.2424 41.6292 46.093C41.4791 45.9443 41.36 45.7672 41.2787 45.572C41.1093 45.153 41.1093 44.6845 41.2787 44.2656C41.36 44.0704 41.4792 43.8933 41.6292 43.7446C41.7818 43.5952 41.9624 43.4775 42.1606 43.3984C42.3735 43.3131 42.6011 43.2704 42.8305 43.2726ZM42.8305 43.9161C42.6976 43.9149 42.5659 43.9399 42.4426 43.9896C42.3265 44.0363 42.2211 44.1063 42.1329 44.1953C42.0442 44.2862 41.9743 44.394 41.9275 44.5122C41.8275 44.774 41.8275 45.0636 41.9275 45.3255C41.9743 45.4437 42.0442 45.5514 42.1329 45.6423C42.2211 45.7313 42.3265 45.8014 42.4426 45.8481C42.692 45.9461 42.969 45.9461 43.2184 45.8481C43.3349 45.8011 43.4408 45.7311 43.5297 45.6423C43.6193 45.5517 43.6897 45.4439 43.7368 45.3255C43.8368 45.0636 43.8368 44.774 43.7368 44.5122C43.6897 44.3937 43.6193 44.2859 43.5297 44.1953C43.4407 44.1065 43.3349 44.0366 43.2184 43.9896C43.0951 43.9399 42.9633 43.9149 42.8305 43.9161ZM31.9925 44.9187C31.9859 43.9438 31.3851 43.2763 30.5099 43.2763C30.0863 43.2985 29.6877 43.4843 29.3979 43.7947C29.108 44.105 28.9494 44.5158 28.9553 44.9408C28.9612 45.3658 29.1312 45.772 29.4296 46.0741C29.728 46.3763 30.1315 46.5509 30.5556 46.5613C31.0216 46.5777 31.4773 46.4216 31.8357 46.1228L31.5026 45.619C31.2447 45.826 30.9253 45.9412 30.5948 45.9461C30.3704 45.965 30.1474 45.8957 29.9731 45.7528C29.7987 45.6099 29.6867 45.4047 29.6608 45.1805H31.9794C31.9859 45.0955 31.9925 45.0104 31.9925 44.9187ZM29.6674 44.6439C29.6793 44.4339 29.7728 44.237 29.9278 44.0951C30.0828 43.9533 30.287 43.8778 30.4968 43.8849C30.702 43.8809 30.9004 43.9585 31.0485 44.1008C31.1966 44.2431 31.2824 44.4384 31.2871 44.6439H29.6674ZM34.8529 44.1532C34.5566 43.9824 34.2217 43.89 33.8798 43.8849C33.5075 43.8849 33.2855 44.0223 33.2855 44.2514C33.2855 44.4608 33.5206 44.5196 33.8145 44.5588L34.1345 44.6047C34.8138 44.7028 35.2252 44.9907 35.2252 45.5404C35.2252 46.1359 34.7027 46.5613 33.8014 46.5613C33.319 46.5747 32.8451 46.4324 32.4495 46.1555L32.7695 45.6255C33.0692 45.8482 33.435 45.9634 33.808 45.9527C34.2716 45.9527 34.5199 45.8153 34.5199 45.5731C34.5199 45.3965 34.3435 45.2983 33.9713 45.246L33.6512 45.2002C32.9524 45.102 32.5736 44.7879 32.5736 44.2775C32.5736 43.6558 33.083 43.2763 33.8733 43.2763C34.3203 43.2608 34.7624 43.3744 35.1469 43.6035L34.8529 44.1532ZM38.1167 43.9765H37.0065V45.39C37.0065 45.704 37.1175 45.9135 37.4571 45.9135C37.6691 45.9064 37.8758 45.8456 38.058 45.7368L38.2539 46.3192C37.9992 46.4783 37.7049 46.5622 37.4048 46.5613C36.6015 46.5613 36.3207 46.1294 36.3207 45.403V43.9765H35.6872V43.3548H36.3207L36.3205 42.406H37.0063L37.0065 43.3548H38.1167V43.9765ZM40.4674 43.2763C40.6322 43.2769 40.7956 43.3057 40.9508 43.3614L40.7417 44.0027C40.6068 43.9488 40.4625 43.9221 40.3172 43.9241C39.8731 43.9241 39.651 44.2121 39.651 44.729V46.4827H38.9718V43.3548H39.6445V43.7344C39.7279 43.5909 39.8483 43.4726 39.9931 43.392C40.1379 43.3114 40.3018 43.2714 40.4674 43.2763ZM45.1698 46.0274C45.2121 46.0271 45.2539 46.0355 45.2928 46.0519C45.3303 46.0675 45.3644 46.0902 45.3934 46.1186C45.4221 46.147 45.4451 46.1807 45.4611 46.2178C45.4775 46.256 45.4859 46.297 45.4859 46.3386C45.4859 46.3801 45.4775 46.4212 45.4611 46.4593C45.445 46.4963 45.422 46.5298 45.3934 46.5581C45.3643 46.5866 45.3302 46.6093 45.2928 46.6252C45.254 46.6419 45.2121 46.6503 45.1698 46.65C45.1076 46.6507 45.0466 46.6329 44.9944 46.599C44.9422 46.5651 44.9011 46.5165 44.8763 46.4593C44.86 46.4212 44.8516 46.3801 44.8516 46.3386C44.8516 46.2971 44.86 46.256 44.8763 46.2178C44.8922 46.1807 44.9151 46.147 44.9437 46.1186C44.9727 46.09 45.0069 46.0673 45.0446 46.0519C45.0843 46.0354 45.1269 46.0271 45.1698 46.0274ZM45.1698 46.5814C45.202 46.5816 45.234 46.5751 45.2635 46.5623C45.2919 46.5499 45.3177 46.5323 45.3396 46.5104C45.3677 46.4824 45.3885 46.4479 45.4001 46.4099C45.4117 46.372 45.4139 46.3317 45.4064 46.2927C45.3989 46.2538 45.3819 46.2172 45.357 46.1863C45.3321 46.1554 45.3 46.1312 45.2635 46.1156C45.2339 46.103 45.202 46.0966 45.1698 46.0969C45.137 46.0966 45.1045 46.103 45.0743 46.1156C45.0454 46.1275 45.0191 46.145 44.997 46.167C44.9518 46.2127 44.9265 46.2744 44.9265 46.3387C44.9265 46.403 44.9518 46.4647 44.997 46.5104C45.0197 46.5331 45.0467 46.551 45.0763 46.5632C45.106 46.5753 45.1378 46.5815 45.1698 46.5814ZM45.1881 46.193C45.2187 46.191 45.249 46.1998 45.2738 46.2178C45.2837 46.226 45.2916 46.2363 45.2968 46.248C45.302 46.2597 45.3044 46.2725 45.3039 46.2853C45.3042 46.2963 45.3023 46.3072 45.2981 46.3174C45.294 46.3276 45.2878 46.3368 45.2799 46.3444C45.261 46.3613 45.237 46.3713 45.2117 46.373L45.3062 46.4821H45.2323L45.1447 46.3738H45.1165V46.4821H45.0549V46.193H45.1881ZM45.1165 46.2472V46.3243H45.1874C45.201 46.3249 45.2145 46.3216 45.2262 46.3146C45.231 46.3115 45.2348 46.3071 45.2374 46.3019C45.2399 46.2968 45.241 46.2911 45.2407 46.2853C45.241 46.2797 45.2398 46.2741 45.2373 46.2691C45.2347 46.264 45.2309 46.2597 45.2262 46.2566C45.2145 46.2498 45.201 46.2465 45.1874 46.2472H45.1165Z" fill="white"/>
<path d="M37.151 19.4819H26.8496V38.0297H37.151V19.4819Z" fill="#7375CF"/>
<path d="M27.5035 28.7558C27.5019 26.9695 27.9059 25.2063 28.6849 23.5995C29.464 21.9928 30.5976 20.5848 32.0001 19.4819C30.2634 18.1141 28.1775 17.2635 25.9811 17.0273C23.7847 16.7911 21.5662 17.1789 19.5793 18.1462C17.5924 19.1135 15.9172 20.6215 14.7452 22.4976C13.5732 24.3738 12.9517 26.5424 12.9517 28.7558C12.9517 30.9691 13.5732 33.1378 14.7452 35.014C15.9172 36.8901 17.5924 38.398 19.5793 39.3654C21.5662 40.3327 23.7847 40.7204 25.9811 40.4842C28.1775 40.248 30.2634 39.3974 32.0001 38.0297C30.5977 36.9268 29.464 35.5187 28.6849 33.912C27.9059 32.3053 27.5019 30.5421 27.5035 28.7558Z" fill="#EB001B"/>
<path d="M49.9248 36.0651V35.6854H50.0777V35.608H49.6885V35.6854H49.8414V36.0651H49.9248ZM50.6805 36.0651V35.6073H50.5611L50.4239 35.9222L50.2867 35.6073H50.1673V36.0651H50.2516V35.7198L50.3802 36.0175H50.4676L50.5963 35.719V36.0651H50.6805Z" fill="#00A2E5"/>
<path d="M51.0479 28.7558C51.0479 30.9691 50.4265 33.1378 49.2546 35.0139C48.0826 36.8901 46.4075 38.398 44.4206 39.3653C42.4337 40.3327 40.2153 40.7204 38.0189 40.4842C35.8225 40.248 33.7367 39.3974 32 38.0297C33.4012 36.9257 34.534 35.5174 35.3129 33.9109C36.0919 32.3045 36.4966 30.5418 36.4966 28.7558C36.4966 26.9698 36.0919 25.2071 35.3129 23.6006C34.534 21.9942 33.4012 20.5859 32 19.4819C33.7367 18.1141 35.8225 17.2635 38.0189 17.0273C40.2153 16.7911 42.4337 17.1789 44.4206 18.1462C46.4075 19.1136 48.0826 20.6215 49.2546 22.4976C50.4265 24.3738 51.0479 26.5425 51.0479 28.7558Z" fill="#00A2E5"/>
</svg>
