<?xml version="1.0" encoding="UTF-8"?>
<svg width="180px" height="180px" viewBox="0 0 180 180" version="1.1" xmlns="http://www.w3.org/2000/svg" xmlns:xlink="http://www.w3.org/1999/xlink">
    <title>Logo</title>
    <defs>
        <radialGradient cx="48.3397178%" cy="49.4186213%" fx="48.3397178%" fy="49.4186213%" r="22.6731401%" gradientTransform="translate(0.483397,0.494186),scale(1.000000,0.549152),rotate(-19.153787),translate(-0.483397,-0.494186)" id="radialGradient-1">
            <stop stop-color="#000000" offset="0%"></stop>
            <stop stop-color="#000000" stop-opacity="0" offset="100%"></stop>
        </radialGradient>
    </defs>
    <g id="Page-1" stroke="none" stroke-width="1" fill="none" fill-rule="evenodd">
        <g id="Logo">
            <rect id="Background" fill="#000000" fill-rule="nonzero" x="0" y="0" width="180" height="180"></rect>
            <path d="M100.115647,29.0802494 L100.068402,56.0418807 L100.020908,83.0035111 L97.8096303,76.7445611 C97.8088623,76.7424041 97.8061362,76.7344312 97.8053811,76.7322743 L94.9479202,136.756007 C97.7573488,144.714685 99.2625752,148.96331 99.2794823,148.980268 C99.3016036,149.002466 100.902646,149.099352 102.837373,149.195669 C108.69916,149.487458 115.963076,150.11271 121.473488,150.799526 C122.749359,150.958535 123.847387,151.039966 123.913491,150.980574 C123.979596,150.921182 124.015593,123.469266 123.993483,89.976373 L123.953237,29.0802494 L112.034442,29.0802494 L100.115647,29.0802494 L100.115647,29.0802494 Z" id="path4155" stroke="#000000" stroke-width="0.782967703" fill="#B1060F"></path>
            <path d="M57.0000064,29.0000064 L57.0000064,89.957817 C57.0000064,123.484656 57.0327097,150.948676 57.0727491,150.988849 C57.112786,151.029009 59.1825774,150.832988 61.6722841,150.55328 C64.1619882,150.273559 67.6029344,149.925738 69.318761,149.78044 C71.9502991,149.557583 79.8072942,149.050825 80.7171094,149.045214 C80.9817687,149.043545 80.9987436,147.673821 81.037077,123.226042 L81.0775721,97.4086251 L82.9786305,102.804211 C83.2724261,103.638151 83.3645819,103.898568 83.6508121,104.710985 L86.507523,44.7020476 C85.9022376,42.9853387 86.2195368,43.8865196 85.5258725,41.9191217 C83.1917814,35.2990779 81.2111407,29.6840743 81.1243181,29.4413426 L80.9663335,29.0000064 L68.9832954,29.0000064 L57.0000064,29.0000064 Z" id="path4157" stroke="#000000" stroke-width="0.782967703" fill="#B1060F"></path>
            <path d="M57,29.0000064 L57,63.2173557 L81.0290778,127.157946 C81.0315864,125.692689 81.0344533,124.900957 81.037077,123.226042 L81.0775721,97.4086251 L82.9786305,102.804211 C93.5607402,132.841561 99.2460457,148.946733 99.2794823,148.980268 C99.3016036,149.002466 100.902646,149.099352 102.837373,149.195669 C108.69916,149.487458 115.963076,150.11271 121.473488,150.799526 C122.749359,150.958535 123.847387,151.039966 123.913491,150.980574 C123.958926,150.939752 123.988586,137.479458 123.996483,118.490705 L100.079902,49.5146185 L100.068396,56.0418807 L100.020901,83.0035111 L97.8096239,76.7445611 C95.6489655,70.62888 94.2063069,66.5389418 85.5258661,41.9191217 C83.191775,35.2990779 81.2111343,29.6840743 81.1243117,29.4413426 L80.9663271,29.0000064 L68.983289,29.0000064 L57,29.0000064 L57,29.0000064 Z" id="path5623" fill="url(#radialGradient-1)"></path>
            <path d="M57.0005068,29 L81.0775721,97.4397196 L81.0775721,97.4086251 L82.9786305,102.804211 C93.5607402,132.841561 99.2460457,148.946733 99.2794823,148.980268 C99.3016036,149.002466 100.902646,149.099352 102.837373,149.195669 C108.69916,149.487458 115.963076,150.11271 121.473488,150.799526 C122.74282,150.95772 123.835224,151.038978 123.911492,150.981325 L100.020908,82.9909739 L100.020908,83.0035047 L97.8096303,76.7445546 C95.6489719,70.6288736 94.2063133,66.5389354 85.5258725,41.9191153 C83.1917814,35.2990715 81.2111407,29.6840679 81.1243181,29.4413362 L80.9663335,29 L68.9832954,29 L57.0005068,29 L57.0005068,29 Z" id="path4159" fill="#E50914"></path>
            <path d="M100.115647,29.0802494 L100.068402,56.0418807 L100.020908,83.0035111 L97.8096303,76.7445611 C97.8088623,76.7424041 97.8061362,76.7344312 97.8053811,76.7322743 L94.9479202,136.756007 C97.7573488,144.714685 99.2625752,148.96331 99.2794823,148.980268 C99.3016036,149.002466 100.902646,149.099352 102.837373,149.195669 C108.69916,149.487458 115.963076,150.11271 121.473488,150.799526 C122.749359,150.958535 123.847387,151.039966 123.913491,150.980574 C123.979596,150.921182 124.015593,123.469266 123.993483,89.976373 L123.953237,29.0802494 L112.034442,29.0802494 L100.115647,29.0802494 L100.115647,29.0802494 Z" id="path5715" stroke="#000000" stroke-width="0.782967703" fill="#B1060F"></path>
            <path d="M57.0000064,29.0000064 L57.0000064,89.957817 C57.0000064,123.484656 57.0327097,150.948676 57.0727491,150.988849 C57.112786,151.029009 59.1825774,150.832988 61.6722841,150.55328 C64.1619882,150.273559 67.6029344,149.925738 69.318761,149.78044 C71.9502991,149.557583 79.8072942,149.050825 80.7171094,149.045214 C80.9817687,149.043545 80.9987436,147.673821 81.037077,123.226042 L81.0775721,97.4086251 L82.9786305,102.804211 C83.2724261,103.638151 83.3645819,103.898568 83.6508121,104.710985 L86.507523,44.7020476 C85.9022376,42.9853387 86.2195368,43.8865196 85.5258725,41.9191217 C83.1917814,35.2990779 81.2111407,29.6840743 81.1243181,29.4413426 L80.9663335,29.0000064 L68.9832954,29.0000064 L57.0000064,29.0000064 Z" id="path5717" stroke="#000000" stroke-width="0.782967703" fill="#B1060F"></path>
            <path d="M57,29.0000064 L57,63.2173557 L81.0290778,127.157946 C81.0315864,125.692689 81.0344533,124.900957 81.037077,123.226042 L81.0775721,97.4086251 L82.9786305,102.804211 C93.5607402,132.841561 99.2460457,148.946733 99.2794823,148.980268 C99.3016036,149.002466 100.902646,149.099352 102.837373,149.195669 C108.69916,149.487458 115.963076,150.11271 121.473488,150.799526 C122.749359,150.958535 123.847387,151.039966 123.913491,150.980574 C123.958926,150.939752 123.988586,137.479458 123.996483,118.490705 L100.079902,49.5146185 L100.068396,56.0418807 L100.020901,83.0035111 L97.8096239,76.7445611 C95.6489655,70.62888 94.2063069,66.5389418 85.5258661,41.9191217 C83.191775,35.2990779 81.2111343,29.6840743 81.1243117,29.4413426 L80.9663271,29.0000064 L68.983289,29.0000064 L57,29.0000064 L57,29.0000064 Z" id="path5719" fill="url(#radialGradient-1)"></path>
            <path d="M57.0005068,29 L81.0775721,97.4397196 L81.0775721,97.4086251 L82.9786305,102.804211 C93.5607402,132.841561 99.2460457,148.946733 99.2794823,148.980268 C99.3016036,149.002466 100.902646,149.099352 102.837373,149.195669 C108.69916,149.487458 115.963076,150.11271 121.473488,150.799526 C122.74282,150.95772 123.835224,151.038978 123.911492,150.981325 L100.020908,82.9909739 L100.020908,83.0035047 L97.8096303,76.7445546 C95.6489719,70.6288736 94.2063133,66.5389354 85.5258725,41.9191153 C83.1917814,35.2990715 81.2111407,29.6840679 81.1243181,29.4413362 L80.9663335,29 L68.9832954,29 L57.0005068,29 L57.0005068,29 Z" id="path5721" fill="#E50914"></path>
        </g>
    </g>
</svg>