<svg width="280" height="140" viewBox="0 0 140 70" fill="none" xmlns="http://www.w3.org/2000/svg">
<g id="Group 3">
<circle id="Oval" cx="69.7129" cy="35" r="32" fill="#DAE8E7"/>
<g id="Illustration">
<g id="Group 32">
<g id="Group 25">
<g id="Front-View/iPhone 11 Pro">
<g id="iPhone 11 Pro">
<rect id="Screen" width="50.9477" height="81.9071" rx="5.2" transform="matrix(0 -0.5 0.499999 -0.00109822 22.5 35.5688)" fill="url(#paint0_linear_3707_37944)"/>
<mask id="mask0_3707_37944" style="mask-type:alpha" maskUnits="userSpaceOnUse" x="22" y="10" width="42" height="26">
<rect id="Screen_2" width="50.9477" height="81.9071" rx="5.2" transform="matrix(0 -0.5 0.499999 -0.00109822 22.5 35.5688)" fill="white"/>
</mask>
<g mask="url(#mask0_3707_37944)">
</g>
</g>
</g>
<g id="Group 31">
<path id="Union" fill-rule="evenodd" clip-rule="evenodd" d="M60.1814 15.6C60.3869 15.3284 60.5087 14.9908 60.5087 14.625C60.5087 13.7275 59.7759 13 58.872 13C57.9681 13 57.2354 13.7275 57.2354 14.625C57.2354 14.9908 57.3571 15.3284 57.5626 15.6C57.3571 15.8716 57.2354 16.2092 57.2354 16.575C57.2354 17.4725 57.9681 18.2 58.872 18.2C59.7759 18.2 60.5086 17.4725 60.5086 16.575C60.5086 16.2092 60.3869 15.8716 60.1814 15.6Z" fill="#B6D1D0"/>
<path id="1234 5678 1234 5678" d="M26.5784 26.771L26.8098 26.771C26.8736 26.771 26.9197 26.7829 26.9483 26.8067C26.9769 26.8305 26.9912 26.8695 26.9912 26.9238C26.9912 26.9771 26.9773 27.0157 26.9497 27.0395C26.9221 27.0633 26.8755 27.0752 26.8098 27.0752L25.9671 27.0752C25.9014 27.0752 25.8548 27.0633 25.8271 27.0395C25.7995 27.0157 25.7857 26.9771 25.7857 26.9238C25.7857 26.8695 25.7995 26.8305 25.8271 26.8067C25.8557 26.7829 25.9024 26.771 25.9671 26.771L26.2328 26.771V25.5656L26.0728 25.607C26.048 25.6127 26.0276 25.617 26.0114 25.6198C25.9952 25.6227 25.9833 25.6241 25.9757 25.6241C25.9366 25.6241 25.9062 25.6117 25.8843 25.587C25.8633 25.5622 25.8529 25.527 25.8529 25.4813C25.8529 25.448 25.8648 25.4199 25.8886 25.397C25.9124 25.3742 25.949 25.3566 25.9985 25.3442L26.3527 25.2471C26.3823 25.2395 26.4065 25.2337 26.4256 25.2299C26.4446 25.2261 26.4603 25.2242 26.4727 25.2242C26.5108 25.2242 26.5379 25.2347 26.5541 25.2556C26.5703 25.2766 26.5784 25.3118 26.5784 25.3613V26.771ZM27.9646 26.7538L28.4645 26.7538V26.7453C28.4645 26.6967 28.4774 26.6605 28.5031 26.6367C28.5297 26.6129 28.5688 26.601 28.6202 26.601C28.6621 26.601 28.6944 26.6129 28.7173 26.6367C28.7402 26.6596 28.7516 26.6924 28.7516 26.7353V26.7538L28.7402 26.9752C28.7382 27.019 28.7311 27.0466 28.7187 27.0581C28.7073 27.0695 28.6864 27.0752 28.6559 27.0752L27.629 27.0752C27.5738 27.0752 27.5309 27.0633 27.5005 27.0395C27.4709 27.0157 27.4562 26.9819 27.4562 26.9381C27.4562 26.9019 27.4652 26.8667 27.4833 26.8324C27.5024 26.7972 27.5324 26.76 27.5733 26.721L28.1546 26.1597C28.2174 26.0988 28.2641 26.0378 28.2945 25.9769C28.326 25.916 28.3417 25.855 28.3417 25.7941C28.3417 25.7084 28.3207 25.6446 28.2788 25.6027C28.2379 25.5608 28.1751 25.5399 28.0903 25.5399C28.0408 25.5399 27.9965 25.5475 27.9575 25.5627C27.9194 25.577 27.8899 25.5975 27.8689 25.6241C27.8575 25.6375 27.8437 25.6579 27.8275 25.6855C27.7818 25.7598 27.7314 25.7969 27.6761 25.7969C27.6285 25.7969 27.5923 25.7812 27.5676 25.7498C27.5438 25.7184 27.5319 25.6717 27.5319 25.6098C27.5319 25.546 27.5395 25.4984 27.5547 25.467C27.57 25.4356 27.6004 25.4042 27.6461 25.3728C27.7204 25.3232 27.7985 25.2866 27.8804 25.2628C27.9632 25.239 28.0527 25.2271 28.1489 25.2271C28.3288 25.2271 28.4712 25.2756 28.5759 25.3728C28.6816 25.4699 28.7344 25.6003 28.7344 25.7641C28.7344 25.8736 28.7068 25.9788 28.6516 26.0797C28.5973 26.1797 28.5126 26.2797 28.3974 26.3797L27.9646 26.7538ZM30.2092 26.0954C30.3187 26.1297 30.4001 26.184 30.4534 26.2583C30.5068 26.3316 30.5334 26.4273 30.5334 26.5453C30.5334 26.7234 30.473 26.8648 30.352 26.9695C30.2321 27.0733 30.0683 27.1252 29.8607 27.1252C29.6932 27.1252 29.5546 27.0976 29.4451 27.0423C29.3356 26.9871 29.2809 26.92 29.2809 26.841C29.2809 26.7943 29.2956 26.7567 29.3252 26.7281C29.3556 26.6986 29.3956 26.6839 29.4451 26.6839C29.4689 26.6839 29.5294 26.7053 29.6265 26.7481C29.7236 26.791 29.8093 26.8124 29.8836 26.8124C29.9731 26.8124 30.0416 26.7886 30.0893 26.741C30.1378 26.6924 30.1621 26.6234 30.1621 26.5339C30.1621 26.4377 30.1416 26.3692 30.1007 26.3282C30.0607 26.2873 29.9836 26.2644 29.8693 26.2597C29.8093 26.2578 29.7689 26.2464 29.7479 26.2254C29.7279 26.2035 29.7179 26.1649 29.7179 26.1097C29.7179 26.0335 29.7589 25.9897 29.8407 25.9783C29.8522 25.9774 29.8607 25.9764 29.8664 25.9755C29.9693 25.9612 30.0359 25.9369 30.0664 25.9026C30.0969 25.8674 30.1121 25.8107 30.1121 25.7327C30.1121 25.6651 30.0935 25.6127 30.0564 25.5756C30.0202 25.5375 29.9688 25.5184 29.9022 25.5184C29.8317 25.5184 29.7527 25.5408 29.6651 25.5856C29.5775 25.6294 29.517 25.6513 29.4837 25.6513C29.4466 25.6513 29.4166 25.6394 29.3937 25.6156C29.3718 25.5908 29.3609 25.5599 29.3609 25.5227C29.3609 25.4418 29.417 25.3723 29.5294 25.3142C29.6417 25.2561 29.7803 25.2271 29.945 25.2271C30.1107 25.2271 30.2425 25.2699 30.3406 25.3556C30.4396 25.4413 30.4892 25.5551 30.4892 25.697C30.4892 25.7903 30.4663 25.8693 30.4206 25.934C30.3758 25.9978 30.3054 26.0516 30.2092 26.0954ZM32.1225 26.3611C32.1253 26.362 32.1282 26.363 32.131 26.3639C32.1339 26.3639 32.1387 26.3639 32.1453 26.3639C32.1644 26.3639 32.1863 26.352 32.211 26.3282C32.2358 26.3035 32.2567 26.2911 32.2739 26.2911C32.3139 26.2911 32.3453 26.3011 32.3681 26.3211C32.391 26.3401 32.4024 26.3673 32.4024 26.4025C32.4024 26.412 32.4014 26.422 32.3995 26.4325C32.3986 26.443 32.3967 26.4525 32.3938 26.4611L32.3624 26.5667C32.3567 26.5867 32.3472 26.6015 32.3338 26.611C32.3205 26.6205 32.3034 26.6253 32.2824 26.6253L32.1225 26.6253V26.8038L32.2067 26.8038C32.2153 26.8038 32.2263 26.8043 32.2396 26.8053C32.2529 26.8062 32.2615 26.8067 32.2653 26.8067C32.2996 26.8067 32.3286 26.8195 32.3524 26.8453C32.3762 26.87 32.3881 26.9019 32.3881 26.9409C32.3881 26.9885 32.3738 27.0228 32.3453 27.0438C32.3177 27.0647 32.2715 27.0752 32.2067 27.0752L31.604 27.0752C31.5393 27.0752 31.4931 27.0647 31.4655 27.0438C31.4388 27.0228 31.4255 26.9885 31.4255 26.9409C31.4255 26.8924 31.4393 26.8576 31.4669 26.8367C31.4945 26.8148 31.5402 26.8038 31.604 26.8038L31.8125 26.8038V26.6253L31.1541 26.6253C31.1294 26.6253 31.1103 26.6177 31.097 26.6025C31.0846 26.5872 31.0784 26.5653 31.0784 26.5368V26.4496C31.0784 26.4144 31.0808 26.3873 31.0856 26.3682C31.0913 26.3482 31.1003 26.3273 31.1127 26.3054L31.7126 25.2856C31.7269 25.2618 31.7383 25.2471 31.7468 25.2414C31.7564 25.2356 31.7692 25.2328 31.7854 25.2328C31.794 25.2328 31.8011 25.2333 31.8068 25.2342C31.8135 25.2342 31.8192 25.2347 31.824 25.2356L32.0782 25.2799C32.0925 25.2828 32.1034 25.2904 32.111 25.3028C32.1187 25.3151 32.1225 25.3318 32.1225 25.3528V26.3611ZM31.8125 25.5713L31.3641 26.3611L31.8125 26.3611V25.5713ZM35.0677 25.5927V25.9226C35.1296 25.9045 35.1858 25.8912 35.2363 25.8826C35.2867 25.8741 35.3339 25.8698 35.3777 25.8698C35.5491 25.8698 35.6876 25.9264 35.7933 26.0397C35.899 26.1521 35.9518 26.3001 35.9518 26.4839C35.9518 26.6915 35.8871 26.85 35.7576 26.9595C35.6281 27.0681 35.44 27.1223 35.1934 27.1223C35.0163 27.1223 34.8816 27.1028 34.7892 27.0638C34.6978 27.0247 34.6521 26.9671 34.6521 26.891C34.6521 26.8453 34.6683 26.8062 34.7007 26.7738C34.7331 26.7405 34.7716 26.7239 34.8164 26.7239C34.844 26.7239 34.9035 26.7377 34.9949 26.7653C35.0873 26.7929 35.1663 26.8067 35.232 26.8067C35.3396 26.8067 35.4229 26.7791 35.4819 26.7239C35.541 26.6677 35.5705 26.5886 35.5705 26.4868C35.5705 26.3877 35.5424 26.3092 35.4862 26.2511C35.431 26.1921 35.3558 26.1626 35.2606 26.1626C35.1996 26.1626 35.1273 26.1821 35.0435 26.2211C34.9597 26.2602 34.9026 26.2797 34.8721 26.2797C34.8178 26.2797 34.7792 26.2649 34.7564 26.2354C34.7335 26.2049 34.7221 26.1535 34.7221 26.0812V25.3899C34.7221 25.3385 34.7288 25.3061 34.7421 25.2928C34.7564 25.2794 34.7802 25.2728 34.8135 25.2728L35.749 25.2728C35.808 25.2728 35.849 25.2847 35.8718 25.3085C35.8956 25.3313 35.9075 25.3732 35.9075 25.4342C35.9075 25.4942 35.8961 25.5356 35.8733 25.5584C35.8504 25.5813 35.809 25.5927 35.749 25.5927L35.0677 25.5927ZM37.4023 26.5339C37.4023 26.4406 37.3766 26.3644 37.3252 26.3054C37.2738 26.2454 37.2076 26.2154 37.1267 26.2154C37.0486 26.2154 36.9834 26.2444 36.931 26.3025C36.8786 26.3597 36.8525 26.432 36.8525 26.5196C36.8525 26.6139 36.8791 26.691 36.9324 26.751C36.9867 26.811 37.0557 26.841 37.1395 26.841C37.2167 26.841 37.2795 26.8129 37.3281 26.7567C37.3776 26.6996 37.4023 26.6253 37.4023 26.5339ZM36.8467 26.0654C36.8934 26.0131 36.9491 25.9731 37.0138 25.9455C37.0786 25.9169 37.1476 25.9026 37.2209 25.9026C37.3742 25.9026 37.5033 25.9612 37.608 26.0783C37.7127 26.1945 37.7651 26.3387 37.7651 26.511C37.7651 26.6929 37.7061 26.84 37.588 26.9524C37.4709 27.0638 37.3152 27.1195 37.121 27.1195C36.9191 27.1195 36.7601 27.0462 36.6439 26.8995C36.5278 26.7519 36.4697 26.5491 36.4697 26.2911C36.4697 25.9712 36.5592 25.7141 36.7382 25.5199C36.9182 25.3247 37.1562 25.2271 37.4523 25.2271C37.5513 25.2271 37.6223 25.2352 37.6651 25.2514C37.708 25.2675 37.7294 25.2942 37.7294 25.3313C37.7294 25.418 37.6623 25.4651 37.528 25.4727C37.4718 25.4765 37.4271 25.4803 37.3938 25.4842C37.2452 25.5003 37.1267 25.5551 37.0381 25.6484C36.9505 25.7417 36.8867 25.8807 36.8467 26.0654ZM39.4241 25.4256L38.9614 27.0338C38.9538 27.0585 38.9438 27.0752 38.9314 27.0838C38.919 27.0933 38.9009 27.098 38.8771 27.098L38.6129 27.098C38.5996 27.098 38.5881 27.0938 38.5786 27.0852C38.5691 27.0766 38.5643 27.0666 38.5643 27.0552C38.5643 27.0428 38.5648 27.0338 38.5658 27.0281C38.5667 27.0214 38.5681 27.0157 38.57 27.0109L39.0813 25.5927L38.4672 25.5927L38.4615 25.6184C38.4567 25.6498 38.442 25.6755 38.4172 25.6955C38.3934 25.7146 38.3644 25.7241 38.3301 25.7241C38.2901 25.7241 38.2606 25.7151 38.2415 25.697C38.2225 25.6789 38.213 25.6508 38.213 25.6127C38.213 25.6089 38.2135 25.6032 38.2144 25.5956C38.2154 25.5879 38.2158 25.5818 38.2158 25.577L38.2415 25.3556C38.2444 25.329 38.2544 25.3085 38.2715 25.2942C38.2887 25.2799 38.3111 25.2728 38.3387 25.2728L39.3484 25.2728C39.3751 25.2728 39.3941 25.279 39.4055 25.2913C39.4179 25.3028 39.4241 25.3213 39.4241 25.347V25.4256ZM40.7075 26.3082C40.6199 26.3082 40.5495 26.3325 40.4961 26.3811C40.4428 26.4296 40.4162 26.4944 40.4162 26.5753C40.4162 26.6524 40.4433 26.7162 40.4976 26.7667C40.5518 26.8162 40.6218 26.841 40.7075 26.841C40.7961 26.841 40.867 26.8167 40.9203 26.7681C40.9736 26.7196 41.0003 26.6553 41.0003 26.5753C41.0003 26.4963 40.9732 26.432 40.9189 26.3825C40.8646 26.333 40.7942 26.3082 40.7075 26.3082ZM41.0332 26.1511C41.1407 26.1902 41.2236 26.2478 41.2817 26.324C41.3397 26.4001 41.3688 26.4887 41.3688 26.5896C41.3688 26.7467 41.3078 26.8748 41.186 26.9738C41.0641 27.0728 40.9046 27.1223 40.7075 27.1223C40.5142 27.1223 40.3557 27.0728 40.2319 26.9738C40.1091 26.8748 40.0477 26.7486 40.0477 26.5953C40.0477 26.4925 40.0767 26.403 40.1348 26.3268C40.1929 26.2497 40.2757 26.1911 40.3833 26.1511C40.2786 26.1054 40.1995 26.0478 40.1462 25.9783C40.0939 25.9088 40.0677 25.8269 40.0677 25.7327C40.0677 25.586 40.1272 25.4651 40.2462 25.3699C40.3662 25.2747 40.5199 25.2271 40.7075 25.2271C40.8951 25.2271 41.0493 25.2752 41.1703 25.3713C41.2912 25.4675 41.3516 25.5879 41.3516 25.7327C41.3516 25.8269 41.3245 25.9093 41.2702 25.9797C41.2169 26.0502 41.1379 26.1073 41.0332 26.1511ZM40.7075 25.4956C40.6275 25.4956 40.5614 25.5194 40.509 25.567C40.4566 25.6146 40.4304 25.6746 40.4304 25.7469C40.4304 25.8193 40.4566 25.8793 40.509 25.9269C40.5614 25.9745 40.6275 25.9983 40.7075 25.9983C40.7894 25.9983 40.8556 25.9755 40.906 25.9298C40.9575 25.8831 40.9832 25.8222 40.9832 25.7469C40.9832 25.6746 40.9575 25.6146 40.906 25.567C40.8546 25.5194 40.7884 25.4956 40.7075 25.4956ZM44.5112 26.771L44.7425 26.771C44.8063 26.771 44.8525 26.7829 44.8811 26.8067C44.9096 26.8305 44.9239 26.8695 44.9239 26.9238C44.9239 26.9771 44.9101 27.0157 44.8825 27.0395C44.8549 27.0633 44.8082 27.0752 44.7425 27.0752L43.8999 27.0752C43.8342 27.0752 43.7875 27.0633 43.7599 27.0395C43.7323 27.0157 43.7185 26.9771 43.7185 26.9238C43.7185 26.8695 43.7323 26.8305 43.7599 26.8067C43.7885 26.7829 43.8351 26.771 43.8999 26.771L44.1655 26.771V25.5656L44.0056 25.607C43.9808 25.6127 43.9603 25.617 43.9442 25.6198C43.928 25.6227 43.9161 25.6241 43.9084 25.6241C43.8694 25.6241 43.8389 25.6117 43.817 25.587C43.7961 25.5622 43.7856 25.527 43.7856 25.4813C43.7856 25.448 43.7975 25.4199 43.8213 25.397C43.8451 25.3742 43.8818 25.3566 43.9313 25.3442L44.2855 25.2471C44.315 25.2395 44.3393 25.2337 44.3583 25.2299C44.3774 25.2261 44.3931 25.2242 44.4055 25.2242C44.4436 25.2242 44.4707 25.2347 44.4869 25.2556C44.5031 25.2766 44.5112 25.3118 44.5112 25.3613V26.771ZM45.8974 26.7538L46.3973 26.7538V26.7453C46.3973 26.6967 46.4101 26.6605 46.4358 26.6367C46.4625 26.6129 46.5015 26.601 46.5529 26.601C46.5948 26.601 46.6272 26.6129 46.6501 26.6367C46.6729 26.6596 46.6843 26.6924 46.6843 26.7353V26.7538L46.6729 26.9752C46.671 27.019 46.6639 27.0466 46.6515 27.0581C46.6401 27.0695 46.6191 27.0752 46.5887 27.0752L45.5618 27.0752C45.5065 27.0752 45.4637 27.0633 45.4332 27.0395C45.4037 27.0157 45.3889 26.9819 45.3889 26.9381C45.3889 26.9019 45.398 26.8667 45.4161 26.8324C45.4351 26.7972 45.4651 26.76 45.5061 26.721L46.0873 26.1597C46.1502 26.0988 46.1968 26.0378 46.2273 25.9769C46.2587 25.916 46.2744 25.855 46.2744 25.7941C46.2744 25.7084 46.2535 25.6446 46.2116 25.6027C46.1707 25.5608 46.1078 25.5399 46.0231 25.5399C45.9736 25.5399 45.9293 25.5475 45.8903 25.5627C45.8522 25.577 45.8226 25.5975 45.8017 25.6241C45.7903 25.6375 45.7765 25.6579 45.7603 25.6855C45.7146 25.7598 45.6641 25.7969 45.6089 25.7969C45.5613 25.7969 45.5251 25.7812 45.5003 25.7498C45.4765 25.7184 45.4646 25.6717 45.4646 25.6098C45.4646 25.546 45.4723 25.4984 45.4875 25.467C45.5027 25.4356 45.5332 25.4042 45.5789 25.3728C45.6532 25.3232 45.7312 25.2866 45.8131 25.2628C45.896 25.239 45.9855 25.2271 46.0816 25.2271C46.2616 25.2271 46.4039 25.2756 46.5087 25.3728C46.6144 25.4699 46.6672 25.6003 46.6672 25.7641C46.6672 25.8736 46.6396 25.9788 46.5844 26.0797C46.5301 26.1797 46.4454 26.2797 46.3301 26.3797L45.8974 26.7538ZM48.142 26.0954C48.2515 26.1297 48.3329 26.184 48.3862 26.2583C48.4395 26.3316 48.4662 26.4273 48.4662 26.5453C48.4662 26.7234 48.4057 26.8648 48.2848 26.9695C48.1648 27.0733 48.0011 27.1252 47.7935 27.1252C47.6259 27.1252 47.4874 27.0976 47.3779 27.0423C47.2684 26.9871 47.2136 26.92 47.2136 26.841C47.2136 26.7943 47.2284 26.7567 47.2579 26.7281C47.2884 26.6986 47.3284 26.6839 47.3779 26.6839C47.4017 26.6839 47.4622 26.7053 47.5593 26.7481C47.6564 26.791 47.7421 26.8124 47.8164 26.8124C47.9059 26.8124 47.9744 26.7886 48.022 26.741C48.0706 26.6924 48.0949 26.6234 48.0949 26.5339C48.0949 26.4377 48.0744 26.3692 48.0334 26.3282C47.9935 26.2873 47.9163 26.2644 47.8021 26.2597C47.7421 26.2578 47.7016 26.2464 47.6807 26.2254C47.6607 26.2035 47.6507 26.1649 47.6507 26.1097C47.6507 26.0335 47.6916 25.9897 47.7735 25.9783C47.7849 25.9774 47.7935 25.9764 47.7992 25.9755C47.902 25.9612 47.9687 25.9369 47.9992 25.9026C48.0296 25.8674 48.0449 25.8107 48.0449 25.7327C48.0449 25.6651 48.0263 25.6127 47.9892 25.5756C47.953 25.5375 47.9016 25.5184 47.8349 25.5184C47.7645 25.5184 47.6854 25.5408 47.5978 25.5856C47.5102 25.6294 47.4498 25.6513 47.4164 25.6513C47.3793 25.6513 47.3493 25.6394 47.3265 25.6156C47.3046 25.5908 47.2936 25.5599 47.2936 25.5227C47.2936 25.4418 47.3498 25.3723 47.4622 25.3142C47.5745 25.2561 47.713 25.2271 47.8778 25.2271C48.0434 25.2271 48.1753 25.2699 48.2734 25.3556C48.3724 25.4413 48.4219 25.5551 48.4219 25.697C48.4219 25.7903 48.3991 25.8693 48.3534 25.934C48.3086 25.9978 48.2382 26.0516 48.142 26.0954ZM50.0552 26.3611C50.0581 26.362 50.0609 26.363 50.0638 26.3639C50.0667 26.3639 50.0714 26.3639 50.0781 26.3639C50.0971 26.3639 50.119 26.352 50.1438 26.3282C50.1685 26.3035 50.1895 26.2911 50.2066 26.2911C50.2466 26.2911 50.278 26.3011 50.3009 26.3211C50.3237 26.3401 50.3352 26.3673 50.3352 26.4025C50.3352 26.412 50.3342 26.422 50.3323 26.4325C50.3314 26.443 50.3295 26.4525 50.3266 26.4611L50.2952 26.5667C50.2895 26.5867 50.2799 26.6015 50.2666 26.611C50.2533 26.6205 50.2361 26.6253 50.2152 26.6253L50.0552 26.6253V26.8038L50.1395 26.8038C50.1481 26.8038 50.159 26.8043 50.1723 26.8053C50.1857 26.8062 50.1942 26.8067 50.1981 26.8067C50.2323 26.8067 50.2614 26.8195 50.2852 26.8453C50.309 26.87 50.3209 26.9019 50.3209 26.9409C50.3209 26.9885 50.3066 27.0228 50.278 27.0438C50.2504 27.0647 50.2042 27.0752 50.1395 27.0752L49.5368 27.0752C49.472 27.0752 49.4259 27.0647 49.3983 27.0438C49.3716 27.0228 49.3583 26.9885 49.3583 26.9409C49.3583 26.8924 49.3721 26.8576 49.3997 26.8367C49.4273 26.8148 49.473 26.8038 49.5368 26.8038L49.7453 26.8038V26.6253L49.0869 26.6253C49.0621 26.6253 49.0431 26.6177 49.0298 26.6025C49.0174 26.5872 49.0112 26.5653 49.0112 26.5368V26.4496C49.0112 26.4144 49.0136 26.3873 49.0183 26.3682C49.0241 26.3482 49.0331 26.3273 49.0455 26.3054L49.6453 25.2856C49.6596 25.2618 49.671 25.2471 49.6796 25.2414C49.6891 25.2356 49.702 25.2328 49.7182 25.2328C49.7267 25.2328 49.7339 25.2333 49.7396 25.2342C49.7463 25.2342 49.752 25.2347 49.7567 25.2356L50.011 25.2799C50.0252 25.2828 50.0362 25.2904 50.0438 25.3028C50.0514 25.3151 50.0552 25.3318 50.0552 25.3528V26.3611ZM49.7453 25.5713L49.2968 26.3611L49.7453 26.3611V25.5713ZM53.0005 25.5927V25.9226C53.0624 25.9045 53.1186 25.8912 53.169 25.8826C53.2195 25.8741 53.2666 25.8698 53.3104 25.8698C53.4818 25.8698 53.6204 25.9264 53.7261 26.0397C53.8317 26.1521 53.8846 26.3001 53.8846 26.4839C53.8846 26.6915 53.8198 26.85 53.6903 26.9595C53.5609 27.0681 53.3728 27.1223 53.1262 27.1223C52.9491 27.1223 52.8144 27.1028 52.722 27.0638C52.6306 27.0247 52.5849 26.9671 52.5849 26.891C52.5849 26.8453 52.6011 26.8062 52.6335 26.7738C52.6658 26.7405 52.7044 26.7239 52.7491 26.7239C52.7768 26.7239 52.8363 26.7377 52.9277 26.7653C53.02 26.7929 53.0991 26.8067 53.1648 26.8067C53.2724 26.8067 53.3557 26.7791 53.4147 26.7239C53.4737 26.6677 53.5032 26.5886 53.5032 26.4868C53.5032 26.3877 53.4752 26.3092 53.419 26.2511C53.3638 26.1921 53.2885 26.1626 53.1933 26.1626C53.1324 26.1626 53.06 26.1821 52.9762 26.2211C52.8924 26.2602 52.8353 26.2797 52.8048 26.2797C52.7506 26.2797 52.712 26.2649 52.6892 26.2354C52.6663 26.2049 52.6549 26.1535 52.6549 26.0812V25.3899C52.6549 25.3385 52.6615 25.3061 52.6749 25.2928C52.6892 25.2794 52.713 25.2728 52.7463 25.2728L53.6818 25.2728C53.7408 25.2728 53.7818 25.2847 53.8046 25.3085C53.8284 25.3313 53.8403 25.3732 53.8403 25.4342C53.8403 25.4942 53.8289 25.5356 53.806 25.5584C53.7832 25.5813 53.7418 25.5927 53.6818 25.5927L53.0005 25.5927ZM55.3351 26.5339C55.3351 26.4406 55.3094 26.3644 55.258 26.3054C55.2065 26.2454 55.1404 26.2154 55.0594 26.2154C54.9814 26.2154 54.9161 26.2444 54.8638 26.3025C54.8114 26.3597 54.7852 26.432 54.7852 26.5196C54.7852 26.6139 54.8119 26.691 54.8652 26.751C54.9195 26.811 54.9885 26.841 55.0723 26.841C55.1494 26.841 55.2123 26.8129 55.2608 26.7567C55.3103 26.6996 55.3351 26.6253 55.3351 26.5339ZM54.7795 26.0654C54.8262 26.0131 54.8819 25.9731 54.9466 25.9455C55.0114 25.9169 55.0804 25.9026 55.1537 25.9026C55.307 25.9026 55.436 25.9612 55.5408 26.0783C55.6455 26.1945 55.6979 26.3387 55.6979 26.511C55.6979 26.6929 55.6388 26.84 55.5208 26.9524C55.4036 27.0638 55.248 27.1195 55.0537 27.1195C54.8519 27.1195 54.6929 27.0462 54.5767 26.8995C54.4605 26.7519 54.4025 26.5491 54.4025 26.2911C54.4025 25.9712 54.492 25.7141 54.671 25.5199C54.8509 25.3247 55.089 25.2271 55.3851 25.2271C55.4841 25.2271 55.555 25.2352 55.5979 25.2514C55.6407 25.2675 55.6622 25.2942 55.6622 25.3313C55.6622 25.418 55.595 25.4651 55.4608 25.4727C55.4046 25.4765 55.3598 25.4803 55.3265 25.4842C55.178 25.5003 55.0594 25.5551 54.9709 25.6484C54.8833 25.7417 54.8195 25.8807 54.7795 26.0654ZM57.3569 25.4256L56.8941 27.0338C56.8865 27.0585 56.8765 27.0752 56.8641 27.0838C56.8518 27.0933 56.8337 27.098 56.8099 27.098L56.5456 27.098C56.5323 27.098 56.5209 27.0938 56.5114 27.0852C56.5019 27.0766 56.4971 27.0666 56.4971 27.0552C56.4971 27.0428 56.4976 27.0338 56.4985 27.0281C56.4995 27.0214 56.5009 27.0157 56.5028 27.0109L57.0141 25.5927L56.4 25.5927L56.3943 25.6184C56.3895 25.6498 56.3747 25.6755 56.35 25.6955C56.3262 25.7146 56.2971 25.7241 56.2629 25.7241C56.2229 25.7241 56.1934 25.7151 56.1743 25.697C56.1553 25.6789 56.1457 25.6508 56.1457 25.6127C56.1457 25.6089 56.1462 25.6032 56.1472 25.5956C56.1481 25.5879 56.1486 25.5818 56.1486 25.577L56.1743 25.3556C56.1772 25.329 56.1872 25.3085 56.2043 25.2942C56.2214 25.2799 56.2438 25.2728 56.2714 25.2728L57.2812 25.2728C57.3078 25.2728 57.3269 25.279 57.3383 25.2913C57.3507 25.3028 57.3569 25.3213 57.3569 25.347V25.4256ZM58.6403 26.3082C58.5527 26.3082 58.4822 26.3325 58.4289 26.3811C58.3756 26.4296 58.3489 26.4944 58.3489 26.5753C58.3489 26.6524 58.3761 26.7162 58.4303 26.7667C58.4846 26.8162 58.5546 26.841 58.6403 26.841C58.7288 26.841 58.7998 26.8167 58.8531 26.7681C58.9064 26.7196 58.9331 26.6553 58.9331 26.5753C58.9331 26.4963 58.9059 26.432 58.8517 26.3825C58.7974 26.333 58.7269 26.3082 58.6403 26.3082ZM58.9659 26.1511C59.0735 26.1902 59.1563 26.2478 59.2144 26.324C59.2725 26.4001 59.3015 26.4887 59.3015 26.5896C59.3015 26.7467 59.2406 26.8748 59.1187 26.9738C58.9969 27.0728 58.8374 27.1223 58.6403 27.1223C58.447 27.1223 58.2885 27.0728 58.1647 26.9738C58.0419 26.8748 57.9804 26.7486 57.9804 26.5953C57.9804 26.4925 58.0095 26.403 58.0676 26.3268C58.1256 26.2497 58.2085 26.1911 58.3161 26.1511C58.2113 26.1054 58.1323 26.0478 58.079 25.9783C58.0266 25.9088 58.0004 25.8269 58.0004 25.7327C58.0004 25.586 58.0599 25.4651 58.179 25.3699C58.2989 25.2747 58.4527 25.2271 58.6403 25.2271C58.8279 25.2271 58.9821 25.2752 59.103 25.3713C59.2239 25.4675 59.2844 25.5879 59.2844 25.7327C59.2844 25.8269 59.2573 25.9093 59.203 25.9797C59.1497 26.0502 59.0707 26.1073 58.9659 26.1511ZM58.6403 25.4956C58.5603 25.4956 58.4941 25.5194 58.4418 25.567C58.3894 25.6146 58.3632 25.6746 58.3632 25.7469C58.3632 25.8193 58.3894 25.8793 58.4418 25.9269C58.4941 25.9745 58.5603 25.9983 58.6403 25.9983C58.7222 25.9983 58.7883 25.9755 58.8388 25.9298C58.8902 25.8831 58.9159 25.8222 58.9159 25.7469C58.9159 25.6746 58.8902 25.6146 58.8388 25.567C58.7874 25.5194 58.7212 25.4956 58.6403 25.4956Z" fill="url(#paint1_linear_3707_37944)"/>
<g id="Group 27">
<rect id="Bezels" x="25.4844" y="22.75" width="4.55" height="6.87388" rx="1.3" transform="rotate(-90 25.4844 22.75)" fill="url(#paint2_linear_3707_37944)"/>
</g>
<g id="Group 29">
<rect id="Bezels_2" x="25.4844" y="30.875" width="1.625" height="11.1291" rx="1.3" transform="rotate(-90 25.4844 30.875)" fill="#B6D1D0"/>
<rect id="Bezels_3" x="37.9229" y="30.875" width="1.625" height="5.23724" rx="1.3" transform="rotate(-90 37.9229 30.875)" fill="#B6D1D0"/>
</g>
</g>
</g>
<g id="Group 26">
<g id="Group 2 Copy">
<rect id="Rectangle" width="50.9477" height="81.9071" rx="4.03529" transform="matrix(0 -0.5 0.499999 0.00115837 76.5464 35.4746)" fill="url(#paint3_linear_3707_37944)"/>
<mask id="mask1_3707_37944" style="mask-type:alpha" maskUnits="userSpaceOnUse" x="76" y="10" width="42" height="26">
<rect id="Rectangle_2" width="50.9477" height="81.9071" rx="4.03529" transform="matrix(0 -0.5 0.499999 0.00115837 76.5464 35.4746)" fill="white"/>
</mask>
<g mask="url(#mask1_3707_37944)">
<g id="Group 31_2">
<path id="Union_2" fill-rule="evenodd" clip-rule="evenodd" d="M114.064 16.1005C114.27 15.8289 114.391 15.4913 114.391 15.1255C114.391 14.228 113.659 13.5005 112.755 13.5005C111.851 13.5005 111.118 14.228 111.118 15.1255C111.118 15.4913 111.24 15.8289 111.445 16.1005C111.24 16.3721 111.118 16.7097 111.118 17.0755C111.118 17.973 111.851 18.7005 112.755 18.7005C113.659 18.7005 114.391 17.973 114.391 17.0755C114.391 16.7097 114.27 16.3721 114.064 16.1005Z" fill="#B6D1D0"/>
<path id="1234 5678 1234 5678_2" d="M80.4612 27.2715L80.6926 27.2715C80.7564 27.2715 80.8026 27.2834 80.8311 27.3072C80.8597 27.331 80.874 27.37 80.874 27.4243C80.874 27.4776 80.8602 27.5162 80.8325 27.54C80.8049 27.5638 80.7583 27.5757 80.6926 27.5757L79.8499 27.5757C79.7842 27.5757 79.7376 27.5638 79.71 27.54C79.6823 27.5162 79.6685 27.4776 79.6685 27.4243C79.6685 27.37 79.6823 27.331 79.71 27.3072C79.7385 27.2834 79.7852 27.2715 79.8499 27.2715L80.1156 27.2715V26.0661L79.9556 26.1075C79.9309 26.1132 79.9104 26.1175 79.8942 26.1203C79.878 26.1232 79.8661 26.1246 79.8585 26.1246C79.8195 26.1246 79.789 26.1122 79.7671 26.0875C79.7461 26.0627 79.7357 26.0275 79.7357 25.9818C79.7357 25.9485 79.7476 25.9204 79.7714 25.8975C79.7952 25.8747 79.8318 25.8571 79.8813 25.8447L80.2355 25.7476C80.2651 25.7399 80.2893 25.7342 80.3084 25.7304C80.3274 25.7266 80.3431 25.7247 80.3555 25.7247C80.3936 25.7247 80.4207 25.7352 80.4369 25.7561C80.4531 25.7771 80.4612 25.8123 80.4612 25.8618V27.2715ZM81.8474 27.2543L82.3473 27.2543V27.2458C82.3473 27.1972 82.3602 27.161 82.3859 27.1372C82.4125 27.1134 82.4516 27.1015 82.503 27.1015C82.5449 27.1015 82.5773 27.1134 82.6001 27.1372C82.623 27.1601 82.6344 27.1929 82.6344 27.2358V27.2543L82.623 27.4757C82.6211 27.5195 82.6139 27.5471 82.6015 27.5585C82.5901 27.57 82.5692 27.5757 82.5387 27.5757L81.5118 27.5757C81.4566 27.5757 81.4137 27.5638 81.3833 27.54C81.3538 27.5162 81.339 27.4824 81.339 27.4386C81.339 27.4024 81.348 27.3672 81.3661 27.3329C81.3852 27.2977 81.4152 27.2605 81.4561 27.2215L82.0374 26.6602C82.1002 26.5993 82.1469 26.5383 82.1774 26.4774C82.2088 26.4164 82.2245 26.3555 82.2245 26.2946C82.2245 26.2089 82.2035 26.1451 82.1616 26.1032C82.1207 26.0613 82.0579 26.0403 81.9731 26.0403C81.9236 26.0403 81.8793 26.048 81.8403 26.0632C81.8022 26.0775 81.7727 26.0979 81.7517 26.1246C81.7403 26.1379 81.7265 26.1584 81.7103 26.186C81.6646 26.2603 81.6142 26.2974 81.5589 26.2974C81.5113 26.2974 81.4751 26.2817 81.4504 26.2503C81.4266 26.2189 81.4147 26.1722 81.4147 26.1103C81.4147 26.0465 81.4223 25.9989 81.4375 25.9675C81.4528 25.9361 81.4832 25.9047 81.5289 25.8732C81.6032 25.8237 81.6813 25.7871 81.7632 25.7633C81.846 25.7395 81.9355 25.7276 82.0317 25.7276C82.2116 25.7276 82.354 25.7761 82.4587 25.8732C82.5644 25.9704 82.6173 26.1008 82.6173 26.2646C82.6173 26.3741 82.5896 26.4793 82.5344 26.5802C82.4801 26.6802 82.3954 26.7802 82.2802 26.8801L81.8474 27.2543ZM84.092 26.5959C84.2015 26.6302 84.2829 26.6845 84.3363 26.7587C84.3896 26.8321 84.4162 26.9277 84.4162 27.0458C84.4162 27.2239 84.3558 27.3653 84.2349 27.47C84.1149 27.5738 83.9511 27.6257 83.7435 27.6257C83.576 27.6257 83.4374 27.5981 83.3279 27.5428C83.2184 27.4876 83.1637 27.4205 83.1637 27.3415C83.1637 27.2948 83.1784 27.2572 83.208 27.2286C83.2384 27.1991 83.2784 27.1844 83.3279 27.1844C83.3517 27.1844 83.4122 27.2058 83.5093 27.2486C83.6064 27.2915 83.6921 27.3129 83.7664 27.3129C83.8559 27.3129 83.9245 27.2891 83.9721 27.2415C84.0206 27.1929 84.0449 27.1239 84.0449 27.0344C84.0449 26.9382 84.0244 26.8697 83.9835 26.8287C83.9435 26.7878 83.8664 26.7649 83.7521 26.7602C83.6921 26.7583 83.6517 26.7468 83.6307 26.7259C83.6107 26.704 83.6007 26.6654 83.6007 26.6102C83.6007 26.534 83.6417 26.4902 83.7236 26.4788C83.735 26.4779 83.7435 26.4769 83.7493 26.476C83.8521 26.4617 83.9187 26.4374 83.9492 26.4031C83.9797 26.3679 83.9949 26.3112 83.9949 26.2332C83.9949 26.1656 83.9763 26.1132 83.9392 26.076C83.903 26.038 83.8516 26.0189 83.785 26.0189C83.7145 26.0189 83.6355 26.0413 83.5479 26.086C83.4603 26.1298 83.3998 26.1517 83.3665 26.1517C83.3294 26.1517 83.2994 26.1398 83.2765 26.116C83.2546 26.0913 83.2437 26.0603 83.2437 26.0232C83.2437 25.9423 83.2998 25.8728 83.4122 25.8147C83.5246 25.7566 83.6631 25.7276 83.8278 25.7276C83.9935 25.7276 84.1254 25.7704 84.2234 25.8561C84.3225 25.9418 84.372 26.0556 84.372 26.1974C84.372 26.2908 84.3491 26.3698 84.3034 26.4345C84.2587 26.4983 84.1882 26.5521 84.092 26.5959ZM86.0053 26.8616C86.0081 26.8625 86.011 26.8635 86.0139 26.8644C86.0167 26.8644 86.0215 26.8644 86.0281 26.8644C86.0472 26.8644 86.0691 26.8525 86.0938 26.8287C86.1186 26.804 86.1395 26.7916 86.1567 26.7916C86.1967 26.7916 86.2281 26.8016 86.2509 26.8216C86.2738 26.8406 86.2852 26.8678 86.2852 26.903C86.2852 26.9125 86.2843 26.9225 86.2824 26.933C86.2814 26.9435 86.2795 26.953 86.2766 26.9615L86.2452 27.0672C86.2395 27.0872 86.23 27.102 86.2167 27.1115C86.2033 27.121 86.1862 27.1258 86.1652 27.1258L86.0053 27.1258V27.3043L86.0895 27.3043C86.0981 27.3043 86.1091 27.3048 86.1224 27.3057C86.1357 27.3067 86.1443 27.3072 86.1481 27.3072C86.1824 27.3072 86.2114 27.32 86.2352 27.3457C86.259 27.3705 86.2709 27.4024 86.2709 27.4414C86.2709 27.489 86.2566 27.5233 86.2281 27.5443C86.2005 27.5652 86.1543 27.5757 86.0895 27.5757L85.4868 27.5757C85.4221 27.5757 85.3759 27.5652 85.3483 27.5443C85.3216 27.5233 85.3083 27.489 85.3083 27.4414C85.3083 27.3929 85.3221 27.3581 85.3497 27.3372C85.3773 27.3153 85.423 27.3043 85.4868 27.3043L85.6954 27.3043V27.1258L85.0369 27.1258C85.0122 27.1258 84.9931 27.1182 84.9798 27.1029C84.9674 27.0877 84.9613 27.0658 84.9613 27.0372V26.9501C84.9613 26.9149 84.9636 26.8878 84.9684 26.8687C84.9741 26.8487 84.9831 26.8278 84.9955 26.8059L85.5954 25.7861C85.6097 25.7623 85.6211 25.7476 85.6297 25.7418C85.6392 25.7361 85.652 25.7333 85.6682 25.7333C85.6768 25.7333 85.6839 25.7338 85.6896 25.7347C85.6963 25.7347 85.702 25.7352 85.7068 25.7361L85.961 25.7804C85.9753 25.7833 85.9862 25.7909 85.9939 25.8033C86.0015 25.8156 86.0053 25.8323 86.0053 25.8532V26.8616ZM85.6954 26.0718L85.2469 26.8616L85.6954 26.8616V26.0718ZM88.9506 26.0932V26.4231C89.0125 26.405 89.0686 26.3917 89.1191 26.3831C89.1696 26.3745 89.2167 26.3703 89.2605 26.3703C89.4319 26.3703 89.5704 26.4269 89.6761 26.5402C89.7818 26.6526 89.8346 26.8006 89.8346 26.9844C89.8346 27.192 89.7699 27.3505 89.6404 27.46C89.5109 27.5685 89.3229 27.6228 89.0762 27.6228C88.8991 27.6228 88.7644 27.6033 88.6721 27.5643C88.5807 27.5252 88.5349 27.4676 88.5349 27.3914C88.5349 27.3457 88.5511 27.3067 88.5835 27.2743C88.6159 27.241 88.6544 27.2243 88.6992 27.2243C88.7268 27.2243 88.7863 27.2381 88.8777 27.2658C88.9701 27.2934 89.0491 27.3072 89.1148 27.3072C89.2224 27.3072 89.3057 27.2796 89.3647 27.2243C89.4238 27.1682 89.4533 27.0891 89.4533 26.9873C89.4533 26.8882 89.4252 26.8097 89.369 26.7516C89.3138 26.6926 89.2386 26.663 89.1434 26.663C89.0824 26.663 89.0101 26.6826 88.9263 26.7216C88.8425 26.7606 88.7854 26.7802 88.7549 26.7802C88.7006 26.7802 88.6621 26.7654 88.6392 26.7359C88.6164 26.7054 88.6049 26.654 88.6049 26.5816V25.8904C88.6049 25.839 88.6116 25.8066 88.6249 25.7933C88.6392 25.7799 88.663 25.7733 88.6963 25.7733L89.6318 25.7733C89.6909 25.7733 89.7318 25.7852 89.7547 25.809C89.7785 25.8318 89.7904 25.8737 89.7904 25.9347C89.7904 25.9946 89.7789 26.0361 89.7561 26.0589C89.7332 26.0818 89.6918 26.0932 89.6318 26.0932L88.9506 26.0932ZM91.2851 27.0344C91.2851 26.9411 91.2594 26.8649 91.208 26.8059C91.1566 26.7459 91.0904 26.7159 91.0095 26.7159C90.9314 26.7159 90.8662 26.7449 90.8138 26.803C90.7615 26.8601 90.7353 26.9325 90.7353 27.0201C90.7353 27.1144 90.7619 27.1915 90.8152 27.2515C90.8695 27.3115 90.9386 27.3415 91.0223 27.3415C91.0995 27.3415 91.1623 27.3134 91.2109 27.2572C91.2604 27.2001 91.2851 27.1258 91.2851 27.0344ZM90.7296 26.5659C90.7762 26.5136 90.8319 26.4736 90.8967 26.446C90.9614 26.4174 91.0304 26.4031 91.1038 26.4031C91.257 26.4031 91.3861 26.4617 91.4908 26.5788C91.5955 26.6949 91.6479 26.8392 91.6479 27.0115C91.6479 27.1934 91.5889 27.3405 91.4708 27.4529C91.3537 27.5643 91.198 27.62 91.0038 27.62C90.8019 27.62 90.6429 27.5466 90.5267 27.4C90.4106 27.2524 90.3525 27.0496 90.3525 26.7916C90.3525 26.4717 90.442 26.2146 90.621 26.0203C90.801 25.8252 91.039 25.7276 91.3351 25.7276C91.4341 25.7276 91.5051 25.7357 91.5479 25.7518C91.5908 25.768 91.6122 25.7947 91.6122 25.8318C91.6122 25.9185 91.5451 25.9656 91.4108 25.9732C91.3546 25.977 91.3099 25.9808 91.2766 25.9846C91.128 26.0008 91.0095 26.0556 90.9209 26.1489C90.8333 26.2422 90.7695 26.3812 90.7296 26.5659ZM93.3069 25.9261L92.8442 27.5343C92.8366 27.559 92.8266 27.5757 92.8142 27.5843C92.8018 27.5938 92.7837 27.5985 92.7599 27.5985L92.4957 27.5985C92.4824 27.5985 92.4709 27.5943 92.4614 27.5857C92.4519 27.5771 92.4471 27.5671 92.4471 27.5557C92.4471 27.5433 92.4476 27.5343 92.4486 27.5286C92.4495 27.5219 92.4509 27.5162 92.4529 27.5114L92.9642 26.0932L92.35 26.0932L92.3443 26.1189C92.3395 26.1503 92.3248 26.176 92.3 26.196C92.2762 26.2151 92.2472 26.2246 92.2129 26.2246C92.1729 26.2246 92.1434 26.2155 92.1244 26.1974C92.1053 26.1794 92.0958 26.1513 92.0958 26.1132C92.0958 26.1094 92.0963 26.1037 92.0972 26.096C92.0982 26.0884 92.0987 26.0822 92.0987 26.0775L92.1244 25.8561C92.1272 25.8294 92.1372 25.809 92.1544 25.7947C92.1715 25.7804 92.1939 25.7733 92.2215 25.7733L93.2312 25.7733C93.2579 25.7733 93.2769 25.7795 93.2884 25.7918C93.3007 25.8033 93.3069 25.8218 93.3069 25.8475V25.9261ZM94.5903 26.8087C94.5027 26.8087 94.4323 26.833 94.379 26.8816C94.3256 26.9301 94.299 26.9949 94.299 27.0758C94.299 27.1529 94.3261 27.2167 94.3804 27.2672C94.4347 27.3167 94.5046 27.3415 94.5903 27.3415C94.6789 27.3415 94.7498 27.3172 94.8031 27.2686C94.8565 27.2201 94.8831 27.1558 94.8831 27.0758C94.8831 26.9968 94.856 26.9325 94.8017 26.883C94.7474 26.8335 94.677 26.8087 94.5903 26.8087ZM94.916 26.6516C95.0236 26.6907 95.1064 26.7483 95.1645 26.8244C95.2226 26.9006 95.2516 26.9892 95.2516 27.0901C95.2516 27.2472 95.1907 27.3753 95.0688 27.4743C94.9469 27.5733 94.7874 27.6228 94.5903 27.6228C94.397 27.6228 94.2385 27.5733 94.1147 27.4743C93.9919 27.3753 93.9305 27.2491 93.9305 27.0958C93.9305 26.993 93.9595 26.9035 94.0176 26.8273C94.0757 26.7502 94.1585 26.6916 94.2661 26.6516C94.1614 26.6059 94.0824 26.5483 94.029 26.4788C93.9767 26.4093 93.9505 26.3274 93.9505 26.2332C93.9505 26.0865 94.01 25.9656 94.129 25.8704C94.249 25.7752 94.4028 25.7276 94.5903 25.7276C94.7779 25.7276 94.9321 25.7756 95.0531 25.8718C95.174 25.968 95.2345 26.0884 95.2345 26.2332C95.2345 26.3274 95.2073 26.4098 95.153 26.4802C95.0997 26.5507 95.0207 26.6078 94.916 26.6516ZM94.5903 25.9961C94.5103 25.9961 94.4442 26.0199 94.3918 26.0675C94.3394 26.1151 94.3133 26.1751 94.3133 26.2474C94.3133 26.3198 94.3394 26.3798 94.3918 26.4274C94.4442 26.475 94.5103 26.4988 94.5903 26.4988C94.6722 26.4988 94.7384 26.476 94.7889 26.4302C94.8403 26.3836 94.866 26.3227 94.866 26.2474C94.866 26.1751 94.8403 26.1151 94.7889 26.0675C94.7374 26.0199 94.6713 25.9961 94.5903 25.9961ZM98.394 27.2715L98.6253 27.2715C98.6891 27.2715 98.7353 27.2834 98.7639 27.3072C98.7924 27.331 98.8067 27.37 98.8067 27.4243C98.8067 27.4776 98.7929 27.5162 98.7653 27.54C98.7377 27.5638 98.691 27.5757 98.6253 27.5757L97.7827 27.5757C97.717 27.5757 97.6703 27.5638 97.6427 27.54C97.6151 27.5162 97.6013 27.4776 97.6013 27.4243C97.6013 27.37 97.6151 27.331 97.6427 27.3072C97.6713 27.2834 97.7179 27.2715 97.7827 27.2715L98.0483 27.2715V26.0661L97.8884 26.1075C97.8636 26.1132 97.8432 26.1175 97.827 26.1203C97.8108 26.1232 97.7989 26.1246 97.7913 26.1246C97.7522 26.1246 97.7218 26.1122 97.6999 26.0875C97.6789 26.0627 97.6684 26.0275 97.6684 25.9818C97.6684 25.9485 97.6803 25.9204 97.7041 25.8975C97.7279 25.8747 97.7646 25.8571 97.8141 25.8447L98.1683 25.7476C98.1978 25.7399 98.2221 25.7342 98.2412 25.7304C98.2602 25.7266 98.2759 25.7247 98.2883 25.7247C98.3264 25.7247 98.3535 25.7352 98.3697 25.7561C98.3859 25.7771 98.394 25.8123 98.394 25.8618V27.2715ZM99.7802 27.2543L100.28 27.2543V27.2458C100.28 27.1972 100.293 27.161 100.319 27.1372C100.345 27.1134 100.384 27.1015 100.436 27.1015C100.478 27.1015 100.51 27.1134 100.533 27.1372C100.556 27.1601 100.567 27.1929 100.567 27.2358V27.2543L100.556 27.4757C100.554 27.5195 100.547 27.5471 100.534 27.5585C100.523 27.57 100.502 27.5757 100.471 27.5757L99.4446 27.5757C99.3893 27.5757 99.3465 27.5638 99.316 27.54C99.2865 27.5162 99.2718 27.4824 99.2718 27.4386C99.2718 27.4024 99.2808 27.3672 99.2989 27.3329C99.3179 27.2977 99.3479 27.2605 99.3889 27.2215L99.9702 26.6602C100.033 26.5993 100.08 26.5383 100.11 26.4774C100.142 26.4164 100.157 26.3555 100.157 26.2946C100.157 26.2089 100.136 26.1451 100.094 26.1032C100.053 26.0613 99.9906 26.0403 99.9059 26.0403C99.8564 26.0403 99.8121 26.048 99.7731 26.0632C99.735 26.0775 99.7055 26.0979 99.6845 26.1246C99.6731 26.1379 99.6593 26.1584 99.6431 26.186C99.5974 26.2603 99.5469 26.2974 99.4917 26.2974C99.4441 26.2974 99.4079 26.2817 99.3832 26.2503C99.3594 26.2189 99.3475 26.1722 99.3475 26.1103C99.3475 26.0465 99.3551 25.9989 99.3703 25.9675C99.3855 25.9361 99.416 25.9047 99.4617 25.8732C99.536 25.8237 99.6141 25.7871 99.6959 25.7633C99.7788 25.7395 99.8683 25.7276 99.9644 25.7276C100.144 25.7276 100.287 25.7761 100.391 25.8732C100.497 25.9704 100.55 26.1008 100.55 26.2646C100.55 26.3741 100.522 26.4793 100.467 26.5802C100.413 26.6802 100.328 26.7802 100.213 26.8801L99.7802 27.2543ZM102.025 26.5959C102.134 26.6302 102.216 26.6845 102.269 26.7587C102.322 26.8321 102.349 26.9277 102.349 27.0458C102.349 27.2239 102.289 27.3653 102.168 27.47C102.048 27.5738 101.884 27.6257 101.676 27.6257C101.509 27.6257 101.37 27.5981 101.261 27.5428C101.151 27.4876 101.096 27.4205 101.096 27.3415C101.096 27.2948 101.111 27.2572 101.141 27.2286C101.171 27.1991 101.211 27.1844 101.261 27.1844C101.285 27.1844 101.345 27.2058 101.442 27.2486C101.539 27.2915 101.625 27.3129 101.699 27.3129C101.789 27.3129 101.857 27.2891 101.905 27.2415C101.953 27.1929 101.978 27.1239 101.978 27.0344C101.978 26.9382 101.957 26.8697 101.916 26.8287C101.876 26.7878 101.799 26.7649 101.685 26.7602C101.625 26.7583 101.584 26.7468 101.563 26.7259C101.543 26.704 101.533 26.6654 101.533 26.6102C101.533 26.534 101.574 26.4902 101.656 26.4788C101.668 26.4779 101.676 26.4769 101.682 26.476C101.785 26.4617 101.852 26.4374 101.882 26.4031C101.912 26.3679 101.928 26.3112 101.928 26.2332C101.928 26.1656 101.909 26.1132 101.872 26.076C101.836 26.038 101.784 26.0189 101.718 26.0189C101.647 26.0189 101.568 26.0413 101.481 26.086C101.393 26.1298 101.333 26.1517 101.299 26.1517C101.262 26.1517 101.232 26.1398 101.209 26.116C101.187 26.0913 101.176 26.0603 101.176 26.0232C101.176 25.9423 101.233 25.8728 101.345 25.8147C101.457 25.7566 101.596 25.7276 101.761 25.7276C101.926 25.7276 102.058 25.7704 102.156 25.8561C102.255 25.9418 102.305 26.0556 102.305 26.1974C102.305 26.2908 102.282 26.3698 102.236 26.4345C102.191 26.4983 102.121 26.5521 102.025 26.5959ZM103.938 26.8616C103.941 26.8625 103.944 26.8635 103.947 26.8644C103.949 26.8644 103.954 26.8644 103.961 26.8644C103.98 26.8644 104.002 26.8525 104.027 26.8287C104.051 26.804 104.072 26.7916 104.089 26.7916C104.129 26.7916 104.161 26.8016 104.184 26.8216C104.207 26.8406 104.218 26.8678 104.218 26.903C104.218 26.9125 104.217 26.9225 104.215 26.933C104.214 26.9435 104.212 26.953 104.209 26.9615L104.178 27.0672C104.172 27.0872 104.163 27.102 104.149 27.1115C104.136 27.121 104.119 27.1258 104.098 27.1258L103.938 27.1258V27.3043L104.022 27.3043C104.031 27.3043 104.042 27.3048 104.055 27.3057C104.068 27.3067 104.077 27.3072 104.081 27.3072C104.115 27.3072 104.144 27.32 104.168 27.3457C104.192 27.3705 104.204 27.4024 104.204 27.4414C104.204 27.489 104.189 27.5233 104.161 27.5443C104.133 27.5652 104.087 27.5757 104.022 27.5757L103.42 27.5757C103.355 27.5757 103.309 27.5652 103.281 27.5443C103.254 27.5233 103.241 27.489 103.241 27.4414C103.241 27.3929 103.255 27.3581 103.282 27.3372C103.31 27.3153 103.356 27.3043 103.42 27.3043L103.628 27.3043V27.1258L102.97 27.1258C102.945 27.1258 102.926 27.1182 102.913 27.1029C102.9 27.0877 102.894 27.0658 102.894 27.0372V26.9501C102.894 26.9149 102.896 26.8878 102.901 26.8687C102.907 26.8487 102.916 26.8278 102.928 26.8059L103.528 25.7861C103.542 25.7623 103.554 25.7476 103.562 25.7418C103.572 25.7361 103.585 25.7333 103.601 25.7333C103.61 25.7333 103.617 25.7338 103.622 25.7347C103.629 25.7347 103.635 25.7352 103.64 25.7361L103.894 25.7804C103.908 25.7833 103.919 25.7909 103.927 25.8033C103.934 25.8156 103.938 25.8323 103.938 25.8532V26.8616ZM103.628 26.0718L103.18 26.8616L103.628 26.8616V26.0718ZM106.883 26.0932V26.4231C106.945 26.405 107.001 26.3917 107.052 26.3831C107.102 26.3745 107.149 26.3703 107.193 26.3703C107.365 26.3703 107.503 26.4269 107.609 26.5402C107.715 26.6526 107.767 26.8006 107.767 26.9844C107.767 27.192 107.703 27.3505 107.573 27.46C107.444 27.5685 107.256 27.6228 107.009 27.6228C106.832 27.6228 106.697 27.6033 106.605 27.5643C106.513 27.5252 106.468 27.4676 106.468 27.3914C106.468 27.3457 106.484 27.3067 106.516 27.2743C106.549 27.241 106.587 27.2243 106.632 27.2243C106.66 27.2243 106.719 27.2381 106.81 27.2658C106.903 27.2934 106.982 27.3072 107.048 27.3072C107.155 27.3072 107.238 27.2796 107.298 27.2243C107.357 27.1682 107.386 27.0891 107.386 26.9873C107.386 26.8882 107.358 26.8097 107.302 26.7516C107.247 26.6926 107.171 26.663 107.076 26.663C107.015 26.663 106.943 26.6826 106.859 26.7216C106.775 26.7606 106.718 26.7802 106.688 26.7802C106.633 26.7802 106.595 26.7654 106.572 26.7359C106.549 26.7054 106.538 26.654 106.538 26.5816V25.8904C106.538 25.839 106.544 25.8066 106.558 25.7933C106.572 25.7799 106.596 25.7733 106.629 25.7733L107.565 25.7733C107.624 25.7733 107.665 25.7852 107.687 25.809C107.711 25.8318 107.723 25.8737 107.723 25.9347C107.723 25.9946 107.712 26.0361 107.689 26.0589C107.666 26.0818 107.625 26.0932 107.565 26.0932L106.883 26.0932ZM109.218 27.0344C109.218 26.9411 109.192 26.8649 109.141 26.8059C109.089 26.7459 109.023 26.7159 108.942 26.7159C108.864 26.7159 108.799 26.7449 108.747 26.803C108.694 26.8601 108.668 26.9325 108.668 27.0201C108.668 27.1144 108.695 27.1915 108.748 27.2515C108.802 27.3115 108.871 27.3415 108.955 27.3415C109.032 27.3415 109.095 27.3134 109.144 27.2572C109.193 27.2001 109.218 27.1258 109.218 27.0344ZM108.662 26.5659C108.709 26.5136 108.765 26.4736 108.829 26.446C108.894 26.4174 108.963 26.4031 109.037 26.4031C109.19 26.4031 109.319 26.4617 109.424 26.5788C109.528 26.6949 109.581 26.8392 109.581 27.0115C109.581 27.1934 109.522 27.3405 109.404 27.4529C109.286 27.5643 109.131 27.62 108.937 27.62C108.735 27.62 108.576 27.5466 108.46 27.4C108.343 27.2524 108.285 27.0496 108.285 26.7916C108.285 26.4717 108.375 26.2146 108.554 26.0203C108.734 25.8252 108.972 25.7276 109.268 25.7276C109.367 25.7276 109.438 25.7357 109.481 25.7518C109.524 25.768 109.545 25.7947 109.545 25.8318C109.545 25.9185 109.478 25.9656 109.344 25.9732C109.287 25.977 109.243 25.9808 109.209 25.9846C109.061 26.0008 108.942 26.0556 108.854 26.1489C108.766 26.2422 108.702 26.3812 108.662 26.5659ZM111.24 25.9261L110.777 27.5343C110.769 27.559 110.759 27.5757 110.747 27.5843C110.735 27.5938 110.716 27.5985 110.693 27.5985L110.428 27.5985C110.415 27.5985 110.404 27.5943 110.394 27.5857C110.385 27.5771 110.38 27.5671 110.38 27.5557C110.38 27.5433 110.38 27.5343 110.381 27.5286C110.382 27.5219 110.384 27.5162 110.386 27.5114L110.897 26.0932L110.283 26.0932L110.277 26.1189C110.272 26.1503 110.258 26.176 110.233 26.196C110.209 26.2151 110.18 26.2246 110.146 26.2246C110.106 26.2246 110.076 26.2155 110.057 26.1974C110.038 26.1794 110.029 26.1513 110.029 26.1132C110.029 26.1094 110.029 26.1037 110.03 26.096C110.031 26.0884 110.031 26.0822 110.031 26.0775L110.057 25.8561C110.06 25.8294 110.07 25.809 110.087 25.7947C110.104 25.7804 110.127 25.7733 110.154 25.7733L111.164 25.7733C111.191 25.7733 111.21 25.7795 111.221 25.7918C111.234 25.8033 111.24 25.8218 111.24 25.8475V25.9261ZM112.523 26.8087C112.435 26.8087 112.365 26.833 112.312 26.8816C112.258 26.9301 112.232 26.9949 112.232 27.0758C112.232 27.1529 112.259 27.2167 112.313 27.2672C112.367 27.3167 112.437 27.3415 112.523 27.3415C112.612 27.3415 112.683 27.3172 112.736 27.2686C112.789 27.2201 112.816 27.1558 112.816 27.0758C112.816 26.9968 112.789 26.9325 112.734 26.883C112.68 26.8335 112.61 26.8087 112.523 26.8087ZM112.849 26.6516C112.956 26.6907 113.039 26.7483 113.097 26.8244C113.155 26.9006 113.184 26.9892 113.184 27.0901C113.184 27.2472 113.123 27.3753 113.002 27.4743C112.88 27.5733 112.72 27.6228 112.523 27.6228C112.33 27.6228 112.171 27.5733 112.047 27.4743C111.925 27.3753 111.863 27.2491 111.863 27.0958C111.863 26.993 111.892 26.9035 111.95 26.8273C112.008 26.7502 112.091 26.6916 112.199 26.6516C112.094 26.6059 112.015 26.5483 111.962 26.4788C111.909 26.4093 111.883 26.3274 111.883 26.2332C111.883 26.0865 111.943 25.9656 112.062 25.8704C112.182 25.7752 112.336 25.7276 112.523 25.7276C112.711 25.7276 112.865 25.7756 112.986 25.8718C113.107 25.968 113.167 26.0884 113.167 26.2332C113.167 26.3274 113.14 26.4098 113.086 26.4802C113.032 26.5507 112.953 26.6078 112.849 26.6516ZM112.523 25.9961C112.443 25.9961 112.377 26.0199 112.325 26.0675C112.272 26.1151 112.246 26.1751 112.246 26.2474C112.246 26.3198 112.272 26.3798 112.325 26.4274C112.377 26.475 112.443 26.4988 112.523 26.4988C112.605 26.4988 112.671 26.476 112.722 26.4302C112.773 26.3836 112.799 26.3227 112.799 26.2474C112.799 26.1751 112.773 26.1151 112.722 26.0675C112.67 26.0199 112.604 25.9961 112.523 25.9961Z" fill="url(#paint4_linear_3707_37944)"/>
<g id="Group 27_2">
<rect id="Bezels_4" x="79.3672" y="23.251" width="4.55" height="6.87388" rx="1.3" transform="rotate(-90 79.3672 23.251)" fill="url(#paint5_linear_3707_37944)"/>
</g>
<g id="Group 29_2">
<rect id="Bezels_5" x="79.3672" y="31.3755" width="1.625" height="11.1291" rx="1.3" transform="rotate(-90 79.3672 31.3755)" fill="#B6D1D0"/>
<rect id="Bezels_6" x="91.8057" y="31.3755" width="1.625" height="5.23724" rx="1.3" transform="rotate(-90 91.8057 31.3755)" fill="#B6D1D0"/>
</g>
</g>
</g>
</g>
</g>
<g id="Group 15">
<rect id="Bezels_7" x="38.5776" y="59.5" width="36.5" height="61.9404" rx="8" transform="rotate(-90 38.5776 59.5)" fill="url(#paint6_linear_3707_37944)"/>
<g id="Group 31_3">
<path id="Union_3" fill-rule="evenodd" clip-rule="evenodd" d="M95.986 31.5C96.3021 31.0822 96.4894 30.5628 96.4894 30C96.4894 28.6193 95.3621 27.5 93.9715 27.5C92.5809 27.5 91.4536 28.6193 91.4536 30C91.4536 30.5628 91.6409 31.0822 91.957 31.5C91.6409 31.9178 91.4536 32.4372 91.4536 33C91.4536 34.3807 92.5809 35.5 93.9715 35.5C95.3621 35.5 96.4894 34.3807 96.4894 33C96.4894 32.4372 96.3021 31.9178 95.986 31.5Z" fill="#B6D1D0"/>
<path id="1234 5678 1234 5678_3" d="M44.2896 48.532H44.6455C44.7437 48.532 44.8147 48.5503 44.8586 48.5869C44.9026 48.6235 44.9246 48.6836 44.9246 48.7671C44.9246 48.8491 44.9033 48.9084 44.8608 48.9451C44.8184 48.9817 44.7466 49 44.6455 49H43.3491C43.248 49 43.1763 48.9817 43.1338 48.9451C43.0913 48.9084 43.0701 48.8491 43.0701 48.7671C43.0701 48.6836 43.0913 48.6235 43.1338 48.5869C43.1777 48.5503 43.2495 48.532 43.3491 48.532H43.7578V46.6775L43.5117 46.7412C43.4736 46.75 43.4421 46.7566 43.4172 46.761C43.3923 46.7654 43.374 46.7676 43.3623 46.7676C43.3022 46.7676 43.2554 46.7485 43.2217 46.7104C43.1895 46.6724 43.1733 46.6182 43.1733 46.5479C43.1733 46.4966 43.1917 46.4534 43.2283 46.4182C43.2649 46.3831 43.3213 46.356 43.3975 46.3369L43.9424 46.1875C43.9878 46.1758 44.0251 46.167 44.0544 46.1611C44.0837 46.1553 44.1079 46.1523 44.127 46.1523C44.1855 46.1523 44.2273 46.1685 44.2522 46.2007C44.2771 46.2329 44.2896 46.2871 44.2896 46.3633V48.532ZM46.4222 48.5056H47.1913V48.4924C47.1913 48.4177 47.211 48.3621 47.2506 48.3254C47.2916 48.2888 47.3517 48.2705 47.4308 48.2705C47.4952 48.2705 47.545 48.2888 47.5802 48.3254C47.6153 48.3606 47.6329 48.4111 47.6329 48.4771V48.5056L47.6153 48.8462C47.6124 48.9136 47.6014 48.9561 47.5824 48.9736C47.5648 48.9912 47.5326 49 47.4857 49H45.9059C45.8209 49 45.755 48.9817 45.7081 48.9451C45.6627 48.9084 45.64 48.8564 45.64 48.7891C45.64 48.7334 45.6539 48.6792 45.6817 48.6265C45.711 48.5723 45.7572 48.5151 45.8202 48.4551L46.7145 47.5916C46.8111 47.4978 46.8829 47.4041 46.9298 47.3103C46.9781 47.2166 47.0023 47.1228 47.0023 47.0291C47.0023 46.8972 46.9701 46.7991 46.9056 46.7346C46.8426 46.6702 46.7459 46.6379 46.6156 46.6379C46.5394 46.6379 46.4713 46.6497 46.4112 46.6731C46.3526 46.6951 46.3072 46.7266 46.275 46.7676C46.2574 46.7881 46.2362 46.8196 46.2113 46.8621C46.141 46.9763 46.0633 47.0334 45.9784 47.0334C45.9051 47.0334 45.8495 47.0093 45.8114 46.9609C45.7748 46.9126 45.7564 46.8408 45.7564 46.7456C45.7564 46.6475 45.7682 46.5742 45.7916 46.5259C45.815 46.4775 45.8619 46.4292 45.9322 46.3809C46.0465 46.3047 46.1666 46.2483 46.2926 46.2117C46.42 46.175 46.5577 46.1567 46.7057 46.1567C46.9825 46.1567 47.2015 46.2314 47.3626 46.3809C47.5252 46.5303 47.6065 46.731 47.6065 46.9829C47.6065 47.1514 47.5641 47.3132 47.4791 47.4685C47.3956 47.6223 47.2652 47.7761 47.088 47.9299L46.4222 48.5056ZM49.8754 47.4927C50.0439 47.5454 50.1691 47.6289 50.2512 47.7432C50.3332 47.856 50.3742 48.0032 50.3742 48.1848C50.3742 48.4587 50.2812 48.6763 50.0952 48.8374C49.9106 48.9971 49.6586 49.0769 49.3393 49.0769C49.0815 49.0769 48.8684 49.0344 48.6999 48.9495C48.5314 48.8645 48.4472 48.7612 48.4472 48.6396C48.4472 48.5679 48.4699 48.51 48.5153 48.4661C48.5622 48.4207 48.6237 48.3979 48.6999 48.3979C48.7365 48.3979 48.8295 48.4309 48.979 48.4968C49.1284 48.5627 49.2602 48.5957 49.3745 48.5957C49.5122 48.5957 49.6176 48.5591 49.6909 48.4858C49.7656 48.4111 49.8029 48.3049 49.8029 48.1672C49.8029 48.0193 49.7714 47.9138 49.7084 47.8508C49.6469 47.7878 49.5283 47.7527 49.3525 47.7454C49.2602 47.7424 49.1979 47.7249 49.1657 47.6926C49.135 47.6589 49.1196 47.5996 49.1196 47.5146C49.1196 47.3975 49.1826 47.3301 49.3085 47.3125C49.3261 47.311 49.3393 47.3096 49.3481 47.3081C49.5063 47.2861 49.6088 47.2488 49.6557 47.196C49.7026 47.1418 49.726 47.0547 49.726 46.9346C49.726 46.8306 49.6975 46.75 49.6403 46.6929C49.5847 46.6343 49.5056 46.605 49.403 46.605C49.2946 46.605 49.173 46.6394 49.0383 46.7083C48.9035 46.7756 48.8105 46.8093 48.7592 46.8093C48.7021 46.8093 48.656 46.791 48.6208 46.7544C48.5871 46.7163 48.5703 46.6687 48.5703 46.6116C48.5703 46.4871 48.6567 46.3801 48.8295 46.2908C49.0024 46.2014 49.2155 46.1567 49.4689 46.1567C49.7238 46.1567 49.9267 46.2227 50.0776 46.3545C50.2299 46.4863 50.3061 46.6614 50.3061 46.8796C50.3061 47.0232 50.2709 47.1448 50.2006 47.2444C50.1318 47.3425 50.0234 47.4253 49.8754 47.4927ZM52.8189 47.9014C52.8233 47.9028 52.8277 47.9043 52.8321 47.9058C52.8365 47.9058 52.8438 47.9058 52.8541 47.9058C52.8833 47.9058 52.917 47.8875 52.9551 47.8508C52.9932 47.8127 53.0254 47.7937 53.0518 47.7937C53.1133 47.7937 53.1617 47.8091 53.1968 47.8398C53.232 47.8691 53.2496 47.9109 53.2496 47.9651C53.2496 47.9797 53.2481 47.9951 53.2452 48.0112C53.2437 48.0273 53.2408 48.042 53.2364 48.0552L53.188 48.2178C53.1792 48.2485 53.1646 48.2712 53.1441 48.2859C53.1236 48.3005 53.0972 48.3079 53.065 48.3079H52.8189V48.5825H52.9485C52.9617 48.5825 52.9786 48.5833 52.9991 48.5847C53.0196 48.5862 53.0328 48.5869 53.0386 48.5869C53.0914 48.5869 53.136 48.6067 53.1727 48.6462C53.2093 48.6843 53.2276 48.7334 53.2276 48.7935C53.2276 48.8667 53.2056 48.9194 53.1617 48.9517C53.1192 48.9839 53.0481 49 52.9485 49H52.0213C51.9217 49 51.8506 48.9839 51.8082 48.9517C51.7671 48.9194 51.7466 48.8667 51.7466 48.7935C51.7466 48.7188 51.7679 48.6653 51.8104 48.6331C51.8528 48.5994 51.9231 48.5825 52.0213 48.5825H52.3421V48.3079H51.3292C51.2911 48.3079 51.2618 48.2961 51.2413 48.2727C51.2222 48.2493 51.2127 48.2156 51.2127 48.1716V48.0376C51.2127 47.9834 51.2164 47.9417 51.2237 47.9124C51.2325 47.8816 51.2464 47.8494 51.2654 47.8157L52.1883 46.2468C52.2103 46.2102 52.2278 46.1875 52.241 46.1787C52.2557 46.1699 52.2754 46.1655 52.3003 46.1655C52.3135 46.1655 52.3245 46.1663 52.3333 46.1677C52.3436 46.1677 52.3523 46.1685 52.3597 46.1699L52.7508 46.238C52.7728 46.2424 52.7896 46.2542 52.8013 46.2732C52.813 46.2922 52.8189 46.3179 52.8189 46.3501V47.9014ZM52.3421 46.6863L51.6521 47.9014H52.3421V46.6863ZM57.3501 46.7192V47.2268C57.4453 47.199 57.5317 47.1785 57.6094 47.1653C57.687 47.1521 57.7595 47.1455 57.8269 47.1455C58.0906 47.1455 58.3037 47.2327 58.4663 47.407C58.6289 47.5798 58.7102 47.8076 58.7102 48.0903C58.7102 48.4097 58.6106 48.6536 58.4114 48.822C58.2122 48.989 57.9229 49.0725 57.5435 49.0725C57.271 49.0725 57.0637 49.0425 56.9216 48.9824C56.781 48.9224 56.7107 48.8337 56.7107 48.7166C56.7107 48.6462 56.7356 48.5862 56.7854 48.5364C56.8352 48.4851 56.8945 48.4595 56.9634 48.4595C57.0059 48.4595 57.0974 48.4807 57.238 48.5232C57.3801 48.5657 57.5017 48.5869 57.6028 48.5869C57.7683 48.5869 57.8965 48.5444 57.9873 48.4595C58.0781 48.373 58.1235 48.2515 58.1235 48.0947C58.1235 47.9424 58.0803 47.8215 57.9939 47.7322C57.9089 47.6414 57.7932 47.5959 57.6467 47.5959C57.553 47.5959 57.4417 47.626 57.3127 47.686C57.1838 47.7461 57.0959 47.7761 57.0491 47.7761C56.9656 47.7761 56.9062 47.7534 56.8711 47.708C56.8359 47.6611 56.8184 47.582 56.8184 47.4707V46.4072C56.8184 46.3281 56.8286 46.2783 56.8491 46.2578C56.8711 46.2373 56.9077 46.2271 56.959 46.2271H58.3982C58.489 46.2271 58.552 46.2454 58.5872 46.282C58.6238 46.3171 58.6421 46.3816 58.6421 46.4753C58.6421 46.5676 58.6245 46.6313 58.5894 46.6665C58.5542 46.7017 58.4905 46.7192 58.3982 46.7192H57.3501ZM60.9417 48.1672C60.9417 48.0237 60.9022 47.9065 60.8231 47.8157C60.744 47.7234 60.6422 47.6772 60.5177 47.6772C60.3976 47.6772 60.2972 47.7219 60.2167 47.8113C60.1361 47.8992 60.0958 48.0105 60.0958 48.1453C60.0958 48.2903 60.1368 48.4089 60.2188 48.5012C60.3023 48.5935 60.4085 48.6396 60.5375 48.6396C60.6561 48.6396 60.7528 48.5964 60.8275 48.51C60.9037 48.4221 60.9417 48.3079 60.9417 48.1672ZM60.087 47.4465C60.1588 47.366 60.2445 47.3044 60.3441 47.262C60.4437 47.218 60.5499 47.196 60.6627 47.196C60.8985 47.196 61.097 47.2861 61.2582 47.4663C61.4193 47.645 61.4999 47.8669 61.4999 48.1321C61.4999 48.4119 61.409 48.6382 61.2274 48.811C61.0472 48.9824 60.8077 49.0681 60.5089 49.0681C60.1983 49.0681 59.9537 48.9553 59.775 48.7297C59.5963 48.5027 59.5069 48.1907 59.5069 47.7937C59.5069 47.3015 59.6446 46.906 59.92 46.6072C60.1969 46.3069 60.5631 46.1567 61.0187 46.1567C61.171 46.1567 61.2801 46.1692 61.346 46.1941C61.412 46.219 61.4449 46.26 61.4449 46.3171C61.4449 46.4504 61.3417 46.5229 61.1351 46.5347C61.0487 46.5405 60.9798 46.5464 60.9286 46.5522C60.7 46.5771 60.5177 46.6614 60.3814 46.8049C60.2467 46.9485 60.1485 47.1624 60.087 47.4465ZM64.0522 46.4622L63.3403 48.9363C63.3286 48.9744 63.3132 49 63.2941 49.0132C63.2751 49.0278 63.2473 49.0352 63.2106 49.0352H62.8041C62.7836 49.0352 62.7661 49.0286 62.7514 49.0154C62.7368 49.0022 62.7294 48.9868 62.7294 48.9692C62.7294 48.9502 62.7302 48.9363 62.7316 48.9275C62.7331 48.9172 62.7353 48.9084 62.7382 48.9011L63.5249 46.7192H62.58L62.5712 46.7588C62.5639 46.8071 62.5412 46.8467 62.5031 46.8774C62.4665 46.9067 62.4218 46.9214 62.3691 46.9214C62.3076 46.9214 62.2622 46.9075 62.2329 46.8796C62.2036 46.8518 62.1889 46.8086 62.1889 46.75C62.1889 46.7441 62.1896 46.7354 62.1911 46.7236C62.1926 46.7119 62.1933 46.7024 62.1933 46.6951L62.2329 46.3545C62.2373 46.3135 62.2526 46.282 62.279 46.26C62.3054 46.238 62.3398 46.2271 62.3823 46.2271H63.9357C63.9768 46.2271 64.0061 46.2366 64.0236 46.2556C64.0427 46.2732 64.0522 46.3018 64.0522 46.3413V46.4622ZM66.0267 47.8201C65.8919 47.8201 65.7835 47.8574 65.7015 47.9321C65.6194 48.0068 65.5784 48.1064 65.5784 48.231C65.5784 48.3496 65.6202 48.4478 65.7037 48.5254C65.7872 48.6016 65.8948 48.6396 66.0267 48.6396C66.1629 48.6396 66.272 48.6023 66.3541 48.5276C66.4361 48.4529 66.4771 48.354 66.4771 48.231C66.4771 48.1094 66.4354 48.0105 66.3519 47.9343C66.2684 47.8582 66.16 47.8201 66.0267 47.8201ZM66.5276 47.5784C66.6932 47.6384 66.8206 47.7271 66.91 47.8442C66.9993 47.9614 67.044 48.0977 67.044 48.2529C67.044 48.4946 66.9502 48.6917 66.7627 48.844C66.5752 48.9963 66.3299 49.0725 66.0267 49.0725C65.7293 49.0725 65.4854 48.9963 65.295 48.844C65.106 48.6917 65.0115 48.4976 65.0115 48.2617C65.0115 48.1035 65.0562 47.9658 65.1456 47.8486C65.2349 47.73 65.3624 47.6399 65.5279 47.5784C65.3667 47.5081 65.2452 47.4194 65.1631 47.3125C65.0826 47.2056 65.0423 47.0796 65.0423 46.9346C65.0423 46.709 65.1338 46.5229 65.3169 46.3765C65.5015 46.23 65.7381 46.1567 66.0267 46.1567C66.3152 46.1567 66.5525 46.2307 66.7386 46.3787C66.9246 46.5266 67.0176 46.7119 67.0176 46.9346C67.0176 47.0796 66.9759 47.2063 66.8924 47.3147C66.8104 47.4231 66.6888 47.511 66.5276 47.5784ZM66.0267 46.5698C65.9036 46.5698 65.8018 46.6064 65.7212 46.6797C65.6407 46.7529 65.6004 46.8452 65.6004 46.9565C65.6004 47.0679 65.6407 47.1602 65.7212 47.2334C65.8018 47.3066 65.9036 47.3433 66.0267 47.3433C66.1526 47.3433 66.2544 47.3081 66.3321 47.2378C66.4112 47.166 66.4507 47.0723 66.4507 46.9565C66.4507 46.8452 66.4112 46.7529 66.3321 46.6797C66.253 46.6064 66.1512 46.5698 66.0267 46.5698ZM71.8784 48.532H72.2344C72.3325 48.532 72.4036 48.5503 72.4475 48.5869C72.4915 48.6235 72.5134 48.6836 72.5134 48.7671C72.5134 48.8491 72.4922 48.9084 72.4497 48.9451C72.4072 48.9817 72.3354 49 72.2344 49H70.938C70.8369 49 70.7651 48.9817 70.7227 48.9451C70.6802 48.9084 70.6589 48.8491 70.6589 48.7671C70.6589 48.6836 70.6802 48.6235 70.7227 48.5869C70.7666 48.5503 70.8384 48.532 70.938 48.532H71.3467V46.6775L71.1006 46.7412C71.0625 46.75 71.031 46.7566 71.0061 46.761C70.9812 46.7654 70.9629 46.7676 70.9512 46.7676C70.8911 46.7676 70.8442 46.7485 70.8105 46.7104C70.7783 46.6724 70.7622 46.6182 70.7622 46.5479C70.7622 46.4966 70.7805 46.4534 70.8171 46.4182C70.8538 46.3831 70.9102 46.356 70.9863 46.3369L71.5312 46.1875C71.5767 46.1758 71.614 46.167 71.6433 46.1611C71.6726 46.1553 71.6968 46.1523 71.7158 46.1523C71.7744 46.1523 71.8162 46.1685 71.8411 46.2007C71.866 46.2329 71.8784 46.2871 71.8784 46.3633V48.532ZM74.0111 48.5056H74.7801V48.4924C74.7801 48.4177 74.7999 48.3621 74.8395 48.3254C74.8805 48.2888 74.9405 48.2705 75.0196 48.2705C75.0841 48.2705 75.1339 48.2888 75.169 48.3254C75.2042 48.3606 75.2218 48.4111 75.2218 48.4771V48.5056L75.2042 48.8462C75.2013 48.9136 75.1903 48.9561 75.1712 48.9736C75.1537 48.9912 75.1214 49 75.0746 49H73.4947C73.4098 49 73.3438 48.9817 73.297 48.9451C73.2516 48.9084 73.2289 48.8564 73.2289 48.7891C73.2289 48.7334 73.2428 48.6792 73.2706 48.6265C73.2999 48.5723 73.346 48.5151 73.409 48.4551L74.3033 47.5916C74.4 47.4978 74.4718 47.4041 74.5187 47.3103C74.567 47.2166 74.5912 47.1228 74.5912 47.0291C74.5912 46.8972 74.5589 46.7991 74.4945 46.7346C74.4315 46.6702 74.3348 46.6379 74.2044 46.6379C74.1283 46.6379 74.0602 46.6497 74.0001 46.6731C73.9415 46.6951 73.8961 46.7266 73.8639 46.7676C73.8463 46.7881 73.825 46.8196 73.8001 46.8621C73.7298 46.9763 73.6522 47.0334 73.5672 47.0334C73.494 47.0334 73.4383 47.0093 73.4002 46.9609C73.3636 46.9126 73.3453 46.8408 73.3453 46.7456C73.3453 46.6475 73.357 46.5742 73.3805 46.5259C73.4039 46.4775 73.4508 46.4292 73.5211 46.3809C73.6354 46.3047 73.7555 46.2483 73.8814 46.2117C74.0089 46.175 74.1466 46.1567 74.2945 46.1567C74.5714 46.1567 74.7904 46.2314 74.9515 46.3809C75.1141 46.5303 75.1954 46.731 75.1954 46.9829C75.1954 47.1514 75.1529 47.3132 75.068 47.4685C74.9845 47.6223 74.8541 47.7761 74.6769 47.9299L74.0111 48.5056ZM77.4643 47.4927C77.6328 47.5454 77.758 47.6289 77.84 47.7432C77.9221 47.856 77.9631 48.0032 77.9631 48.1848C77.9631 48.4587 77.8701 48.6763 77.684 48.8374C77.4995 48.9971 77.2475 49.0769 76.9282 49.0769C76.6704 49.0769 76.4572 49.0344 76.2888 48.9495C76.1203 48.8645 76.0361 48.7612 76.0361 48.6396C76.0361 48.5679 76.0588 48.51 76.1042 48.4661C76.1511 48.4207 76.2126 48.3979 76.2888 48.3979C76.3254 48.3979 76.4184 48.4309 76.5678 48.4968C76.7172 48.5627 76.8491 48.5957 76.9633 48.5957C77.101 48.5957 77.2065 48.5591 77.2797 48.4858C77.3544 48.4111 77.3918 48.3049 77.3918 48.1672C77.3918 48.0193 77.3603 47.9138 77.2973 47.8508C77.2358 47.7878 77.1171 47.7527 76.9414 47.7454C76.8491 47.7424 76.7868 47.7249 76.7546 47.6926C76.7238 47.6589 76.7084 47.5996 76.7084 47.5146C76.7084 47.3975 76.7714 47.3301 76.8974 47.3125C76.915 47.311 76.9282 47.3096 76.937 47.3081C77.0952 47.2861 77.1977 47.2488 77.2446 47.196C77.2915 47.1418 77.3149 47.0547 77.3149 46.9346C77.3149 46.8306 77.2863 46.75 77.2292 46.6929C77.1735 46.6343 77.0944 46.605 76.9919 46.605C76.8835 46.605 76.7619 46.6394 76.6271 46.7083C76.4924 46.7756 76.3994 46.8093 76.3481 46.8093C76.291 46.8093 76.2448 46.791 76.2097 46.7544C76.176 46.7163 76.1591 46.6687 76.1591 46.6116C76.1591 46.4871 76.2456 46.3801 76.4184 46.2908C76.5913 46.2014 76.8044 46.1567 77.0578 46.1567C77.3127 46.1567 77.5156 46.2227 77.6665 46.3545C77.8188 46.4863 77.895 46.6614 77.895 46.8796C77.895 47.0232 77.8598 47.1448 77.7895 47.2444C77.7207 47.3425 77.6123 47.4253 77.4643 47.4927ZM80.4078 47.9014C80.4122 47.9028 80.4166 47.9043 80.4209 47.9058C80.4253 47.9058 80.4327 47.9058 80.4429 47.9058C80.4722 47.9058 80.5059 47.8875 80.544 47.8508C80.5821 47.8127 80.6143 47.7937 80.6407 47.7937C80.7022 47.7937 80.7505 47.8091 80.7857 47.8398C80.8209 47.8691 80.8384 47.9109 80.8384 47.9651C80.8384 47.9797 80.837 47.9951 80.834 48.0112C80.8326 48.0273 80.8296 48.042 80.8252 48.0552L80.7769 48.2178C80.7681 48.2485 80.7535 48.2712 80.733 48.2859C80.7125 48.3005 80.6861 48.3079 80.6539 48.3079H80.4078V48.5825H80.5374C80.5506 48.5825 80.5674 48.5833 80.5879 48.5847C80.6084 48.5862 80.6216 48.5869 80.6275 48.5869C80.6802 48.5869 80.7249 48.6067 80.7615 48.6462C80.7981 48.6843 80.8165 48.7334 80.8165 48.7935C80.8165 48.8667 80.7945 48.9194 80.7505 48.9517C80.7081 48.9839 80.637 49 80.5374 49H79.6102C79.5105 49 79.4395 48.9839 79.397 48.9517C79.356 48.9194 79.3355 48.8667 79.3355 48.7935C79.3355 48.7188 79.3567 48.6653 79.3992 48.6331C79.4417 48.5994 79.512 48.5825 79.6102 48.5825H79.931V48.3079H78.918C78.8799 48.3079 78.8506 48.2961 78.8301 48.2727C78.8111 48.2493 78.8016 48.2156 78.8016 48.1716V48.0376C78.8016 47.9834 78.8052 47.9417 78.8125 47.9124C78.8213 47.8816 78.8353 47.8494 78.8543 47.8157L79.7771 46.2468C79.7991 46.2102 79.8167 46.1875 79.8299 46.1787C79.8445 46.1699 79.8643 46.1655 79.8892 46.1655C79.9024 46.1655 79.9134 46.1663 79.9222 46.1677C79.9324 46.1677 79.9412 46.1685 79.9485 46.1699L80.3396 46.238C80.3616 46.2424 80.3785 46.2542 80.3902 46.2732C80.4019 46.2922 80.4078 46.3179 80.4078 46.3501V47.9014ZM79.931 46.6863L79.241 47.9014H79.931V46.6863ZM84.939 46.7192V47.2268C85.0342 47.199 85.1206 47.1785 85.1982 47.1653C85.2759 47.1521 85.3484 47.1455 85.4158 47.1455C85.6794 47.1455 85.8926 47.2327 86.0552 47.407C86.2178 47.5798 86.2991 47.8076 86.2991 48.0903C86.2991 48.4097 86.1995 48.6536 86.0002 48.822C85.801 48.989 85.5117 49.0725 85.1323 49.0725C84.8599 49.0725 84.6526 49.0425 84.5105 48.9824C84.3699 48.9224 84.2996 48.8337 84.2996 48.7166C84.2996 48.6462 84.3245 48.5862 84.3743 48.5364C84.4241 48.4851 84.4834 48.4595 84.5522 48.4595C84.5947 48.4595 84.6863 48.4807 84.8269 48.5232C84.969 48.5657 85.0906 48.5869 85.1917 48.5869C85.3572 48.5869 85.4854 48.5444 85.5762 48.4595C85.667 48.373 85.7124 48.2515 85.7124 48.0947C85.7124 47.9424 85.6692 47.8215 85.5828 47.7322C85.4978 47.6414 85.3821 47.5959 85.2356 47.5959C85.1418 47.5959 85.0305 47.626 84.9016 47.686C84.7727 47.7461 84.6848 47.7761 84.6379 47.7761C84.5544 47.7761 84.4951 47.7534 84.46 47.708C84.4248 47.6611 84.4072 47.582 84.4072 47.4707V46.4072C84.4072 46.3281 84.4175 46.2783 84.438 46.2578C84.46 46.2373 84.4966 46.2271 84.5479 46.2271H85.9871C86.0779 46.2271 86.1409 46.2454 86.176 46.282C86.2126 46.3171 86.231 46.3816 86.231 46.4753C86.231 46.5676 86.2134 46.6313 86.1782 46.6665C86.1431 46.7017 86.0793 46.7192 85.9871 46.7192H84.939ZM88.5306 48.1672C88.5306 48.0237 88.4911 47.9065 88.412 47.8157C88.3329 47.7234 88.2311 47.6772 88.1065 47.6772C87.9864 47.6772 87.8861 47.7219 87.8055 47.8113C87.725 47.8992 87.6847 48.0105 87.6847 48.1453C87.6847 48.2903 87.7257 48.4089 87.8077 48.5012C87.8912 48.5935 87.9974 48.6396 88.1263 48.6396C88.245 48.6396 88.3417 48.5964 88.4164 48.51C88.4925 48.4221 88.5306 48.3079 88.5306 48.1672ZM87.6759 47.4465C87.7477 47.366 87.8334 47.3044 87.933 47.262C88.0326 47.218 88.1388 47.196 88.2516 47.196C88.4874 47.196 88.6859 47.2861 88.847 47.4663C89.0082 47.645 89.0887 47.8669 89.0887 48.1321C89.0887 48.4119 88.9979 48.6382 88.8163 48.811C88.6361 48.9824 88.3966 49.0681 88.0978 49.0681C87.7872 49.0681 87.5426 48.9553 87.3639 48.7297C87.1852 48.5027 87.0958 48.1907 87.0958 47.7937C87.0958 47.3015 87.2335 46.906 87.5089 46.6072C87.7857 46.3069 88.152 46.1567 88.6075 46.1567C88.7599 46.1567 88.869 46.1692 88.9349 46.1941C89.0008 46.219 89.0338 46.26 89.0338 46.3171C89.0338 46.4504 88.9305 46.5229 88.724 46.5347C88.6376 46.5405 88.5687 46.5464 88.5174 46.5522C88.2889 46.5771 88.1065 46.6614 87.9703 46.8049C87.8355 46.9485 87.7374 47.1624 87.6759 47.4465ZM91.6411 46.4622L90.9291 48.9363C90.9174 48.9744 90.9021 49 90.883 49.0132C90.864 49.0278 90.8361 49.0352 90.7995 49.0352H90.393C90.3725 49.0352 90.3549 49.0286 90.3403 49.0154C90.3256 49.0022 90.3183 48.9868 90.3183 48.9692C90.3183 48.9502 90.319 48.9363 90.3205 48.9275C90.322 48.9172 90.3242 48.9084 90.3271 48.9011L91.1137 46.7192H90.1689L90.1601 46.7588C90.1528 46.8071 90.1301 46.8467 90.092 46.8774C90.0554 46.9067 90.0107 46.9214 89.958 46.9214C89.8964 46.9214 89.851 46.9075 89.8217 46.8796C89.7924 46.8518 89.7778 46.8086 89.7778 46.75C89.7778 46.7441 89.7785 46.7354 89.78 46.7236C89.7814 46.7119 89.7822 46.7024 89.7822 46.6951L89.8217 46.3545C89.8261 46.3135 89.8415 46.282 89.8679 46.26C89.8942 46.238 89.9287 46.2271 89.9711 46.2271H91.5246C91.5656 46.2271 91.5949 46.2366 91.6125 46.2556C91.6315 46.2732 91.6411 46.3018 91.6411 46.3413V46.4622ZM93.6155 47.8201C93.4808 47.8201 93.3724 47.8574 93.2903 47.9321C93.2083 48.0068 93.1673 48.1064 93.1673 48.231C93.1673 48.3496 93.209 48.4478 93.2925 48.5254C93.376 48.6016 93.4837 48.6396 93.6155 48.6396C93.7518 48.6396 93.8609 48.6023 93.9429 48.5276C94.025 48.4529 94.066 48.354 94.066 48.231C94.066 48.1094 94.0242 48.0105 93.9407 47.9343C93.8572 47.8582 93.7488 47.8201 93.6155 47.8201ZM94.1165 47.5784C94.282 47.6384 94.4095 47.7271 94.4988 47.8442C94.5882 47.9614 94.6329 48.0977 94.6329 48.2529C94.6329 48.4946 94.5391 48.6917 94.3516 48.844C94.1641 48.9963 93.9188 49.0725 93.6155 49.0725C93.3182 49.0725 93.0743 48.9963 92.8838 48.844C92.6949 48.6917 92.6004 48.4976 92.6004 48.2617C92.6004 48.1035 92.6451 47.9658 92.7344 47.8486C92.8238 47.73 92.9512 47.6399 93.1167 47.5784C92.9556 47.5081 92.834 47.4194 92.752 47.3125C92.6714 47.2056 92.6312 47.0796 92.6312 46.9346C92.6312 46.709 92.7227 46.5229 92.9058 46.3765C93.0904 46.23 93.327 46.1567 93.6155 46.1567C93.9041 46.1567 94.1414 46.2307 94.3274 46.3787C94.5135 46.5266 94.6065 46.7119 94.6065 46.9346C94.6065 47.0796 94.5647 47.2063 94.4813 47.3147C94.3992 47.4231 94.2776 47.511 94.1165 47.5784ZM93.6155 46.5698C93.4925 46.5698 93.3907 46.6064 93.3101 46.6797C93.2295 46.7529 93.1893 46.8452 93.1893 46.9565C93.1893 47.0679 93.2295 47.1602 93.3101 47.2334C93.3907 47.3066 93.4925 47.3433 93.6155 47.3433C93.7415 47.3433 93.8433 47.3081 93.9209 47.2378C94 47.166 94.0396 47.0723 94.0396 46.9565C94.0396 46.8452 94 46.7529 93.9209 46.6797C93.8418 46.6064 93.74 46.5698 93.6155 46.5698Z" fill="url(#paint7_linear_3707_37944)"/>
<g id="Group 27_3">
<rect id="Bezels_8" x="42.6064" y="42.5" width="7" height="10.5752" rx="2" transform="rotate(-90 42.6064 42.5)" fill="url(#paint8_linear_3707_37944)"/>
</g>
<g id="Group 29_3">
<rect id="Bezels_9" x="42.6064" y="55" width="2.5" height="17.1217" rx="2" transform="rotate(-90 42.6064 55)" fill="#B6D1D0"/>
<rect id="Bezels_10" x="61.7427" y="55" width="2.5" height="8.05729" rx="2" transform="rotate(-90 61.7427 55)" fill="#B6D1D0"/>
</g>
</g>
</g>
</g>
</g>
</g>
<defs>
<linearGradient id="paint0_linear_3707_37944" x1="-7.15247" y1="-6.14898" x2="-7.15247" y2="98.7557" gradientUnits="userSpaceOnUse">
<stop stop-color="#B6D1D0"/>
<stop offset="1" stop-color="#001D2F"/>
</linearGradient>
<linearGradient id="paint1_linear_3707_37944" x1="28.9591" y1="24.2419" x2="62.3858" y2="27.0347" gradientUnits="userSpaceOnUse">
<stop stop-color="#B6D1D0"/>
<stop offset="1" stop-color="#F9F8F2"/>
</linearGradient>
<linearGradient id="paint2_linear_3707_37944" x1="30.1682" y1="29.6239" x2="24.4114" y2="29.6864" gradientUnits="userSpaceOnUse">
<stop stop-color="#B6D1D0"/>
<stop offset="1" stop-color="#F0EACF"/>
</linearGradient>
<linearGradient id="paint3_linear_3707_37944" x1="-7.8197" y1="-7.60789" x2="-7.8197" y2="99.4423" gradientUnits="userSpaceOnUse">
<stop stop-color="#B6D1D0"/>
<stop offset="1" stop-color="#001D2F"/>
</linearGradient>
<linearGradient id="paint4_linear_3707_37944" x1="82.8419" y1="24.7424" x2="116.269" y2="27.5352" gradientUnits="userSpaceOnUse">
<stop stop-color="#B6D1D0"/>
<stop offset="1" stop-color="#F9F8F2"/>
</linearGradient>
<linearGradient id="paint5_linear_3707_37944" x1="84.051" y1="30.1249" x2="78.2942" y2="30.1874" gradientUnits="userSpaceOnUse">
<stop stop-color="#B6D1D0"/>
<stop offset="1" stop-color="#F0EACF"/>
</linearGradient>
<linearGradient id="paint6_linear_3707_37944" x1="86.7572" y1="40.3049" x2="11.5512" y2="117.213" gradientUnits="userSpaceOnUse">
<stop stop-color="#001D2F"/>
<stop offset="0.121605" stop-color="#1D3A49"/>
<stop offset="0.673661" stop-color="#6D888F"/>
<stop offset="0.985378" stop-color="#B6D1D0"/>
</linearGradient>
<linearGradient id="paint7_linear_3707_37944" x1="47.894" y1="44.75" x2="98.7506" y2="49.0607" gradientUnits="userSpaceOnUse">
<stop stop-color="#B6D1D0"/>
<stop offset="1" stop-color="#F9F8F2"/>
</linearGradient>
<linearGradient id="paint8_linear_3707_37944" x1="49.8123" y1="53.0752" x2="40.9556" y2="53.1714" gradientUnits="userSpaceOnUse">
<stop stop-color="#B6D1D0"/>
<stop offset="1" stop-color="#F0EACF"/>
</linearGradient>
</defs>
</svg>
