<svg width="238" height="129" viewBox="0 0 238 129" fill="none" xmlns="http://www.w3.org/2000/svg">
<ellipse cx="121" cy="64.092" rx="64" ry="64.092" fill="#F0EACF"/>
<path fill-rule="evenodd" clip-rule="evenodd" d="M125.813 53.3887C125.643 49.4983 122.444 46.3965 118.522 46.3965C114.492 46.3965 111.224 49.673 111.224 53.7147V56.8748H111.058C108.585 56.8748 106.58 58.8854 106.58 61.3656V68.1848C106.58 70.665 108.585 72.6755 111.058 72.6755H125.986C128.459 72.6755 130.464 70.665 130.464 68.1848V61.3656C130.464 58.8854 128.459 56.8748 125.986 56.8748H125.82V53.7147L125.813 53.3887ZM122.834 56.8748V53.7147C122.834 51.3264 120.904 49.3903 118.522 49.3903C116.225 49.3903 114.348 51.1906 114.217 53.4606L114.21 53.7147V56.8748H122.834Z" fill="#001D2F"/>
<rect width="80.2608" height="25.6613" rx="12.8197" transform="matrix(-1 0 0 1 101.337 68.7471)" fill="url(#paint0_linear_3472_45083)"/>
<path fill-rule="evenodd" clip-rule="evenodd" d="M79.9669 79.8092L80.2034 76.1885H77.6584L77.9044 79.8092L74.839 77.7787L73.5712 79.9867L76.8638 81.5772L73.5712 83.1677L74.839 85.3757L77.9044 83.3457L77.6584 86.9662H80.2034L79.9669 83.3457L83.0323 85.3757L84.2998 83.1677L80.9982 81.5772L84.2998 79.9867L83.0323 77.7787L79.9669 79.8092ZM65.3877 76.1885L65.1512 79.8092L68.2166 77.7787L69.4841 79.9868L66.1825 81.5772L69.4841 83.1677L68.2166 85.3758L65.1512 83.3458L65.3877 86.9662H62.8427L63.0887 83.3458L60.0233 85.3758L58.7555 83.1677L62.0481 81.5772L58.7555 79.9868L60.0233 77.7787L63.0887 79.8092L62.8427 76.1885H65.3877ZM50.3356 79.8092L50.572 76.1885H48.027L48.273 79.8092L45.2076 77.7787L43.9398 79.9868L47.2325 81.5772L43.9398 83.1677L45.2076 85.3758L48.273 83.3458L48.027 86.9662H50.572L50.3356 83.3458L53.4009 85.3758L54.6684 83.1677L51.3668 81.5772L54.6684 79.9868L53.4009 77.7787L50.3356 79.8092ZM35.5196 79.8092L35.7561 76.1885H33.2111L33.457 79.8092L30.3916 77.7787L29.1239 79.9868L32.4165 81.5772L29.1239 83.1677L30.3916 85.3758L33.457 83.3458L33.2111 86.9662H35.7561L35.5196 83.3458L38.585 85.3758L39.8525 83.1677L36.5509 81.5772L39.8525 79.9868L38.585 77.7787L35.5196 79.8092Z" fill="#001D2F"/>
<path d="M100.645 34.1045H13.1765C5.89936 34.1045 8.39233e-05 40.0038 8.39233e-05 47.2809V49.1555C8.39233e-05 56.4326 5.89938 62.3319 13.1765 62.3319H100.645V34.1045Z" fill="url(#paint1_linear_3472_45083)"/>
<path fill-rule="evenodd" clip-rule="evenodd" d="M54.6684 42.8291L54.4319 46.4498L57.4973 44.4193L58.7648 46.6274L55.4632 48.2178L58.7648 49.8083L57.4973 52.0164L54.4319 49.9864L54.6684 53.6068H52.1234L52.3694 49.9864L49.304 52.0164L48.0362 49.8083L51.3288 48.2178L48.0362 46.6274L49.304 44.4193L52.3694 46.4498L52.1234 42.8291H54.6684ZM40.8903 46.4498L41.1268 42.8291H38.5818L38.8277 46.4498L35.7623 44.4193L34.4946 46.6274L37.7872 48.2178L34.4946 49.8083L35.7623 52.0164L38.8277 49.9864L38.5818 53.6068H41.1268L40.8903 49.9864L43.9557 52.0164L45.2232 49.8083L41.9216 48.2178L45.2232 46.6274L43.9557 44.4193L40.8903 46.4498ZM27.5848 42.8291L27.3484 46.4498L30.4138 44.4193L31.6812 46.6274L28.3797 48.2178L31.6812 49.8083L30.4138 52.0164L27.3484 49.9864L27.5848 53.6068H25.0398L25.2858 49.9864L22.2204 52.0164L20.9526 49.8083L24.2453 48.2178L20.9526 46.6274L22.2204 44.4193L25.2858 46.4498L25.0398 42.8291H27.5848ZM14.0432 42.8291L13.8067 46.4498L16.8721 44.4193L18.1396 46.6274L14.838 48.2178L18.1396 49.8083L16.8721 52.0164L13.8067 49.9864L14.0432 53.6068H11.4982L11.7442 49.9864L8.67877 52.0164L7.41102 49.8083L10.7036 48.2178L7.41102 46.6274L8.67877 44.4193L11.7442 46.4498L11.4982 42.8291H14.0432ZM67.8087 46.4499L68.0452 42.8292H65.5002L65.7461 46.4499L62.6808 44.4194L61.413 46.6275L64.7056 48.2179L61.413 49.8084L62.6808 52.0165L65.7461 49.9865L65.5002 53.6069H68.0452L67.8087 49.9865L70.8741 52.0165L72.1416 49.8084L68.84 48.2179L72.1416 46.6275L70.8741 44.4194L67.8087 46.4499Z" fill="#001D2F"/>
<path fill-rule="evenodd" clip-rule="evenodd" d="M120.718 42.8291L120.482 46.4498L123.547 44.4193L124.815 46.6274L121.513 48.2178L124.815 49.8083L123.547 52.0164L120.482 49.9864L120.718 53.6068H118.173L118.419 49.9864L115.354 52.0164L114.086 49.8083L117.379 48.2178L114.086 46.6274L115.354 44.4193L118.419 46.4498L118.173 42.8291H120.718ZM106.94 46.4498L107.176 42.8291H104.631L104.877 46.4498L101.812 44.4193L100.544 46.6274L103.837 48.2178L100.544 49.8083L101.812 52.0164L104.877 49.9864L104.631 53.6068H107.176L106.94 49.9864L110.005 52.0164L111.273 49.8083L107.971 48.2178L111.273 46.6274L110.005 44.4193L106.94 46.4498ZM93.6345 42.8291L93.3981 46.4498L96.4635 44.4193L97.731 46.6274L94.4294 48.2178L97.731 49.8083L96.4635 52.0164L93.3981 49.9864L93.6345 53.6068H91.0895L91.3355 49.9864L88.2701 52.0164L87.0024 49.8083L90.295 48.2178L87.0024 46.6274L88.2701 44.4193L91.3355 46.4498L91.0895 42.8291H93.6345ZM80.0929 42.8291L79.8564 46.4498L82.9218 44.4193L84.1893 46.6274L80.8877 48.2178L84.1893 49.8083L82.9218 52.0164L79.8564 49.9864L80.0929 53.6068H77.5479L77.7939 49.9864L74.7285 52.0164L73.4607 49.8083L76.7534 48.2178L73.4607 46.6274L74.7285 44.4193L77.7939 46.4498L77.5479 42.8291H80.0929ZM133.859 46.4499L134.095 42.8292H131.55L131.796 46.4499L128.731 44.4194L127.463 46.6275L130.755 48.2179L127.463 49.8084L128.731 52.0165L131.796 49.9865L131.55 53.6069H134.095L133.859 49.9865L136.924 52.0165L138.191 49.8084L134.89 48.2179L138.191 46.6275L136.924 44.4194L133.859 46.4499Z" fill="#001D2F"/>
<rect x="136.663" y="68.7471" width="80.2608" height="25.6613" rx="12.8197" fill="url(#paint2_linear_3472_45083)"/>
<path fill-rule="evenodd" clip-rule="evenodd" d="M158.033 79.8092L157.797 76.1885H160.342L160.096 79.8092L163.161 77.7787L164.429 79.9867L161.136 81.5772L164.429 83.1677L163.161 85.3757L160.096 83.3457L160.342 86.9662H157.797L158.033 83.3457L154.968 85.3757L153.7 83.1677L157.002 81.5772L153.7 79.9867L154.968 77.7787L158.033 79.8092ZM172.612 76.1885L172.849 79.8092L169.783 77.7787L168.516 79.9868L171.817 81.5772L168.516 83.1677L169.783 85.3758L172.849 83.3458L172.612 86.9662H175.157L174.911 83.3458L177.977 85.3758L179.244 83.1677L175.952 81.5772L179.244 79.9868L177.977 77.7787L174.911 79.8092L175.157 76.1885H172.612ZM187.664 79.8092L187.428 76.1885H189.973L189.727 79.8092L192.792 77.7787L194.06 79.9868L190.768 81.5772L194.06 83.1677L192.792 85.3758L189.727 83.3458L189.973 86.9662H187.428L187.664 83.3458L184.599 85.3758L183.332 83.1677L186.633 81.5772L183.332 79.9868L184.599 77.7787L187.664 79.8092ZM202.48 79.8092L202.244 76.1885H204.789L204.543 79.8092L207.608 77.7787L208.876 79.9868L205.584 81.5772L208.876 83.1677L207.608 85.3758L204.543 83.3458L204.789 86.9662H202.244L202.48 83.3458L199.415 85.3758L198.148 83.1677L201.449 81.5772L198.148 79.9868L199.415 77.7787L202.48 79.8092Z" fill="#001D2F"/>
<path d="M137.355 34.1045H224.823C232.101 34.1045 238 40.0038 238 47.2809V49.1555C238 56.4326 232.101 62.3319 224.823 62.3319H137.355V34.1045Z" fill="url(#paint3_linear_3472_45083)"/>
<path fill-rule="evenodd" clip-rule="evenodd" d="M183.332 42.8291L183.568 46.4498L180.503 44.4193L179.235 46.6274L182.537 48.2178L179.235 49.8083L180.503 52.0164L183.568 49.9864L183.332 53.6068H185.877L185.631 49.9864L188.696 52.0164L189.964 49.8083L186.671 48.2178L189.964 46.6274L188.696 44.4193L185.631 46.4498L185.877 42.8291H183.332ZM197.11 46.4498L196.873 42.8291H199.418L199.172 46.4498L202.238 44.4193L203.505 46.6274L200.213 48.2178L203.505 49.8083L202.238 52.0164L199.172 49.9864L199.418 53.6068H196.873L197.11 49.9864L194.044 52.0164L192.777 49.8083L196.078 48.2178L192.777 46.6274L194.044 44.4193L197.11 46.4498ZM210.415 42.8291L210.652 46.4498L207.586 44.4193L206.319 46.6274L209.62 48.2178L206.319 49.8083L207.586 52.0164L210.652 49.9864L210.415 53.6068H212.96L212.714 49.9864L215.78 52.0164L217.047 49.8083L213.755 48.2178L217.047 46.6274L215.78 44.4193L212.714 46.4498L212.96 42.8291H210.415ZM223.957 42.8291L224.193 46.4498L221.128 44.4193L219.86 46.6274L223.162 48.2178L219.86 49.8083L221.128 52.0164L224.193 49.9864L223.957 53.6068H226.502L226.256 49.9864L229.321 52.0164L230.589 49.8083L227.296 48.2178L230.589 46.6274L229.321 44.4193L226.256 46.4498L226.502 42.8291H223.957ZM170.191 46.4499L169.955 42.8292H172.5L172.254 46.4499L175.319 44.4194L176.587 46.6275L173.294 48.2179L176.587 49.8084L175.319 52.0165L172.254 49.9865L172.5 53.6069H169.955L170.191 49.9865L167.126 52.0165L165.858 49.8084L169.16 48.2179L165.858 46.6275L167.126 44.4194L170.191 46.4499Z" fill="#001D2F"/>
<path fill-rule="evenodd" clip-rule="evenodd" d="M117.282 42.8291L117.518 46.4498L114.453 44.4193L113.185 46.6274L116.487 48.2178L113.185 49.8083L114.453 52.0164L117.518 49.9864L117.282 53.6068H119.827L119.581 49.9864L122.646 52.0164L123.914 49.8083L120.621 48.2178L123.914 46.6274L122.646 44.4193L119.581 46.4498L119.827 42.8291H117.282ZM131.06 46.4498L130.824 42.8291H133.369L133.123 46.4498L136.188 44.4193L137.456 46.6274L134.163 48.2178L137.456 49.8083L136.188 52.0164L133.123 49.9864L133.369 53.6068H130.824L131.06 49.9864L127.995 52.0164L126.727 49.8083L130.029 48.2178L126.727 46.6274L127.995 44.4193L131.06 46.4498ZM144.365 42.8291L144.602 46.4498L141.537 44.4193L140.269 46.6274L143.571 48.2178L140.269 49.8083L141.537 52.0164L144.602 49.9864L144.365 53.6068H146.91L146.664 49.9864L149.73 52.0164L150.998 49.8083L147.705 48.2178L150.998 46.6274L149.73 44.4193L146.664 46.4498L146.91 42.8291H144.365ZM157.907 42.8291L158.144 46.4498L155.078 44.4193L153.811 46.6274L157.112 48.2178L153.811 49.8083L155.078 52.0164L158.144 49.9864L157.907 53.6068H160.452L160.206 49.9864L163.272 52.0164L164.539 49.8083L161.247 48.2178L164.539 46.6274L163.272 44.4193L160.206 46.4498L160.452 42.8291H157.907ZM104.141 46.4499L103.905 42.8292H106.45L106.204 46.4499L109.269 44.4194L110.537 46.6275L107.245 48.2179L110.537 49.8084L109.269 52.0165L106.204 49.9865L106.45 53.6069H103.905L104.141 49.9865L101.076 52.0165L99.8086 49.8084L103.11 48.2179L99.8086 46.6275L101.076 44.4194L104.141 46.4499Z" fill="#001D2F"/>
<path fill-rule="evenodd" clip-rule="evenodd" d="M65.5564 88.2783H173.344L196 106.102H42.9004L65.5564 88.2783Z" fill="#001D2F"/>
<path d="M42.9004 106.102H196V108.994C196 110.425 194.84 111.586 193.408 111.586H45.4924C44.0609 111.586 42.9004 110.425 42.9004 108.994V106.102Z" fill="#001D2F"/>
<path fill-rule="evenodd" clip-rule="evenodd" d="M94.9038 98.0101C95.0171 97.9231 95.1558 97.876 95.2986 97.876H143.603C143.746 97.876 143.885 97.9231 143.998 98.0101L151.236 103.569C151.727 103.946 151.46 104.731 150.841 104.731H88.0608C87.4418 104.731 87.1752 103.946 87.6661 103.569L94.9038 98.0101Z" fill="url(#paint4_linear_3472_45083)"/>
<path fill-rule="evenodd" clip-rule="evenodd" d="M68.1269 89.7876C68.2411 89.6981 68.3819 89.6494 68.5269 89.6494H170.375C170.52 89.6494 170.661 89.6981 170.775 89.7876L178.734 96.0323C179.219 96.4123 178.95 97.1902 178.334 97.1902H60.5672C59.9516 97.1902 59.6828 96.4123 60.1672 96.0323L68.1269 89.7876Z" fill="url(#paint5_linear_3472_45083)"/>
<path d="M65.5566 18.2053C65.5566 16.7738 66.7171 15.6133 68.1486 15.6133H170.753C172.184 15.6133 173.345 16.7738 173.345 18.2053V88.2787H65.5566V18.2053Z" fill="#001D2F"/>
<rect x="68.3027" y="18.3555" width="102.296" height="67.1812" fill="url(#paint6_linear_3472_45083)"/>
<mask id="mask0_3472_45083" style="mask-type:luminance" maskUnits="userSpaceOnUse" x="68" y="18" width="103" height="68">
<rect x="68.3027" y="18.3555" width="102.296" height="67.1812" fill="white"/>
</mask>
<g mask="url(#mask0_3472_45083)">
</g>
<path fill-rule="evenodd" clip-rule="evenodd" d="M108.507 66.6798C107.945 66.1163 107.901 65.2296 108.377 64.6164L108.507 64.4691L109.744 63.2297L107.337 60.8178C106.774 60.2543 106.731 59.3676 107.207 58.7544L107.337 58.6071L111.434 54.5037C112.044 53.8933 113.032 53.8933 113.642 54.5037L116.051 56.9159L118.756 54.2048C117.619 52.5204 117.158 50.4531 117.489 48.4273L117.565 48.0249L117.652 47.6615C118.389 44.8828 120.556 42.7126 123.331 41.9747C126.105 41.2368 129.062 42.0444 131.09 44.1028C134.122 47.2463 134.079 52.2431 130.993 55.3334C128.279 58.0515 124.091 58.4124 120.986 56.3938L117.154 60.2316L110.715 66.6798C110.105 67.2903 109.117 67.2903 108.507 66.6798Z" fill="white"/>
<defs>
<linearGradient id="paint0_linear_3472_45083" x1="-80.9012" y1="36.4722" x2="66.9859" y2="36.4722" gradientUnits="userSpaceOnUse">
<stop stop-color="#7E0F53"/>
<stop offset="1" stop-color="#F0EACF"/>
</linearGradient>
<linearGradient id="paint1_linear_3472_45083" x1="169.073" y1="69.5936" x2="16.6464" y2="69.5936" gradientUnits="userSpaceOnUse">
<stop stop-color="#7E0F53"/>
<stop offset="1" stop-color="#F0EACF"/>
</linearGradient>
<linearGradient id="paint2_linear_3472_45083" x1="88.2669" y1="100.023" x2="203.649" y2="100.023" gradientUnits="userSpaceOnUse">
<stop stop-color="#7E0F53"/>
<stop offset="1" stop-color="#F0EACF"/>
</linearGradient>
<linearGradient id="paint3_linear_3472_45083" x1="82.9282" y1="67.6301" x2="221.354" y2="67.6301" gradientUnits="userSpaceOnUse">
<stop stop-color="#7E0F53"/>
<stop offset="1" stop-color="#F0EACF"/>
</linearGradient>
<linearGradient id="paint4_linear_3472_45083" x1="6.30576" y1="83.5851" x2="6.30576" y2="106.879" gradientUnits="userSpaceOnUse">
<stop stop-color="#F0EACF"/>
<stop offset="1" stop-color="#001D2F"/>
</linearGradient>
<linearGradient id="paint5_linear_3472_45083" x1="-87.0098" y1="73.9295" x2="-87.0098" y2="99.5529" gradientUnits="userSpaceOnUse">
<stop stop-color="#F0EACF"/>
<stop offset="1" stop-color="#001D2F"/>
</linearGradient>
<linearGradient id="paint6_linear_3472_45083" x1="20.3721" y1="51.9461" x2="83.6539" y2="142.243" gradientUnits="userSpaceOnUse">
<stop offset="0.000491696" stop-color="#F0EACF"/>
<stop offset="1" stop-color="#7E0F53"/>
</linearGradient>
</defs>
</svg>
