<svg width="280" height="140" viewBox="0 0 140 70" fill="none" xmlns="http://www.w3.org/2000/svg">
<g id="Group 4">
<circle id="Oval" cx="70.625" cy="35" r="32" fill="#D4E300"/>
<g id="Illustration">
<g id="Website">
<g id="Group 30">
<rect id="Rectangle" x="85.9492" y="37.0146" width="32.9618" height="10.4592" rx="10.4592" fill="url(#paint0_linear_3472_45649)"/>
<path id="Combined Shape" fill-rule="evenodd" clip-rule="evenodd" d="M94.7257 41.5236L94.6286 40.0479H95.6738L95.5728 41.5236L96.8317 40.696L97.3524 41.596L96.0001 42.2442L97.3524 42.8925L96.8317 43.7925L95.5728 42.9651L95.6738 44.4407H94.6286L94.7257 42.9651L93.4668 43.7925L92.9463 42.8925L94.3022 42.2442L92.9463 41.596L93.4668 40.696L94.7257 41.5236ZM100.713 40.0479L100.81 41.5236L99.5514 40.696L99.0309 41.596L100.387 42.2442L99.0309 42.8925L99.5514 43.7925L100.81 42.9651L100.713 44.4407H101.758L101.657 42.9651L102.916 43.7925L103.437 42.8925L102.085 42.2442L103.437 41.596L102.916 40.696L101.657 41.5236L101.758 40.0479H100.713ZM106.895 41.5236L106.798 40.0479H107.843L107.742 41.5236L109.001 40.696L109.522 41.596L108.169 42.2442L109.522 42.8925L109.001 43.7925L107.742 42.9651L107.843 44.4407H106.798L106.895 42.9651L105.636 43.7925L105.115 42.8925L106.471 42.2442L105.115 41.596L105.636 40.696L106.895 41.5236ZM112.979 41.5236L112.882 40.0479H113.927L113.826 41.5236L115.085 40.696L115.606 41.596L114.254 42.2442L115.606 42.8925L115.085 43.7925L113.826 42.9651L113.927 44.4407H112.882L112.979 42.9651L111.72 43.7925L111.2 42.8925L112.556 42.2442L111.2 41.596L111.72 40.696L112.979 41.5236Z" fill="#001D2F"/>
<rect id="Rectangle_2" x="88.042" y="22.8945" width="41.3331" height="11.5051" rx="11.5051" fill="url(#paint1_linear_3472_45649)"/>
<path id="Combined Shape_2" fill-rule="evenodd" clip-rule="evenodd" d="M106.923 26.4507L107.021 27.9265L105.762 27.0988L105.241 27.9988L106.597 28.6471L105.241 29.2953L105.762 30.1953L107.021 29.3679L106.923 30.8436H107.969L107.868 29.3679L109.127 30.1953L109.647 29.2953L108.295 28.6471L109.647 27.9988L109.127 27.0988L107.868 27.9265L107.969 26.4507H106.923ZM112.582 27.9265L112.485 26.4507H113.53L113.429 27.9265L114.688 27.0988L115.209 27.9988L113.856 28.6471L115.209 29.2953L114.688 30.1953L113.429 29.3679L113.53 30.8436H112.485L112.582 29.3679L111.323 30.1953L110.803 29.2953L112.159 28.6471L110.803 27.9988L111.323 27.0988L112.582 27.9265ZM118.046 26.4507L118.143 27.9265L116.885 27.0988L116.364 27.9988L117.72 28.6471L116.364 29.2953L116.885 30.1953L118.143 29.3679L118.046 30.8436H119.092L118.99 29.3679L120.249 30.1953L120.77 29.2953L119.418 28.6471L120.77 27.9988L120.249 27.0988L118.99 27.9265L119.092 26.4507H118.046ZM123.608 26.4507L123.705 27.9265L122.446 27.0988L121.925 27.9988L123.281 28.6471L121.925 29.2953L122.446 30.1953L123.705 29.3679L123.608 30.8436H124.653L124.552 29.3679L125.811 30.1953L126.331 29.2953L124.979 28.6471L126.331 27.9988L125.811 27.0988L124.552 27.9265L124.653 26.4507H123.608ZM101.527 27.9265L101.43 26.4507H102.475L102.374 27.9265L103.633 27.0989L104.154 27.9989L102.801 28.6471L104.154 29.2954L103.633 30.1954L102.374 29.368L102.475 30.8436H101.43L101.527 29.368L100.268 30.1954L99.7476 29.2954L101.103 28.6471L99.7476 27.9989L100.268 27.0989L101.527 27.9265Z" fill="#001D2F"/>
<g id="Group 11">
<rect id="Rectangle_3" width="65.9237" height="20.9184" rx="10.4592" transform="matrix(-0.5 0 0 0.5 54.0508 37.0146)" fill="url(#paint2_linear_3472_45649)"/>
</g>
<path id="Combined Shape_3" fill-rule="evenodd" clip-rule="evenodd" d="M45.2748 41.5236L45.3719 40.0479H44.3267L44.4277 41.5236L43.1688 40.696L42.6481 41.596L44.0004 42.2442L42.6481 42.8925L43.1688 43.7925L44.4277 42.9651L44.3267 44.4407H45.3719L45.2748 42.9651L46.5337 43.7925L47.0542 42.8925L45.6983 42.2442L47.0542 41.596L46.5337 40.696L45.2748 41.5236ZM39.2874 40.0479L39.1903 41.5236L40.4492 40.696L40.9698 41.596L39.6138 42.2442L40.9698 42.8925L40.4492 43.7925L39.1903 42.9651L39.2874 44.4407H38.2422L38.3432 42.9651L37.0843 43.7925L36.5637 42.8925L37.9159 42.2442L36.5637 41.596L37.0843 40.696L38.3432 41.5236L38.2422 40.0479H39.2874ZM33.1057 41.5236L33.2028 40.0479H32.1576L32.2586 41.5236L30.9997 40.696L30.4791 41.596L31.8313 42.2442L30.4791 42.8925L30.9997 43.7925L32.2586 42.9651L32.1576 44.4407H33.2028L33.1057 42.9651L34.3646 43.7925L34.8852 42.8925L33.5292 42.2442L34.8852 41.596L34.3646 40.696L33.1057 41.5236ZM27.0211 41.5236L27.1182 40.0479H26.073L26.1741 41.5236L24.9151 40.696L24.3945 41.596L25.7467 42.2442L24.3945 42.8925L24.9151 43.7925L26.1741 42.9651L26.073 44.4407H27.1182L27.0211 42.9651L28.28 43.7925L28.8006 42.8925L27.4447 42.2442L28.8006 41.596L28.28 40.696L27.0211 41.5236Z" fill="#001D2F"/>
<rect id="Rectangle_4" width="82.6662" height="23.0103" rx="11.5051" transform="matrix(-0.5 0 0 0.5 51.958 22.8945)" fill="url(#paint3_linear_3472_45649)"/>
<path id="Combined Shape_4" fill-rule="evenodd" clip-rule="evenodd" d="M33.0764 26.4507L32.9793 27.9265L34.2382 27.0988L34.7588 27.9988L33.4028 28.6471L34.7588 29.2953L34.2382 30.1953L32.9793 29.3679L33.0764 30.8436H32.0312L32.1322 29.3679L30.8733 30.1953L30.3527 29.2953L31.7049 28.6471L30.3527 27.9988L30.8733 27.0988L32.1322 27.9265L32.0312 26.4507H33.0764ZM27.4178 27.9265L27.5149 26.4507H26.4697L26.5707 27.9265L25.3118 27.0988L24.7912 27.9988L26.1434 28.6471L24.7912 29.2953L25.3118 30.1953L26.5707 29.3679L26.4697 30.8436H27.5149L27.4178 29.3679L28.6767 30.1953L29.1972 29.2953L27.8413 28.6471L29.1972 27.9988L28.6767 27.0988L27.4178 27.9265ZM21.9537 26.4507L21.8566 27.9265L23.1155 27.0988L23.636 27.9988L22.2801 28.6471L23.636 29.2953L23.1155 30.1953L21.8566 29.3679L21.9537 30.8436H20.9085L21.0095 29.3679L19.7506 30.1953L19.2299 29.2953L20.5822 28.6471L19.2299 27.9988L19.7506 27.0988L21.0095 27.9265L20.9085 26.4507H21.9537ZM16.3923 26.4507L16.2952 27.9265L17.5541 27.0988L18.0746 27.9988L16.7187 28.6471L18.0746 29.2953L17.5541 30.1953L16.2952 29.3679L16.3923 30.8436H15.3471L15.4481 29.3679L14.1892 30.1953L13.6686 29.2953L15.0208 28.6471L13.6686 27.9988L14.1892 27.0988L15.4481 27.9265L15.3471 26.4507H16.3923ZM38.473 27.9265L38.5701 26.4507H37.5249L37.6259 27.9265L36.367 27.0989L35.8464 27.9989L37.1986 28.6471L35.8464 29.2954L36.367 30.1954L37.6259 29.368L37.5249 30.8436H38.5701L38.473 29.368L39.7319 30.1954L40.2524 29.2954L38.8965 28.6471L40.2524 27.9989L39.7319 27.0989L38.473 27.9265Z" fill="#001D2F"/>
</g>
<path id="Rectangle_5" fill-rule="evenodd" clip-rule="evenodd" d="M58.8514 53.7769C59.845 53.7769 60.6504 54.5823 60.6504 55.5758C60.6504 56.5694 59.845 57.3748 58.8514 57.3748H46.2442C45.2506 57.3748 44.4452 56.5694 44.4452 55.5758C44.4452 54.5823 45.2506 53.7769 46.2442 53.7769H58.8514Z" fill="url(#paint4_linear_3472_45649)"/>
<path id="Rectangle_6" fill-rule="evenodd" clip-rule="evenodd" d="M94.2655 53.7769C95.259 53.7769 96.0645 54.5823 96.0645 55.5758C96.0645 56.5694 95.259 57.3748 94.2655 57.3748H81.6583C80.6647 57.3748 79.8593 56.5694 79.8593 55.5758C79.8593 54.5823 80.6647 53.7769 81.6583 53.7769H94.2655Z" fill="url(#paint5_linear_3472_45649)"/>
<rect id="Rectangle_7" x="41.6689" y="13" width="56.6624" height="42.576" rx="6.25" fill="url(#paint6_linear_3472_45649)"/>
<rect id="Rectangle_8" x="44.9844" y="16.2979" width="50.0317" height="35.9797" rx="2.5" fill="url(#paint7_linear_3472_45649)"/>
<rect id="Rectangle_9" x="92.002" y="25.293" width="17.9899" height="1.80838" rx="1.80838" transform="rotate(90 92.002 25.293)" fill="url(#paint8_linear_3472_45649)"/>
<ellipse id="Oval_2" cx="69.6989" cy="34.2881" rx="10.8503" ry="10.7939" fill="url(#paint9_linear_3472_45649)"/>
<ellipse id="Oval_3" cx="69.6986" cy="34.2878" rx="7.83629" ry="7.79561" fill="#F0EACF"/>
<ellipse id="Oval_4" cx="69.6986" cy="34.2878" rx="7.83629" ry="7.79561" fill="url(#paint10_linear_3472_45649)"/>
<g id="solid/[Account]">
<path id="Path" fill-rule="evenodd" clip-rule="evenodd" d="M69.7685 30.9134L67.5551 31.7908C67.4151 31.8463 67.3232 31.9808 67.3232 32.1303V34.1777C67.3232 35.065 67.7878 35.8631 68.5471 36.5655C68.805 36.804 69.0799 37.0147 69.355 37.1965L69.4729 37.2727C69.5837 37.3426 69.6724 37.3937 69.7319 37.4251C69.8404 37.4825 69.9706 37.4825 70.0791 37.4251L70.148 37.3872C70.2262 37.3427 70.3312 37.2789 70.4559 37.1965C70.731 37.0147 71.006 36.804 71.2638 36.5655C72.0231 35.8631 72.4877 35.065 72.4877 34.1777V32.1303C72.4877 31.9808 72.3958 31.8463 72.2558 31.7908L70.0425 30.9134C69.9545 30.8785 69.8564 30.8785 69.7685 30.9134Z" fill="white"/>
</g>
<rect id="Rectangle_10" x="43.7783" y="23.1943" width="2.41117" height="7.19595" rx="2.41117" fill="url(#paint11_linear_3472_45649)"/>
<rect id="Rectangle_11" x="43.7783" y="38.186" width="2.41117" height="7.19595" rx="2.41117" fill="url(#paint12_linear_3472_45649)"/>
</g>
</g>
</g>
<defs>
<linearGradient id="paint0_linear_3472_45649" x1="85.0129" y1="46.7575" x2="113.459" y2="46.7575" gradientUnits="userSpaceOnUse">
<stop stop-color="#D4E300"/>
<stop offset="1" stop-color="#F0EACF"/>
</linearGradient>
<linearGradient id="paint1_linear_3472_45649" x1="86.8678" y1="33.6116" x2="122.539" y2="33.6116" gradientUnits="userSpaceOnUse">
<stop stop-color="#D4E300"/>
<stop offset="1" stop-color="#F0EACF"/>
</linearGradient>
<linearGradient id="paint2_linear_3472_45649" x1="-1.87273" y1="19.4856" x2="55.0201" y2="19.4856" gradientUnits="userSpaceOnUse">
<stop stop-color="#D4E300"/>
<stop offset="1" stop-color="#F0EACF"/>
</linearGradient>
<linearGradient id="paint3_linear_3472_45649" x1="-2.34834" y1="21.4342" x2="68.9935" y2="21.4342" gradientUnits="userSpaceOnUse">
<stop stop-color="#D4E300"/>
<stop offset="1" stop-color="#F0EACF"/>
</linearGradient>
<linearGradient id="paint4_linear_3472_45649" x1="50.4144" y1="49.7474" x2="50.2662" y2="57.6465" gradientUnits="userSpaceOnUse">
<stop offset="0.000491696" stop-color="#F0EACF"/>
<stop offset="1" stop-color="#001D2F"/>
</linearGradient>
<linearGradient id="paint5_linear_3472_45649" x1="89.4401" y1="51.678" x2="88.9317" y2="58.3069" gradientUnits="userSpaceOnUse">
<stop offset="0.000491696" stop-color="#F0EACF"/>
<stop offset="1" stop-color="#001D2F"/>
</linearGradient>
<linearGradient id="paint6_linear_3472_45649" x1="39.2578" y1="73.7158" x2="124.048" y2="-2.48575" gradientUnits="userSpaceOnUse">
<stop stop-color="#001D32"/>
<stop offset="0.765625" stop-color="#7F8A85"/>
<stop offset="1" stop-color="#F0EACF"/>
</linearGradient>
<linearGradient id="paint7_linear_3472_45649" x1="85.7468" y1="45.4373" x2="106.783" y2="15.7284" gradientUnits="userSpaceOnUse">
<stop offset="0.000491696" stop-color="#F0EACF"/>
<stop offset="1" stop-color="white"/>
</linearGradient>
<linearGradient id="paint8_linear_3472_45649" x1="136.327" y1="36.503" x2="136.841" y2="23.2675" gradientUnits="userSpaceOnUse">
<stop stop-color="#001D2F"/>
<stop offset="0.999508" stop-color="#F0EACF"/>
</linearGradient>
<linearGradient id="paint9_linear_3472_45649" x1="34.6904" y1="-11.7652" x2="-8.48371" y2="27.3241" gradientUnits="userSpaceOnUse">
<stop stop-color="#F0EACF"/>
<stop offset="1" stop-color="#001D2F"/>
</linearGradient>
<linearGradient id="paint10_linear_3472_45649" x1="49.4942" y1="-3.47298" x2="25.7857" y2="12.8659" gradientUnits="userSpaceOnUse">
<stop stop-color="#F1EBD2"/>
<stop offset="1" stop-color="#001D32"/>
</linearGradient>
<linearGradient id="paint11_linear_3472_45649" x1="49.7191" y1="67.8015" x2="75.8255" y2="45.1708" gradientUnits="userSpaceOnUse">
<stop stop-color="#001D2F"/>
<stop offset="0.999508" stop-color="#F0EACF"/>
</linearGradient>
<linearGradient id="paint12_linear_3472_45649" x1="49.7191" y1="82.7932" x2="75.8255" y2="60.1625" gradientUnits="userSpaceOnUse">
<stop stop-color="#001D2F"/>
<stop offset="0.999508" stop-color="#F0EACF"/>
</linearGradient>
</defs>
</svg>
