<?xml version="1.0" encoding="UTF-8"?>
<svg width="180px" height="180px" viewBox="0 0 180 180" version="1.1" xmlns="http://www.w3.org/2000/svg" xmlns:xlink="http://www.w3.org/1999/xlink">
    <title>Logo/1Password@1x</title>
    <g id="Logo/1Password" stroke="none" stroke-width="1" fill="none" fill-rule="evenodd">
        <g id="Logo">
            <rect id="Background" fill="#FFFFFF" x="0" y="0" width="180" height="180"></rect>
            <g id="1Password-logo-2020-/-coloured-/-light-bg-/-116px" fill-rule="nonzero">
                <g id="Chrome">
                    <path d="M3.10344828,90 C3.10344828,137.993194 42.0083046,176.896552 90,176.896552 C137.991695,176.896552 176.896552,137.993194 176.896552,90 C176.896552,42.0083046 137.991695,3.10344828 90,3.10344828 C42.0083046,3.10344828 3.10344828,42.0083046 3.10344828,90 Z" id="chrome" fill="#FFFFFF"></path>
                    <path d="M90,21.7241379 C127.707404,21.7241379 158.275862,52.2925959 158.275862,90 C158.275862,127.708826 127.707404,158.275862 90,158.275862 C52.2925959,158.275862 21.7241379,127.708826 21.7241379,90 C21.7241379,52.2925959 52.2925959,21.7241379 90,21.7241379" id="color" fill="#1A8CFF"></path>
                    <path d="M0,90 C0,139.707236 40.2943154,180 90,180 C139.705685,180 180,139.707236 180,90 C180,40.2943154 139.705685,0 90,0 C40.2943154,0 0,40.2943154 0,90 L0,90 Z M3.10344828,90 L3.10344828,90 C3.10344828,42.0135584 42.0029651,3.10344828 90,3.10344828 C137.997035,3.10344828 176.896552,42.0135584 176.896552,90 C176.896552,137.987397 137.997527,176.896552 90,176.896552 C42.0024729,176.896552 3.10344828,137.987397 3.10344828,90 L3.10344828,90 Z" id="chrome" fill="#000000" opacity="0.5"></path>
                    <path d="M176.773987,85.3447955 C176.855355,86.8862231 176.896552,88.4383004 176.896552,90 C176.896552,137.99164 137.99164,176.896552 90,176.896552 C42.0083597,176.896552 3.10344828,137.99164 3.10344828,90 C3.10344828,88.4383004 3.14464553,86.8862231 3.22601253,85.3447955 C5.64486759,131.171904 43.5699258,167.586207 90,167.586207 C136.071975,167.586207 173.76962,131.731441 176.711717,86.4031273 L176.773987,85.3447955 Z M90,12.4137931 C131.992685,12.4137931 166.034483,46.4555906 166.034483,88.4482759 C166.034483,111.924743 155.394751,132.916168 138.674255,146.863941 C152.644688,133.834366 161.37931,115.264809 161.37931,94.6551724 C161.37931,55.2334678 129.421705,23.2758621 90,23.2758621 C50.5782954,23.2758621 18.6206897,55.2334678 18.6206897,94.6551724 C18.6206897,115.264809 27.3553116,133.834366 41.3246542,146.863941 C24.605249,132.916168 13.9655172,111.924743 13.9655172,88.4482759 C13.9655172,46.4555906 48.0073148,12.4137931 90,12.4137931 Z" id="shadows" fill-opacity="0.0524475524" fill="#000000"></path>
                </g>
                <path d="M90,21.7241379 C127.712452,21.7241379 158.275862,52.2975352 158.275862,90 C158.275862,127.703367 127.712915,158.275862 90,158.275862 C52.6642141,158.275862 22.3361119,128.31176 21.7332833,91.1289383 L21.7241379,90 C21.7241379,52.2975352 52.2875475,21.7241379 90,21.7241379 Z M90,24.8275862 C54.0065688,24.8275862 24.8275862,54.0065688 24.8275862,90 C24.8275862,125.994789 54.0065688,155.172414 90,155.172414 C125.993431,155.172414 155.172414,125.994789 155.172414,90 C155.172414,54.0065688 125.993431,24.8275862 90,24.8275862 Z" id="inside-shadow-outer" fill="#000000" opacity="0.256138393"></path>
                <path d="M90.3458332,35.6896552 C60.0055841,35.6896552 35.6896552,60.0055841 35.6896552,90.3458332 C35.6896552,120.107625 60.1182912,144.310345 90.3458332,144.310345 C119.994897,144.310345 144.310345,119.995366 144.310345,90.3458332 C144.310345,60.1187772 120.106677,35.6896552 90.3458332,35.6896552 Z M90.3436704,38.7931034 C118.280431,38.7931034 141.206897,61.7195689 141.206897,90.3436704 C141.206897,118.281853 118.280431,141.206897 90.3436704,141.206897 C61.7195689,141.206897 38.7931034,118.281853 38.7931034,90.3436704 C38.7931034,61.7195689 61.7195689,38.7931034 90.3436704,38.7931034 Z" id="inside-shadow" fill-opacity="0.25" fill="#000000"></path>
                <path d="M90.3436704,38.7931034 C118.280431,38.7931034 141.206897,61.7195689 141.206897,90.3436704 C141.206897,118.281853 118.280431,141.206897 90.3436704,141.206897 C61.7195689,141.206897 38.7931034,118.281853 38.7931034,90.3436704 C38.7931034,61.7195689 61.7195689,38.7931034 90.3436704,38.7931034 L90.3436704,38.7931034 Z" id="inside" fill="#F7F7F7"></path>
                <g id="bevel" transform="translate(63.620690, 63.620690)">
                    <path d="M49.6551724,26.3793103 C49.6551724,39.2340564 39.2342087,49.6551724 26.3793103,49.6551724 C13.5244121,49.6551724 3.10344828,39.2340564 3.10344828,26.3793103 C3.10344828,13.5245642 13.5244121,3.10344828 26.3793103,3.10344828 C39.2342087,3.10344828 49.6551724,13.5245642 49.6551724,26.3793103 Z" id="Path" fill-opacity="0.05" fill="#000000"></path>
                    <path d="M26.3793103,0 C11.8104755,0 0,11.8105288 0,26.3793103 C0,40.9480918 11.8104755,52.7586207 26.3793103,52.7586207 C40.9481452,52.7586207 52.7586207,40.9480918 52.7586207,26.3793103 C52.7586207,11.8105288 40.9481452,0 26.3793103,0 Z M26.3793103,3.10344828 C39.2342087,3.10344828 49.6551724,13.5245642 49.6551724,26.3793103 C49.6551724,39.2340564 39.2342087,49.6551724 26.3793103,49.6551724 C13.5244121,49.6551724 3.10344828,39.2340564 3.10344828,26.3793103 C3.10344828,13.5245642 13.5244121,3.10344828 26.3793103,3.10344828 Z" id="bevel-outside" fill="#FFFFFF"></path>
                    <path d="M26.3793103,3.10344828 C39.2342087,3.10344828 49.6551724,13.5245642 49.6551724,26.3793103 C49.6551724,39.2340564 39.2342087,49.6551724 26.3793103,49.6551724 C13.5244121,49.6551724 3.10344828,39.2340564 3.10344828,26.3793103 C3.10344828,13.5245642 13.5244121,3.10344828 26.3793103,3.10344828 Z M26.3793103,6.20689655 C15.2384535,6.20689655 6.20689655,15.2384942 6.20689655,26.3793103 C6.20689655,37.5201265 15.2384535,46.5517241 26.3793103,46.5517241 C37.5201672,46.5517241 46.5517241,37.5201265 46.5517241,26.3793103 C46.5517241,15.2384942 37.5201672,6.20689655 26.3793103,6.20689655 Z" id="bevel-inside" fill-opacity="0.15" fill="#000000"></path>
                </g>
                <path d="M98.6537329,49.6551724 L81.3462671,49.6551724 C77.5103204,49.6551724 74.4827586,53.0139804 74.4827586,57.0603388 L74.4827586,73.8063514 C74.4827586,75.3294449 75.0321861,76.8010058 76.0278573,77.9056136 L78.5718605,80.7279568 C78.6311849,80.793772 78.6311849,80.9785952 78.5718605,81.0444103 L76.0278573,83.8667536 C75.0321861,84.9713614 74.4827586,86.4429222 74.4827586,87.9660157 L74.4827586,122.939661 C74.4827586,126.98602 77.5103204,130.344828 81.3462671,130.344828 L98.6537329,130.344828 C102.48968,130.344828 105.517241,126.98602 105.517241,122.939661 L105.517241,106.193649 C105.517241,104.670555 104.967814,103.198994 103.972143,102.094386 L101.428139,99.2720432 C101.368815,99.206228 101.368815,99.0214048 101.428139,98.9555897 L103.972143,96.1332464 C104.967814,95.0286386 105.517241,93.5570778 105.517241,92.0339843 L105.517241,57.0603388 C105.517241,53.0139804 102.48968,49.6551724 98.6537329,49.6551724 Z M98.4564549,52.8171763 C100.642032,52.8171763 102.413793,54.8248177 102.413793,57.3013688 L102.413793,92.0197705 C102.413793,92.8126251 102.135838,93.5730064 101.641075,94.1336392 L99.1677384,96.9362593 C98.1374473,98.1037168 98.1374473,99.9965393 99.1677384,101.163997 L101.641075,103.966617 C102.135838,104.52725 102.413793,105.287631 102.413793,106.080485 L102.413793,122.698631 C102.413793,125.175182 100.642032,127.182824 98.4564549,127.182824 L81.5435451,127.182824 C79.3579676,127.182824 77.5862069,125.175182 77.5862069,122.698631 L77.5862069,87.9802295 C77.5862069,87.1873749 77.864162,86.4269936 78.3589252,85.8663608 L80.8322616,83.0637407 C81.8625528,81.8962832 81.8625528,80.0034607 80.8322616,78.8360034 L78.3589252,76.0333831 C77.864162,75.4727504 77.5862069,74.7123691 77.5862069,73.9195146 L77.5862069,57.3013688 C77.5862069,54.8248177 79.3579676,52.8171763 81.5435451,52.8171763 L98.4564549,52.8171763 Z" id="keyhole-outer" fill="#FFFFFF"></path>
                <path d="M77.5862069,73.8941909 L77.5862069,57.2498749 C77.5862069,54.7694237 79.3579676,52.7586207 81.5435451,52.7586207 L98.4564549,52.7586207 C100.642032,52.7586207 102.413793,54.7694237 102.413793,57.2498749 L102.413793,92.0229513 C102.413793,92.8170543 102.135838,93.5786331 101.641075,94.1401488 L99.1677384,96.9471827 C98.1374473,98.1164785 98.1374473,100.012282 99.1677384,101.181578 L101.641075,103.988612 C102.135838,104.550127 102.413793,105.311706 102.413793,106.105809 L102.413793,122.750125 C102.413793,125.230576 100.642032,127.241379 98.4564549,127.241379 L81.5435451,127.241379 C79.3579676,127.241379 77.5862069,125.230576 77.5862069,122.750125 L77.5862069,87.9770487 C77.5862069,87.1829457 77.864162,86.4213669 78.3589252,85.8598512 L80.8322616,83.0528173 C81.8625528,81.8835215 81.8625528,79.9877182 80.8322616,78.8184223 L78.3589252,76.0113884 C77.864162,75.4498727 77.5862069,74.6882941 77.5862069,73.8941909 Z" id="Path" fill="#0A2D4D"></path>
                <path d="M98.4564549,52.7586207 C100.642032,52.7586207 102.413793,54.7694237 102.413793,57.2498749 L102.413793,92.0229513 C102.413793,92.8170543 102.135838,93.5786331 101.641075,94.1401488 L99.1677384,96.9471827 C98.1374473,98.1164785 98.1374473,100.012282 99.1677384,101.181578 L101.641075,103.988612 C102.135838,104.550127 102.413793,105.311706 102.413793,106.105809 L102.413793,122.750125 C102.413793,125.230576 100.642032,127.241379 98.4564549,127.241379 L81.5435451,127.241379 C79.3579676,127.241379 77.5862069,125.230576 77.5862069,122.750125 L77.5862069,87.9770487 C77.5862069,87.1829457 77.864162,86.4213669 78.3589252,85.8598512 L80.8322616,83.0528173 C81.8625528,81.8835215 81.8625528,79.9877182 80.8322616,78.8184223 L78.3589252,76.0113884 C77.864162,75.4498727 77.5862069,74.6882941 77.5862069,73.8941909 L77.5862069,57.2498749 C77.5862069,54.7694237 79.3579676,52.7586207 81.5435451,52.7586207 L98.4564549,52.7586207 Z M98.0093896,55.9464182 L81.9906105,55.9256041 C81.3631094,55.9256041 80.7736671,56.514003 80.6978636,57.3476439 L80.6896552,57.5299099 L80.6896552,74.0256669 C80.6896552,74.0741839 80.6997796,74.1166195 80.713207,74.1466943 L80.7349725,74.1817508 L83.3260868,76.9658701 C85.3520144,79.1427035 85.421874,82.5535744 83.5356655,84.8155138 L83.3260868,85.0533595 L80.7349725,87.8374788 C80.7199476,87.8536227 80.7048149,87.8852674 80.6963958,87.9261331 L80.6896552,87.9935627 L80.6896552,122.47009 C80.6896552,123.337015 81.2372642,123.983209 81.8569018,124.065515 L81.9906105,124.074396 L98.0093896,124.09521 C98.6368905,124.09521 99.2263329,123.506811 99.3021364,122.67317 L99.3103448,122.490904 L99.3103448,105.995147 C99.3103448,105.94663 99.3002203,105.904195 99.2867931,105.87412 L99.2650275,105.839063 L96.6739132,103.054944 C94.6479856,100.878111 94.5781261,97.4672396 96.4643346,95.2053002 L96.6739132,94.9674546 L99.2650275,92.1833353 C99.2800524,92.1671913 99.2951851,92.1355467 99.3036041,92.0946809 L99.3103448,92.0272514 L99.3103448,57.550724 C99.3103448,56.6837993 98.7627358,56.0376054 98.1430982,55.9552992 L98.0093896,55.9464182 Z" id="keyhole-shadow" fill-opacity="0.4" fill="#000000"></path>
            </g>
        </g>
    </g>
</svg>