<?xml version="1.0" encoding="UTF-8"?>
<svg width="180px" height="180px" viewBox="0 0 180 180" version="1.1" xmlns="http://www.w3.org/2000/svg" xmlns:xlink="http://www.w3.org/1999/xlink">
    <title>Logo</title>
    <g id="Page-1" stroke="none" stroke-width="1" fill="none" fill-rule="evenodd">
        <g id="Logo">
            <rect id="Background" fill="#FFFFFF" x="0" y="0" width="180" height="180"></rect>
            <path d="M67.9771908,146.898101 L70.0629456,133.577957 L65.416857,133.469695 L43.2312858,133.469695 L58.6491212,35.1805017 C58.6969779,34.8837857 58.8525122,34.607118 59.0798315,34.4106439 C59.3071509,34.2141697 59.5982792,34.1059085 59.9013717,34.1059085 L97.3093643,34.1059085 C109.728179,34.1059085 118.298518,36.7041787 122.77312,41.8325546 C124.870839,44.2383603 126.206839,46.7524273 126.852904,49.519104 C127.530874,52.4221096 127.542838,55.8904795 126.88082,60.1206879 L126.832964,60.429433 L126.832964,63.1399742 L128.930683,64.3348577 C130.697393,65.2771316 132.101189,66.3557345 133.177965,67.5907148 C134.972592,69.6476787 136.133117,72.2619876 136.623648,75.3614673 C137.130132,78.54916 136.962633,82.3423137 136.133117,86.6366769 C135.175983,91.5765981 133.628616,95.8789807 131.538873,99.3994764 C129.616629,102.643305 127.167961,105.333797 124.260666,107.418829 C121.484977,109.399609 118.186852,110.903238 114.458017,111.86556 C110.844836,112.811843 106.725171,113.288995 102.206701,113.288995 L99.2954176,113.288995 C97.2136508,113.288995 95.191705,114.042814 93.6044576,115.394075 C92.0132221,116.773404 90.9603746,118.657951 90.6373418,120.718925 L90.4179986,121.917818 L86.7330323,145.394473 L86.5655338,146.256553 C86.5216651,146.529211 86.445892,146.66554 86.3342264,146.757763 C86.2345249,146.841966 86.0909548,146.898101 85.9513727,146.898101 L67.9771908,146.898101 L67.9771908,146.898101 Z" id="path3349" fill="#253B80" fill-rule="nonzero"></path>
            <path d="M130.916736,60.7421878 L130.916736,60.7421878 L130.916736,60.7421878 C130.80507,61.4599198 130.677452,62.1936906 130.533882,62.9475097 C125.600654,88.4129635 108.723189,97.2101932 87.1677307,97.2101932 L76.192592,97.2101932 C73.5564851,97.2101932 71.3351363,99.1348378 70.9243663,101.749147 L70.9243663,101.749147 L70.9243663,101.749147 L65.3051914,137.579614 L63.7139559,147.736124 C63.446756,149.452265 64.7628154,151 66.4856568,151 L85.9513727,151 C88.2564707,151 90.2146076,149.315936 90.577521,147.030421 L90.7689478,146.036021 L94.4339738,122.651589 L94.6692693,121.368493 C95.0281946,119.074958 96.9903196,117.390894 99.2954176,117.390894 L102.206701,117.390894 C121.066231,117.390894 135.830024,109.692315 140.145104,87.4145541 C141.947707,78.1080956 141.014501,70.337343 136.244783,64.8721543 C134.801105,63.2241774 133.010467,61.8568778 130.916736,60.7421878 Z" id="path3351" fill="#179BD7" fill-rule="nonzero"></path>
            <path d="M125.756188,58.6731948 C125.002445,58.4526626 124.224773,58.2521788 123.427162,58.0717434 C122.625562,57.8953176 121.804022,57.7389403 120.958553,57.6026113 C117.999413,57.1214501 114.757122,56.8928986 111.283522,56.8928986 L81.9633139,56.8928986 C81.2414752,56.8928986 80.5555291,57.0572953 79.9413681,57.3540113 C78.5894153,58.0075886 77.5844245,59.2946946 77.3411529,60.8704974 L71.1038289,100.59035 L70.9243663,101.749147 C71.3351363,99.1348378 73.5564851,97.2101932 76.192592,97.2101932 L87.1677307,97.2101932 C108.723189,97.2101932 125.600654,88.4089538 130.533882,62.9475097 C130.681441,62.1936906 130.80507,61.4599198 130.916736,60.7421878 C129.668474,60.0765815 128.316522,59.5072075 126.86088,59.0220367 C126.501955,58.9017464 126.131065,58.7854658 125.756188,58.6731948 L125.756188,58.6731948 Z" id="path3353" fill="#222D65" fill-rule="nonzero"></path>
            <path d="M77.3411529,60.8704974 C77.5844245,59.2946946 78.5894153,58.0075886 79.9413681,57.358021 C80.5595172,57.061305 81.2414752,56.8969082 81.9633139,56.8969082 L111.283522,56.8969082 C114.757122,56.8969082 117.999413,57.1254598 120.958553,57.6066209 C121.804022,57.7429499 122.625562,57.8993273 123.427162,58.0757531 C124.224773,58.2561885 125.002445,58.4566723 125.756188,58.6772045 C126.131065,58.7894754 126.501955,58.905756 126.864868,59.0220367 C128.32051,59.5072075 129.672462,60.0805912 130.920724,60.7421878 C132.38833,51.3314776 130.90876,44.924015 125.847913,39.1220135 C120.268619,32.7345992 110.19877,30 97.3133523,30 L59.9053597,30 C57.2732409,30 55.0279638,31.9246446 54.6211818,34.5429632 L39.039836,133.842595 C38.7327555,135.807337 40.2402417,137.579614 42.2103428,137.579614 L65.3051914,137.579614 L71.1038289,100.59035 L77.3411529,60.8704974 Z" id="path3355" fill="#253B80" fill-rule="nonzero"></path>
        </g>
    </g>
</svg>