<?xml version="1.0" encoding="UTF-8"?>
<svg width="180px" height="180px" viewBox="0 0 180 180" version="1.1" xmlns="http://www.w3.org/2000/svg" xmlns:xlink="http://www.w3.org/1999/xlink">
    <title>Logo</title>
    <g id="Page-1" stroke="none" stroke-width="1" fill="none" fill-rule="evenodd">
        <g id="Logo">
            <rect id="Background" fill="#FFFC00" x="0" y="0" width="180" height="180"></rect>
            <path d="M137.195547,115.955693 C120.161332,107.735713 117.446425,95.0443332 117.325575,94.1029858 C117.179431,92.9627228 117.013614,92.0662015 118.275512,90.906327 C119.492442,89.7856754 124.891341,86.4545384 126.389318,85.4123324 C128.865336,83.6865288 129.955795,81.9635269 129.152003,79.8454953 C128.58991,78.3802433 127.221215,77.8283224 125.779448,77.8283224 C125.324665,77.8297091 124.871385,77.8804372 124.427615,77.9796104 C121.707087,78.5679525 119.065252,79.9267426 117.53636,80.293756 C117.352644,80.3409769 117.163968,80.366368 116.974268,80.3694 C116.159233,80.3694 115.850082,80.0079898 115.928775,79.0302213 C116.119887,76.0660977 116.524593,70.2807336 116.055246,64.8763911 C115.41165,57.4408675 113.005894,53.7567252 110.153274,50.4984306 C108.773337,48.9183118 102.365482,42.1299645 89.9994455,42.1299645 C77.6334091,42.1299645 71.2339853,48.9183118 69.8624794,50.4788192 C67.0014283,53.7371138 64.5984826,57.4212561 63.9605075,64.8567797 C63.4911602,70.2611222 63.9127296,76.0436847 64.0869783,79.0106099 C64.1431876,79.9407507 63.8565204,80.3497886 63.0414862,80.3497886 C62.851801,80.346549 62.6631502,80.3211612 62.4793936,80.2741446 C60.9533123,79.9071312 58.3114772,78.5483411 55.5909492,77.959999 C55.1471794,77.8608258 54.6938992,77.8100977 54.2391166,77.808711 C52.7917283,77.808711 51.4286538,78.3690368 50.8665613,79.8258839 C50.0627689,81.9439155 51.1476075,83.6669174 53.6320567,85.392721 C55.1300333,86.434927 60.5289324,89.7632623 61.7458628,90.8867156 C63.0049501,92.0465901 62.8419433,92.9431114 62.6957992,94.0833744 C62.5749493,95.0387299 59.8572318,107.73011 42.8258271,115.936081 C41.8281129,116.417962 40.1305933,117.437755 43.1237362,119.085112 C47.82283,121.673818 50.9508751,121.396456 53.3819255,122.956964 C55.4448052,124.282134 54.2250643,127.139796 55.7258515,128.170796 C57.5695151,129.439934 63.0190025,128.081143 70.0592118,130.398091 C75.9611837,132.336818 79.5473343,137.814003 90.0134978,137.814003 C100.479661,137.814003 104.169799,132.311603 109.967784,130.398091 C116.993941,128.081143 122.45467,129.439934 124.301144,128.170796 C125.799121,127.139796 124.58219,124.282134 126.64507,122.956964 C129.07612,121.396456 132.201355,121.673818 136.903259,119.085112 C139.890781,117.457366 138.193262,116.437573 137.195547,115.955693 Z" id="Path" fill="#FFFFFF" fill-rule="nonzero"></path>
            <path d="M144.606738,114.989131 C143.842292,112.915925 142.386472,111.80648 140.728299,110.887546 C140.416338,110.70544 140.129671,110.559755 139.88516,110.44769 C139.390519,110.192742 138.884636,109.946198 138.381563,109.685647 C133.213122,106.954058 129.177297,103.508055 126.378076,99.4232795 C125.583144,98.2733222 124.893671,97.0543637 124.318007,95.7811616 C124.079118,95.1003658 124.090359,94.713741 124.261798,94.3607357 C124.431836,94.088768 124.65675,93.8550202 124.922256,93.6743366 C125.810363,93.0887961 126.726573,92.4948507 127.347686,92.0942177 C128.455008,91.3798023 129.331873,90.8138733 129.896776,90.4132403 C132.018675,88.9339801 133.502599,87.3622662 134.430052,85.6056448 C135.739416,83.1498945 135.912771,80.2479197 134.90502,77.6546214 C133.499789,73.9676775 130.006384,71.6787465 125.773827,71.6787465 C124.881065,71.6779021 123.990751,71.7718191 123.117939,71.9589094 C122.884671,72.0093388 122.651402,72.0625697 122.423755,72.1214039 C122.463101,69.5999377 122.406892,66.9383901 122.182055,64.3188669 C121.383884,55.1099121 118.149041,50.2827051 114.776486,46.4332668 C112.616789,44.0210418 110.072938,41.9802412 107.247256,40.3929544 C102.129403,37.4792602 96.3257973,36 89.9994455,36 C83.6730937,36 77.8975926,37.4792602 72.7741189,40.3929544 C69.9414975,41.9807236 67.3925161,44.0256171 65.2308367,46.4444733 C61.8582813,50.2939116 58.6234386,55.1295235 57.8252672,64.3300734 C57.6004302,66.9495966 57.5442209,69.6251524 57.5807569,72.1326104 C57.3531094,72.0737762 57.1226515,72.0205453 56.8893831,71.970116 C56.0165715,71.7830256 55.1262573,71.6891086 54.2334957,71.689953 C49.9981282,71.689953 46.499102,73.978884 45.0994916,77.6658279 C44.087205,80.2602076 44.25645,83.1651395 45.5632179,85.6252562 C46.4934811,87.3818776 47.9774055,88.9535915 50.0993049,90.4328517 C50.6613975,90.8250798 51.5410723,91.3910088 52.6483947,92.1138292 C53.2470233,92.500454 54.1210772,93.066383 54.9782684,93.6323121 C55.2781742,93.8255975 55.5330833,94.0806607 55.7258515,94.3803471 C55.9057211,94.7473605 55.911342,95.1423902 55.644348,95.8708138 C55.0764614,97.1172531 54.3983342,98.3107934 53.6180044,99.4372876 C50.8806136,103.429609 46.9628284,106.813977 41.9602046,109.523152 C39.3099382,110.923967 36.5556846,111.859711 35.392153,115.011544 C34.5152886,117.390127 35.088623,120.096501 37.31732,122.377027 L37.31732,122.377027 C38.1352706,123.228203 39.0839698,123.944111 40.1277828,124.49786 C42.299681,125.687687 44.6091632,126.608764 47.0049854,127.240655 C47.4993985,127.367777 47.9687684,127.577098 48.393354,127.859815 C49.2055777,128.568627 49.0903488,129.636048 50.1723769,131.199357 C50.7155327,132.007309 51.40569,132.7067 52.207152,133.261356 C54.478006,134.824665 57.0299062,134.922722 59.7335714,135.026382 C62.1758636,135.118836 64.9441695,135.225298 68.1059402,136.264702 C69.4156158,136.696153 70.7758798,137.531038 72.3525495,138.506005 C76.1382429,140.825754 81.3207363,144 89.9938245,144 C98.6669128,144 103.885942,140.808944 107.69974,138.480791 C109.265168,137.522634 110.617001,136.696153 111.89014,136.275909 C115.051911,135.233703 117.820217,135.130042 120.262509,135.037589 C122.966174,134.933928 125.518074,134.835871 127.788928,133.272562 C128.738111,132.612779 129.528978,131.751683 130.10475,130.751096 C130.883248,129.431529 130.863575,128.509793 131.594295,127.865418 C131.992626,127.596176 132.433421,127.395411 132.89835,127.271473 C135.326875,126.637619 137.667821,125.707948 139.868298,124.503463 C140.977292,123.91039 141.975543,123.131359 142.819284,122.200524 L142.847388,122.166904 C144.938373,119.936808 145.463929,117.30888 144.606738,114.989131 Z M136.897638,119.118732 C132.195734,121.707437 129.070499,121.430076 126.639449,122.990583 C124.573759,124.315754 125.79631,127.173416 124.295523,128.204415 C122.45186,129.473553 117.002372,128.114763 109.962163,130.43171 C104.155747,132.345223 100.451557,137.847623 90.0078769,137.847623 C79.564197,137.847623 75.9471314,132.356429 70.0451595,130.417702 C63.0190025,128.100755 57.5582732,129.459545 55.7117991,128.190407 C54.2138225,127.159408 55.4307529,124.301746 53.3678732,122.976575 C50.9340124,121.416068 47.8087777,121.693429 43.1096839,119.118732 C40.116541,117.471374 41.8140605,116.451581 42.8117748,115.969701 C59.8431795,107.749721 62.560897,95.0583413 62.6817469,94.116994 C62.827891,92.9767309 62.9908978,92.0802096 61.7318105,90.9203352 C60.5148801,89.7996835 55.115981,86.4685465 53.6180044,85.4263405 C51.1391761,83.700537 50.0487166,81.9775351 50.8525089,79.8595035 C51.4146015,78.3942515 52.7861074,77.8423305 54.2250643,77.8423305 C54.6798469,77.8437173 55.1331271,77.8944453 55.5768969,77.9936185 C58.2974249,78.5819606 60.93926,79.9407507 62.4653413,80.3077641 C62.6490979,80.3547807 62.8377487,80.3801685 63.0274338,80.3834081 C63.8424681,80.3834081 64.1291353,79.9743703 64.072926,79.0442294 C63.8986773,76.0773042 63.4771079,70.2947418 63.9464552,64.8903992 C64.5900512,57.4548756 66.9929969,53.7707334 69.8484271,50.5124387 C71.2199329,48.9463281 77.6643242,42.1579808 89.9882036,42.1579808 C102.312083,42.1579808 108.773337,48.9183118 110.144843,50.4788192 C113.003084,53.7371138 115.40884,57.4212561 116.046815,64.8567797 C116.516162,70.2611222 116.111455,76.0464863 115.920344,79.0106099 C115.855703,79.9883784 116.150802,80.3497886 116.965836,80.3497886 C117.155537,80.3467566 117.344212,80.3213655 117.527929,80.2741446 C119.05682,79.9071312 121.698656,78.5483411 124.419184,77.959999 C124.862953,77.8608258 125.316234,77.8100977 125.771016,77.808711 C127.218404,77.808711 128.581479,78.3690368 129.143572,79.8258839 C129.947364,81.9439155 128.862525,83.6669174 126.380887,85.392721 C124.88291,86.434927 119.484011,89.7632623 118.26708,90.8867156 C117.005183,92.0465901 117.171,92.9431114 117.317144,94.0833744 C117.437994,95.0387299 120.152901,107.73011 137.187116,115.936081 C138.193262,116.437573 139.890781,117.457366 136.897638,119.118732 Z" id="Shape" fill="#000000" fill-rule="nonzero"></path>
        </g>
    </g>
</svg>